G04 #@! TF.GenerationSoftware,KiCad,Pcbnew,10.0.0*
G04 #@! TF.CreationDate,2026-06-29T05:34:33-04:00*
G04 #@! TF.ProjectId,ethdemo,65746864-656d-46f2-9e6b-696361645f70,rev?*
G04 #@! TF.SameCoordinates,Original*
G04 #@! TF.FileFunction,Paste,Bot*
G04 #@! TF.FilePolarity,Positive*
%FSLAX46Y46*%
G04 Gerber Fmt 4.6, Leading zero omitted, Abs format (unit mm)*
G04 Created by KiCad (PCBNEW 10.0.0) date 2026-06-29 05:34:33*
%MOMM*%
%LPD*%
G01*
G04 APERTURE LIST*
G04 Aperture macros list*
%AMRoundRect*
0 Rectangle with rounded corners*
0 $1 Rounding radius*
0 $2 $3 $4 $5 $6 $7 $8 $9 X,Y pos of 4 corners*
0 Add a 4 corners polygon primitive as box body*
4,1,4,$2,$3,$4,$5,$6,$7,$8,$9,$2,$3,0*
0 Add four circle primitives for the rounded corners*
1,1,$1+$1,$2,$3*
1,1,$1+$1,$4,$5*
1,1,$1+$1,$6,$7*
1,1,$1+$1,$8,$9*
0 Add four rect primitives between the rounded corners*
20,1,$1+$1,$2,$3,$4,$5,0*
20,1,$1+$1,$4,$5,$6,$7,0*
20,1,$1+$1,$6,$7,$8,$9,0*
20,1,$1+$1,$8,$9,$2,$3,0*%
G04 Aperture macros list end*
%ADD10RoundRect,0.200000X-0.200000X-0.275000X0.200000X-0.275000X0.200000X0.275000X-0.200000X0.275000X0*%
%ADD11RoundRect,0.200000X0.275000X-0.200000X0.275000X0.200000X-0.275000X0.200000X-0.275000X-0.200000X0*%
%ADD12RoundRect,0.225000X0.250000X-0.225000X0.250000X0.225000X-0.250000X0.225000X-0.250000X-0.225000X0*%
%ADD13RoundRect,0.225000X-0.225000X-0.250000X0.225000X-0.250000X0.225000X0.250000X-0.225000X0.250000X0*%
%ADD14RoundRect,0.200000X-0.275000X0.200000X-0.275000X-0.200000X0.275000X-0.200000X0.275000X0.200000X0*%
%ADD15RoundRect,0.225000X0.225000X0.250000X-0.225000X0.250000X-0.225000X-0.250000X0.225000X-0.250000X0*%
%ADD16RoundRect,0.225000X-0.250000X0.225000X-0.250000X-0.225000X0.250000X-0.225000X0.250000X0.225000X0*%
%ADD17RoundRect,0.200000X0.200000X0.275000X-0.200000X0.275000X-0.200000X-0.275000X0.200000X-0.275000X0*%
G04 APERTURE END LIST*
D10*
G04 #@! TO.C,R15*
X221750000Y-76233347D03*
X223400000Y-76233347D03*
G04 #@! TD*
D11*
G04 #@! TO.C,R13*
X225075000Y-75383347D03*
X225075000Y-73733347D03*
G04 #@! TD*
G04 #@! TO.C,R35*
X203675000Y-74258347D03*
X203675000Y-72608347D03*
G04 #@! TD*
D10*
G04 #@! TO.C,R39*
X204500000Y-66458347D03*
X206150000Y-66458347D03*
G04 #@! TD*
G04 #@! TO.C,R38*
X204500000Y-64883347D03*
X206150000Y-64883347D03*
G04 #@! TD*
D11*
G04 #@! TO.C,R43*
X230725000Y-74258347D03*
X230725000Y-72608347D03*
G04 #@! TD*
D12*
G04 #@! TO.C,C31*
X209025000Y-63558347D03*
X209025000Y-62008347D03*
G04 #@! TD*
D13*
G04 #@! TO.C,C30*
X216504968Y-71569531D03*
X218054968Y-71569531D03*
G04 #@! TD*
D14*
G04 #@! TO.C,R22*
X213550000Y-67833347D03*
X213550000Y-69483347D03*
G04 #@! TD*
D13*
G04 #@! TO.C,C16*
X221800000Y-74633347D03*
X223350000Y-74633347D03*
G04 #@! TD*
D10*
G04 #@! TO.C,R14*
X221775000Y-77858347D03*
X223425000Y-77858347D03*
G04 #@! TD*
D15*
G04 #@! TO.C,C27*
X218048518Y-68483347D03*
X216498518Y-68483347D03*
G04 #@! TD*
D11*
G04 #@! TO.C,R12*
X226625000Y-75383347D03*
X226625000Y-73733347D03*
G04 #@! TD*
D10*
G04 #@! TO.C,R41*
X207725000Y-65908347D03*
X209375000Y-65908347D03*
G04 #@! TD*
D11*
G04 #@! TO.C,R36*
X207900000Y-75683347D03*
X207900000Y-74033347D03*
G04 #@! TD*
D12*
G04 #@! TO.C,C8*
X187850000Y-60955000D03*
X187850000Y-59405000D03*
G04 #@! TD*
G04 #@! TO.C,C22*
X210575000Y-63558347D03*
X210575000Y-62008347D03*
G04 #@! TD*
D13*
G04 #@! TO.C,C29*
X216525000Y-73183347D03*
X218075000Y-73183347D03*
G04 #@! TD*
D10*
G04 #@! TO.C,R40*
X204500000Y-68033347D03*
X206150000Y-68033347D03*
G04 #@! TD*
D15*
G04 #@! TO.C,C15*
X225125000Y-72233347D03*
X223575000Y-72233347D03*
G04 #@! TD*
D12*
G04 #@! TO.C,C1*
X189390000Y-60955000D03*
X189390000Y-59405000D03*
G04 #@! TD*
D11*
G04 #@! TO.C,R21*
X211925000Y-69483347D03*
X211925000Y-67833347D03*
G04 #@! TD*
G04 #@! TO.C,R42*
X210000000Y-70608347D03*
X210000000Y-68958347D03*
G04 #@! TD*
D16*
G04 #@! TO.C,C32*
X212404920Y-74055481D03*
X212404920Y-75605481D03*
G04 #@! TD*
D17*
G04 #@! TO.C,R16*
X218098518Y-70033347D03*
X216448518Y-70033347D03*
G04 #@! TD*
D12*
G04 #@! TO.C,C28*
X214100000Y-75608347D03*
X214100000Y-74058347D03*
G04 #@! TD*
G04 #@! TO.C,C23*
X210708803Y-75609484D03*
X210708803Y-74059484D03*
G04 #@! TD*
M02*
