G04 #@! TF.GenerationSoftware,KiCad,Pcbnew,10.0.0*
G04 #@! TF.CreationDate,2026-06-29T05:34:33-04:00*
G04 #@! TF.ProjectId,ethdemo,65746864-656d-46f2-9e6b-696361645f70,rev?*
G04 #@! TF.SameCoordinates,Original*
G04 #@! TF.FileFunction,Copper,L4,Bot*
G04 #@! TF.FilePolarity,Positive*
%FSLAX46Y46*%
G04 Gerber Fmt 4.6, Leading zero omitted, Abs format (unit mm)*
G04 Created by KiCad (PCBNEW 10.0.0) date 2026-06-29 05:34:33*
%MOMM*%
%LPD*%
G01*
G04 APERTURE LIST*
G04 Aperture macros list*
%AMRoundRect*
0 Rectangle with rounded corners*
0 $1 Rounding radius*
0 $2 $3 $4 $5 $6 $7 $8 $9 X,Y pos of 4 corners*
0 Add a 4 corners polygon primitive as box body*
4,1,4,$2,$3,$4,$5,$6,$7,$8,$9,$2,$3,0*
0 Add four circle primitives for the rounded corners*
1,1,$1+$1,$2,$3*
1,1,$1+$1,$4,$5*
1,1,$1+$1,$6,$7*
1,1,$1+$1,$8,$9*
0 Add four rect primitives between the rounded corners*
20,1,$1+$1,$2,$3,$4,$5,0*
20,1,$1+$1,$4,$5,$6,$7,0*
20,1,$1+$1,$6,$7,$8,$9,0*
20,1,$1+$1,$8,$9,$2,$3,0*%
G04 Aperture macros list end*
G04 #@! TA.AperFunction,ComponentPad*
%ADD10C,1.524000*%
G04 #@! TD*
G04 #@! TA.AperFunction,ComponentPad*
%ADD11C,1.371600*%
G04 #@! TD*
G04 #@! TA.AperFunction,ComponentPad*
%ADD12C,1.714500*%
G04 #@! TD*
G04 #@! TA.AperFunction,ComponentPad*
%ADD13C,2.362200*%
G04 #@! TD*
G04 #@! TA.AperFunction,ComponentPad*
%ADD14R,1.700000X1.700000*%
G04 #@! TD*
G04 #@! TA.AperFunction,ComponentPad*
%ADD15C,1.700000*%
G04 #@! TD*
G04 #@! TA.AperFunction,ComponentPad*
%ADD16O,1.000000X2.100000*%
G04 #@! TD*
G04 #@! TA.AperFunction,ComponentPad*
%ADD17O,1.000000X1.800000*%
G04 #@! TD*
G04 #@! TA.AperFunction,SMDPad,CuDef*
%ADD18RoundRect,0.200000X-0.200000X-0.275000X0.200000X-0.275000X0.200000X0.275000X-0.200000X0.275000X0*%
G04 #@! TD*
G04 #@! TA.AperFunction,SMDPad,CuDef*
%ADD19RoundRect,0.200000X0.275000X-0.200000X0.275000X0.200000X-0.275000X0.200000X-0.275000X-0.200000X0*%
G04 #@! TD*
G04 #@! TA.AperFunction,SMDPad,CuDef*
%ADD20RoundRect,0.225000X0.250000X-0.225000X0.250000X0.225000X-0.250000X0.225000X-0.250000X-0.225000X0*%
G04 #@! TD*
G04 #@! TA.AperFunction,SMDPad,CuDef*
%ADD21RoundRect,0.225000X-0.225000X-0.250000X0.225000X-0.250000X0.225000X0.250000X-0.225000X0.250000X0*%
G04 #@! TD*
G04 #@! TA.AperFunction,SMDPad,CuDef*
%ADD22RoundRect,0.200000X-0.275000X0.200000X-0.275000X-0.200000X0.275000X-0.200000X0.275000X0.200000X0*%
G04 #@! TD*
G04 #@! TA.AperFunction,SMDPad,CuDef*
%ADD23RoundRect,0.225000X0.225000X0.250000X-0.225000X0.250000X-0.225000X-0.250000X0.225000X-0.250000X0*%
G04 #@! TD*
G04 #@! TA.AperFunction,SMDPad,CuDef*
%ADD24RoundRect,0.225000X-0.250000X0.225000X-0.250000X-0.225000X0.250000X-0.225000X0.250000X0.225000X0*%
G04 #@! TD*
G04 #@! TA.AperFunction,SMDPad,CuDef*
%ADD25RoundRect,0.200000X0.200000X0.275000X-0.200000X0.275000X-0.200000X-0.275000X0.200000X-0.275000X0*%
G04 #@! TD*
G04 #@! TA.AperFunction,ViaPad*
%ADD26C,0.600000*%
G04 #@! TD*
G04 #@! TA.AperFunction,Conductor*
%ADD27C,0.200000*%
G04 #@! TD*
G04 #@! TA.AperFunction,Conductor*
%ADD28C,0.214000*%
G04 #@! TD*
G04 #@! TA.AperFunction,Conductor*
%ADD29C,0.335000*%
G04 #@! TD*
G04 #@! TA.AperFunction,Conductor*
%ADD30C,0.300000*%
G04 #@! TD*
G04 APERTURE END LIST*
D10*
G04 #@! TO.P,J1,4,TRD2+_4*
G04 #@! TO.N,/RX2+*
X233862048Y-57974347D03*
G04 #@! TO.P,J1,5,TRD2-_5*
G04 #@! TO.N,/RX2-*
X233862048Y-60006347D03*
G04 #@! TO.P,J1,6,TRCT2_6*
G04 #@! TO.N,+3.3V*
X233862048Y-62038347D03*
G04 #@! TO.P,J1,10,TRD1-_10*
G04 #@! TO.N,/TX2-*
X231322048Y-58990347D03*
G04 #@! TO.P,J1,11,TRD1+_11*
G04 #@! TO.N,/TX2+*
X231322048Y-61022347D03*
G04 #@! TO.P,J1,12,TRCT1_12*
G04 #@! TO.N,+3.3V*
X231322048Y-63054347D03*
D11*
G04 #@! TO.P,J1,13,VC12_13*
G04 #@! TO.N,unconnected-(J1-VC12-Pad13)*
X240974048Y-51370347D03*
G04 #@! TO.P,J1,14,VC36_14*
G04 #@! TO.N,unconnected-(J1-VC36-Pad14)*
X240974048Y-62546347D03*
G04 #@! TO.P,J1,15,VC45_15*
G04 #@! TO.N,unconnected-(J1-VC45-Pad15)*
X242498048Y-51370347D03*
G04 #@! TO.P,J1,16,VC78_16*
G04 #@! TO.N,unconnected-(J1-VC78-Pad16)*
X242498048Y-62546347D03*
D12*
G04 #@! TO.P,J1,17*
G04 #@! TO.N,/P2LED1*
X228782048Y-50862347D03*
G04 #@! TO.P,J1,18*
G04 #@! TO.N,Net-(J1-Pad18)*
X228782048Y-53402347D03*
G04 #@! TO.P,J1,19*
G04 #@! TO.N,/P2LED0*
X228782048Y-60514347D03*
G04 #@! TO.P,J1,20*
G04 #@! TO.N,Net-(J1-Pad20)*
X228782048Y-63054347D03*
D13*
G04 #@! TO.P,J1,S1,SHIELD_S1*
G04 #@! TO.N,Net-(C20-Pad1)*
X252277048Y-48893847D03*
G04 #@! TO.P,J1,S2,SHIELD_S2*
X252277048Y-65022847D03*
G04 #@! TD*
D10*
G04 #@! TO.P,J2,4,TRD2+_4*
G04 #@! TO.N,/D2+*
X233864000Y-79104000D03*
G04 #@! TO.P,J2,5,TRD2-_5*
G04 #@! TO.N,/D2-*
X233864000Y-81136000D03*
G04 #@! TO.P,J2,6,TRCT2_6*
G04 #@! TO.N,+3.3V*
X233864000Y-83168000D03*
G04 #@! TO.P,J2,10,TRD1-_10*
G04 #@! TO.N,/D1-*
X231324000Y-80120000D03*
G04 #@! TO.P,J2,11,TRD1+_11*
G04 #@! TO.N,/D1+*
X231324000Y-82152000D03*
G04 #@! TO.P,J2,12,TRCT1_12*
G04 #@! TO.N,+3.3V*
X231324000Y-84184000D03*
D11*
G04 #@! TO.P,J2,13,VC12_13*
G04 #@! TO.N,unconnected-(J2-VC12-Pad13)*
X240976000Y-72500000D03*
G04 #@! TO.P,J2,14,VC36_14*
G04 #@! TO.N,unconnected-(J2-VC36-Pad14)*
X240976000Y-83676000D03*
G04 #@! TO.P,J2,15,VC45_15*
G04 #@! TO.N,48V*
X242500000Y-72500000D03*
G04 #@! TO.P,J2,16,VC78_16*
G04 #@! TO.N,V-*
X242500000Y-83676000D03*
D12*
G04 #@! TO.P,J2,17*
G04 #@! TO.N,/P1LED1*
X228784000Y-71992000D03*
G04 #@! TO.P,J2,18*
G04 #@! TO.N,Net-(J2-Pad18)*
X228784000Y-74532000D03*
G04 #@! TO.P,J2,19*
G04 #@! TO.N,/P1LED0*
X228784000Y-81644000D03*
G04 #@! TO.P,J2,20*
G04 #@! TO.N,Net-(J2-Pad20)*
X228784000Y-84184000D03*
D13*
G04 #@! TO.P,J2,S1,SHIELD_S1*
G04 #@! TO.N,Net-(C21-Pad1)*
X252279000Y-70023500D03*
G04 #@! TO.P,J2,S2,SHIELD_S2*
X252279000Y-86152500D03*
G04 #@! TD*
D14*
G04 #@! TO.P,J3,1,Pin_1_1*
G04 #@! TO.N,+3.3V*
X192120000Y-78500000D03*
D15*
G04 #@! TO.P,J3,2,Pin_2_2*
G04 #@! TO.N,GND*
X189580000Y-78500000D03*
G04 #@! TO.P,J3,3,Pin_3_3*
G04 #@! TO.N,/SWO{slash}TRACE*
X187040000Y-78500000D03*
G04 #@! TO.P,J3,4,Pin_4_4*
G04 #@! TO.N,/SWCLK*
X184500000Y-78500000D03*
G04 #@! TO.P,J3,5,Pin_5_5*
G04 #@! TO.N,/SWDIO*
X181960000Y-78500000D03*
G04 #@! TD*
D16*
G04 #@! TO.P,J9,SH*
G04 #@! TO.N,N/C*
X195220000Y-44005000D03*
D17*
X195220000Y-39825000D03*
D16*
X186580000Y-44005000D03*
D17*
X186580000Y-39825000D03*
G04 #@! TD*
D18*
G04 #@! TO.P,R15,1*
G04 #@! TO.N,Net-(C16-Pad1)*
X221750000Y-76233347D03*
G04 #@! TO.P,R15,2*
G04 #@! TO.N,/D2+*
X223400000Y-76233347D03*
G04 #@! TD*
D19*
G04 #@! TO.P,R13,1*
G04 #@! TO.N,/D1-*
X225075000Y-75383347D03*
G04 #@! TO.P,R13,2*
G04 #@! TO.N,Net-(C15-Pad1)*
X225075000Y-73733347D03*
G04 #@! TD*
G04 #@! TO.P,R35,1*
G04 #@! TO.N,+3.3V*
X203675000Y-74258347D03*
G04 #@! TO.P,R35,2*
G04 #@! TO.N,/Lost Connect*
X203675000Y-72608347D03*
G04 #@! TD*
D18*
G04 #@! TO.P,R39,1*
G04 #@! TO.N,+3.3V*
X204500000Y-66458347D03*
G04 #@! TO.P,R39,2*
G04 #@! TO.N,Net-(U2-SMRXD33{slash}REFCLKO_3)*
X206150000Y-66458347D03*
G04 #@! TD*
G04 #@! TO.P,R38,1*
G04 #@! TO.N,+3.3V*
X204500000Y-64883347D03*
G04 #@! TO.P,R38,2*
G04 #@! TO.N,Net-(U2-SMRXDV3)*
X206150000Y-64883347D03*
G04 #@! TD*
D19*
G04 #@! TO.P,R43,1*
G04 #@! TO.N,Net-(J2-Pad18)*
X230725000Y-74258347D03*
G04 #@! TO.P,R43,2*
G04 #@! TO.N,+3.3V*
X230725000Y-72608347D03*
G04 #@! TD*
D20*
G04 #@! TO.P,C31,1*
G04 #@! TO.N,+3.3V*
X209025000Y-63558347D03*
G04 #@! TO.P,C31,2*
G04 #@! TO.N,GND*
X209025000Y-62008347D03*
G04 #@! TD*
D21*
G04 #@! TO.P,C30,1*
G04 #@! TO.N,+3.3V*
X216504968Y-71569531D03*
G04 #@! TO.P,C30,2*
G04 #@! TO.N,GND*
X218054968Y-71569531D03*
G04 #@! TD*
D22*
G04 #@! TO.P,R22,1*
G04 #@! TO.N,Net-(U2-SMTXD33{slash}EN_REFCLKO_3)*
X213550000Y-67833347D03*
G04 #@! TO.P,R22,2*
G04 #@! TO.N,GND*
X213550000Y-69483347D03*
G04 #@! TD*
D21*
G04 #@! TO.P,C16,1*
G04 #@! TO.N,Net-(C16-Pad1)*
X221800000Y-74633347D03*
G04 #@! TO.P,C16,2*
G04 #@! TO.N,GND*
X223350000Y-74633347D03*
G04 #@! TD*
D18*
G04 #@! TO.P,R14,1*
G04 #@! TO.N,Net-(C16-Pad1)*
X221775000Y-77858347D03*
G04 #@! TO.P,R14,2*
G04 #@! TO.N,/D2-*
X223425000Y-77858347D03*
G04 #@! TD*
D23*
G04 #@! TO.P,C27,1*
G04 #@! TO.N,GND*
X218048518Y-68483347D03*
G04 #@! TO.P,C27,2*
G04 #@! TO.N,+1.8V*
X216498518Y-68483347D03*
G04 #@! TD*
D19*
G04 #@! TO.P,R12,1*
G04 #@! TO.N,/D1+*
X226625000Y-75383347D03*
G04 #@! TO.P,R12,2*
G04 #@! TO.N,Net-(C15-Pad1)*
X226625000Y-73733347D03*
G04 #@! TD*
D18*
G04 #@! TO.P,R41,1*
G04 #@! TO.N,+3.3V*
X207725000Y-65908347D03*
G04 #@! TO.P,R41,2*
G04 #@! TO.N,Net-(U2-SMRXD31)*
X209375000Y-65908347D03*
G04 #@! TD*
D19*
G04 #@! TO.P,R36,1*
G04 #@! TO.N,+3.3V*
X207900000Y-75683347D03*
G04 #@! TO.P,R36,2*
G04 #@! TO.N,/Data*
X207900000Y-74033347D03*
G04 #@! TD*
D20*
G04 #@! TO.P,C8,1*
G04 #@! TO.N,+3.3V*
X187850000Y-60955000D03*
G04 #@! TO.P,C8,2*
G04 #@! TO.N,GND*
X187850000Y-59405000D03*
G04 #@! TD*
G04 #@! TO.P,C22,1*
G04 #@! TO.N,+3.3V*
X210575000Y-63558347D03*
G04 #@! TO.P,C22,2*
G04 #@! TO.N,GND*
X210575000Y-62008347D03*
G04 #@! TD*
D21*
G04 #@! TO.P,C29,1*
G04 #@! TO.N,+3.3V*
X216525000Y-73183347D03*
G04 #@! TO.P,C29,2*
G04 #@! TO.N,GND*
X218075000Y-73183347D03*
G04 #@! TD*
D18*
G04 #@! TO.P,R40,1*
G04 #@! TO.N,+3.3V*
X204500000Y-68033347D03*
G04 #@! TO.P,R40,2*
G04 #@! TO.N,Net-(U2-SMRXD32)*
X206150000Y-68033347D03*
G04 #@! TD*
D23*
G04 #@! TO.P,C15,1*
G04 #@! TO.N,Net-(C15-Pad1)*
X225125000Y-72233347D03*
G04 #@! TO.P,C15,2*
G04 #@! TO.N,GND*
X223575000Y-72233347D03*
G04 #@! TD*
D20*
G04 #@! TO.P,C1,1*
G04 #@! TO.N,+3.3V*
X189390000Y-60955000D03*
G04 #@! TO.P,C1,2*
G04 #@! TO.N,GND*
X189390000Y-59405000D03*
G04 #@! TD*
D19*
G04 #@! TO.P,R21,1*
G04 #@! TO.N,GND*
X211925000Y-69483347D03*
G04 #@! TO.P,R21,2*
G04 #@! TO.N,Net-(U2-SMTXD32)*
X211925000Y-67833347D03*
G04 #@! TD*
G04 #@! TO.P,R42,1*
G04 #@! TO.N,GND*
X210000000Y-70608347D03*
G04 #@! TO.P,R42,2*
G04 #@! TO.N,Net-(U2-SMRXD30)*
X210000000Y-68958347D03*
G04 #@! TD*
D24*
G04 #@! TO.P,C32,1*
G04 #@! TO.N,+1.8V*
X212404920Y-74055481D03*
G04 #@! TO.P,C32,2*
G04 #@! TO.N,GND*
X212404920Y-75605481D03*
G04 #@! TD*
D25*
G04 #@! TO.P,R16,1*
G04 #@! TO.N,GND*
X218098518Y-70033347D03*
G04 #@! TO.P,R16,2*
G04 #@! TO.N,Net-(U2-ISET)*
X216448518Y-70033347D03*
G04 #@! TD*
D20*
G04 #@! TO.P,C28,1*
G04 #@! TO.N,GND*
X214100000Y-75608347D03*
G04 #@! TO.P,C28,2*
G04 #@! TO.N,+1.8V*
X214100000Y-74058347D03*
G04 #@! TD*
G04 #@! TO.P,C23,1*
G04 #@! TO.N,GND*
X210708803Y-75609484D03*
G04 #@! TO.P,C23,2*
G04 #@! TO.N,+3.3V*
X210708803Y-74059484D03*
G04 #@! TD*
D26*
G04 #@! TO.N,GND*
X186130000Y-67112500D03*
X210970000Y-84570000D03*
X185600000Y-44900000D03*
X209520000Y-50940000D03*
X247350000Y-87340000D03*
X216020000Y-76580000D03*
X209775000Y-61000000D03*
X219110000Y-70458347D03*
X209640000Y-53295000D03*
X197100000Y-39900000D03*
X223560000Y-71160000D03*
X214290000Y-93520000D03*
X196340000Y-63870000D03*
X209025000Y-60808347D03*
X182200000Y-65672500D03*
X215000000Y-43500000D03*
X216330000Y-93170000D03*
X247330000Y-66320000D03*
X216000000Y-43500000D03*
X211999228Y-43496217D03*
X190040000Y-68642500D03*
X219150000Y-73370000D03*
X180040000Y-45990000D03*
X182440000Y-44210000D03*
X216370000Y-91240000D03*
X211525000Y-76608347D03*
X214213243Y-76646757D03*
X213880000Y-91680000D03*
X186780000Y-61840000D03*
X217500200Y-62204600D03*
X211925000Y-70508347D03*
X191310000Y-61920000D03*
X215290000Y-68380000D03*
X213000000Y-43500000D03*
X213575000Y-70533347D03*
X214340000Y-90940000D03*
X199500000Y-49350000D03*
X211179171Y-66939954D03*
X191350000Y-66660000D03*
X219150000Y-69633346D03*
X211025000Y-43500000D03*
X209300000Y-69783347D03*
X218690000Y-84830000D03*
X217000000Y-43500000D03*
X219000000Y-43500000D03*
X225100000Y-49510000D03*
X220000000Y-43500000D03*
X190470000Y-59370000D03*
X214970000Y-103470000D03*
X242790000Y-40160000D03*
X201500000Y-69558347D03*
X237980000Y-86620000D03*
X218000000Y-43500000D03*
X209590000Y-55660000D03*
X225190000Y-91630000D03*
X216010000Y-90270000D03*
X223976691Y-73343309D03*
X226510000Y-69950000D03*
X184700000Y-39900000D03*
X194600000Y-46000000D03*
X233360000Y-66820000D03*
X213910000Y-90050000D03*
X214000000Y-43500000D03*
X197900000Y-47130000D03*
X213740000Y-92590000D03*
X213810000Y-94410000D03*
X178630000Y-63890000D03*
X215950000Y-92200000D03*
G04 #@! TO.N,Net-(U2-SMRXD31)*
X209410000Y-66970000D03*
G04 #@! TO.N,/TX+*
X194663036Y-50012706D03*
X200664999Y-63909999D03*
G04 #@! TO.N,+3.3V*
X229500000Y-43000000D03*
X224790000Y-83060000D03*
X229500000Y-42000000D03*
X230500000Y-43000000D03*
X247430000Y-40160000D03*
X207875000Y-74933347D03*
X227500000Y-42000000D03*
X230500000Y-42000000D03*
X224950000Y-81920000D03*
X210788156Y-72852810D03*
X235170000Y-87630000D03*
X197940000Y-63940000D03*
X180080000Y-47530000D03*
X208600000Y-64808347D03*
X190520000Y-60950000D03*
X207790000Y-88790000D03*
X204954576Y-63909564D03*
X180180000Y-63880000D03*
X211350000Y-62925000D03*
X228500000Y-42000000D03*
X230300000Y-68340000D03*
X228500000Y-43000000D03*
X210300000Y-66925000D03*
X225000000Y-54300000D03*
X205750000Y-75880000D03*
X226500000Y-43000000D03*
X219370000Y-88990000D03*
X224890000Y-62390000D03*
X203675000Y-73508347D03*
X219580000Y-77860000D03*
X187830000Y-61830000D03*
X216990000Y-78440000D03*
X210070000Y-86980000D03*
X226500000Y-42000000D03*
X231800000Y-72580000D03*
X196340000Y-47120000D03*
X191300000Y-65130000D03*
X215351898Y-71569336D03*
X227487775Y-42994683D03*
G04 #@! TO.N,/D2-*
X224524434Y-77885945D03*
G04 #@! TO.N,/D2+*
X225374434Y-77885945D03*
G04 #@! TO.N,/D1-*
X226127805Y-77262195D03*
X227607521Y-77670000D03*
G04 #@! TO.N,/D1+*
X227000521Y-76932826D03*
G04 #@! TO.N,Net-(U2-ISET)*
X214912976Y-70522367D03*
G04 #@! TO.N,+1.8V*
X212050000Y-72833347D03*
X215203399Y-69253399D03*
G04 #@! TO.N,/RX2-*
X225600000Y-66505000D03*
G04 #@! TO.N,/RX2+*
X225600000Y-67355000D03*
X221620000Y-69090000D03*
X219725600Y-68406773D03*
G04 #@! TO.N,/REF_CLK*
X211220000Y-71120000D03*
X193880000Y-65815000D03*
G04 #@! TO.N,Net-(U2-SMTXD33{slash}EN_REFCLKO_3)*
X213374999Y-66762889D03*
G04 #@! TO.N,Net-(U2-SMTXD32)*
X211975000Y-66858347D03*
G04 #@! TO.N,Net-(U2-SMTXC3{slash}REFCLKI_3)*
X196036371Y-66383629D03*
X208000000Y-62880000D03*
G04 #@! TO.N,Net-(U2-SMRXDV3)*
X207450000Y-64833347D03*
G04 #@! TO.N,Net-(U2-SMRXD33{slash}REFCLKO_3)*
X206894299Y-67184854D03*
G04 #@! TO.N,Net-(U2-SMRXD32)*
X209550000Y-68033347D03*
G04 #@! TO.N,Net-(U2-SMRXD30)*
X210230000Y-69695000D03*
G04 #@! TO.N,/Lost Connect*
X204650000Y-72583347D03*
G04 #@! TO.N,/Clock*
X210810000Y-87520000D03*
X207950000Y-87420000D03*
G04 #@! TO.N,/Data*
X181950000Y-58050000D03*
X208800000Y-74033347D03*
G04 #@! TO.N,/P1LED1*
X221820000Y-81930000D03*
G04 #@! TO.N,/P2LED1*
X213712976Y-72235019D03*
X225060000Y-51320000D03*
G04 #@! TO.N,/P2LED0*
X225080373Y-61450373D03*
X214060328Y-72990883D03*
G04 #@! TO.N,/TX_EN*
X197274099Y-60702399D03*
X194520000Y-52050000D03*
G04 #@! TO.N,/TX-*
X194750000Y-49040000D03*
X199865000Y-63710000D03*
G04 #@! TO.N,/SWO{slash}TRACE*
X178700000Y-56100000D03*
X183900000Y-70600000D03*
G04 #@! TO.N,/SWCLK*
X183200000Y-69700000D03*
X181908831Y-52302327D03*
G04 #@! TO.N,/SWDIO*
X183800000Y-49400000D03*
X180500000Y-65800000D03*
G04 #@! TO.N,Net-(Q1-G)*
X218180000Y-102710000D03*
X216760000Y-95950000D03*
G04 #@! TO.N,/CRS_DV*
X214020000Y-60240000D03*
X201170000Y-61730000D03*
G04 #@! TD*
G04 #@! TO.N,GND*
D27*
X213550000Y-70508347D02*
X213575000Y-70533347D01*
X189390000Y-59405000D02*
X190435000Y-59405000D01*
X223350000Y-74633347D02*
X223350000Y-73970000D01*
X218098518Y-70033347D02*
X218685000Y-70033347D01*
X210708803Y-75792150D02*
X211525000Y-76608347D01*
X209775000Y-61000000D02*
X209991653Y-61000000D01*
X214100000Y-76533514D02*
X214213243Y-76646757D01*
X187850000Y-59405000D02*
X189390000Y-59405000D01*
X213550000Y-69483347D02*
X213550000Y-70508347D01*
X218685000Y-70033347D02*
X219110000Y-70458347D01*
X223575000Y-71175000D02*
X223560000Y-71160000D01*
X218963347Y-73183347D02*
X219150000Y-73370000D01*
X214100000Y-75608347D02*
X212407786Y-75608347D01*
X211925000Y-69483347D02*
X211925000Y-70508347D01*
X212404920Y-75605481D02*
X212404920Y-75728427D01*
X218048518Y-68531864D02*
X219150000Y-69633346D01*
X218075000Y-73183347D02*
X218963347Y-73183347D01*
X209300000Y-69858347D02*
X209300000Y-69983347D01*
X218054968Y-71513379D02*
X219110000Y-70458347D01*
X212407786Y-75608347D02*
X212404920Y-75605481D01*
X218048518Y-68483347D02*
X218048518Y-68531864D01*
X212404920Y-75728427D02*
X211525000Y-76608347D01*
X218054968Y-71569531D02*
X218054968Y-71513379D01*
X209991653Y-61000000D02*
X210575000Y-61583347D01*
X210575000Y-61583347D02*
X210575000Y-62008347D01*
X209300000Y-69908347D02*
X210000000Y-70608347D01*
X214100000Y-75608347D02*
X214100000Y-76533514D01*
X223575000Y-72233347D02*
X223575000Y-71175000D01*
X209025000Y-62008347D02*
X209025000Y-60808347D01*
X210708803Y-75609484D02*
X210708803Y-75792150D01*
X190435000Y-59405000D02*
X190470000Y-59370000D01*
X223350000Y-73970000D02*
X223976691Y-73343309D01*
X209025000Y-62008347D02*
X210575000Y-62008347D01*
G04 #@! TO.N,Net-(U2-SMRXD31)*
X209375000Y-66935000D02*
X209410000Y-66970000D01*
X209375000Y-65908347D02*
X209375000Y-66935000D01*
G04 #@! TO.N,/TX+*
X200664999Y-63659999D02*
X200515001Y-63510001D01*
X200515001Y-63510001D02*
X200515001Y-56076802D01*
X194663036Y-50224837D02*
X194663036Y-50012706D01*
X200515001Y-56076802D02*
X194663036Y-50224837D01*
X200664999Y-63909999D02*
X200664999Y-63659999D01*
G04 #@! TO.N,+3.3V*
X216525000Y-71589563D02*
X216504968Y-71569531D01*
X216504773Y-71569336D02*
X216504968Y-71569531D01*
X210788156Y-73980131D02*
X210708803Y-74059484D01*
X187830000Y-61830000D02*
X187850000Y-61810000D01*
X209025000Y-64383347D02*
X208600000Y-64808347D01*
X204954576Y-63909564D02*
X204954576Y-64428771D01*
X210550000Y-63583347D02*
X210575000Y-63558347D01*
X204500000Y-66458347D02*
X204500000Y-68033347D01*
X209025000Y-63558347D02*
X209025000Y-64383347D01*
X203675000Y-74258347D02*
X203675000Y-73508347D01*
X204954576Y-64428771D02*
X204500000Y-64883347D01*
X210575000Y-63558347D02*
X210716653Y-63558347D01*
X207900000Y-75683347D02*
X207900000Y-74958347D01*
X207725000Y-65908347D02*
X207725000Y-65683347D01*
X230725000Y-72608347D02*
X231771653Y-72608347D01*
X215351898Y-71569336D02*
X216504773Y-71569336D01*
X231771653Y-72608347D02*
X231800000Y-72580000D01*
X189375000Y-60970000D02*
X189390000Y-60955000D01*
X210788156Y-72852810D02*
X210788156Y-73980131D01*
X204500000Y-64883347D02*
X204500000Y-66458347D01*
X207725000Y-65683347D02*
X208600000Y-64808347D01*
X207900000Y-74958347D02*
X207875000Y-74933347D01*
X187830000Y-61926539D02*
X187830000Y-61830000D01*
X209025000Y-63558347D02*
X210575000Y-63558347D01*
X210716653Y-63558347D02*
X211350000Y-62925000D01*
X187850000Y-61810000D02*
X187850000Y-60955000D01*
X187860000Y-61956539D02*
X187830000Y-61926539D01*
X216525000Y-73183347D02*
X216525000Y-71589563D01*
X189390000Y-60955000D02*
X190515000Y-60955000D01*
G04 #@! TO.N,/D2-*
D28*
X232393000Y-79677205D02*
X232393000Y-79696361D01*
X224767434Y-78137373D02*
X225681061Y-79051000D01*
X224524434Y-77885945D02*
X223452598Y-77885945D01*
X223452598Y-77885945D02*
X223425000Y-77858347D01*
X232393000Y-79696361D02*
X233832639Y-81136000D01*
X224767434Y-78128945D02*
X224767434Y-78137373D01*
X231766795Y-79051000D02*
X232393000Y-79677205D01*
X233832639Y-81136000D02*
X233864000Y-81136000D01*
X225681061Y-79051000D02*
X231766795Y-79051000D01*
X224524434Y-77885945D02*
X224767434Y-78128945D01*
G04 #@! TO.N,/D2+*
X230185199Y-78634020D02*
X230285199Y-78634020D01*
X225374434Y-77885945D02*
X225374434Y-77877517D01*
X229985199Y-78288682D02*
X229985199Y-78434020D01*
X232409493Y-79104000D02*
X233864000Y-79104000D01*
X225374434Y-77877517D02*
X223730264Y-76233347D01*
X231383996Y-78634020D02*
X231939513Y-78634020D01*
X230285199Y-78634020D02*
X231383996Y-78634020D01*
X229685199Y-78088682D02*
X229785199Y-78088682D01*
X231939513Y-78634020D02*
X232409493Y-79104000D01*
X226914147Y-78634020D02*
X229285199Y-78634020D01*
X223730264Y-76233347D02*
X223400000Y-76233347D01*
X229485199Y-78434020D02*
X229485199Y-78288682D01*
X226166072Y-77885945D02*
X226914147Y-78634020D01*
X225374434Y-77885945D02*
X226166072Y-77885945D01*
X229985199Y-78434020D02*
G75*
G03*
X230185199Y-78634001I200001J20D01*
G01*
X229285199Y-78634020D02*
G75*
G03*
X229485220Y-78434020I1J200020D01*
G01*
X229785199Y-78088682D02*
G75*
G02*
X229985218Y-78288682I1J-200018D01*
G01*
X229485199Y-78288682D02*
G75*
G02*
X229685199Y-78088699I200001J-18D01*
G01*
G04 #@! TO.N,/D1-*
X227607521Y-77670000D02*
X226535611Y-77670000D01*
X226127805Y-77262195D02*
X225075000Y-76209389D01*
X226535611Y-77670000D02*
X226127805Y-77262195D01*
X225075000Y-76209389D02*
X225075000Y-75383347D01*
G04 #@! TO.N,/D1+*
X227000521Y-76932826D02*
X227000521Y-75758868D01*
X227000521Y-75758868D02*
X226625000Y-75383347D01*
G04 #@! TO.N,Net-(U2-ISET)*
D27*
X216373518Y-69958347D02*
X216448518Y-70033347D01*
X214912976Y-70437484D02*
X215392113Y-69958347D01*
X214912976Y-70522367D02*
X214912976Y-70437484D01*
X215392113Y-69958347D02*
X216373518Y-69958347D01*
G04 #@! TO.N,+1.8V*
X214097134Y-74055481D02*
X214100000Y-74058347D01*
X212050000Y-72833347D02*
X212050000Y-73700561D01*
X212050000Y-73700561D02*
X212404920Y-74055481D01*
X215970065Y-69011800D02*
X216498518Y-68483347D01*
X215203399Y-69253399D02*
X215444999Y-69011800D01*
X212404920Y-74055481D02*
X214097134Y-74055481D01*
X215444999Y-69011800D02*
X215970065Y-69011800D01*
G04 #@! TO.N,/RX2-*
D28*
X230681005Y-65399916D02*
X230596152Y-65484768D01*
X228633636Y-65961500D02*
X228633636Y-66481500D01*
X231388112Y-65767612D02*
X231020416Y-65399916D01*
X225873636Y-66721500D02*
X225816500Y-66721500D01*
X230596152Y-65824180D02*
X230963847Y-66191875D01*
X227793636Y-65721500D02*
X227673636Y-65721500D01*
D27*
X233862048Y-60006347D02*
X233862048Y-59670395D01*
D28*
X225993636Y-66721500D02*
X225873636Y-66721500D01*
X225816500Y-66721500D02*
X225600000Y-66505000D01*
X228393636Y-66721500D02*
X228273636Y-66721500D01*
X235232568Y-61376867D02*
X235232568Y-62262568D01*
X226233636Y-65961500D02*
X226233636Y-66481500D01*
X230878995Y-66616140D02*
X230773636Y-66721500D01*
X226833636Y-66481500D02*
X226833636Y-65961500D01*
X230773636Y-66721500D02*
X230123636Y-66721500D01*
X226593636Y-65721500D02*
X226473636Y-65721500D01*
X230123636Y-66721500D02*
X229473636Y-66721500D01*
X228993636Y-65721500D02*
X228873636Y-65721500D01*
X228033636Y-66481500D02*
X228033636Y-65961500D01*
X229233636Y-66481500D02*
X229233636Y-65961500D01*
X233862048Y-60006347D02*
X235232568Y-61376867D01*
X230963847Y-66531286D02*
X230878995Y-66616140D01*
X235232568Y-62262568D02*
X231727524Y-65767612D01*
X227433636Y-65961500D02*
X227433636Y-66481500D01*
X227193636Y-66721500D02*
X227073636Y-66721500D01*
X230963847Y-66191875D02*
G75*
G02*
X230963867Y-66531305I-169747J-169725D01*
G01*
X226233636Y-66481500D02*
G75*
G02*
X225993636Y-66721536I-240036J0D01*
G01*
X228873636Y-65721500D02*
G75*
G03*
X228633600Y-65961500I-36J-240000D01*
G01*
X228633636Y-66481500D02*
G75*
G02*
X228393636Y-66721536I-240036J0D01*
G01*
X231727524Y-65767612D02*
G75*
G02*
X231388112Y-65767612I-169706J169704D01*
G01*
X228033636Y-65961500D02*
G75*
G03*
X227793636Y-65721464I-240036J0D01*
G01*
X227073636Y-66721500D02*
G75*
G02*
X226833600Y-66481500I-36J240000D01*
G01*
X231020416Y-65399916D02*
G75*
G03*
X230681006Y-65399916I-169705J-169703D01*
G01*
X226833636Y-65961500D02*
G75*
G03*
X226593636Y-65721464I-240036J0D01*
G01*
X229233636Y-65961500D02*
G75*
G03*
X228993636Y-65721464I-240036J0D01*
G01*
X228273636Y-66721500D02*
G75*
G02*
X228033600Y-66481500I-36J240000D01*
G01*
X230596152Y-65484768D02*
G75*
G03*
X230596126Y-65824206I169748J-169732D01*
G01*
X227433636Y-66481500D02*
G75*
G02*
X227193636Y-66721536I-240036J0D01*
G01*
X226473636Y-65721500D02*
G75*
G03*
X226233600Y-65961500I-36J-240000D01*
G01*
X229473636Y-66721500D02*
G75*
G02*
X229233600Y-66481500I-36J240000D01*
G01*
X227673636Y-65721500D02*
G75*
G03*
X227433600Y-65961500I-36J-240000D01*
G01*
G04 #@! TO.N,/RX2+*
X220408827Y-69090000D02*
X221620000Y-69090000D01*
X230946364Y-67138500D02*
X235646567Y-62438297D01*
X225600000Y-67355000D02*
X225816500Y-67138500D01*
X235646567Y-59758866D02*
X233862048Y-57974347D01*
X219725600Y-68406773D02*
X220408827Y-69090000D01*
X225816500Y-67138500D02*
X230946364Y-67138500D01*
X235646567Y-62438297D02*
X235646567Y-59758866D01*
G04 #@! TO.N,/REF_CLK*
D29*
X199448347Y-71383347D02*
X193880000Y-65815000D01*
X211220000Y-71120000D02*
X210956653Y-71383347D01*
X210956653Y-71383347D02*
X199448347Y-71383347D01*
G04 #@! TO.N,Net-(U2-SMTXD33{slash}EN_REFCLKO_3)*
D27*
X213400000Y-67683347D02*
X213550000Y-67833347D01*
X213400000Y-66787890D02*
X213400000Y-67683347D01*
X213374999Y-66762889D02*
X213400000Y-66787890D01*
G04 #@! TO.N,Net-(U2-SMTXD32)*
X211975000Y-67783347D02*
X211925000Y-67833347D01*
X211975000Y-66858347D02*
X211975000Y-67783347D01*
G04 #@! TO.N,Net-(U2-SMTXC3{slash}REFCLKI_3)*
D29*
X196036371Y-66383629D02*
X201173483Y-66383629D01*
X204677112Y-62880000D02*
X208000000Y-62880000D01*
X201173483Y-66383629D02*
X204677112Y-62880000D01*
G04 #@! TO.N,Net-(U2-SMRXDV3)*
D27*
X206150000Y-64883347D02*
X207400000Y-64883347D01*
X207400000Y-64883347D02*
X207450000Y-64833347D01*
G04 #@! TO.N,Net-(U2-SMRXD33{slash}REFCLKO_3)*
X206894299Y-67184854D02*
X206876507Y-67184854D01*
X206876507Y-67184854D02*
X206150000Y-66458347D01*
G04 #@! TO.N,Net-(U2-SMRXD32)*
X209550000Y-68033347D02*
X206150000Y-68033347D01*
G04 #@! TO.N,Net-(U2-SMRXD30)*
X210000000Y-69465000D02*
X210230000Y-69695000D01*
X210000000Y-68958347D02*
X210000000Y-69465000D01*
G04 #@! TO.N,/Lost Connect*
X204625000Y-72608347D02*
X204650000Y-72583347D01*
X203675000Y-72608347D02*
X204625000Y-72608347D01*
G04 #@! TO.N,/Clock*
X208110000Y-87580000D02*
X207950000Y-87420000D01*
X210750000Y-87580000D02*
X208110000Y-87580000D01*
X210810000Y-87520000D02*
X210750000Y-87580000D01*
G04 #@! TO.N,/Data*
X206683347Y-75250000D02*
X198581471Y-75250000D01*
X181950000Y-58618529D02*
X181950000Y-58050000D01*
X207900000Y-74033347D02*
X206683347Y-75250000D01*
X207900000Y-74033347D02*
X208800000Y-74033347D01*
X198581471Y-75250000D02*
X181950000Y-58618529D01*
G04 #@! TO.N,/P1LED1*
X221820000Y-81930000D02*
X222725000Y-81025000D01*
X226387352Y-74433347D02*
X227112648Y-74433347D01*
X223812352Y-75458347D02*
X224587352Y-74683347D01*
X226137352Y-74683347D02*
X226387352Y-74433347D01*
X224587352Y-74683347D02*
X226137352Y-74683347D01*
X222700000Y-75745699D02*
X222987352Y-75458347D01*
X222700000Y-76720995D02*
X222700000Y-75745699D01*
X222725000Y-81025000D02*
X222725000Y-76745995D01*
X222987352Y-75458347D02*
X223812352Y-75458347D01*
X222725000Y-76745995D02*
X222700000Y-76720995D01*
X227112648Y-74433347D02*
X228784000Y-72761995D01*
X228784000Y-72761995D02*
X228784000Y-71992000D01*
G04 #@! TO.N,/P2LED1*
X212775000Y-63605000D02*
X225060000Y-51320000D01*
X212775000Y-71297043D02*
X212775000Y-63605000D01*
X213712976Y-72235019D02*
X212775000Y-71297043D01*
G04 #@! TO.N,/P2LED0*
X214603399Y-69983415D02*
X214603399Y-67981419D01*
X214603399Y-67981419D02*
X221134445Y-61450373D01*
X221134445Y-61450373D02*
X225080373Y-61450373D01*
X214312976Y-72738235D02*
X214312976Y-70273838D01*
X214060328Y-72990883D02*
X214312976Y-72738235D01*
X214312976Y-70273838D02*
X214603399Y-69983415D01*
G04 #@! TO.N,Net-(J2-Pad18)*
X229057653Y-74258347D02*
X228784000Y-74532000D01*
X230725000Y-74258347D02*
X229057653Y-74258347D01*
G04 #@! TO.N,/TX_EN*
D29*
X197274099Y-60702399D02*
X197274099Y-59374099D01*
X197274099Y-59374099D02*
X194520000Y-56620000D01*
X194520000Y-56620000D02*
X194520000Y-52050000D01*
G04 #@! TO.N,/TX-*
D27*
X200064999Y-56263198D02*
X194063036Y-50261235D01*
X194063036Y-49726964D02*
X194750000Y-49040000D01*
X194063036Y-50261235D02*
X194063036Y-49726964D01*
X200064999Y-63510001D02*
X200064999Y-56263198D01*
X199865000Y-63710000D02*
X200064999Y-63510001D01*
G04 #@! TO.N,/SWO{slash}TRACE*
X179230000Y-66578529D02*
X179230000Y-56630000D01*
X183251471Y-70600000D02*
X179230000Y-66578529D01*
X183900000Y-70600000D02*
X183251471Y-70600000D01*
X179230000Y-56630000D02*
X178700000Y-56100000D01*
G04 #@! TO.N,/SWCLK*
X181350000Y-67850000D02*
X181350000Y-52861158D01*
X183200000Y-69700000D02*
X181350000Y-67850000D01*
X181350000Y-52861158D02*
X181908831Y-52302327D01*
G04 #@! TO.N,/SWDIO*
X180500000Y-65800000D02*
X180780000Y-65520000D01*
X180780000Y-52420000D02*
X183800000Y-49400000D01*
X180780000Y-65520000D02*
X180780000Y-52420000D01*
G04 #@! TO.N,Net-(Q1-G)*
D30*
X216760000Y-95950000D02*
X216760000Y-101290000D01*
X216760000Y-101290000D02*
X218180000Y-102710000D01*
G04 #@! TO.N,/CRS_DV*
D29*
X201170000Y-61730000D02*
X206225000Y-61730000D01*
X206225000Y-61730000D02*
X208745000Y-59210000D01*
X212990000Y-59210000D02*
X214020000Y-60240000D01*
X208745000Y-59210000D02*
X212990000Y-59210000D01*
G04 #@! TO.N,Net-(C16-Pad1)*
D30*
X221775000Y-74658347D02*
X221800000Y-74633347D01*
X221775000Y-77858347D02*
X221775000Y-74658347D01*
G04 #@! TO.N,Net-(C15-Pad1)*
D27*
X225075000Y-73733347D02*
X226625000Y-73733347D01*
X225125000Y-73683347D02*
X225075000Y-73733347D01*
X225125000Y-72233347D02*
X225125000Y-73683347D01*
G04 #@! TD*
M02*
