G04 #@! TF.GenerationSoftware,KiCad,Pcbnew,10.0.0*
G04 #@! TF.CreationDate,2026-06-29T05:34:33-04:00*
G04 #@! TF.ProjectId,ethdemo,65746864-656d-46f2-9e6b-696361645f70,rev?*
G04 #@! TF.SameCoordinates,Original*
G04 #@! TF.FileFunction,Copper,L1,Top*
G04 #@! TF.FilePolarity,Positive*
%FSLAX46Y46*%
G04 Gerber Fmt 4.6, Leading zero omitted, Abs format (unit mm)*
G04 Created by KiCad (PCBNEW 10.0.0) date 2026-06-29 05:34:33*
%MOMM*%
%LPD*%
G01*
G04 APERTURE LIST*
G04 Aperture macros list*
%AMRoundRect*
0 Rectangle with rounded corners*
0 $1 Rounding radius*
0 $2 $3 $4 $5 $6 $7 $8 $9 X,Y pos of 4 corners*
0 Add a 4 corners polygon primitive as box body*
4,1,4,$2,$3,$4,$5,$6,$7,$8,$9,$2,$3,0*
0 Add four circle primitives for the rounded corners*
1,1,$1+$1,$2,$3*
1,1,$1+$1,$4,$5*
1,1,$1+$1,$6,$7*
1,1,$1+$1,$8,$9*
0 Add four rect primitives between the rounded corners*
20,1,$1+$1,$2,$3,$4,$5,0*
20,1,$1+$1,$4,$5,$6,$7,0*
20,1,$1+$1,$6,$7,$8,$9,0*
20,1,$1+$1,$8,$9,$2,$3,0*%
G04 Aperture macros list end*
G04 #@! TA.AperFunction,SMDPad,CuDef*
%ADD10RoundRect,0.237500X-0.237500X0.250000X-0.237500X-0.250000X0.237500X-0.250000X0.237500X0.250000X0*%
G04 #@! TD*
G04 #@! TA.AperFunction,SMDPad,CuDef*
%ADD11RoundRect,0.225000X-0.225000X-0.250000X0.225000X-0.250000X0.225000X0.250000X-0.225000X0.250000X0*%
G04 #@! TD*
G04 #@! TA.AperFunction,SMDPad,CuDef*
%ADD12RoundRect,0.225000X0.225000X0.250000X-0.225000X0.250000X-0.225000X-0.250000X0.225000X-0.250000X0*%
G04 #@! TD*
G04 #@! TA.AperFunction,SMDPad,CuDef*
%ADD13C,2.500000*%
G04 #@! TD*
G04 #@! TA.AperFunction,SMDPad,CuDef*
%ADD14RoundRect,0.200000X0.200000X0.275000X-0.200000X0.275000X-0.200000X-0.275000X0.200000X-0.275000X0*%
G04 #@! TD*
G04 #@! TA.AperFunction,SMDPad,CuDef*
%ADD15RoundRect,0.200000X-0.200000X-0.275000X0.200000X-0.275000X0.200000X0.275000X-0.200000X0.275000X0*%
G04 #@! TD*
G04 #@! TA.AperFunction,SMDPad,CuDef*
%ADD16RoundRect,0.225000X0.250000X-0.225000X0.250000X0.225000X-0.250000X0.225000X-0.250000X-0.225000X0*%
G04 #@! TD*
G04 #@! TA.AperFunction,SMDPad,CuDef*
%ADD17R,1.346200X0.254000*%
G04 #@! TD*
G04 #@! TA.AperFunction,SMDPad,CuDef*
%ADD18R,0.254000X1.346200*%
G04 #@! TD*
G04 #@! TA.AperFunction,ComponentPad*
%ADD19C,1.524000*%
G04 #@! TD*
G04 #@! TA.AperFunction,ComponentPad*
%ADD20C,1.371600*%
G04 #@! TD*
G04 #@! TA.AperFunction,ComponentPad*
%ADD21C,1.714500*%
G04 #@! TD*
G04 #@! TA.AperFunction,ComponentPad*
%ADD22C,2.362200*%
G04 #@! TD*
G04 #@! TA.AperFunction,SMDPad,CuDef*
%ADD23RoundRect,0.225000X-0.250000X0.225000X-0.250000X-0.225000X0.250000X-0.225000X0.250000X0.225000X0*%
G04 #@! TD*
G04 #@! TA.AperFunction,SMDPad,CuDef*
%ADD24RoundRect,0.243750X0.243750X0.456250X-0.243750X0.456250X-0.243750X-0.456250X0.243750X-0.456250X0*%
G04 #@! TD*
G04 #@! TA.AperFunction,SMDPad,CuDef*
%ADD25RoundRect,0.200000X0.275000X-0.200000X0.275000X0.200000X-0.275000X0.200000X-0.275000X-0.200000X0*%
G04 #@! TD*
G04 #@! TA.AperFunction,SMDPad,CuDef*
%ADD26RoundRect,0.200000X-0.275000X0.200000X-0.275000X-0.200000X0.275000X-0.200000X0.275000X0.200000X0*%
G04 #@! TD*
G04 #@! TA.AperFunction,SMDPad,CuDef*
%ADD27R,3.200400X2.565400*%
G04 #@! TD*
G04 #@! TA.AperFunction,SMDPad,CuDef*
%ADD28RoundRect,0.250000X0.375000X0.625000X-0.375000X0.625000X-0.375000X-0.625000X0.375000X-0.625000X0*%
G04 #@! TD*
G04 #@! TA.AperFunction,ComponentPad*
%ADD29R,1.700000X1.700000*%
G04 #@! TD*
G04 #@! TA.AperFunction,ComponentPad*
%ADD30C,1.700000*%
G04 #@! TD*
G04 #@! TA.AperFunction,SMDPad,CuDef*
%ADD31R,1.630000X2.180400*%
G04 #@! TD*
G04 #@! TA.AperFunction,SMDPad,CuDef*
%ADD32R,1.475000X0.450000*%
G04 #@! TD*
G04 #@! TA.AperFunction,SMDPad,CuDef*
%ADD33RoundRect,0.075000X0.075000X-0.725000X0.075000X0.725000X-0.075000X0.725000X-0.075000X-0.725000X0*%
G04 #@! TD*
G04 #@! TA.AperFunction,SMDPad,CuDef*
%ADD34RoundRect,0.075000X0.725000X-0.075000X0.725000X0.075000X-0.725000X0.075000X-0.725000X-0.075000X0*%
G04 #@! TD*
G04 #@! TA.AperFunction,SMDPad,CuDef*
%ADD35RoundRect,0.250000X0.650000X-1.000000X0.650000X1.000000X-0.650000X1.000000X-0.650000X-1.000000X0*%
G04 #@! TD*
G04 #@! TA.AperFunction,SMDPad,CuDef*
%ADD36RoundRect,0.250000X0.575000X0.400000X-0.575000X0.400000X-0.575000X-0.400000X0.575000X-0.400000X0*%
G04 #@! TD*
G04 #@! TA.AperFunction,SMDPad,CuDef*
%ADD37RoundRect,0.150000X0.150000X0.425000X-0.150000X0.425000X-0.150000X-0.425000X0.150000X-0.425000X0*%
G04 #@! TD*
G04 #@! TA.AperFunction,SMDPad,CuDef*
%ADD38RoundRect,0.075000X0.075000X0.500000X-0.075000X0.500000X-0.075000X-0.500000X0.075000X-0.500000X0*%
G04 #@! TD*
G04 #@! TA.AperFunction,ComponentPad*
%ADD39O,1.000000X2.100000*%
G04 #@! TD*
G04 #@! TA.AperFunction,ComponentPad*
%ADD40O,1.000000X1.800000*%
G04 #@! TD*
G04 #@! TA.AperFunction,SMDPad,CuDef*
%ADD41R,0.680000X0.500000*%
G04 #@! TD*
G04 #@! TA.AperFunction,SMDPad,CuDef*
%ADD42R,0.410000X0.500000*%
G04 #@! TD*
G04 #@! TA.AperFunction,SMDPad,CuDef*
%ADD43R,1.950000X2.650000*%
G04 #@! TD*
G04 #@! TA.AperFunction,SMDPad,CuDef*
%ADD44R,0.060000X0.100000*%
G04 #@! TD*
G04 #@! TA.AperFunction,ViaPad*
%ADD45C,0.600000*%
G04 #@! TD*
G04 #@! TA.AperFunction,Conductor*
%ADD46C,0.200000*%
G04 #@! TD*
G04 #@! TA.AperFunction,Conductor*
%ADD47C,0.400000*%
G04 #@! TD*
G04 #@! TA.AperFunction,Conductor*
%ADD48C,1.000000*%
G04 #@! TD*
G04 #@! TA.AperFunction,Conductor*
%ADD49C,0.300000*%
G04 #@! TD*
G04 #@! TA.AperFunction,Conductor*
%ADD50C,0.335000*%
G04 #@! TD*
G04 #@! TA.AperFunction,Conductor*
%ADD51C,0.500000*%
G04 #@! TD*
G04 #@! TA.AperFunction,Conductor*
%ADD52C,0.214000*%
G04 #@! TD*
G04 #@! TA.AperFunction,Conductor*
%ADD53C,0.750000*%
G04 #@! TD*
G04 APERTURE END LIST*
D10*
G04 #@! TO.P,R52,1*
G04 #@! TO.N,GND*
X184700000Y-39087500D03*
G04 #@! TO.P,R52,2*
G04 #@! TO.N,Net-(J9-CC2)*
X184700000Y-40912500D03*
G04 #@! TD*
D11*
G04 #@! TO.P,C18,1*
G04 #@! TO.N,Net-(C18-Pad1)*
X223790000Y-69950000D03*
G04 #@! TO.P,C18,2*
G04 #@! TO.N,GND*
X225340000Y-69950000D03*
G04 #@! TD*
D12*
G04 #@! TO.P,C5,1*
G04 #@! TO.N,GND*
X199505000Y-50590000D03*
G04 #@! TO.P,C5,2*
G04 #@! TO.N,Net-(C5-Pad2)*
X197955000Y-50590000D03*
G04 #@! TD*
D13*
G04 #@! TO.P,TP4,1,1_1*
G04 #@! TO.N,V-*
X221250000Y-93530000D03*
G04 #@! TD*
D14*
G04 #@! TO.P,R25,1*
G04 #@! TO.N,Net-(U2-SMRXD31)*
X205350000Y-66483347D03*
G04 #@! TO.P,R25,2*
G04 #@! TO.N,/TX+*
X203700000Y-66483347D03*
G04 #@! TD*
D10*
G04 #@! TO.P,R51,1*
G04 #@! TO.N,GND*
X197100000Y-39087500D03*
G04 #@! TO.P,R51,2*
G04 #@! TO.N,Net-(J9-CC1)*
X197100000Y-40912500D03*
G04 #@! TD*
D14*
G04 #@! TO.P,R37,1*
G04 #@! TO.N,Net-(U2-SMTXD30)*
X199955000Y-58620000D03*
G04 #@! TO.P,R37,2*
G04 #@! TO.N,/RX-*
X198305000Y-58620000D03*
G04 #@! TD*
D15*
G04 #@! TO.P,R4,1*
G04 #@! TO.N,Net-(U1-PE15)*
X202600000Y-51705000D03*
G04 #@! TO.P,R4,2*
G04 #@! TO.N,Net-(D4-A)*
X204250000Y-51705000D03*
G04 #@! TD*
D16*
G04 #@! TO.P,C36,1*
G04 #@! TO.N,GND*
X215250000Y-77308347D03*
G04 #@! TO.P,C36,2*
G04 #@! TO.N,Net-(D8-A)*
X215250000Y-75758347D03*
G04 #@! TD*
G04 #@! TO.P,C10,1*
G04 #@! TO.N,+3.3V*
X210100000Y-86099400D03*
G04 #@! TO.P,C10,2*
G04 #@! TO.N,GND*
X210100000Y-84549400D03*
G04 #@! TD*
D17*
G04 #@! TO.P,U2,1,RXM1_1*
G04 #@! TO.N,/D2-*
X216525000Y-72533347D03*
G04 #@! TO.P,U2,2,RXP1_2*
G04 #@! TO.N,/D2+*
X216525000Y-72033348D03*
G04 #@! TO.P,U2,3,TXM1_3*
G04 #@! TO.N,/D1-*
X216525000Y-71533346D03*
G04 #@! TO.P,U2,4,TXP1_4*
G04 #@! TO.N,/D1+*
X216525000Y-71033347D03*
G04 #@! TO.P,U2,5,VDDA_3.3_5*
G04 #@! TO.N,+3.3V*
X216525000Y-70533348D03*
G04 #@! TO.P,U2,6,ISET_6*
G04 #@! TO.N,Net-(U2-ISET)*
X216525000Y-70033347D03*
G04 #@! TO.P,U2,7,VDDA_1.8_7*
G04 #@! TO.N,+1.8V*
X216525000Y-69533347D03*
G04 #@! TO.P,U2,8,RXM2_8*
G04 #@! TO.N,/RX2-*
X216525000Y-69033346D03*
G04 #@! TO.P,U2,9,RXP2_9*
G04 #@! TO.N,/RX2+*
X216525000Y-68533347D03*
G04 #@! TO.P,U2,10,AGND_10*
G04 #@! TO.N,GND*
X216525000Y-68033348D03*
G04 #@! TO.P,U2,11,TXM2_11*
G04 #@! TO.N,/TX2-*
X216525000Y-67533346D03*
G04 #@! TO.P,U2,12,TXP2_12*
G04 #@! TO.N,/TX2+*
X216525000Y-67033347D03*
D18*
G04 #@! TO.P,U2,13,NC_13*
G04 #@! TO.N,unconnected-(U2-NC-Pad13)*
X215045900Y-65554247D03*
G04 #@! TO.P,U2,14,X1_14*
G04 #@! TO.N,/REF_CLK*
X214545901Y-65554247D03*
G04 #@! TO.P,U2,15,X2_15*
G04 #@! TO.N,unconnected-(U2-X2-Pad15)*
X214045899Y-65554247D03*
G04 #@! TO.P,U2,16,SMTXEN3_16*
G04 #@! TO.N,Net-(U2-SMTXEN3)*
X213545900Y-65554247D03*
G04 #@! TO.P,U2,17,SMTXD33/EN_REFCLKO_3_17*
G04 #@! TO.N,Net-(U2-SMTXD33{slash}EN_REFCLKO_3)*
X213045901Y-65554247D03*
G04 #@! TO.P,U2,18,SMTXD32_18*
G04 #@! TO.N,Net-(U2-SMTXD32)*
X212545900Y-65554247D03*
G04 #@! TO.P,U2,19,SMTXD31_19*
G04 #@! TO.N,Net-(U2-SMTXD31)*
X212045900Y-65554247D03*
G04 #@! TO.P,U2,20,SMTXD30_20*
G04 #@! TO.N,Net-(U2-SMTXD30)*
X211545899Y-65554247D03*
G04 #@! TO.P,U2,21,GND_21*
G04 #@! TO.N,GND*
X211045900Y-65554247D03*
G04 #@! TO.P,U2,22,VDDIO_22*
G04 #@! TO.N,+3.3V*
X210545901Y-65554247D03*
G04 #@! TO.P,U2,23,SMTXC3/REFCLKI_3_23*
G04 #@! TO.N,Net-(U2-SMTXC3{slash}REFCLKI_3)*
X210045899Y-65554247D03*
G04 #@! TO.P,U2,24,SMTXER3/MII_LINK_3_24*
G04 #@! TO.N,unconnected-(U2-SMTXER3{slash}MII_LINK_3-Pad24)*
X209545900Y-65554247D03*
D17*
G04 #@! TO.P,U2,25,SMRXDV3_25*
G04 #@! TO.N,Net-(U2-SMRXDV3)*
X208066800Y-67033347D03*
G04 #@! TO.P,U2,26,SMRXD33/REFCLKO_3_26*
G04 #@! TO.N,Net-(U2-SMRXD33{slash}REFCLKO_3)*
X208066800Y-67533346D03*
G04 #@! TO.P,U2,27,SMRXD32_27*
G04 #@! TO.N,Net-(U2-SMRXD32)*
X208066800Y-68033348D03*
G04 #@! TO.P,U2,28,SMRXD31_28*
G04 #@! TO.N,Net-(U2-SMRXD31)*
X208066800Y-68533347D03*
G04 #@! TO.P,U2,29,SMRXD30_29*
G04 #@! TO.N,Net-(U2-SMRXD30)*
X208066800Y-69033346D03*
G04 #@! TO.P,U2,30,SMRXC3_30*
G04 #@! TO.N,unconnected-(U2-SMRXC3-Pad30)*
X208066800Y-69533347D03*
G04 #@! TO.P,U2,31,GND_31*
G04 #@! TO.N,GND*
X208066800Y-70033347D03*
G04 #@! TO.P,U2,32,VDDC_32*
G04 #@! TO.N,+1.8V*
X208066800Y-70533348D03*
G04 #@! TO.P,U2,33,SCOL3_33*
G04 #@! TO.N,unconnected-(U2-SCOL3-Pad33)*
X208066800Y-71033347D03*
G04 #@! TO.P,U2,34,SCRS3_34*
G04 #@! TO.N,unconnected-(U2-SCRS3-Pad34)*
X208066800Y-71533346D03*
G04 #@! TO.P,U2,35,INTRN_35*
G04 #@! TO.N,/Lost Connect*
X208066800Y-72033348D03*
G04 #@! TO.P,U2,36,SCL_MDC_36*
G04 #@! TO.N,/Clock*
X208066800Y-72533347D03*
D18*
G04 #@! TO.P,U2,37,SDA_MDIO_37*
G04 #@! TO.N,/Data*
X209545900Y-74012447D03*
G04 #@! TO.P,U2,38,SPIQ_38*
G04 #@! TO.N,Net-(U2-SPIQ)*
X210045899Y-74012447D03*
G04 #@! TO.P,U2,39,SPISN_39*
G04 #@! TO.N,unconnected-(U2-SPISN-Pad39)*
X210545901Y-74012447D03*
G04 #@! TO.P,U2,40,VDDIO_40*
G04 #@! TO.N,+3.3V*
X211045900Y-74012447D03*
G04 #@! TO.P,U2,41,GND_41*
G04 #@! TO.N,GND*
X211545899Y-74012447D03*
G04 #@! TO.P,U2,42,VDDCO_42*
G04 #@! TO.N,+1.8V*
X212045900Y-74012447D03*
G04 #@! TO.P,U2,43,P1LED1_43*
G04 #@! TO.N,/P1LED1*
X212545900Y-74012447D03*
G04 #@! TO.P,U2,44,P1LED0_44*
G04 #@! TO.N,/P1LED0*
X213045901Y-74012447D03*
G04 #@! TO.P,U2,45,P2LED1_45*
G04 #@! TO.N,/P2LED1*
X213545900Y-74012447D03*
G04 #@! TO.P,U2,46,P2LED0_46*
G04 #@! TO.N,/P2LED0*
X214045899Y-74012447D03*
G04 #@! TO.P,U2,47,RSTN_47*
G04 #@! TO.N,Net-(D8-A)*
X214545901Y-74012447D03*
G04 #@! TO.P,U2,48,FXSD1_48*
G04 #@! TO.N,unconnected-(U2-FXSD1-Pad48)*
X215045900Y-74012447D03*
G04 #@! TD*
D14*
G04 #@! TO.P,R8,1*
G04 #@! TO.N,Net-(Q1-S_1)*
X216625000Y-98899400D03*
G04 #@! TO.P,R8,2*
G04 #@! TO.N,GND*
X214975000Y-98899400D03*
G04 #@! TD*
D16*
G04 #@! TO.P,C34,1*
G04 #@! TO.N,+1.8V*
X204358643Y-71103247D03*
G04 #@! TO.P,C34,2*
G04 #@! TO.N,GND*
X204358643Y-69553247D03*
G04 #@! TD*
D12*
G04 #@! TO.P,C9,1*
G04 #@! TO.N,+3.3V*
X180185000Y-62850000D03*
G04 #@! TO.P,C9,2*
G04 #@! TO.N,GND*
X178635000Y-62850000D03*
G04 #@! TD*
G04 #@! TO.P,C20,1*
G04 #@! TO.N,Net-(C20-Pad1)*
X249985000Y-66290000D03*
G04 #@! TO.P,C20,2*
G04 #@! TO.N,GND*
X248435000Y-66290000D03*
G04 #@! TD*
D19*
G04 #@! TO.P,J1,4,TRD2+_4*
G04 #@! TO.N,/RX2+*
X233862048Y-57974347D03*
G04 #@! TO.P,J1,5,TRD2-_5*
G04 #@! TO.N,/RX2-*
X233862048Y-60006347D03*
G04 #@! TO.P,J1,6,TRCT2_6*
G04 #@! TO.N,+3.3V*
X233862048Y-62038347D03*
G04 #@! TO.P,J1,10,TRD1-_10*
G04 #@! TO.N,/TX2-*
X231322048Y-58990347D03*
G04 #@! TO.P,J1,11,TRD1+_11*
G04 #@! TO.N,/TX2+*
X231322048Y-61022347D03*
G04 #@! TO.P,J1,12,TRCT1_12*
G04 #@! TO.N,+3.3V*
X231322048Y-63054347D03*
D20*
G04 #@! TO.P,J1,13,VC12_13*
G04 #@! TO.N,unconnected-(J1-VC12-Pad13)*
X240974048Y-51370347D03*
G04 #@! TO.P,J1,14,VC36_14*
G04 #@! TO.N,unconnected-(J1-VC36-Pad14)*
X240974048Y-62546347D03*
G04 #@! TO.P,J1,15,VC45_15*
G04 #@! TO.N,unconnected-(J1-VC45-Pad15)*
X242498048Y-51370347D03*
G04 #@! TO.P,J1,16,VC78_16*
G04 #@! TO.N,unconnected-(J1-VC78-Pad16)*
X242498048Y-62546347D03*
D21*
G04 #@! TO.P,J1,17*
G04 #@! TO.N,/P2LED1*
X228782048Y-50862347D03*
G04 #@! TO.P,J1,18*
G04 #@! TO.N,Net-(J1-Pad18)*
X228782048Y-53402347D03*
G04 #@! TO.P,J1,19*
G04 #@! TO.N,/P2LED0*
X228782048Y-60514347D03*
G04 #@! TO.P,J1,20*
G04 #@! TO.N,Net-(J1-Pad20)*
X228782048Y-63054347D03*
D22*
G04 #@! TO.P,J1,S1,SHIELD_S1*
G04 #@! TO.N,Net-(C20-Pad1)*
X252277048Y-48893847D03*
G04 #@! TO.P,J1,S2,SHIELD_S2*
X252277048Y-65022847D03*
G04 #@! TD*
D23*
G04 #@! TO.P,C25,1*
G04 #@! TO.N,/OCS1*
X190050000Y-66035000D03*
G04 #@! TO.P,C25,2*
G04 #@! TO.N,GND*
X190050000Y-67585000D03*
G04 #@! TD*
D24*
G04 #@! TO.P,D4,1,K_1*
G04 #@! TO.N,GND*
X208292500Y-50940000D03*
G04 #@! TO.P,D4,2,A_2*
G04 #@! TO.N,Net-(D4-A)*
X206417500Y-50940000D03*
G04 #@! TD*
D15*
G04 #@! TO.P,R46,1*
G04 #@! TO.N,Net-(J1-Pad20)*
X227650000Y-66802000D03*
G04 #@! TO.P,R46,2*
G04 #@! TO.N,+3.3V*
X229300000Y-66802000D03*
G04 #@! TD*
D23*
G04 #@! TO.P,C24,1*
G04 #@! TO.N,GND*
X182200000Y-66590000D03*
G04 #@! TO.P,C24,2*
G04 #@! TO.N,/OSC0*
X182200000Y-68140000D03*
G04 #@! TD*
D25*
G04 #@! TO.P,R47,1*
G04 #@! TO.N,+3.3V*
X226130000Y-62425000D03*
G04 #@! TO.P,R47,2*
G04 #@! TO.N,/P2LED0*
X226130000Y-60775000D03*
G04 #@! TD*
G04 #@! TO.P,R27,1*
G04 #@! TO.N,Net-(U2-SMTXC3{slash}REFCLKI_3)*
X193850000Y-66715000D03*
G04 #@! TO.P,R27,2*
G04 #@! TO.N,/REF_CLK*
X193850000Y-65065000D03*
G04 #@! TD*
D19*
G04 #@! TO.P,J2,4,TRD2+_4*
G04 #@! TO.N,/D2+*
X233864000Y-79104000D03*
G04 #@! TO.P,J2,5,TRD2-_5*
G04 #@! TO.N,/D2-*
X233864000Y-81136000D03*
G04 #@! TO.P,J2,6,TRCT2_6*
G04 #@! TO.N,+3.3V*
X233864000Y-83168000D03*
G04 #@! TO.P,J2,10,TRD1-_10*
G04 #@! TO.N,/D1-*
X231324000Y-80120000D03*
G04 #@! TO.P,J2,11,TRD1+_11*
G04 #@! TO.N,/D1+*
X231324000Y-82152000D03*
G04 #@! TO.P,J2,12,TRCT1_12*
G04 #@! TO.N,+3.3V*
X231324000Y-84184000D03*
D20*
G04 #@! TO.P,J2,13,VC12_13*
G04 #@! TO.N,unconnected-(J2-VC12-Pad13)*
X240976000Y-72500000D03*
G04 #@! TO.P,J2,14,VC36_14*
G04 #@! TO.N,unconnected-(J2-VC36-Pad14)*
X240976000Y-83676000D03*
G04 #@! TO.P,J2,15,VC45_15*
G04 #@! TO.N,48V*
X242500000Y-72500000D03*
G04 #@! TO.P,J2,16,VC78_16*
G04 #@! TO.N,V-*
X242500000Y-83676000D03*
D21*
G04 #@! TO.P,J2,17*
G04 #@! TO.N,/P1LED1*
X228784000Y-71992000D03*
G04 #@! TO.P,J2,18*
G04 #@! TO.N,Net-(J2-Pad18)*
X228784000Y-74532000D03*
G04 #@! TO.P,J2,19*
G04 #@! TO.N,/P1LED0*
X228784000Y-81644000D03*
G04 #@! TO.P,J2,20*
G04 #@! TO.N,Net-(J2-Pad20)*
X228784000Y-84184000D03*
D22*
G04 #@! TO.P,J2,S1,SHIELD_S1*
G04 #@! TO.N,Net-(C21-Pad1)*
X252279000Y-70023500D03*
G04 #@! TO.P,J2,S2,SHIELD_S2*
X252279000Y-86152500D03*
G04 #@! TD*
D26*
G04 #@! TO.P,R23,1*
G04 #@! TO.N,Net-(D8-A)*
X216925000Y-75708347D03*
G04 #@! TO.P,R23,2*
G04 #@! TO.N,+3.3V*
X216925000Y-77358347D03*
G04 #@! TD*
D12*
G04 #@! TO.P,C21,1*
G04 #@! TO.N,Net-(C21-Pad1)*
X250005000Y-87370000D03*
G04 #@! TO.P,C21,2*
G04 #@! TO.N,GND*
X248455000Y-87370000D03*
G04 #@! TD*
D25*
G04 #@! TO.P,R11,1*
G04 #@! TO.N,Net-(Q1-S_1)*
X218175000Y-98099400D03*
G04 #@! TO.P,R11,2*
G04 #@! TO.N,Net-(U3-SEN1)*
X218175000Y-96449400D03*
G04 #@! TD*
G04 #@! TO.P,R31,1*
G04 #@! TO.N,+3.3V*
X205760000Y-74485000D03*
G04 #@! TO.P,R31,2*
G04 #@! TO.N,/Clock*
X205760000Y-72835000D03*
G04 #@! TD*
D26*
G04 #@! TO.P,R50,1*
G04 #@! TO.N,/P1LED0*
X226160000Y-79885000D03*
G04 #@! TO.P,R50,2*
G04 #@! TO.N,+3.3V*
X226160000Y-81535000D03*
G04 #@! TD*
D27*
G04 #@! TO.P,D6,1*
G04 #@! TO.N,48V*
X230700000Y-91399400D03*
G04 #@! TO.P,D6,2*
G04 #@! TO.N,V-*
X230700000Y-97470000D03*
G04 #@! TD*
D16*
G04 #@! TO.P,C7,1*
G04 #@! TO.N,+3.3V*
X181080000Y-47535000D03*
G04 #@! TO.P,C7,2*
G04 #@! TO.N,GND*
X181080000Y-45985000D03*
G04 #@! TD*
D11*
G04 #@! TO.P,C26,1*
G04 #@! TO.N,+3.3V*
X236365000Y-87620000D03*
G04 #@! TO.P,C26,2*
G04 #@! TO.N,GND*
X237915000Y-87620000D03*
G04 #@! TD*
D15*
G04 #@! TO.P,R26,1*
G04 #@! TO.N,/TX_EN*
X204700000Y-64883347D03*
G04 #@! TO.P,R26,2*
G04 #@! TO.N,Net-(U2-SMRXDV3)*
X206350000Y-64883347D03*
G04 #@! TD*
G04 #@! TO.P,R49,1*
G04 #@! TO.N,/P1LED1*
X227655439Y-68333114D03*
G04 #@! TO.P,R49,2*
G04 #@! TO.N,+3.3V*
X229305439Y-68333114D03*
G04 #@! TD*
D25*
G04 #@! TO.P,R44,1*
G04 #@! TO.N,Net-(J2-Pad20)*
X226130000Y-84755000D03*
G04 #@! TO.P,R44,2*
G04 #@! TO.N,+3.3V*
X226130000Y-83105000D03*
G04 #@! TD*
D14*
G04 #@! TO.P,R34,1*
G04 #@! TO.N,GND*
X211475000Y-77710000D03*
G04 #@! TO.P,R34,2*
G04 #@! TO.N,Net-(U2-SPIQ)*
X209825000Y-77710000D03*
G04 #@! TD*
G04 #@! TO.P,R6,1*
G04 #@! TO.N,Net-(Q1-S_1)*
X216625000Y-101949400D03*
G04 #@! TO.P,R6,2*
G04 #@! TO.N,GND*
X214975000Y-101949400D03*
G04 #@! TD*
G04 #@! TO.P,R32,1*
G04 #@! TO.N,/Data*
X210375000Y-88799400D03*
G04 #@! TO.P,R32,2*
G04 #@! TO.N,+3.3V*
X208725000Y-88799400D03*
G04 #@! TD*
G04 #@! TO.P,R29,1*
G04 #@! TO.N,Net-(U2-SMTXD31)*
X199965000Y-57090000D03*
G04 #@! TO.P,R29,2*
G04 #@! TO.N,/RX+*
X198315000Y-57090000D03*
G04 #@! TD*
D16*
G04 #@! TO.P,C17,1*
G04 #@! TO.N,Net-(C17-Pad1)*
X218589998Y-63741600D03*
G04 #@! TO.P,C17,2*
G04 #@! TO.N,GND*
X218589998Y-62191600D03*
G04 #@! TD*
D23*
G04 #@! TO.P,C12,1*
G04 #@! TO.N,48V*
X235250000Y-96774400D03*
G04 #@! TO.P,C12,2*
G04 #@! TO.N,V-*
X235250000Y-98324400D03*
G04 #@! TD*
D15*
G04 #@! TO.P,R5,1*
G04 #@! TO.N,Net-(U1-PE14)*
X202605000Y-53255000D03*
G04 #@! TO.P,R5,2*
G04 #@! TO.N,Net-(D5-A)*
X204255000Y-53255000D03*
G04 #@! TD*
D11*
G04 #@! TO.P,C4,1*
G04 #@! TO.N,GND*
X196355000Y-62820000D03*
G04 #@! TO.P,C4,2*
G04 #@! TO.N,+3.3V*
X197905000Y-62820000D03*
G04 #@! TD*
G04 #@! TO.P,C19,1*
G04 #@! TO.N,+3.3V*
X230742721Y-66800008D03*
G04 #@! TO.P,C19,2*
G04 #@! TO.N,GND*
X232292721Y-66800008D03*
G04 #@! TD*
D13*
G04 #@! TO.P,TP1,1,1_1*
G04 #@! TO.N,GND*
X240590000Y-40150000D03*
G04 #@! TD*
D23*
G04 #@! TO.P,C3,1*
G04 #@! TO.N,GND*
X183320000Y-44205000D03*
G04 #@! TO.P,C3,2*
G04 #@! TO.N,Net-(C3-Pad2)*
X183320000Y-45755000D03*
G04 #@! TD*
D25*
G04 #@! TO.P,R17,1*
G04 #@! TO.N,/TX2+*
X218592400Y-66915800D03*
G04 #@! TO.P,R17,2*
G04 #@! TO.N,Net-(C17-Pad1)*
X218592400Y-65265800D03*
G04 #@! TD*
D15*
G04 #@! TO.P,R24,1*
G04 #@! TO.N,/TX-*
X203700000Y-68033347D03*
G04 #@! TO.P,R24,2*
G04 #@! TO.N,Net-(U2-SMRXD30)*
X205350000Y-68033347D03*
G04 #@! TD*
D25*
G04 #@! TO.P,R20,1*
G04 #@! TO.N,Net-(C18-Pad1)*
X220700600Y-70030000D03*
G04 #@! TO.P,R20,2*
G04 #@! TO.N,/RX2-*
X220700600Y-68380000D03*
G04 #@! TD*
D16*
G04 #@! TO.P,C33,1*
G04 #@! TO.N,+1.8V*
X205900000Y-71108347D03*
G04 #@! TO.P,C33,2*
G04 #@! TO.N,GND*
X205900000Y-69558347D03*
G04 #@! TD*
D28*
G04 #@! TO.P,F1,1*
G04 #@! TO.N,V-*
X226600000Y-101974400D03*
G04 #@! TO.P,F1,2*
G04 #@! TO.N,Net-(Q1-D_1)*
X223800000Y-101974400D03*
G04 #@! TD*
D29*
G04 #@! TO.P,J3,1,Pin_1_1*
G04 #@! TO.N,+3.3V*
X192120000Y-78500000D03*
D30*
G04 #@! TO.P,J3,2,Pin_2_2*
G04 #@! TO.N,GND*
X189580000Y-78500000D03*
G04 #@! TO.P,J3,3,Pin_3_3*
G04 #@! TO.N,/SWO{slash}TRACE*
X187040000Y-78500000D03*
G04 #@! TO.P,J3,4,Pin_4_4*
G04 #@! TO.N,/SWCLK*
X184500000Y-78500000D03*
G04 #@! TO.P,J3,5,Pin_5_5*
G04 #@! TO.N,/SWDIO*
X181960000Y-78500000D03*
G04 #@! TD*
D24*
G04 #@! TO.P,D3,1,K_1*
G04 #@! TO.N,GND*
X208277500Y-55600000D03*
G04 #@! TO.P,D3,2,A_2*
G04 #@! TO.N,Net-(D3-A)*
X206402500Y-55600000D03*
G04 #@! TD*
D11*
G04 #@! TO.P,C6,1*
G04 #@! TO.N,+3.3V*
X196355000Y-48320000D03*
G04 #@! TO.P,C6,2*
G04 #@! TO.N,GND*
X197905000Y-48320000D03*
G04 #@! TD*
D25*
G04 #@! TO.P,R10,1*
G04 #@! TO.N,Net-(Q1-D_1)*
X219750000Y-98074400D03*
G04 #@! TO.P,R10,2*
G04 #@! TO.N,Net-(U3-DRAIN1)*
X219750000Y-96424400D03*
G04 #@! TD*
G04 #@! TO.P,R18,1*
G04 #@! TO.N,/TX2-*
X216941400Y-65772800D03*
G04 #@! TO.P,R18,2*
G04 #@! TO.N,Net-(C17-Pad1)*
X216941400Y-64122800D03*
G04 #@! TD*
D31*
G04 #@! TO.P,D7,1*
G04 #@! TO.N,V-*
X225150000Y-97813800D03*
G04 #@! TO.P,D7,2*
G04 #@! TO.N,GND*
X225150000Y-94099400D03*
G04 #@! TD*
D15*
G04 #@! TO.P,R3,1*
G04 #@! TO.N,Net-(U1-PE13)*
X202595000Y-55010000D03*
G04 #@! TO.P,R3,2*
G04 #@! TO.N,Net-(D3-A)*
X204245000Y-55010000D03*
G04 #@! TD*
D32*
G04 #@! TO.P,U3,1,VDD_1*
G04 #@! TO.N,+3.3V*
X212162000Y-86374400D03*
G04 #@! TO.P,U3,2,~{RESET}_2*
X212162000Y-87024400D03*
G04 #@! TO.P,U3,3,SCL_3*
G04 #@! TO.N,/Clock*
X212162000Y-87674400D03*
G04 #@! TO.P,U3,4,SDAI_4*
G04 #@! TO.N,/Data*
X212162000Y-88324400D03*
G04 #@! TO.P,U3,5,SDAO_5*
X212162000Y-88974400D03*
G04 #@! TO.P,U3,6,~{INT}_6*
G04 #@! TO.N,unconnected-(U3-~{INT}-Pad6)*
X212162000Y-89624400D03*
G04 #@! TO.P,U3,7,DGND_7*
G04 #@! TO.N,GND*
X212162000Y-90274400D03*
G04 #@! TO.P,U3,8,SEN3_8*
X212162000Y-90924400D03*
G04 #@! TO.P,U3,9,DRAIN3_9*
X212162000Y-91574400D03*
G04 #@! TO.P,U3,10,GATE3_10*
G04 #@! TO.N,unconnected-(U3-GATE3-Pad10)*
X212162000Y-92224400D03*
G04 #@! TO.P,U3,11,KSENSB_11*
G04 #@! TO.N,GND*
X212162000Y-92874400D03*
G04 #@! TO.P,U3,12,SEN4_12*
X212162000Y-93524400D03*
G04 #@! TO.P,U3,13,DRAIN4_13*
X212162000Y-94174400D03*
G04 #@! TO.P,U3,14,GATE4_14*
G04 #@! TO.N,unconnected-(U3-GATE4-Pad14)*
X212162000Y-94824400D03*
G04 #@! TO.P,U3,15,SEN1_15*
G04 #@! TO.N,Net-(U3-SEN1)*
X218038000Y-94824400D03*
G04 #@! TO.P,U3,16,DRAIN1_16*
G04 #@! TO.N,Net-(U3-DRAIN1)*
X218038000Y-94174400D03*
G04 #@! TO.P,U3,17,GATE1_17*
G04 #@! TO.N,Net-(Q1-G)*
X218038000Y-93524400D03*
G04 #@! TO.P,U3,18,KSENSA_18*
G04 #@! TO.N,GND*
X218038000Y-92874400D03*
G04 #@! TO.P,U3,19,SEN2_19*
X218038000Y-92224400D03*
G04 #@! TO.P,U3,20,DRAIN2_20*
X218038000Y-91574400D03*
G04 #@! TO.P,U3,21,GATE2_21*
G04 #@! TO.N,unconnected-(U3-GATE2-Pad21)*
X218038000Y-90924400D03*
G04 #@! TO.P,U3,22,AGND_22*
G04 #@! TO.N,GND*
X218038000Y-90274400D03*
G04 #@! TO.P,U3,23,A3_23*
G04 #@! TO.N,/Address*
X218038000Y-89624400D03*
G04 #@! TO.P,U3,24,~{SHTDWN}_24*
G04 #@! TO.N,+3.3V*
X218038000Y-88974400D03*
G04 #@! TO.P,U3,25,AIN_25*
G04 #@! TO.N,unconnected-(U3-AIN-Pad25)*
X218038000Y-88324400D03*
G04 #@! TO.P,U3,26,AOUT_26*
G04 #@! TO.N,unconnected-(U3-AOUT-Pad26)*
X218038000Y-87674400D03*
G04 #@! TO.P,U3,27,N/C_27*
G04 #@! TO.N,unconnected-(U3-N{slash}C-Pad27)*
X218038000Y-87024400D03*
G04 #@! TO.P,U3,28,VPWR_28*
G04 #@! TO.N,48V*
X218038000Y-86374400D03*
G04 #@! TD*
D26*
G04 #@! TO.P,R45,1*
G04 #@! TO.N,Net-(J1-Pad18)*
X226200000Y-52575000D03*
G04 #@! TO.P,R45,2*
G04 #@! TO.N,+3.3V*
X226200000Y-54225000D03*
G04 #@! TD*
D33*
G04 #@! TO.P,U1,1,PE2_1*
G04 #@! TO.N,unconnected-(U1-PE2-Pad1)*
X182300000Y-63265000D03*
G04 #@! TO.P,U1,2,PE3_2*
G04 #@! TO.N,unconnected-(U1-PE3-Pad2)*
X182800000Y-63265000D03*
G04 #@! TO.P,U1,3,PE4_3*
G04 #@! TO.N,unconnected-(U1-PE4-Pad3)*
X183300000Y-63265000D03*
G04 #@! TO.P,U1,4,PE5_4*
G04 #@! TO.N,unconnected-(U1-PE5-Pad4)*
X183800000Y-63265000D03*
G04 #@! TO.P,U1,5,PE6_5*
G04 #@! TO.N,unconnected-(U1-PE6-Pad5)*
X184300000Y-63265000D03*
G04 #@! TO.P,U1,6,VBAT_6*
G04 #@! TO.N,unconnected-(U1-VBAT-Pad6)*
X184800000Y-63265000D03*
G04 #@! TO.P,U1,7,PC13_7*
G04 #@! TO.N,unconnected-(U1-PC13-Pad7)*
X185300000Y-63265000D03*
G04 #@! TO.P,U1,8,PC14_8*
G04 #@! TO.N,unconnected-(U1-PC14-Pad8)*
X185800000Y-63265000D03*
G04 #@! TO.P,U1,9,PC15_9*
G04 #@! TO.N,unconnected-(U1-PC15-Pad9)*
X186300000Y-63265000D03*
G04 #@! TO.P,U1,10,VSS_10*
G04 #@! TO.N,GND*
X186800000Y-63265000D03*
G04 #@! TO.P,U1,11,VDD_11*
G04 #@! TO.N,+3.3V*
X187300000Y-63265000D03*
G04 #@! TO.P,U1,12,PH0_12*
G04 #@! TO.N,/OSC0*
X187800000Y-63265000D03*
G04 #@! TO.P,U1,13,PH1_13*
G04 #@! TO.N,/OCS1*
X188300000Y-63265000D03*
G04 #@! TO.P,U1,14,NRST_14*
G04 #@! TO.N,unconnected-(U1-NRST-Pad14)*
X188800000Y-63265000D03*
G04 #@! TO.P,U1,15,PC0_15*
G04 #@! TO.N,/PC0*
X189300000Y-63265000D03*
G04 #@! TO.P,U1,16,PC1_16*
G04 #@! TO.N,unconnected-(U1-PC1-Pad16)*
X189800000Y-63265000D03*
G04 #@! TO.P,U1,17,PC2_C_17*
G04 #@! TO.N,/PC2*
X190300000Y-63265000D03*
G04 #@! TO.P,U1,18,PC3_C_18*
G04 #@! TO.N,/PC3*
X190800000Y-63265000D03*
G04 #@! TO.P,U1,19,VSSA_19*
G04 #@! TO.N,GND*
X191300000Y-63265000D03*
G04 #@! TO.P,U1,20,VREF+_20*
G04 #@! TO.N,+3.3V*
X191800000Y-63265000D03*
G04 #@! TO.P,U1,21,VDDA_21*
X192300000Y-63265000D03*
G04 #@! TO.P,U1,22,PA0_22*
G04 #@! TO.N,/UART4_TX*
X192800000Y-63265000D03*
G04 #@! TO.P,U1,23,PA1_23*
G04 #@! TO.N,/REF_CLK*
X193300000Y-63265000D03*
G04 #@! TO.P,U1,24,PA2_24*
G04 #@! TO.N,unconnected-(U1-PA2-Pad24)*
X193800000Y-63265000D03*
G04 #@! TO.P,U1,25,PA3_25*
G04 #@! TO.N,/PA3*
X194300000Y-63265000D03*
D34*
G04 #@! TO.P,U1,26,VSS_26*
G04 #@! TO.N,GND*
X195975000Y-61590000D03*
G04 #@! TO.P,U1,27,VDD_27*
G04 #@! TO.N,+3.3V*
X195975000Y-61090000D03*
G04 #@! TO.P,U1,28,PA4_28*
G04 #@! TO.N,/CS*
X195975000Y-60590000D03*
G04 #@! TO.P,U1,29,PA5_29*
G04 #@! TO.N,/SCK*
X195975000Y-60090000D03*
G04 #@! TO.P,U1,30,PA6_30*
G04 #@! TO.N,/MISO*
X195975000Y-59590000D03*
G04 #@! TO.P,U1,31,PA7_31*
G04 #@! TO.N,/CRS_DV*
X195975000Y-59090000D03*
G04 #@! TO.P,U1,32,PC4_32*
G04 #@! TO.N,/RX-*
X195975000Y-58590000D03*
G04 #@! TO.P,U1,33,PC5_33*
G04 #@! TO.N,/RX+*
X195975000Y-58090000D03*
G04 #@! TO.P,U1,34,PB0_34*
G04 #@! TO.N,/PB0*
X195975000Y-57590000D03*
G04 #@! TO.P,U1,35,PB1_35*
G04 #@! TO.N,/PB1*
X195975000Y-57090000D03*
G04 #@! TO.P,U1,36,PB2_36*
G04 #@! TO.N,/PB2*
X195975000Y-56590000D03*
G04 #@! TO.P,U1,37,PE7_37*
G04 #@! TO.N,/PE7*
X195975000Y-56090000D03*
G04 #@! TO.P,U1,38,PE8_38*
G04 #@! TO.N,/PE8*
X195975000Y-55590000D03*
G04 #@! TO.P,U1,39,PE9_39*
G04 #@! TO.N,/PE9*
X195975000Y-55090000D03*
G04 #@! TO.P,U1,40,PE10_40*
G04 #@! TO.N,unconnected-(U1-PE10-Pad40)*
X195975000Y-54590000D03*
G04 #@! TO.P,U1,41,PE11_41*
G04 #@! TO.N,/PE11*
X195975000Y-54090000D03*
G04 #@! TO.P,U1,42,PE12_42*
G04 #@! TO.N,/PE12*
X195975000Y-53590000D03*
G04 #@! TO.P,U1,43,PE13_43*
G04 #@! TO.N,Net-(U1-PE13)*
X195975000Y-53090000D03*
G04 #@! TO.P,U1,44,PE14_44*
G04 #@! TO.N,Net-(U1-PE14)*
X195975000Y-52590000D03*
G04 #@! TO.P,U1,45,PE15_45*
G04 #@! TO.N,Net-(U1-PE15)*
X195975000Y-52090000D03*
G04 #@! TO.P,U1,46,PB10_46*
G04 #@! TO.N,/PB10*
X195975000Y-51590000D03*
G04 #@! TO.P,U1,47,PB11_47*
G04 #@! TO.N,/TX_EN*
X195975000Y-51090000D03*
G04 #@! TO.P,U1,48,VCAP_48*
G04 #@! TO.N,Net-(C5-Pad2)*
X195975000Y-50590000D03*
G04 #@! TO.P,U1,49,VSS_49*
G04 #@! TO.N,GND*
X195975000Y-50090000D03*
G04 #@! TO.P,U1,50,VDD_50*
G04 #@! TO.N,+3.3V*
X195975000Y-49590000D03*
D33*
G04 #@! TO.P,U1,51,PB12_51*
G04 #@! TO.N,/TX-*
X194300000Y-47915000D03*
G04 #@! TO.P,U1,52,PB13_52*
G04 #@! TO.N,/TX+*
X193800000Y-47915000D03*
G04 #@! TO.P,U1,53,PB14_53*
G04 #@! TO.N,unconnected-(U1-PB14-Pad53)*
X193300000Y-47915000D03*
G04 #@! TO.P,U1,54,PB15_54*
G04 #@! TO.N,unconnected-(U1-PB15-Pad54)*
X192800000Y-47915000D03*
G04 #@! TO.P,U1,55,PD8_55*
G04 #@! TO.N,unconnected-(U1-PD8-Pad55)*
X192300000Y-47915000D03*
G04 #@! TO.P,U1,56,PD9_56*
G04 #@! TO.N,unconnected-(U1-PD9-Pad56)*
X191800000Y-47915000D03*
G04 #@! TO.P,U1,57,PD10_57*
G04 #@! TO.N,unconnected-(U1-PD10-Pad57)*
X191300000Y-47915000D03*
G04 #@! TO.P,U1,58,PD11_58*
G04 #@! TO.N,unconnected-(U1-PD11-Pad58)*
X190800000Y-47915000D03*
G04 #@! TO.P,U1,59,PD12_59*
G04 #@! TO.N,unconnected-(U1-PD12-Pad59)*
X190300000Y-47915000D03*
G04 #@! TO.P,U1,60,PD13_60*
G04 #@! TO.N,unconnected-(U1-PD13-Pad60)*
X189800000Y-47915000D03*
G04 #@! TO.P,U1,61,PD14_61*
G04 #@! TO.N,unconnected-(U1-PD14-Pad61)*
X189300000Y-47915000D03*
G04 #@! TO.P,U1,62,PD15_62*
G04 #@! TO.N,unconnected-(U1-PD15-Pad62)*
X188800000Y-47915000D03*
G04 #@! TO.P,U1,63,PC6_63*
G04 #@! TO.N,unconnected-(U1-PC6-Pad63)*
X188300000Y-47915000D03*
G04 #@! TO.P,U1,64,PC7_64*
G04 #@! TO.N,unconnected-(U1-PC7-Pad64)*
X187800000Y-47915000D03*
G04 #@! TO.P,U1,65,PC8_65*
G04 #@! TO.N,/PC8*
X187300000Y-47915000D03*
G04 #@! TO.P,U1,66,PC9_66*
G04 #@! TO.N,/PC9*
X186800000Y-47915000D03*
G04 #@! TO.P,U1,67,PA8_67*
G04 #@! TO.N,/INT*
X186300000Y-47915000D03*
G04 #@! TO.P,U1,68,PA9_68*
G04 #@! TO.N,/RST*
X185800000Y-47915000D03*
G04 #@! TO.P,U1,69,PA10_69*
G04 #@! TO.N,unconnected-(U1-PA10-Pad69)*
X185300000Y-47915000D03*
G04 #@! TO.P,U1,70,PA11_70*
G04 #@! TO.N,/D-*
X184800000Y-47915000D03*
G04 #@! TO.P,U1,71,PA12_71*
G04 #@! TO.N,/D+*
X184300000Y-47915000D03*
G04 #@! TO.P,U1,72,PA13_72*
G04 #@! TO.N,/SWDIO*
X183800000Y-47915000D03*
G04 #@! TO.P,U1,73,VCAP_73*
G04 #@! TO.N,Net-(C3-Pad2)*
X183300000Y-47915000D03*
G04 #@! TO.P,U1,74,VSS_74*
G04 #@! TO.N,GND*
X182800000Y-47915000D03*
G04 #@! TO.P,U1,75,VDD_75*
G04 #@! TO.N,+3.3V*
X182300000Y-47915000D03*
D34*
G04 #@! TO.P,U1,76,PA14_76*
G04 #@! TO.N,/SWCLK*
X180625000Y-49590000D03*
G04 #@! TO.P,U1,77,PA15_77*
G04 #@! TO.N,unconnected-(U1-PA15-Pad77)*
X180625000Y-50090000D03*
G04 #@! TO.P,U1,78,PC10_78*
G04 #@! TO.N,/PC10*
X180625000Y-50590000D03*
G04 #@! TO.P,U1,79,PC11_79*
G04 #@! TO.N,/PC11*
X180625000Y-51090000D03*
G04 #@! TO.P,U1,80,PC12_80*
G04 #@! TO.N,/PC12*
X180625000Y-51590000D03*
G04 #@! TO.P,U1,81,PD0_81*
G04 #@! TO.N,unconnected-(U1-PD0-Pad81)*
X180625000Y-52090000D03*
G04 #@! TO.P,U1,82,PD1_82*
G04 #@! TO.N,unconnected-(U1-PD1-Pad82)*
X180625000Y-52590000D03*
G04 #@! TO.P,U1,83,PD2_83*
G04 #@! TO.N,/PD2*
X180625000Y-53090000D03*
G04 #@! TO.P,U1,84,PD3_84*
G04 #@! TO.N,unconnected-(U1-PD3-Pad84)*
X180625000Y-53590000D03*
G04 #@! TO.P,U1,85,PD4_85*
G04 #@! TO.N,unconnected-(U1-PD4-Pad85)*
X180625000Y-54090000D03*
G04 #@! TO.P,U1,86,PD5_86*
G04 #@! TO.N,unconnected-(U1-PD5-Pad86)*
X180625000Y-54590000D03*
G04 #@! TO.P,U1,87,PD6_87*
G04 #@! TO.N,unconnected-(U1-PD6-Pad87)*
X180625000Y-55090000D03*
G04 #@! TO.P,U1,88,PD7_88*
G04 #@! TO.N,unconnected-(U1-PD7-Pad88)*
X180625000Y-55590000D03*
G04 #@! TO.P,U1,89,PB3_89*
G04 #@! TO.N,/SWO{slash}TRACE*
X180625000Y-56090000D03*
G04 #@! TO.P,U1,90,PB4_90*
G04 #@! TO.N,unconnected-(U1-PB4-Pad90)*
X180625000Y-56590000D03*
G04 #@! TO.P,U1,91,PB5_91*
G04 #@! TO.N,unconnected-(U1-PB5-Pad91)*
X180625000Y-57090000D03*
G04 #@! TO.P,U1,92,PB6_92*
G04 #@! TO.N,/Clock*
X180625000Y-57590000D03*
G04 #@! TO.P,U1,93,PB7_93*
G04 #@! TO.N,/Data*
X180625000Y-58090000D03*
G04 #@! TO.P,U1,94,BOOT0_94*
G04 #@! TO.N,/BOOT0*
X180625000Y-58590000D03*
G04 #@! TO.P,U1,95,PB8_95*
G04 #@! TO.N,unconnected-(U1-PB8-Pad95)*
X180625000Y-59090000D03*
G04 #@! TO.P,U1,96,PB9_96*
G04 #@! TO.N,unconnected-(U1-PB9-Pad96)*
X180625000Y-59590000D03*
G04 #@! TO.P,U1,97,PE0_97*
G04 #@! TO.N,unconnected-(U1-PE0-Pad97)*
X180625000Y-60090000D03*
G04 #@! TO.P,U1,98,PE1_98*
G04 #@! TO.N,unconnected-(U1-PE1-Pad98)*
X180625000Y-60590000D03*
G04 #@! TO.P,U1,99,VSS_99*
G04 #@! TO.N,GND*
X180625000Y-61090000D03*
G04 #@! TO.P,U1,100,VDD_100*
G04 #@! TO.N,+3.3V*
X180625000Y-61590000D03*
G04 #@! TD*
D13*
G04 #@! TO.P,TP2,1,1_1*
G04 #@! TO.N,+3.3V*
X245140000Y-40150000D03*
G04 #@! TD*
G04 #@! TO.P,TP3,1,1_1*
G04 #@! TO.N,48V*
X223830000Y-88760000D03*
G04 #@! TD*
D23*
G04 #@! TO.P,C2,1*
G04 #@! TO.N,+3.3V*
X192290000Y-65115000D03*
G04 #@! TO.P,C2,2*
G04 #@! TO.N,GND*
X192290000Y-66665000D03*
G04 #@! TD*
G04 #@! TO.P,C11,1*
G04 #@! TO.N,GND*
X219925000Y-84824400D03*
G04 #@! TO.P,C11,2*
G04 #@! TO.N,48V*
X219925000Y-86374400D03*
G04 #@! TD*
D25*
G04 #@! TO.P,R48,1*
G04 #@! TO.N,/P2LED1*
X226170000Y-51145000D03*
G04 #@! TO.P,R48,2*
G04 #@! TO.N,GND*
X226170000Y-49495000D03*
G04 #@! TD*
D35*
G04 #@! TO.P,D8,1,K_1*
G04 #@! TO.N,+3.3V*
X219625000Y-79758347D03*
G04 #@! TO.P,D8,2,A_2*
G04 #@! TO.N,Net-(D8-A)*
X219625000Y-75758347D03*
G04 #@! TD*
D16*
G04 #@! TO.P,C35,1*
G04 #@! TO.N,+1.8V*
X202820263Y-71095296D03*
G04 #@! TO.P,C35,2*
G04 #@! TO.N,GND*
X202820263Y-69545296D03*
G04 #@! TD*
D14*
G04 #@! TO.P,R7,1*
G04 #@! TO.N,Net-(Q1-S_1)*
X216625000Y-100424400D03*
G04 #@! TO.P,R7,2*
G04 #@! TO.N,GND*
X214975000Y-100424400D03*
G04 #@! TD*
G04 #@! TO.P,R9,1*
G04 #@! TO.N,Net-(Q1-S_1)*
X216625000Y-97374400D03*
G04 #@! TO.P,R9,2*
G04 #@! TO.N,GND*
X214975000Y-97374400D03*
G04 #@! TD*
D25*
G04 #@! TO.P,R19,1*
G04 #@! TO.N,Net-(C18-Pad1)*
X222266682Y-70026800D03*
G04 #@! TO.P,R19,2*
G04 #@! TO.N,/RX2+*
X222266682Y-68376800D03*
G04 #@! TD*
D36*
G04 #@! TO.P,Y1,1,1_1*
G04 #@! TO.N,/OCS1*
X187990000Y-66042500D03*
G04 #@! TO.P,Y1,2,GND_2*
G04 #@! TO.N,GND*
X187990000Y-68242500D03*
X184290000Y-66042500D03*
G04 #@! TO.P,Y1,3,2_3*
G04 #@! TO.N,/OSC0*
X184290000Y-68242500D03*
G04 #@! TD*
D37*
G04 #@! TO.P,J9,A1,GND_A1*
G04 #@! TO.N,GND*
X194100000Y-44580000D03*
G04 #@! TO.P,J9,A4,VBUS_A4*
G04 #@! TO.N,unconnected-(J9-VBUS-PadA4)_2*
X193300000Y-44580000D03*
D38*
G04 #@! TO.P,J9,A5,CC1_A5*
G04 #@! TO.N,Net-(J9-CC1)*
X192150000Y-44580000D03*
G04 #@! TO.P,J9,A6,D+_A6*
G04 #@! TO.N,/D+*
X191150000Y-44580000D03*
G04 #@! TO.P,J9,A7,D-_A7*
G04 #@! TO.N,/D-*
X190650000Y-44580000D03*
G04 #@! TO.P,J9,A8,SBU1_A8*
G04 #@! TO.N,unconnected-(J9-SBU1-PadA8)*
X189650000Y-44580000D03*
D37*
G04 #@! TO.P,J9,A9,VBUS_A9*
G04 #@! TO.N,unconnected-(J9-VBUS-PadA4)*
X188500000Y-44580000D03*
G04 #@! TO.P,J9,A12,GND_A12*
G04 #@! TO.N,GND*
X187700000Y-44580000D03*
G04 #@! TO.P,J9,B1,GND_B1*
X187700000Y-44580000D03*
D38*
G04 #@! TO.P,J9,B5,CC2_B5*
G04 #@! TO.N,Net-(J9-CC2)*
X189150000Y-44580000D03*
G04 #@! TO.P,J9,B6,D+_B6*
G04 #@! TO.N,/D+*
X190150000Y-44580000D03*
G04 #@! TO.P,J9,B7,D-_B7*
G04 #@! TO.N,/D-*
X191650000Y-44580000D03*
G04 #@! TO.P,J9,B8,SBU2_B8*
G04 #@! TO.N,unconnected-(J9-SBU2-PadB8)*
X192650000Y-44580000D03*
D37*
G04 #@! TO.P,J9,B12,GND_B12*
G04 #@! TO.N,GND*
X194100000Y-44580000D03*
D39*
G04 #@! TO.P,J9,SH*
G04 #@! TO.N,N/C*
X195220000Y-44005000D03*
D40*
X195220000Y-39825000D03*
D39*
X186580000Y-44005000D03*
D40*
X186580000Y-39825000D03*
G04 #@! TD*
D41*
G04 #@! TO.P,Q1,1,S_1_1*
G04 #@! TO.N,Net-(Q1-S_1)*
X218945000Y-100024400D03*
G04 #@! TO.P,Q1,2,S_2_2*
X218945000Y-100674400D03*
G04 #@! TO.P,Q1,3,S_3_3*
X218945000Y-101324400D03*
G04 #@! TO.P,Q1,4,G_4*
G04 #@! TO.N,Net-(Q1-G)*
X218945000Y-101974400D03*
D42*
G04 #@! TO.P,Q1,5,D_1_5*
G04 #@! TO.N,Net-(Q1-D_1)*
X221951000Y-101974400D03*
G04 #@! TO.P,Q1,6,D_2_6*
X221951000Y-101324400D03*
G04 #@! TO.P,Q1,7,D_3_7*
X221951000Y-100674400D03*
G04 #@! TO.P,Q1,8,D_4_8*
X221951000Y-100024400D03*
D43*
G04 #@! TO.P,Q1,D1,D_5_D1*
X220770000Y-100999400D03*
D44*
G04 #@! TO.P,Q1,D2,D_6_D2*
X221775000Y-99724400D03*
G04 #@! TO.P,Q1,D3,D_7_D3*
X221775000Y-102274400D03*
G04 #@! TD*
D26*
G04 #@! TO.P,R28,1*
G04 #@! TO.N,/CRS_DV*
X214050000Y-61358347D03*
G04 #@! TO.P,R28,2*
G04 #@! TO.N,Net-(U2-SMTXEN3)*
X214050000Y-63008347D03*
G04 #@! TD*
D24*
G04 #@! TO.P,D5,1,K_1*
G04 #@! TO.N,GND*
X208277500Y-53265000D03*
G04 #@! TO.P,D5,2,A_2*
G04 #@! TO.N,Net-(D5-A)*
X206402500Y-53265000D03*
G04 #@! TD*
D45*
G04 #@! TO.N,GND*
X186130000Y-67112500D03*
X210970000Y-84570000D03*
X185600000Y-44900000D03*
X209520000Y-50940000D03*
X247350000Y-87340000D03*
X216020000Y-76580000D03*
X209775000Y-61000000D03*
X219110000Y-70458347D03*
X209640000Y-53295000D03*
X197100000Y-39900000D03*
X223560000Y-71160000D03*
X214290000Y-93520000D03*
X196340000Y-63870000D03*
X209025000Y-60808347D03*
X182200000Y-65672500D03*
X215000000Y-43500000D03*
X216330000Y-93170000D03*
X247330000Y-66320000D03*
X216000000Y-43500000D03*
X211999228Y-43496217D03*
X190040000Y-68642500D03*
X219150000Y-73370000D03*
X180040000Y-45990000D03*
X182440000Y-44210000D03*
X216370000Y-91240000D03*
X211525000Y-76608347D03*
X214213243Y-76646757D03*
X213880000Y-91680000D03*
X186780000Y-61840000D03*
X217500200Y-62204600D03*
X211925000Y-70508347D03*
X191310000Y-61920000D03*
X215290000Y-68380000D03*
X213000000Y-43500000D03*
X213575000Y-70533347D03*
X214340000Y-90940000D03*
X199500000Y-49350000D03*
X211179171Y-66939954D03*
X191350000Y-66660000D03*
X219150000Y-69633346D03*
X211025000Y-43500000D03*
X209300000Y-69783347D03*
X218690000Y-84830000D03*
X217000000Y-43500000D03*
X219000000Y-43500000D03*
X225100000Y-49510000D03*
X220000000Y-43500000D03*
X190470000Y-59370000D03*
X214970000Y-103470000D03*
X242790000Y-40160000D03*
X201500000Y-69558347D03*
X237980000Y-86620000D03*
X218000000Y-43500000D03*
X209590000Y-55660000D03*
X225190000Y-91630000D03*
X216010000Y-90270000D03*
X223976691Y-73343309D03*
X226510000Y-69950000D03*
X184700000Y-39900000D03*
X194600000Y-46000000D03*
X233360000Y-66820000D03*
X213910000Y-90050000D03*
X214000000Y-43500000D03*
X197900000Y-47130000D03*
X213740000Y-92590000D03*
X213810000Y-94410000D03*
X178630000Y-63890000D03*
X215950000Y-92200000D03*
G04 #@! TO.N,Net-(U2-SMRXD31)*
X209410000Y-66970000D03*
G04 #@! TO.N,/TX+*
X194663036Y-50012706D03*
X200664999Y-63909999D03*
G04 #@! TO.N,+3.3V*
X229500000Y-43000000D03*
X224790000Y-83060000D03*
X229500000Y-42000000D03*
X230500000Y-43000000D03*
X247430000Y-40160000D03*
X207875000Y-74933347D03*
X227500000Y-42000000D03*
X230500000Y-42000000D03*
X224950000Y-81920000D03*
X210788156Y-72852810D03*
X235170000Y-87630000D03*
X197940000Y-63940000D03*
X180080000Y-47530000D03*
X208600000Y-64808347D03*
X190520000Y-60950000D03*
X207790000Y-88790000D03*
X204954576Y-63909564D03*
X180180000Y-63880000D03*
X211350000Y-62925000D03*
X228500000Y-42000000D03*
X230300000Y-68340000D03*
X228500000Y-43000000D03*
X210300000Y-66925000D03*
X225000000Y-54300000D03*
X205750000Y-75880000D03*
X226500000Y-43000000D03*
X219370000Y-88990000D03*
X224890000Y-62390000D03*
X203675000Y-73508347D03*
X219580000Y-77860000D03*
X187830000Y-61830000D03*
X216990000Y-78440000D03*
X210070000Y-86980000D03*
X226500000Y-42000000D03*
X231800000Y-72580000D03*
X196340000Y-47120000D03*
X191300000Y-65130000D03*
X215351898Y-71569336D03*
X227487775Y-42994683D03*
G04 #@! TO.N,/D2-*
X224524434Y-77885945D03*
G04 #@! TO.N,/D2+*
X225374434Y-77885945D03*
G04 #@! TO.N,/D1-*
X226127805Y-77262195D03*
X227607521Y-77670000D03*
G04 #@! TO.N,/D1+*
X227000521Y-76932826D03*
G04 #@! TO.N,Net-(U2-ISET)*
X214912976Y-70522367D03*
G04 #@! TO.N,+1.8V*
X212050000Y-72833347D03*
X215203399Y-69253399D03*
G04 #@! TO.N,/RX2-*
X225600000Y-66505000D03*
G04 #@! TO.N,/RX2+*
X225600000Y-67355000D03*
X221620000Y-69090000D03*
X219725600Y-68406773D03*
G04 #@! TO.N,/REF_CLK*
X211220000Y-71120000D03*
X193880000Y-65815000D03*
G04 #@! TO.N,Net-(U2-SMTXD33{slash}EN_REFCLKO_3)*
X213374999Y-66762889D03*
G04 #@! TO.N,Net-(U2-SMTXD32)*
X211975000Y-66858347D03*
G04 #@! TO.N,Net-(U2-SMTXC3{slash}REFCLKI_3)*
X196036371Y-66383629D03*
X208000000Y-62880000D03*
G04 #@! TO.N,Net-(U2-SMRXDV3)*
X207450000Y-64833347D03*
G04 #@! TO.N,Net-(U2-SMRXD33{slash}REFCLKO_3)*
X206894299Y-67184854D03*
G04 #@! TO.N,Net-(U2-SMRXD32)*
X209550000Y-68033347D03*
G04 #@! TO.N,Net-(U2-SMRXD30)*
X210230000Y-69695000D03*
G04 #@! TO.N,/Lost Connect*
X204650000Y-72583347D03*
G04 #@! TO.N,/Clock*
X210810000Y-87520000D03*
X207950000Y-87420000D03*
G04 #@! TO.N,/Data*
X181950000Y-58050000D03*
X208800000Y-74033347D03*
G04 #@! TO.N,/P1LED1*
X221820000Y-81930000D03*
G04 #@! TO.N,/P2LED1*
X213712976Y-72235019D03*
X225060000Y-51320000D03*
G04 #@! TO.N,/P2LED0*
X225080373Y-61450373D03*
X214060328Y-72990883D03*
G04 #@! TO.N,/TX_EN*
X197274099Y-60702399D03*
X194520000Y-52050000D03*
G04 #@! TO.N,/TX-*
X194750000Y-49040000D03*
X199865000Y-63710000D03*
G04 #@! TO.N,/SWO{slash}TRACE*
X178700000Y-56100000D03*
X183900000Y-70600000D03*
G04 #@! TO.N,/SWCLK*
X183200000Y-69700000D03*
X181908831Y-52302327D03*
G04 #@! TO.N,/SWDIO*
X183800000Y-49400000D03*
X180500000Y-65800000D03*
G04 #@! TO.N,Net-(Q1-G)*
X218180000Y-102710000D03*
X216760000Y-95950000D03*
G04 #@! TO.N,/CRS_DV*
X214020000Y-60240000D03*
X201170000Y-61730000D03*
G04 #@! TD*
G04 #@! TO.N,GND*
D46*
X225115000Y-49495000D02*
X225100000Y-49510000D01*
X178635000Y-63885000D02*
X178630000Y-63890000D01*
X192290000Y-66665000D02*
X191355000Y-66665000D01*
X211525000Y-76608347D02*
X211525000Y-77660000D01*
D47*
X218038000Y-92874400D02*
X216625600Y-92874400D01*
D46*
X211525000Y-77660000D02*
X211475000Y-77710000D01*
X218589998Y-62191600D02*
X217513200Y-62191600D01*
X196355000Y-62820000D02*
X196355000Y-63855000D01*
X196355000Y-62820000D02*
X196355000Y-61970000D01*
D48*
X225150000Y-91670000D02*
X225190000Y-91630000D01*
D46*
X247380000Y-87370000D02*
X247350000Y-87340000D01*
X178635000Y-62850000D02*
X178635000Y-62247590D01*
D47*
X219925000Y-84824400D02*
X218695600Y-84824400D01*
X213880000Y-91680000D02*
X213670000Y-91680000D01*
D46*
X182200000Y-66590000D02*
X182200000Y-65672500D01*
D47*
X213810000Y-94380000D02*
X213604400Y-94174400D01*
D46*
X196807410Y-50090000D02*
X195975000Y-50090000D01*
X178635000Y-62247590D02*
X179792590Y-61090000D01*
D47*
X213910000Y-90090000D02*
X213725600Y-90274400D01*
D49*
X208277500Y-55600000D02*
X209530000Y-55600000D01*
D46*
X226170000Y-49495000D02*
X225115000Y-49495000D01*
X182800000Y-47082590D02*
X182800000Y-47915000D01*
D47*
X218695600Y-84824400D02*
X218690000Y-84830000D01*
D46*
X178635000Y-62850000D02*
X178635000Y-63885000D01*
X187260000Y-68242500D02*
X187990000Y-68242500D01*
X181702410Y-45985000D02*
X182800000Y-47082590D01*
X181080000Y-45985000D02*
X181702410Y-45985000D01*
X186800000Y-61860000D02*
X186780000Y-61840000D01*
D47*
X213740000Y-92760000D02*
X213625600Y-92874400D01*
X213725600Y-90274400D02*
X212162000Y-90274400D01*
D46*
X211179171Y-66939954D02*
X211165752Y-66926535D01*
X197905000Y-48320000D02*
X197905000Y-48992410D01*
X186800000Y-63265000D02*
X186800000Y-61860000D01*
X186130000Y-67112500D02*
X187260000Y-68242500D01*
X182445000Y-44205000D02*
X182440000Y-44210000D01*
D47*
X212162000Y-93524400D02*
X214285600Y-93524400D01*
D46*
X197100000Y-39087500D02*
X197100000Y-39900000D01*
X205900000Y-69558347D02*
X201500000Y-69558347D01*
X187700000Y-44580000D02*
X186705000Y-45575000D01*
X215250000Y-77308347D02*
X215291653Y-77308347D01*
D48*
X225150000Y-94099400D02*
X225150000Y-91670000D01*
D49*
X209530000Y-55600000D02*
X209590000Y-55660000D01*
D46*
X211165752Y-66773952D02*
X211045900Y-66654100D01*
X208066800Y-70033347D02*
X209125000Y-70033347D01*
D47*
X213670000Y-91680000D02*
X213564400Y-91574400D01*
X216625600Y-92874400D02*
X216330000Y-93170000D01*
D46*
X232292721Y-66800008D02*
X233340008Y-66800008D01*
X185060000Y-66042500D02*
X186130000Y-67112500D01*
X209125000Y-70033347D02*
X209300000Y-69858347D01*
D47*
X218038000Y-90274400D02*
X216014400Y-90274400D01*
D49*
X208292500Y-50940000D02*
X209520000Y-50940000D01*
D46*
X197905000Y-48992410D02*
X196807410Y-50090000D01*
D48*
X214975000Y-103465000D02*
X214970000Y-103470000D01*
D47*
X218038000Y-91574400D02*
X216704400Y-91574400D01*
D46*
X242780000Y-40150000D02*
X242790000Y-40160000D01*
X196355000Y-63855000D02*
X196340000Y-63870000D01*
X211545899Y-74012447D02*
X211545899Y-76587448D01*
X225340000Y-69950000D02*
X226510000Y-69950000D01*
X199505000Y-49355000D02*
X199500000Y-49350000D01*
X196355000Y-61970000D02*
X195975000Y-61590000D01*
X233340008Y-66800008D02*
X233360000Y-66820000D01*
X191300000Y-63265000D02*
X191300000Y-61930000D01*
X197905000Y-48320000D02*
X197905000Y-47135000D01*
D47*
X214285600Y-93524400D02*
X214290000Y-93520000D01*
X212162000Y-90274400D02*
X212162000Y-91574400D01*
D46*
X215291653Y-77308347D02*
X216020000Y-76580000D01*
X183320000Y-44205000D02*
X182445000Y-44205000D01*
D47*
X212162000Y-90924400D02*
X214324400Y-90924400D01*
D46*
X217513200Y-62191600D02*
X217500200Y-62204600D01*
D47*
X210100000Y-84549400D02*
X210949400Y-84549400D01*
D46*
X180045000Y-45985000D02*
X180040000Y-45990000D01*
D47*
X213910000Y-90050000D02*
X213910000Y-90090000D01*
D46*
X190050000Y-67585000D02*
X190050000Y-68632500D01*
X248455000Y-87370000D02*
X247380000Y-87370000D01*
D47*
X210949400Y-84549400D02*
X210970000Y-84570000D01*
D46*
X190050000Y-68632500D02*
X190040000Y-68642500D01*
X197905000Y-47135000D02*
X197900000Y-47130000D01*
D49*
X208277500Y-53265000D02*
X209610000Y-53265000D01*
D47*
X213564400Y-91574400D02*
X212162000Y-91574400D01*
D48*
X214975000Y-97374400D02*
X214975000Y-101949400D01*
D46*
X179792590Y-61090000D02*
X180625000Y-61090000D01*
D47*
X213625600Y-92874400D02*
X212162000Y-92874400D01*
D46*
X181080000Y-45985000D02*
X180045000Y-45985000D01*
X240590000Y-40150000D02*
X242780000Y-40150000D01*
X248435000Y-66290000D02*
X247360000Y-66290000D01*
X247360000Y-66290000D02*
X247330000Y-66320000D01*
D47*
X212162000Y-94174400D02*
X212162000Y-92874400D01*
X218038000Y-92224400D02*
X215974400Y-92224400D01*
D46*
X186275000Y-45575000D02*
X185600000Y-44900000D01*
X237915000Y-87620000D02*
X237915000Y-86685000D01*
D47*
X216704400Y-91574400D02*
X216370000Y-91240000D01*
D46*
X194100000Y-44580000D02*
X194100000Y-45500000D01*
X191300000Y-61930000D02*
X191310000Y-61920000D01*
D47*
X213604400Y-94174400D02*
X212162000Y-94174400D01*
X214324400Y-90924400D02*
X214340000Y-90940000D01*
X213740000Y-92590000D02*
X213740000Y-92760000D01*
D46*
X211545899Y-76587448D02*
X211525000Y-76608347D01*
X211045900Y-66654100D02*
X211045900Y-65554247D01*
X184290000Y-66042500D02*
X185060000Y-66042500D01*
D47*
X216014400Y-90274400D02*
X216010000Y-90270000D01*
D46*
X194100000Y-45500000D02*
X194600000Y-46000000D01*
D47*
X213810000Y-94410000D02*
X213810000Y-94380000D01*
D46*
X215636652Y-68033348D02*
X215290000Y-68380000D01*
X211165752Y-66926535D02*
X211165752Y-66773952D01*
X184700000Y-39087500D02*
X184700000Y-39900000D01*
X186705000Y-45575000D02*
X186275000Y-45575000D01*
X216525000Y-68033348D02*
X215636652Y-68033348D01*
X199505000Y-50590000D02*
X199505000Y-49355000D01*
D48*
X214975000Y-101949400D02*
X214975000Y-103465000D01*
D47*
X215974400Y-92224400D02*
X215950000Y-92200000D01*
D46*
X237915000Y-86685000D02*
X237980000Y-86620000D01*
G04 #@! TO.N,Net-(J9-CC2)*
X189150000Y-44580000D02*
X189150000Y-43690406D01*
X189150000Y-43690406D02*
X186484594Y-41025000D01*
X186484594Y-41025000D02*
X184812500Y-41025000D01*
G04 #@! TO.N,Net-(C18-Pad1)*
X223710000Y-70030000D02*
X223790000Y-69950000D01*
X220700600Y-70030000D02*
X223710000Y-70030000D01*
G04 #@! TO.N,Net-(C5-Pad2)*
D49*
X195975000Y-50590000D02*
X197955000Y-50590000D01*
G04 #@! TO.N,V-*
D48*
X225150000Y-98542108D02*
X225150000Y-97813800D01*
X224491308Y-99200800D02*
X225150000Y-98542108D01*
X221250000Y-93530000D02*
X221250000Y-96917107D01*
X235250000Y-98324400D02*
X234614400Y-98960000D01*
X225150000Y-100524400D02*
X225150000Y-97813800D01*
X232155992Y-98960000D02*
X230700000Y-97504008D01*
X230700000Y-97504008D02*
X228704008Y-99500000D01*
X242500000Y-83676000D02*
X242500000Y-93037056D01*
X242500000Y-93037056D02*
X237212656Y-98324400D01*
X230700000Y-97470000D02*
X230700000Y-97504008D01*
X226600000Y-101974400D02*
X225150000Y-100524400D01*
X228704008Y-99500000D02*
X226107892Y-99500000D01*
X237212656Y-98324400D02*
X235250000Y-98324400D01*
X223533693Y-99200800D02*
X224491308Y-99200800D01*
X221250000Y-96917107D02*
X223533693Y-99200800D01*
X234614400Y-98960000D02*
X232155992Y-98960000D01*
X226107892Y-99500000D02*
X225150000Y-98542108D01*
G04 #@! TO.N,Net-(U2-SMRXD31)*
D46*
X209410000Y-66970000D02*
X210150000Y-67710000D01*
X207232386Y-68533347D02*
X208066800Y-68533347D01*
X209073554Y-68640000D02*
X208966901Y-68533347D01*
X210150000Y-67710000D02*
X210150000Y-68281876D01*
X205350000Y-66650961D02*
X207232386Y-68533347D01*
X208966901Y-68533347D02*
X208066800Y-68533347D01*
X210150000Y-68281876D02*
X209791876Y-68640000D01*
X209791876Y-68640000D02*
X209073554Y-68640000D01*
X205350000Y-66483347D02*
X205350000Y-66650961D01*
G04 #@! TO.N,/TX+*
X194663036Y-50012706D02*
X194663036Y-49941994D01*
X200515001Y-64059997D02*
X200515001Y-64211951D01*
X193800000Y-49078958D02*
X193800000Y-47915000D01*
X202786397Y-66483347D02*
X203700000Y-66483347D01*
X200664999Y-63909999D02*
X200515001Y-64059997D01*
X200515001Y-64211951D02*
X202786397Y-66483347D01*
X194663036Y-49941994D02*
X193800000Y-49078958D01*
G04 #@! TO.N,Net-(J9-CC1)*
X195097590Y-41025000D02*
X196987500Y-41025000D01*
X196987500Y-41025000D02*
X197100000Y-40912500D01*
X192150000Y-44580000D02*
X192150000Y-43972590D01*
X192150000Y-43972590D02*
X195097590Y-41025000D01*
G04 #@! TO.N,Net-(U2-SMTXD30)*
D50*
X199955000Y-58620000D02*
X205610182Y-58620000D01*
X205610182Y-58620000D02*
X211545899Y-64555717D01*
X211545899Y-64555717D02*
X211545899Y-65554247D01*
G04 #@! TO.N,/RX-*
X195975000Y-58590000D02*
X198275000Y-58590000D01*
D46*
X198275000Y-58590000D02*
X198305000Y-58620000D01*
G04 #@! TO.N,Net-(U1-PE15)*
D49*
X202215000Y-52090000D02*
X202600000Y-51705000D01*
X202215000Y-52090000D02*
X195975000Y-52090000D01*
G04 #@! TO.N,Net-(D4-A)*
D51*
X204250000Y-51705000D02*
X205652500Y-51705000D01*
X205652500Y-51705000D02*
X206417500Y-50940000D01*
G04 #@! TO.N,Net-(D8-A)*
D46*
X216875000Y-75758347D02*
X216925000Y-75708347D01*
X218825000Y-75708347D02*
X219675000Y-74858347D01*
X215250000Y-75758347D02*
X216875000Y-75758347D01*
X214545901Y-75054248D02*
X215250000Y-75758347D01*
X214545901Y-74012447D02*
X214545901Y-75054248D01*
X216925000Y-75708347D02*
X218825000Y-75708347D01*
G04 #@! TO.N,+3.3V*
X187767590Y-61965000D02*
X187300000Y-62432590D01*
D47*
X210100000Y-86950000D02*
X210070000Y-86980000D01*
D46*
X195975000Y-61090000D02*
X196807410Y-61090000D01*
X229305439Y-68333114D02*
X230293114Y-68333114D01*
X196355000Y-49210000D02*
X195975000Y-49590000D01*
X226160000Y-81535000D02*
X225335000Y-81535000D01*
X224915000Y-62365000D02*
X224890000Y-62390000D01*
X235613048Y-62711717D02*
X234939678Y-62038347D01*
X192300000Y-63265000D02*
X192300000Y-65105000D01*
X197905000Y-63905000D02*
X197940000Y-63940000D01*
X234183222Y-83168000D02*
X233864000Y-83168000D01*
X210545901Y-65554247D02*
X210545901Y-66679099D01*
X226130000Y-62365000D02*
X224915000Y-62365000D01*
X233864000Y-83168000D02*
X232340000Y-83168000D01*
D51*
X216925000Y-78375000D02*
X216990000Y-78440000D01*
D46*
X180185000Y-62850000D02*
X180185000Y-63875000D01*
D47*
X208725000Y-88799400D02*
X207799400Y-88799400D01*
D46*
X196807410Y-61090000D02*
X197905000Y-62187590D01*
D51*
X219625000Y-79758347D02*
X219625000Y-77905000D01*
D46*
X187300000Y-62432590D02*
X187300000Y-63265000D01*
X224835000Y-83105000D02*
X224790000Y-83060000D01*
X191800000Y-63265000D02*
X192300000Y-63265000D01*
X197905000Y-62820000D02*
X197905000Y-63905000D01*
X197905000Y-62187590D02*
X197905000Y-62820000D01*
D47*
X207799400Y-88799400D02*
X207790000Y-88790000D01*
D51*
X219625000Y-77905000D02*
X219580000Y-77860000D01*
D46*
X191300000Y-65130000D02*
X192275000Y-65130000D01*
X226200000Y-54225000D02*
X225075000Y-54225000D01*
X230742721Y-67897279D02*
X230300000Y-68340000D01*
D47*
X212162000Y-87024400D02*
X212162000Y-86374400D01*
D46*
X210545901Y-66679099D02*
X210300000Y-66925000D01*
X181080000Y-47535000D02*
X180085000Y-47535000D01*
X229300000Y-67340000D02*
X230300000Y-68340000D01*
X230742721Y-66800008D02*
X230742721Y-67897279D01*
X236365000Y-87620000D02*
X235180000Y-87620000D01*
X225075000Y-54225000D02*
X225000000Y-54300000D01*
X192300000Y-65105000D02*
X192290000Y-65115000D01*
X229300000Y-66802000D02*
X229300000Y-67340000D01*
X232340000Y-83168000D02*
X231324000Y-84184000D01*
D49*
X205760000Y-75870000D02*
X205750000Y-75880000D01*
D46*
X235180000Y-87620000D02*
X235170000Y-87630000D01*
X180085000Y-47535000D02*
X180080000Y-47530000D01*
D47*
X212162000Y-86374400D02*
X210375000Y-86374400D01*
D46*
X196355000Y-48320000D02*
X196355000Y-47135000D01*
X234939678Y-62038347D02*
X233862048Y-62038347D01*
D47*
X210375000Y-86374400D02*
X210100000Y-86099400D01*
D46*
X180185000Y-62030000D02*
X180625000Y-61590000D01*
X225335000Y-81535000D02*
X224950000Y-81920000D01*
X230293114Y-68333114D02*
X230300000Y-68340000D01*
X187830000Y-61830000D02*
X187767590Y-61892410D01*
X235554470Y-65973747D02*
X235613048Y-65915169D01*
D51*
X216925000Y-77358347D02*
X216925000Y-78375000D01*
D46*
X231568982Y-65973747D02*
X235554470Y-65973747D01*
X215351898Y-70931449D02*
X215749999Y-70533348D01*
X196355000Y-48320000D02*
X196355000Y-49210000D01*
X235613048Y-65915169D02*
X235613048Y-62711717D01*
X232338048Y-62038347D02*
X231322048Y-63054347D01*
X180185000Y-62850000D02*
X180185000Y-62030000D01*
X236365000Y-87620000D02*
X236365000Y-85349778D01*
D47*
X218038000Y-88974400D02*
X219354400Y-88974400D01*
D46*
X180185000Y-63875000D02*
X180180000Y-63880000D01*
X245140000Y-40150000D02*
X247420000Y-40150000D01*
X236365000Y-85349778D02*
X234183222Y-83168000D01*
X215351898Y-71569336D02*
X215351898Y-70931449D01*
X233862048Y-62038347D02*
X232338048Y-62038347D01*
X215749999Y-70533348D02*
X216525000Y-70533348D01*
X230742721Y-66800008D02*
X231568982Y-65973747D01*
X211045900Y-73110554D02*
X210788156Y-72852810D01*
X226130000Y-83105000D02*
X224835000Y-83105000D01*
D47*
X219354400Y-88974400D02*
X219370000Y-88990000D01*
D46*
X196355000Y-47135000D02*
X196340000Y-47120000D01*
X192275000Y-65130000D02*
X192290000Y-65115000D01*
X181080000Y-47535000D02*
X182045000Y-47535000D01*
D49*
X205760000Y-74485000D02*
X205760000Y-75870000D01*
D46*
X187767590Y-61892410D02*
X187767590Y-61965000D01*
X182045000Y-47535000D02*
X182350000Y-47840000D01*
X211045900Y-74012447D02*
X211045900Y-73110554D01*
X192290000Y-63275000D02*
X192300000Y-63265000D01*
D47*
X210100000Y-86099400D02*
X210100000Y-86950000D01*
D46*
X247420000Y-40150000D02*
X247430000Y-40160000D01*
G04 #@! TO.N,/D2-*
D52*
X216525000Y-72533347D02*
X217534651Y-72533347D01*
D46*
X224524434Y-77885945D02*
X224524434Y-77672342D01*
D52*
X217534651Y-72533347D02*
X217576151Y-72491847D01*
X217576151Y-72491847D02*
X219390608Y-72491847D01*
X219390608Y-72491847D02*
X224524434Y-77625673D01*
X224524434Y-77625673D02*
X224524434Y-77885945D01*
G04 #@! TO.N,/D2+*
X217576151Y-72074848D02*
X219571765Y-72074848D01*
X219571765Y-72074848D02*
X225131434Y-77634517D01*
X225131434Y-77642945D02*
X225374434Y-77885945D01*
X216525000Y-72033348D02*
X217534651Y-72033348D01*
X217534651Y-72033348D02*
X217576151Y-72074848D01*
X225131434Y-77634517D02*
X225131434Y-77642945D01*
G04 #@! TO.N,/D1-*
X217534651Y-71533346D02*
X216525000Y-71533346D01*
X220663635Y-71491846D02*
X217576151Y-71491846D01*
X227607521Y-77670000D02*
X227607521Y-78102657D01*
X227607521Y-78102657D02*
X229624864Y-80120000D01*
X226127805Y-76956016D02*
X220663635Y-71491846D01*
X217576151Y-71491846D02*
X217534651Y-71533346D01*
X226127805Y-77262195D02*
X226127805Y-76956016D01*
X229624864Y-80120000D02*
X231324000Y-80120000D01*
G04 #@! TO.N,/D1+*
X220836364Y-71074847D02*
X221714294Y-71952777D01*
X222980160Y-73218643D02*
X226694343Y-76932826D01*
X217534651Y-71033347D02*
X217576151Y-71074847D01*
X222053706Y-71952778D02*
X222421400Y-71585081D01*
X222845664Y-72009346D02*
X222477967Y-72377040D01*
X217576151Y-71074847D02*
X220836364Y-71074847D01*
X227000521Y-76932826D02*
X227000521Y-78085385D01*
X231067136Y-82152000D02*
X231324000Y-82152000D01*
X226694343Y-76932826D02*
X227000521Y-76932826D01*
X216525000Y-71033347D02*
X217534651Y-71033347D01*
X222760812Y-71585082D02*
X222845664Y-71669934D01*
X222562822Y-72801305D02*
X222980160Y-73218643D01*
X222477968Y-72716452D02*
X222562822Y-72801305D01*
X227000521Y-78085385D02*
X231067136Y-82152000D01*
D46*
X231245124Y-82152000D02*
X231324000Y-82152000D01*
D52*
X221714294Y-71952777D02*
G75*
G03*
X222053706Y-71952778I169706J169677D01*
G01*
X222477967Y-72377040D02*
G75*
G03*
X222478013Y-72716407I169733J-169660D01*
G01*
X222845664Y-71669934D02*
G75*
G02*
X222845624Y-72009306I-169664J-169666D01*
G01*
X222421400Y-71585081D02*
G75*
G02*
X222760807Y-71585087I169700J-169719D01*
G01*
G04 #@! TO.N,Net-(U2-ISET)*
D46*
X215375000Y-70033347D02*
X216525000Y-70033347D01*
X214912976Y-70522367D02*
X214912976Y-70495371D01*
X214912976Y-70495371D02*
X215375000Y-70033347D01*
G04 #@! TO.N,+1.8V*
X212050000Y-72833347D02*
X209750001Y-70533348D01*
X205900000Y-71108347D02*
X206474999Y-70533348D01*
X205886949Y-71095296D02*
X205900000Y-71108347D01*
X216525000Y-69533347D02*
X214968584Y-69533347D01*
X214175000Y-70326931D02*
X214175000Y-70781876D01*
X214175000Y-70781876D02*
X212123529Y-72833347D01*
X215203399Y-69253399D02*
X215203399Y-69298532D01*
X212123529Y-72833347D02*
X212050000Y-72833347D01*
X202820263Y-71095296D02*
X205886949Y-71095296D01*
X209750001Y-70533348D02*
X208066800Y-70533348D01*
X215203399Y-69298532D02*
X214968584Y-69533347D01*
X206474999Y-70533348D02*
X208066800Y-70533348D01*
X212045900Y-72837447D02*
X212050000Y-72833347D01*
X214968584Y-69533347D02*
X214175000Y-70326931D01*
X212045900Y-74012447D02*
X212045900Y-72837447D01*
G04 #@! TO.N,/RX2-*
D52*
X216532000Y-69026346D02*
X220054254Y-69026346D01*
X220700600Y-68380000D02*
X222359100Y-66721500D01*
X222359100Y-66721500D02*
X225383500Y-66721500D01*
X216525000Y-69033346D02*
X216532000Y-69026346D01*
X220054254Y-69026346D02*
X220700600Y-68380000D01*
X225383500Y-66721500D02*
X225600000Y-66505000D01*
G04 #@! TO.N,/RX2+*
X218506653Y-68533347D02*
X216525000Y-68533347D01*
X222266682Y-68376800D02*
X222266682Y-67403646D01*
X219725600Y-68406773D02*
X218633227Y-68406773D01*
D46*
X222250000Y-68408335D02*
X222266682Y-68391653D01*
D52*
X225383500Y-67138500D02*
X225600000Y-67355000D01*
X218633227Y-68406773D02*
X218506653Y-68533347D01*
X222531828Y-67138500D02*
X225383500Y-67138500D01*
D46*
X221620000Y-69090000D02*
X222250000Y-68460000D01*
D52*
X222266682Y-67403646D02*
X222531828Y-67138500D01*
D46*
X222250000Y-68460000D02*
X222250000Y-68408335D01*
G04 #@! TO.N,/TX2-*
D52*
X222544281Y-61689814D02*
X222833127Y-61978660D01*
X222114011Y-63263456D02*
X222114013Y-63263458D01*
X223245385Y-61837238D02*
X223722756Y-61359864D01*
X221542326Y-61831235D02*
X221683747Y-61689815D01*
X220128113Y-63245450D02*
X220269534Y-63104030D01*
X219096247Y-65986373D02*
X220416955Y-64665665D01*
X216941400Y-65772800D02*
X217154973Y-65986373D01*
X223103963Y-61978661D02*
X223245385Y-61837238D01*
X221701753Y-63675716D02*
X221849177Y-63823140D01*
X226149503Y-58933117D02*
X231264818Y-58933117D01*
X222114013Y-63263458D02*
X221831171Y-62980615D01*
X221701757Y-63675718D02*
X221701753Y-63675716D01*
X221130068Y-63104029D02*
X221418914Y-63392875D01*
X220416955Y-64665665D02*
X220416957Y-64665667D01*
X216371447Y-65772800D02*
X215440000Y-66704247D01*
X215440000Y-66704247D02*
X215440000Y-67362447D01*
X222685700Y-63835145D02*
X222261435Y-63410880D01*
X222544279Y-64247404D02*
X222685700Y-64105982D01*
X221418914Y-63392875D02*
X221701757Y-63675718D01*
X231264818Y-58933117D02*
X231322048Y-58990347D01*
X220416957Y-64394829D02*
X220128112Y-64105984D01*
X221831171Y-62980615D02*
X221542325Y-62691769D01*
X217154973Y-65986373D02*
X219096247Y-65986373D01*
X215610899Y-67533346D02*
X216525000Y-67533346D01*
X216941400Y-65772800D02*
X216371447Y-65772800D01*
X222261435Y-63410880D02*
X222114011Y-63263456D01*
X221849177Y-63823140D02*
X222273442Y-64247404D01*
X215440000Y-67362447D02*
X215610899Y-67533346D01*
X223722756Y-61359864D02*
X226149503Y-58933117D01*
X220416957Y-64665667D02*
G75*
G03*
X220417005Y-64394781I-135457J135467D01*
G01*
X221683747Y-61689815D02*
G75*
G02*
X222544267Y-61689828I430253J-430285D01*
G01*
X221542325Y-62691769D02*
G75*
G02*
X221542323Y-61831233I430275J430269D01*
G01*
X222833127Y-61978660D02*
G75*
G03*
X223103918Y-61978616I135373J135460D01*
G01*
X220128112Y-64105984D02*
G75*
G02*
X220128095Y-63245433I430288J430284D01*
G01*
X222685700Y-64105982D02*
G75*
G03*
X222685664Y-63835182I-135400J135382D01*
G01*
X222273442Y-64247404D02*
G75*
G03*
X222544279Y-64247405I135419J135419D01*
G01*
X220269534Y-63104030D02*
G75*
G02*
X221130067Y-63104031I430266J-430270D01*
G01*
G04 #@! TO.N,/TX2+*
X218592400Y-66915800D02*
X218756518Y-66915800D01*
X222249433Y-61984662D02*
X222538279Y-62273508D01*
X222839127Y-64542252D02*
X222980548Y-64400830D01*
X221406906Y-63970563D02*
X221554330Y-64117987D01*
X222408862Y-62968609D02*
X222126019Y-62685767D01*
X222126019Y-62685767D02*
X221837173Y-62396921D01*
X221554330Y-64117987D02*
X221978594Y-64542252D01*
X223398811Y-62273509D02*
X223540233Y-62132086D01*
X224017605Y-61654713D02*
X226322221Y-59350097D01*
X220835218Y-63398878D02*
X221124064Y-63687724D01*
X220082906Y-65589412D02*
X220711804Y-64960514D01*
X229649798Y-59350097D02*
X231322048Y-61022347D01*
X221837174Y-62126083D02*
X221978595Y-61984663D01*
X221406907Y-63970567D02*
X221406906Y-63970563D01*
X226322221Y-59350097D02*
X229649798Y-59350097D01*
D46*
X218592400Y-66915800D02*
X218766416Y-66915800D01*
D52*
X216525000Y-67033347D02*
X218474853Y-67033347D01*
X222408859Y-62968608D02*
X222408862Y-62968609D01*
X222556283Y-63116032D02*
X222408859Y-62968608D01*
X219731538Y-65940780D02*
X220082906Y-65589412D01*
X218756518Y-66915800D02*
X219731538Y-65940780D01*
X218474853Y-67033347D02*
X218592400Y-66915800D01*
X222980548Y-63540297D02*
X222556283Y-63116032D01*
X220422959Y-63540299D02*
X220564382Y-63398877D01*
X220711805Y-64099980D02*
X220422960Y-63811135D01*
X221124064Y-63687724D02*
X221406907Y-63970567D01*
X223540233Y-62132086D02*
X224017605Y-61654713D01*
X221978595Y-61984663D02*
G75*
G02*
X222249419Y-61984676I135405J-135437D01*
G01*
X220564382Y-63398877D02*
G75*
G02*
X220835219Y-63398877I135418J-135423D01*
G01*
X220711804Y-64960514D02*
G75*
G03*
X220711852Y-64099934I-430304J430314D01*
G01*
X221837173Y-62396921D02*
G75*
G02*
X221837171Y-62126081I135427J135421D01*
G01*
X220422960Y-63811135D02*
G75*
G02*
X220422942Y-63540283I135440J135435D01*
G01*
X221978594Y-64542252D02*
G75*
G03*
X222839127Y-64542252I430266J430267D01*
G01*
X222980548Y-64400830D02*
G75*
G03*
X222980512Y-63540334I-430248J430230D01*
G01*
X222538279Y-62273508D02*
G75*
G03*
X223398766Y-62273464I430221J430308D01*
G01*
G04 #@! TO.N,/REF_CLK*
D50*
X193300000Y-63265000D02*
X193300000Y-64515000D01*
X211220000Y-68740000D02*
X212226489Y-67733511D01*
X213348365Y-67733511D02*
X214545901Y-66535975D01*
X193880000Y-65815000D02*
X193880000Y-65095000D01*
X212226489Y-67733511D02*
X213348365Y-67733511D01*
X211220000Y-71120000D02*
X211220000Y-68740000D01*
X214545901Y-66535975D02*
X214545901Y-65554247D01*
X193300000Y-64515000D02*
X193850000Y-65065000D01*
D46*
X193880000Y-65095000D02*
X193850000Y-65065000D01*
G04 #@! TO.N,Net-(U2-SMTXEN3)*
D50*
X213545900Y-65554247D02*
X213545900Y-63512447D01*
X213545900Y-63512447D02*
X214050000Y-63008347D01*
G04 #@! TO.N,Net-(U2-SMTXD33{slash}EN_REFCLKO_3)*
D46*
X213329542Y-66762889D02*
X213045901Y-66479248D01*
X213045901Y-66479248D02*
X213045901Y-65554247D01*
X213374999Y-66762889D02*
X213329542Y-66762889D01*
G04 #@! TO.N,Net-(U2-SMTXD32)*
X212545900Y-65554247D02*
X212545900Y-66287447D01*
X212545900Y-66287447D02*
X211975000Y-66858347D01*
G04 #@! TO.N,Net-(U2-SMTXD31)*
D50*
X199965000Y-57090000D02*
X206930182Y-57090000D01*
X206930182Y-57090000D02*
X212045900Y-62205718D01*
X212045900Y-62205718D02*
X212045900Y-65554247D01*
G04 #@! TO.N,Net-(U2-SMTXC3{slash}REFCLKI_3)*
X193850000Y-66715000D02*
X195705000Y-66715000D01*
X210051401Y-64659648D02*
X210051401Y-64747273D01*
D46*
X208271753Y-62880000D02*
X208000000Y-62880000D01*
D50*
X195705000Y-66715000D02*
X196036371Y-66383629D01*
X208271753Y-62880000D02*
X210051401Y-64659648D01*
X210045899Y-64752775D02*
X210045899Y-65554247D01*
X210051401Y-64747273D02*
X210045899Y-64752775D01*
G04 #@! TO.N,Net-(U2-SMRXDV3)*
X206300000Y-64833347D02*
X207450000Y-64833347D01*
X208066800Y-65450147D02*
X208066800Y-67033347D01*
X207450000Y-64833347D02*
X208066800Y-65450147D01*
D46*
X206225000Y-64758347D02*
X206300000Y-64833347D01*
G04 #@! TO.N,Net-(U2-SMRXD33{slash}REFCLKO_3)*
X208066800Y-67533346D02*
X207242791Y-67533346D01*
X207242791Y-67533346D02*
X206894299Y-67184854D01*
G04 #@! TO.N,Net-(U2-SMRXD32)*
X208066800Y-68033348D02*
X209549999Y-68033348D01*
X209549999Y-68033348D02*
X209550000Y-68033347D01*
G04 #@! TO.N,Net-(U2-SMRXD30)*
X210230000Y-69770000D02*
X209500000Y-69040000D01*
X205350000Y-68033347D02*
X206166700Y-68033347D01*
X209500000Y-69040000D02*
X208073454Y-69040000D01*
X207166699Y-69033346D02*
X208066800Y-69033346D01*
X206166700Y-68033347D02*
X207166699Y-69033346D01*
X208073454Y-69040000D02*
X208066800Y-69033346D01*
G04 #@! TO.N,/Lost Connect*
X207249998Y-71933347D02*
X205300000Y-71933347D01*
X208066800Y-72033348D02*
X207349999Y-72033348D01*
X207349999Y-72033348D02*
X207249998Y-71933347D01*
X205300000Y-71933347D02*
X204650000Y-72583347D01*
G04 #@! TO.N,/Clock*
X206850000Y-86320000D02*
X206850000Y-73925000D01*
X204401471Y-73183347D02*
X205411653Y-73183347D01*
X207950000Y-87420000D02*
X206850000Y-86320000D01*
X205760000Y-72835000D02*
X205545000Y-72835000D01*
X206850000Y-73925000D02*
X205760000Y-72835000D01*
X212162000Y-87674400D02*
X210964400Y-87674400D01*
X203409618Y-72908347D02*
X194750000Y-64248729D01*
X189817410Y-57450000D02*
X181701471Y-57450000D01*
X194750000Y-62382590D02*
X189817410Y-57450000D01*
X181701471Y-57450000D02*
X181511471Y-57640000D01*
X206850000Y-72533347D02*
X206061653Y-72533347D01*
X204126471Y-72908347D02*
X204401471Y-73183347D01*
X205411653Y-73183347D02*
X205760000Y-72835000D01*
X210964400Y-87674400D02*
X210810000Y-87520000D01*
X203409618Y-72908347D02*
X204126471Y-72908347D01*
X206061653Y-72533347D02*
X205760000Y-72835000D01*
X181511471Y-57640000D02*
X180520000Y-57640000D01*
X194750000Y-64248729D02*
X194750000Y-62382590D01*
X208066800Y-72533347D02*
X206850000Y-72533347D01*
G04 #@! TO.N,/Data*
X208820900Y-74012447D02*
X208800000Y-74033347D01*
X208800000Y-76245699D02*
X208310000Y-76735699D01*
D47*
X211987000Y-88799400D02*
X212162000Y-88974400D01*
D46*
X208310000Y-86734400D02*
X210375000Y-88799400D01*
X181950000Y-58050000D02*
X180665000Y-58050000D01*
X209545900Y-74012447D02*
X208820900Y-74012447D01*
X208310000Y-76735699D02*
X208310000Y-86734400D01*
D47*
X212162000Y-88324400D02*
X212162000Y-88974400D01*
D46*
X208800000Y-74033347D02*
X208800000Y-76245699D01*
D47*
X210375000Y-88799400D02*
X211987000Y-88799400D01*
D46*
X180665000Y-58050000D02*
X180625000Y-58090000D01*
G04 #@! TO.N,Net-(U2-SPIQ)*
X210045899Y-77489101D02*
X209825000Y-77710000D01*
X210045899Y-74012447D02*
X210045899Y-77489101D01*
G04 #@! TO.N,/P1LED1*
X218082272Y-81930000D02*
X221820000Y-81930000D01*
X227655439Y-68333114D02*
X227655439Y-70863439D01*
X227655439Y-70863439D02*
X228784000Y-71992000D01*
X212545900Y-76393628D02*
X218082272Y-81930000D01*
X212545900Y-74012447D02*
X212545900Y-76393628D01*
G04 #@! TO.N,/P1LED0*
X213045901Y-76327944D02*
X218026304Y-81308347D01*
X218026304Y-81308347D02*
X224736653Y-81308347D01*
X224736653Y-81308347D02*
X226160000Y-79885000D01*
X213045901Y-74012447D02*
X213045901Y-76327944D01*
X226160000Y-79885000D02*
X227025000Y-79885000D01*
X227025000Y-79885000D02*
X228784000Y-81644000D01*
G04 #@! TO.N,/P2LED1*
X213545900Y-73324984D02*
X213460328Y-73239412D01*
X225060000Y-51320000D02*
X225995000Y-51320000D01*
X226170000Y-51145000D02*
X228499395Y-51145000D01*
X213460328Y-72487667D02*
X213712976Y-72235019D01*
X213460328Y-73239412D02*
X213460328Y-72487667D01*
X228499395Y-51145000D02*
X228782048Y-50862347D01*
X213545900Y-74012447D02*
X213545900Y-73324984D01*
X225995000Y-51320000D02*
X226170000Y-51145000D01*
G04 #@! TO.N,/P2LED0*
X214045899Y-74012447D02*
X214045899Y-73005312D01*
X226130000Y-60715000D02*
X225815746Y-60715000D01*
X226130000Y-60715000D02*
X228581395Y-60715000D01*
X228581395Y-60715000D02*
X228782048Y-60514347D01*
X225815746Y-60715000D02*
X225080373Y-61450373D01*
X214045899Y-73005312D02*
X214060328Y-72990883D01*
G04 #@! TO.N,Net-(Q1-S_1)*
D53*
X218175000Y-99285000D02*
X218175000Y-98099400D01*
X218914400Y-100024400D02*
X218175000Y-99285000D01*
X218945000Y-100024400D02*
X218945000Y-101149400D01*
X218945000Y-100024400D02*
X218914400Y-100024400D01*
D48*
X218175000Y-98099400D02*
X217350000Y-98099400D01*
X216625000Y-97374400D02*
X216625000Y-101949400D01*
X217350000Y-98099400D02*
X216625000Y-97374400D01*
G04 #@! TO.N,Net-(C20-Pad1)*
D46*
X252197153Y-65022847D02*
X250930000Y-66290000D01*
X250930000Y-66290000D02*
X249985000Y-66290000D01*
X252277048Y-65022847D02*
X252197153Y-65022847D01*
D48*
X252277048Y-48893847D02*
X252277048Y-65022847D01*
G04 #@! TO.N,Net-(J1-Pad18)*
D46*
X227954701Y-52575000D02*
X228782048Y-53402347D01*
X226200000Y-52575000D02*
X227954701Y-52575000D01*
G04 #@! TO.N,Net-(J1-Pad20)*
X227650000Y-64186395D02*
X228782048Y-63054347D01*
X227650000Y-66802000D02*
X227650000Y-64186395D01*
G04 #@! TO.N,/OCS1*
X188300000Y-65732500D02*
X187990000Y-66042500D01*
X188300000Y-63265000D02*
X188300000Y-65732500D01*
X187990000Y-66042500D02*
X190042500Y-66042500D01*
X187990000Y-66042500D02*
X187800000Y-65852500D01*
X190042500Y-66042500D02*
X190050000Y-66035000D01*
G04 #@! TO.N,/OSC0*
X184187500Y-68140000D02*
X184290000Y-68242500D01*
X183165000Y-67117500D02*
X183165000Y-65407756D01*
X183165000Y-65407756D02*
X184207756Y-64365000D01*
X184207756Y-64365000D02*
X187532410Y-64365000D01*
X187800000Y-64097410D02*
X187800000Y-63265000D01*
X184290000Y-68242500D02*
X183165000Y-67117500D01*
X187532410Y-64365000D02*
X187800000Y-64097410D01*
X182200000Y-68140000D02*
X184187500Y-68140000D01*
G04 #@! TO.N,48V*
D48*
X244950000Y-99050000D02*
X244950000Y-99925000D01*
X242500000Y-73540000D02*
X242500000Y-72500000D01*
X223840000Y-86374400D02*
X219925000Y-86374400D01*
X239590200Y-76449800D02*
X244950000Y-81809600D01*
D47*
X219925000Y-86374400D02*
X218038000Y-86374400D01*
D48*
X230700000Y-91399400D02*
X230700000Y-91365392D01*
X223830000Y-88760000D02*
X223830000Y-86384400D01*
X235250000Y-91203692D02*
X235250000Y-96774400D01*
X239590200Y-94249800D02*
X239590200Y-76449800D01*
X230700000Y-91365392D02*
X225709008Y-86374400D01*
X239590200Y-76449800D02*
X242500000Y-73540000D01*
X237065600Y-96774400D02*
X239590200Y-94249800D01*
X235250000Y-96774400D02*
X237065600Y-96774400D01*
X230700000Y-91365392D02*
X232143892Y-89921500D01*
X225709008Y-86374400D02*
X223840000Y-86374400D01*
X244950000Y-81809600D02*
X244950000Y-99050000D01*
X232143892Y-89921500D02*
X233967808Y-89921500D01*
X233967808Y-89921500D02*
X235250000Y-91203692D01*
X223830000Y-86384400D02*
X223840000Y-86374400D01*
G04 #@! TO.N,Net-(J2-Pad20)*
D46*
X226130000Y-84755000D02*
X228213000Y-84755000D01*
X228213000Y-84755000D02*
X228784000Y-84184000D01*
G04 #@! TO.N,Net-(C21-Pad1)*
D48*
X252279000Y-70023500D02*
X252279000Y-86152500D01*
D46*
X251061500Y-87370000D02*
X250005000Y-87370000D01*
X252279000Y-86152500D02*
X251061500Y-87370000D01*
G04 #@! TO.N,Net-(U3-SEN1)*
D47*
X218175000Y-94961400D02*
X218038000Y-94824400D01*
X218175000Y-96449400D02*
X218175000Y-94961400D01*
G04 #@! TO.N,/TX_EN*
D50*
X197772399Y-60702399D02*
X199380000Y-62310000D01*
X194520000Y-51612590D02*
X195042590Y-51090000D01*
X202783347Y-64883347D02*
X204700000Y-64883347D01*
X199380000Y-62310000D02*
X200210000Y-62310000D01*
X200210000Y-62310000D02*
X202783347Y-64883347D01*
X194520000Y-52050000D02*
X194520000Y-51612590D01*
X197274099Y-60702399D02*
X197772399Y-60702399D01*
X195042590Y-51090000D02*
X195975000Y-51090000D01*
G04 #@! TO.N,/RX+*
X195975000Y-58090000D02*
X197315000Y-58090000D01*
X197315000Y-58090000D02*
X198315000Y-57090000D01*
G04 #@! TO.N,Net-(C17-Pad1)*
D46*
X218589998Y-65263398D02*
X218592400Y-65265800D01*
X218589998Y-63741600D02*
X218589998Y-65263398D01*
X218208798Y-64122800D02*
X218589998Y-63741600D01*
X216941400Y-64122800D02*
X218208798Y-64122800D01*
G04 #@! TO.N,Net-(U1-PE14)*
D49*
X201715000Y-52590000D02*
X202605000Y-53480000D01*
X195975000Y-52590000D02*
X201715000Y-52590000D01*
G04 #@! TO.N,Net-(D5-A)*
D51*
X204255000Y-53255000D02*
X206392500Y-53255000D01*
X206392500Y-53480000D02*
X206402500Y-53490000D01*
G04 #@! TO.N,Net-(C3-Pad2)*
D46*
X183320000Y-47895000D02*
X183300000Y-47915000D01*
X183320000Y-45755000D02*
X183320000Y-47895000D01*
G04 #@! TO.N,/TX-*
X200064999Y-64398346D02*
X200064999Y-63909999D01*
X194750000Y-49040000D02*
X194300000Y-48590000D01*
X203700000Y-68033347D02*
X200064999Y-64398346D01*
X194300000Y-48590000D02*
X194300000Y-47915000D01*
X200064999Y-63909999D02*
X199865000Y-63710000D01*
G04 #@! TO.N,Net-(Q1-D_1)*
D53*
X220770000Y-99094400D02*
X220770000Y-100999400D01*
X219750000Y-98074400D02*
X220770000Y-99094400D01*
D48*
X223800000Y-101974400D02*
X221951000Y-101974400D01*
X223800000Y-101873400D02*
X221951000Y-100024400D01*
X223084400Y-101974400D02*
X222090000Y-100980000D01*
X223800000Y-101974400D02*
X223800000Y-101873400D01*
G04 #@! TO.N,/SWO{slash}TRACE*
D46*
X187040000Y-78500000D02*
X183900000Y-75360000D01*
X178700000Y-56100000D02*
X180615000Y-56100000D01*
X180615000Y-56100000D02*
X180625000Y-56090000D01*
X183900000Y-75360000D02*
X183900000Y-70600000D01*
G04 #@! TO.N,/SWCLK*
X181908831Y-52302327D02*
X181908831Y-50041421D01*
X180695000Y-49520000D02*
X180625000Y-49590000D01*
X181457410Y-49590000D02*
X180625000Y-49590000D01*
X183200000Y-77200000D02*
X183200000Y-69700000D01*
X184500000Y-78500000D02*
X183200000Y-77200000D01*
X181908831Y-50041421D02*
X181457410Y-49590000D01*
G04 #@! TO.N,/SWDIO*
X183800000Y-49400000D02*
X183800000Y-47915000D01*
X181960000Y-78500000D02*
X180500000Y-77040000D01*
X180500000Y-77040000D02*
X180500000Y-65800000D01*
G04 #@! TO.N,Net-(D3-A)*
D51*
X205862500Y-55060000D02*
X206402500Y-55600000D01*
X204245000Y-55060000D02*
X205862500Y-55060000D01*
G04 #@! TO.N,Net-(U3-DRAIN1)*
D47*
X219150500Y-94174400D02*
X218038000Y-94174400D01*
X219750000Y-94773900D02*
X219150500Y-94174400D01*
X219750000Y-96424400D02*
X219750000Y-94773900D01*
G04 #@! TO.N,Net-(U1-PE13)*
D49*
X195975000Y-53090000D02*
X200675000Y-53090000D01*
X200675000Y-53090000D02*
X202595000Y-55010000D01*
G04 #@! TO.N,Net-(Q1-G)*
X218209400Y-102710000D02*
X218945000Y-101974400D01*
X217000500Y-93524400D02*
X216760000Y-93764900D01*
X218038000Y-93524400D02*
X217000500Y-93524400D01*
X216760000Y-93764900D02*
X216760000Y-95950000D01*
X218180000Y-102710000D02*
X218209400Y-102710000D01*
G04 #@! TO.N,/CRS_DV*
D50*
X200195686Y-61730000D02*
X198768085Y-60302399D01*
X196980000Y-59090000D02*
X195975000Y-59090000D01*
X198192399Y-60302399D02*
X196980000Y-59090000D01*
X214020000Y-60240000D02*
X214020000Y-61328347D01*
D46*
X214020000Y-61328347D02*
X214050000Y-61358347D01*
D50*
X201170000Y-61730000D02*
X200195686Y-61730000D01*
X198768085Y-60302399D02*
X198192399Y-60302399D01*
G04 #@! TO.N,/D-*
D46*
X189693198Y-46425000D02*
X185100000Y-46425000D01*
X190650000Y-45005000D02*
X190625000Y-45030000D01*
X190917590Y-45455000D02*
X191445000Y-45455000D01*
X191650000Y-45250000D02*
X191650000Y-44580000D01*
X191445000Y-45455000D02*
X191650000Y-45250000D01*
X190650000Y-44580000D02*
X190650000Y-45187410D01*
X190650000Y-45187410D02*
X190917590Y-45455000D01*
X184800000Y-46725000D02*
X184800000Y-47915000D01*
X185100000Y-46425000D02*
X184800000Y-46725000D01*
X190650000Y-44580000D02*
X190650000Y-45005000D01*
X190625000Y-45493198D02*
X189693198Y-46425000D01*
X190625000Y-45030000D02*
X190625000Y-45493198D01*
G04 #@! TO.N,/D+*
X189506802Y-45975000D02*
X184984314Y-45975000D01*
X190417590Y-43705000D02*
X190150000Y-43972590D01*
X190882410Y-43705000D02*
X190417590Y-43705000D01*
X190175000Y-45030000D02*
X190175000Y-45306802D01*
X190150000Y-45005000D02*
X190175000Y-45030000D01*
X191150000Y-44580000D02*
X191150000Y-43972590D01*
X184300000Y-46659314D02*
X184300000Y-47915000D01*
X190175000Y-45306802D02*
X189506802Y-45975000D01*
X190150000Y-44580000D02*
X190150000Y-45005000D01*
X191150000Y-43972590D02*
X190882410Y-43705000D01*
X190150000Y-43972590D02*
X190150000Y-44580000D01*
X184984314Y-45975000D02*
X184300000Y-46659314D01*
G04 #@! TD*
G04 #@! TA.AperFunction,Conductor*
G04 #@! TO.N,GND*
G36*
X220443039Y-37720185D02*
G01*
X220488794Y-37772989D01*
X220500000Y-37824500D01*
X220500000Y-43876000D01*
X220480315Y-43943039D01*
X220427511Y-43988794D01*
X220376000Y-44000000D01*
X210349000Y-44000000D01*
X210281961Y-43980315D01*
X210236206Y-43927511D01*
X210225000Y-43876000D01*
X210225000Y-37824500D01*
X210244685Y-37757461D01*
X210297489Y-37711706D01*
X210349000Y-37700500D01*
X220376000Y-37700500D01*
X220443039Y-37720185D01*
G37*
G04 #@! TD.AperFunction*
G04 #@! TD*
G04 #@! TA.AperFunction,Conductor*
G04 #@! TO.N,48V*
G36*
X250318039Y-98469685D02*
G01*
X250363794Y-98522489D01*
X250375000Y-98574000D01*
X250375000Y-104675500D01*
X250355315Y-104742539D01*
X250302511Y-104788294D01*
X250251000Y-104799500D01*
X244499000Y-104799500D01*
X244431961Y-104779815D01*
X244386206Y-104727011D01*
X244375000Y-104675500D01*
X244375000Y-98574000D01*
X244394685Y-98506961D01*
X244447489Y-98461206D01*
X244499000Y-98450000D01*
X250251000Y-98450000D01*
X250318039Y-98469685D01*
G37*
G04 #@! TD.AperFunction*
G04 #@! TD*
G04 #@! TA.AperFunction,Conductor*
G04 #@! TO.N,+3.3V*
G36*
X231443039Y-37720185D02*
G01*
X231488794Y-37772989D01*
X231500000Y-37824500D01*
X231500000Y-43876000D01*
X231480315Y-43943039D01*
X231427511Y-43988794D01*
X231376000Y-44000000D01*
X225624000Y-44000000D01*
X225556961Y-43980315D01*
X225511206Y-43927511D01*
X225500000Y-43876000D01*
X225500000Y-37824500D01*
X225519685Y-37757461D01*
X225572489Y-37711706D01*
X225624000Y-37700500D01*
X231376000Y-37700500D01*
X231443039Y-37720185D01*
G37*
G04 #@! TD.AperFunction*
G04 #@! TD*
M02*
