G04 #@! TF.GenerationSoftware,KiCad,Pcbnew,10.0.0*
G04 #@! TF.CreationDate,2026-06-29T05:34:33-04:00*
G04 #@! TF.ProjectId,ethdemo,65746864-656d-46f2-9e6b-696361645f70,rev?*
G04 #@! TF.SameCoordinates,Original*
G04 #@! TF.FileFunction,Legend,Top*
G04 #@! TF.FilePolarity,Positive*
%FSLAX46Y46*%
G04 Gerber Fmt 4.6, Leading zero omitted, Abs format (unit mm)*
G04 Created by KiCad (PCBNEW 10.0.0) date 2026-06-29 05:34:33*
%MOMM*%
%LPD*%
G01*
G04 APERTURE LIST*
G04 Aperture macros list*
%AMRoundRect*
0 Rectangle with rounded corners*
0 $1 Rounding radius*
0 $2 $3 $4 $5 $6 $7 $8 $9 X,Y pos of 4 corners*
0 Add a 4 corners polygon primitive as box body*
4,1,4,$2,$3,$4,$5,$6,$7,$8,$9,$2,$3,0*
0 Add four circle primitives for the rounded corners*
1,1,$1+$1,$2,$3*
1,1,$1+$1,$4,$5*
1,1,$1+$1,$6,$7*
1,1,$1+$1,$8,$9*
0 Add four rect primitives between the rounded corners*
20,1,$1+$1,$2,$3,$4,$5,0*
20,1,$1+$1,$4,$5,$6,$7,0*
20,1,$1+$1,$6,$7,$8,$9,0*
20,1,$1+$1,$8,$9,$2,$3,0*%
G04 Aperture macros list end*
%ADD10C,0.150000*%
%ADD11C,0.254000*%
%ADD12C,0.120000*%
%ADD13C,0.152400*%
%ADD14C,0.000000*%
%ADD15C,0.127000*%
%ADD16C,0.200000*%
%ADD17C,0.100000*%
%ADD18RoundRect,0.237500X-0.237500X0.250000X-0.237500X-0.250000X0.237500X-0.250000X0.237500X0.250000X0*%
%ADD19RoundRect,0.225000X-0.225000X-0.250000X0.225000X-0.250000X0.225000X0.250000X-0.225000X0.250000X0*%
%ADD20RoundRect,0.225000X0.225000X0.250000X-0.225000X0.250000X-0.225000X-0.250000X0.225000X-0.250000X0*%
%ADD21C,2.500000*%
%ADD22RoundRect,0.200000X0.200000X0.275000X-0.200000X0.275000X-0.200000X-0.275000X0.200000X-0.275000X0*%
%ADD23RoundRect,0.200000X-0.200000X-0.275000X0.200000X-0.275000X0.200000X0.275000X-0.200000X0.275000X0*%
%ADD24RoundRect,0.225000X0.250000X-0.225000X0.250000X0.225000X-0.250000X0.225000X-0.250000X-0.225000X0*%
%ADD25R,1.346200X0.254000*%
%ADD26R,0.254000X1.346200*%
%ADD27C,3.251200*%
%ADD28C,1.728000*%
%ADD29C,1.575600*%
%ADD30C,1.918500*%
%ADD31C,2.566200*%
%ADD32RoundRect,0.225000X-0.250000X0.225000X-0.250000X-0.225000X0.250000X-0.225000X0.250000X0.225000X0*%
%ADD33RoundRect,0.243750X0.243750X0.456250X-0.243750X0.456250X-0.243750X-0.456250X0.243750X-0.456250X0*%
%ADD34RoundRect,0.200000X0.275000X-0.200000X0.275000X0.200000X-0.275000X0.200000X-0.275000X-0.200000X0*%
%ADD35RoundRect,0.200000X-0.275000X0.200000X-0.275000X-0.200000X0.275000X-0.200000X0.275000X0.200000X0*%
%ADD36R,3.200400X2.565400*%
%ADD37RoundRect,0.250000X0.375000X0.625000X-0.375000X0.625000X-0.375000X-0.625000X0.375000X-0.625000X0*%
%ADD38R,1.700000X1.700000*%
%ADD39C,1.700000*%
%ADD40R,1.630000X2.180400*%
%ADD41R,1.475000X0.450000*%
%ADD42RoundRect,0.075000X0.075000X-0.725000X0.075000X0.725000X-0.075000X0.725000X-0.075000X-0.725000X0*%
%ADD43RoundRect,0.075000X0.725000X-0.075000X0.725000X0.075000X-0.725000X0.075000X-0.725000X-0.075000X0*%
%ADD44RoundRect,0.250000X0.650000X-1.000000X0.650000X1.000000X-0.650000X1.000000X-0.650000X-1.000000X0*%
%ADD45RoundRect,0.250000X0.575000X0.400000X-0.575000X0.400000X-0.575000X-0.400000X0.575000X-0.400000X0*%
%ADD46C,0.650000*%
%ADD47RoundRect,0.150000X0.150000X0.425000X-0.150000X0.425000X-0.150000X-0.425000X0.150000X-0.425000X0*%
%ADD48RoundRect,0.075000X0.075000X0.500000X-0.075000X0.500000X-0.075000X-0.500000X0.075000X-0.500000X0*%
%ADD49O,1.000000X2.100000*%
%ADD50O,1.000000X1.800000*%
%ADD51R,0.680000X0.500000*%
%ADD52R,0.410000X0.500000*%
%ADD53R,1.950000X2.650000*%
%ADD54R,0.060000X0.100000*%
G04 APERTURE END LIST*
D10*
X221088152Y-41390476D02*
X221897676Y-41390476D01*
X221897676Y-41390476D02*
X221992914Y-41438095D01*
X221992914Y-41438095D02*
X222040533Y-41485714D01*
X222040533Y-41485714D02*
X222088152Y-41580952D01*
X222088152Y-41580952D02*
X222088152Y-41723809D01*
X222088152Y-41723809D02*
X222040533Y-41819047D01*
X221707200Y-41390476D02*
X221754819Y-41485714D01*
X221754819Y-41485714D02*
X221754819Y-41676190D01*
X221754819Y-41676190D02*
X221707200Y-41771428D01*
X221707200Y-41771428D02*
X221659580Y-41819047D01*
X221659580Y-41819047D02*
X221564342Y-41866666D01*
X221564342Y-41866666D02*
X221278628Y-41866666D01*
X221278628Y-41866666D02*
X221183390Y-41819047D01*
X221183390Y-41819047D02*
X221135771Y-41771428D01*
X221135771Y-41771428D02*
X221088152Y-41676190D01*
X221088152Y-41676190D02*
X221088152Y-41485714D01*
X221088152Y-41485714D02*
X221135771Y-41390476D01*
X221088152Y-40914285D02*
X221754819Y-40914285D01*
X221183390Y-40914285D02*
X221135771Y-40866666D01*
X221135771Y-40866666D02*
X221088152Y-40771428D01*
X221088152Y-40771428D02*
X221088152Y-40628571D01*
X221088152Y-40628571D02*
X221135771Y-40533333D01*
X221135771Y-40533333D02*
X221231009Y-40485714D01*
X221231009Y-40485714D02*
X221754819Y-40485714D01*
X221754819Y-39580952D02*
X220754819Y-39580952D01*
X221707200Y-39580952D02*
X221754819Y-39676190D01*
X221754819Y-39676190D02*
X221754819Y-39866666D01*
X221754819Y-39866666D02*
X221707200Y-39961904D01*
X221707200Y-39961904D02*
X221659580Y-40009523D01*
X221659580Y-40009523D02*
X221564342Y-40057142D01*
X221564342Y-40057142D02*
X221278628Y-40057142D01*
X221278628Y-40057142D02*
X221183390Y-40009523D01*
X221183390Y-40009523D02*
X221135771Y-39961904D01*
X221135771Y-39961904D02*
X221088152Y-39866666D01*
X221088152Y-39866666D02*
X221088152Y-39676190D01*
X221088152Y-39676190D02*
X221135771Y-39580952D01*
X231854819Y-42090475D02*
X231854819Y-41471428D01*
X231854819Y-41471428D02*
X232235771Y-41804761D01*
X232235771Y-41804761D02*
X232235771Y-41661904D01*
X232235771Y-41661904D02*
X232283390Y-41566666D01*
X232283390Y-41566666D02*
X232331009Y-41519047D01*
X232331009Y-41519047D02*
X232426247Y-41471428D01*
X232426247Y-41471428D02*
X232664342Y-41471428D01*
X232664342Y-41471428D02*
X232759580Y-41519047D01*
X232759580Y-41519047D02*
X232807200Y-41566666D01*
X232807200Y-41566666D02*
X232854819Y-41661904D01*
X232854819Y-41661904D02*
X232854819Y-41947618D01*
X232854819Y-41947618D02*
X232807200Y-42042856D01*
X232807200Y-42042856D02*
X232759580Y-42090475D01*
X232188152Y-41138094D02*
X232854819Y-40899999D01*
X232854819Y-40899999D02*
X232188152Y-40661904D01*
X231854819Y-40376189D02*
X231854819Y-39757142D01*
X231854819Y-39757142D02*
X232235771Y-40090475D01*
X232235771Y-40090475D02*
X232235771Y-39947618D01*
X232235771Y-39947618D02*
X232283390Y-39852380D01*
X232283390Y-39852380D02*
X232331009Y-39804761D01*
X232331009Y-39804761D02*
X232426247Y-39757142D01*
X232426247Y-39757142D02*
X232664342Y-39757142D01*
X232664342Y-39757142D02*
X232759580Y-39804761D01*
X232759580Y-39804761D02*
X232807200Y-39852380D01*
X232807200Y-39852380D02*
X232854819Y-39947618D01*
X232854819Y-39947618D02*
X232854819Y-40233332D01*
X232854819Y-40233332D02*
X232807200Y-40328570D01*
X232807200Y-40328570D02*
X232759580Y-40376189D01*
X250913152Y-102241666D02*
X251579819Y-102241666D01*
X250532200Y-102479761D02*
X251246485Y-102717856D01*
X251246485Y-102717856D02*
X251246485Y-102098809D01*
X251008390Y-101574999D02*
X250960771Y-101670237D01*
X250960771Y-101670237D02*
X250913152Y-101717856D01*
X250913152Y-101717856D02*
X250817914Y-101765475D01*
X250817914Y-101765475D02*
X250770295Y-101765475D01*
X250770295Y-101765475D02*
X250675057Y-101717856D01*
X250675057Y-101717856D02*
X250627438Y-101670237D01*
X250627438Y-101670237D02*
X250579819Y-101574999D01*
X250579819Y-101574999D02*
X250579819Y-101384523D01*
X250579819Y-101384523D02*
X250627438Y-101289285D01*
X250627438Y-101289285D02*
X250675057Y-101241666D01*
X250675057Y-101241666D02*
X250770295Y-101194047D01*
X250770295Y-101194047D02*
X250817914Y-101194047D01*
X250817914Y-101194047D02*
X250913152Y-101241666D01*
X250913152Y-101241666D02*
X250960771Y-101289285D01*
X250960771Y-101289285D02*
X251008390Y-101384523D01*
X251008390Y-101384523D02*
X251008390Y-101574999D01*
X251008390Y-101574999D02*
X251056009Y-101670237D01*
X251056009Y-101670237D02*
X251103628Y-101717856D01*
X251103628Y-101717856D02*
X251198866Y-101765475D01*
X251198866Y-101765475D02*
X251389342Y-101765475D01*
X251389342Y-101765475D02*
X251484580Y-101717856D01*
X251484580Y-101717856D02*
X251532200Y-101670237D01*
X251532200Y-101670237D02*
X251579819Y-101574999D01*
X251579819Y-101574999D02*
X251579819Y-101384523D01*
X251579819Y-101384523D02*
X251532200Y-101289285D01*
X251532200Y-101289285D02*
X251484580Y-101241666D01*
X251484580Y-101241666D02*
X251389342Y-101194047D01*
X251389342Y-101194047D02*
X251198866Y-101194047D01*
X251198866Y-101194047D02*
X251103628Y-101241666D01*
X251103628Y-101241666D02*
X251056009Y-101289285D01*
X251056009Y-101289285D02*
X251008390Y-101384523D01*
X250913152Y-100860713D02*
X251579819Y-100622618D01*
X251579819Y-100622618D02*
X250913152Y-100384523D01*
X183854819Y-40742857D02*
X183378628Y-41076190D01*
X183854819Y-41314285D02*
X182854819Y-41314285D01*
X182854819Y-41314285D02*
X182854819Y-40933333D01*
X182854819Y-40933333D02*
X182902438Y-40838095D01*
X182902438Y-40838095D02*
X182950057Y-40790476D01*
X182950057Y-40790476D02*
X183045295Y-40742857D01*
X183045295Y-40742857D02*
X183188152Y-40742857D01*
X183188152Y-40742857D02*
X183283390Y-40790476D01*
X183283390Y-40790476D02*
X183331009Y-40838095D01*
X183331009Y-40838095D02*
X183378628Y-40933333D01*
X183378628Y-40933333D02*
X183378628Y-41314285D01*
X182854819Y-39838095D02*
X182854819Y-40314285D01*
X182854819Y-40314285D02*
X183331009Y-40361904D01*
X183331009Y-40361904D02*
X183283390Y-40314285D01*
X183283390Y-40314285D02*
X183235771Y-40219047D01*
X183235771Y-40219047D02*
X183235771Y-39980952D01*
X183235771Y-39980952D02*
X183283390Y-39885714D01*
X183283390Y-39885714D02*
X183331009Y-39838095D01*
X183331009Y-39838095D02*
X183426247Y-39790476D01*
X183426247Y-39790476D02*
X183664342Y-39790476D01*
X183664342Y-39790476D02*
X183759580Y-39838095D01*
X183759580Y-39838095D02*
X183807200Y-39885714D01*
X183807200Y-39885714D02*
X183854819Y-39980952D01*
X183854819Y-39980952D02*
X183854819Y-40219047D01*
X183854819Y-40219047D02*
X183807200Y-40314285D01*
X183807200Y-40314285D02*
X183759580Y-40361904D01*
X182950057Y-39409523D02*
X182902438Y-39361904D01*
X182902438Y-39361904D02*
X182854819Y-39266666D01*
X182854819Y-39266666D02*
X182854819Y-39028571D01*
X182854819Y-39028571D02*
X182902438Y-38933333D01*
X182902438Y-38933333D02*
X182950057Y-38885714D01*
X182950057Y-38885714D02*
X183045295Y-38838095D01*
X183045295Y-38838095D02*
X183140533Y-38838095D01*
X183140533Y-38838095D02*
X183283390Y-38885714D01*
X183283390Y-38885714D02*
X183854819Y-39457142D01*
X183854819Y-39457142D02*
X183854819Y-38838095D01*
X223922142Y-68879580D02*
X223874523Y-68927200D01*
X223874523Y-68927200D02*
X223731666Y-68974819D01*
X223731666Y-68974819D02*
X223636428Y-68974819D01*
X223636428Y-68974819D02*
X223493571Y-68927200D01*
X223493571Y-68927200D02*
X223398333Y-68831961D01*
X223398333Y-68831961D02*
X223350714Y-68736723D01*
X223350714Y-68736723D02*
X223303095Y-68546247D01*
X223303095Y-68546247D02*
X223303095Y-68403390D01*
X223303095Y-68403390D02*
X223350714Y-68212914D01*
X223350714Y-68212914D02*
X223398333Y-68117676D01*
X223398333Y-68117676D02*
X223493571Y-68022438D01*
X223493571Y-68022438D02*
X223636428Y-67974819D01*
X223636428Y-67974819D02*
X223731666Y-67974819D01*
X223731666Y-67974819D02*
X223874523Y-68022438D01*
X223874523Y-68022438D02*
X223922142Y-68070057D01*
X224874523Y-68974819D02*
X224303095Y-68974819D01*
X224588809Y-68974819D02*
X224588809Y-67974819D01*
X224588809Y-67974819D02*
X224493571Y-68117676D01*
X224493571Y-68117676D02*
X224398333Y-68212914D01*
X224398333Y-68212914D02*
X224303095Y-68260533D01*
X225445952Y-68403390D02*
X225350714Y-68355771D01*
X225350714Y-68355771D02*
X225303095Y-68308152D01*
X225303095Y-68308152D02*
X225255476Y-68212914D01*
X225255476Y-68212914D02*
X225255476Y-68165295D01*
X225255476Y-68165295D02*
X225303095Y-68070057D01*
X225303095Y-68070057D02*
X225350714Y-68022438D01*
X225350714Y-68022438D02*
X225445952Y-67974819D01*
X225445952Y-67974819D02*
X225636428Y-67974819D01*
X225636428Y-67974819D02*
X225731666Y-68022438D01*
X225731666Y-68022438D02*
X225779285Y-68070057D01*
X225779285Y-68070057D02*
X225826904Y-68165295D01*
X225826904Y-68165295D02*
X225826904Y-68212914D01*
X225826904Y-68212914D02*
X225779285Y-68308152D01*
X225779285Y-68308152D02*
X225731666Y-68355771D01*
X225731666Y-68355771D02*
X225636428Y-68403390D01*
X225636428Y-68403390D02*
X225445952Y-68403390D01*
X225445952Y-68403390D02*
X225350714Y-68451009D01*
X225350714Y-68451009D02*
X225303095Y-68498628D01*
X225303095Y-68498628D02*
X225255476Y-68593866D01*
X225255476Y-68593866D02*
X225255476Y-68784342D01*
X225255476Y-68784342D02*
X225303095Y-68879580D01*
X225303095Y-68879580D02*
X225350714Y-68927200D01*
X225350714Y-68927200D02*
X225445952Y-68974819D01*
X225445952Y-68974819D02*
X225636428Y-68974819D01*
X225636428Y-68974819D02*
X225731666Y-68927200D01*
X225731666Y-68927200D02*
X225779285Y-68879580D01*
X225779285Y-68879580D02*
X225826904Y-68784342D01*
X225826904Y-68784342D02*
X225826904Y-68593866D01*
X225826904Y-68593866D02*
X225779285Y-68498628D01*
X225779285Y-68498628D02*
X225731666Y-68451009D01*
X225731666Y-68451009D02*
X225636428Y-68403390D01*
X201133333Y-50659580D02*
X201085714Y-50707200D01*
X201085714Y-50707200D02*
X200942857Y-50754819D01*
X200942857Y-50754819D02*
X200847619Y-50754819D01*
X200847619Y-50754819D02*
X200704762Y-50707200D01*
X200704762Y-50707200D02*
X200609524Y-50611961D01*
X200609524Y-50611961D02*
X200561905Y-50516723D01*
X200561905Y-50516723D02*
X200514286Y-50326247D01*
X200514286Y-50326247D02*
X200514286Y-50183390D01*
X200514286Y-50183390D02*
X200561905Y-49992914D01*
X200561905Y-49992914D02*
X200609524Y-49897676D01*
X200609524Y-49897676D02*
X200704762Y-49802438D01*
X200704762Y-49802438D02*
X200847619Y-49754819D01*
X200847619Y-49754819D02*
X200942857Y-49754819D01*
X200942857Y-49754819D02*
X201085714Y-49802438D01*
X201085714Y-49802438D02*
X201133333Y-49850057D01*
X202038095Y-49754819D02*
X201561905Y-49754819D01*
X201561905Y-49754819D02*
X201514286Y-50231009D01*
X201514286Y-50231009D02*
X201561905Y-50183390D01*
X201561905Y-50183390D02*
X201657143Y-50135771D01*
X201657143Y-50135771D02*
X201895238Y-50135771D01*
X201895238Y-50135771D02*
X201990476Y-50183390D01*
X201990476Y-50183390D02*
X202038095Y-50231009D01*
X202038095Y-50231009D02*
X202085714Y-50326247D01*
X202085714Y-50326247D02*
X202085714Y-50564342D01*
X202085714Y-50564342D02*
X202038095Y-50659580D01*
X202038095Y-50659580D02*
X201990476Y-50707200D01*
X201990476Y-50707200D02*
X201895238Y-50754819D01*
X201895238Y-50754819D02*
X201657143Y-50754819D01*
X201657143Y-50754819D02*
X201561905Y-50707200D01*
X201561905Y-50707200D02*
X201514286Y-50659580D01*
X219988095Y-90836819D02*
X220559523Y-90836819D01*
X220273809Y-91836819D02*
X220273809Y-90836819D01*
X220892857Y-91836819D02*
X220892857Y-90836819D01*
X220892857Y-90836819D02*
X221273809Y-90836819D01*
X221273809Y-90836819D02*
X221369047Y-90884438D01*
X221369047Y-90884438D02*
X221416666Y-90932057D01*
X221416666Y-90932057D02*
X221464285Y-91027295D01*
X221464285Y-91027295D02*
X221464285Y-91170152D01*
X221464285Y-91170152D02*
X221416666Y-91265390D01*
X221416666Y-91265390D02*
X221369047Y-91313009D01*
X221369047Y-91313009D02*
X221273809Y-91360628D01*
X221273809Y-91360628D02*
X220892857Y-91360628D01*
X222321428Y-91170152D02*
X222321428Y-91836819D01*
X222083333Y-90789200D02*
X221845238Y-91503485D01*
X221845238Y-91503485D02*
X222464285Y-91503485D01*
X200957142Y-66913166D02*
X200623809Y-66436975D01*
X200385714Y-66913166D02*
X200385714Y-65913166D01*
X200385714Y-65913166D02*
X200766666Y-65913166D01*
X200766666Y-65913166D02*
X200861904Y-65960785D01*
X200861904Y-65960785D02*
X200909523Y-66008404D01*
X200909523Y-66008404D02*
X200957142Y-66103642D01*
X200957142Y-66103642D02*
X200957142Y-66246499D01*
X200957142Y-66246499D02*
X200909523Y-66341737D01*
X200909523Y-66341737D02*
X200861904Y-66389356D01*
X200861904Y-66389356D02*
X200766666Y-66436975D01*
X200766666Y-66436975D02*
X200385714Y-66436975D01*
X201338095Y-66008404D02*
X201385714Y-65960785D01*
X201385714Y-65960785D02*
X201480952Y-65913166D01*
X201480952Y-65913166D02*
X201719047Y-65913166D01*
X201719047Y-65913166D02*
X201814285Y-65960785D01*
X201814285Y-65960785D02*
X201861904Y-66008404D01*
X201861904Y-66008404D02*
X201909523Y-66103642D01*
X201909523Y-66103642D02*
X201909523Y-66198880D01*
X201909523Y-66198880D02*
X201861904Y-66341737D01*
X201861904Y-66341737D02*
X201290476Y-66913166D01*
X201290476Y-66913166D02*
X201909523Y-66913166D01*
X202814285Y-65913166D02*
X202338095Y-65913166D01*
X202338095Y-65913166D02*
X202290476Y-66389356D01*
X202290476Y-66389356D02*
X202338095Y-66341737D01*
X202338095Y-66341737D02*
X202433333Y-66294118D01*
X202433333Y-66294118D02*
X202671428Y-66294118D01*
X202671428Y-66294118D02*
X202766666Y-66341737D01*
X202766666Y-66341737D02*
X202814285Y-66389356D01*
X202814285Y-66389356D02*
X202861904Y-66484594D01*
X202861904Y-66484594D02*
X202861904Y-66722689D01*
X202861904Y-66722689D02*
X202814285Y-66817927D01*
X202814285Y-66817927D02*
X202766666Y-66865547D01*
X202766666Y-66865547D02*
X202671428Y-66913166D01*
X202671428Y-66913166D02*
X202433333Y-66913166D01*
X202433333Y-66913166D02*
X202338095Y-66865547D01*
X202338095Y-66865547D02*
X202290476Y-66817927D01*
X198954819Y-40642857D02*
X198478628Y-40976190D01*
X198954819Y-41214285D02*
X197954819Y-41214285D01*
X197954819Y-41214285D02*
X197954819Y-40833333D01*
X197954819Y-40833333D02*
X198002438Y-40738095D01*
X198002438Y-40738095D02*
X198050057Y-40690476D01*
X198050057Y-40690476D02*
X198145295Y-40642857D01*
X198145295Y-40642857D02*
X198288152Y-40642857D01*
X198288152Y-40642857D02*
X198383390Y-40690476D01*
X198383390Y-40690476D02*
X198431009Y-40738095D01*
X198431009Y-40738095D02*
X198478628Y-40833333D01*
X198478628Y-40833333D02*
X198478628Y-41214285D01*
X197954819Y-39738095D02*
X197954819Y-40214285D01*
X197954819Y-40214285D02*
X198431009Y-40261904D01*
X198431009Y-40261904D02*
X198383390Y-40214285D01*
X198383390Y-40214285D02*
X198335771Y-40119047D01*
X198335771Y-40119047D02*
X198335771Y-39880952D01*
X198335771Y-39880952D02*
X198383390Y-39785714D01*
X198383390Y-39785714D02*
X198431009Y-39738095D01*
X198431009Y-39738095D02*
X198526247Y-39690476D01*
X198526247Y-39690476D02*
X198764342Y-39690476D01*
X198764342Y-39690476D02*
X198859580Y-39738095D01*
X198859580Y-39738095D02*
X198907200Y-39785714D01*
X198907200Y-39785714D02*
X198954819Y-39880952D01*
X198954819Y-39880952D02*
X198954819Y-40119047D01*
X198954819Y-40119047D02*
X198907200Y-40214285D01*
X198907200Y-40214285D02*
X198859580Y-40261904D01*
X198954819Y-38738095D02*
X198954819Y-39309523D01*
X198954819Y-39023809D02*
X197954819Y-39023809D01*
X197954819Y-39023809D02*
X198097676Y-39119047D01*
X198097676Y-39119047D02*
X198192914Y-39214285D01*
X198192914Y-39214285D02*
X198240533Y-39309523D01*
X198427142Y-60624819D02*
X198093809Y-60148628D01*
X197855714Y-60624819D02*
X197855714Y-59624819D01*
X197855714Y-59624819D02*
X198236666Y-59624819D01*
X198236666Y-59624819D02*
X198331904Y-59672438D01*
X198331904Y-59672438D02*
X198379523Y-59720057D01*
X198379523Y-59720057D02*
X198427142Y-59815295D01*
X198427142Y-59815295D02*
X198427142Y-59958152D01*
X198427142Y-59958152D02*
X198379523Y-60053390D01*
X198379523Y-60053390D02*
X198331904Y-60101009D01*
X198331904Y-60101009D02*
X198236666Y-60148628D01*
X198236666Y-60148628D02*
X197855714Y-60148628D01*
X198760476Y-59624819D02*
X199379523Y-59624819D01*
X199379523Y-59624819D02*
X199046190Y-60005771D01*
X199046190Y-60005771D02*
X199189047Y-60005771D01*
X199189047Y-60005771D02*
X199284285Y-60053390D01*
X199284285Y-60053390D02*
X199331904Y-60101009D01*
X199331904Y-60101009D02*
X199379523Y-60196247D01*
X199379523Y-60196247D02*
X199379523Y-60434342D01*
X199379523Y-60434342D02*
X199331904Y-60529580D01*
X199331904Y-60529580D02*
X199284285Y-60577200D01*
X199284285Y-60577200D02*
X199189047Y-60624819D01*
X199189047Y-60624819D02*
X198903333Y-60624819D01*
X198903333Y-60624819D02*
X198808095Y-60577200D01*
X198808095Y-60577200D02*
X198760476Y-60529580D01*
X199712857Y-59624819D02*
X200379523Y-59624819D01*
X200379523Y-59624819D02*
X199950952Y-60624819D01*
X203268333Y-47929819D02*
X202935000Y-47453628D01*
X202696905Y-47929819D02*
X202696905Y-46929819D01*
X202696905Y-46929819D02*
X203077857Y-46929819D01*
X203077857Y-46929819D02*
X203173095Y-46977438D01*
X203173095Y-46977438D02*
X203220714Y-47025057D01*
X203220714Y-47025057D02*
X203268333Y-47120295D01*
X203268333Y-47120295D02*
X203268333Y-47263152D01*
X203268333Y-47263152D02*
X203220714Y-47358390D01*
X203220714Y-47358390D02*
X203173095Y-47406009D01*
X203173095Y-47406009D02*
X203077857Y-47453628D01*
X203077857Y-47453628D02*
X202696905Y-47453628D01*
X204125476Y-47263152D02*
X204125476Y-47929819D01*
X203887381Y-46882200D02*
X203649286Y-47596485D01*
X203649286Y-47596485D02*
X204268333Y-47596485D01*
X215609580Y-80151204D02*
X215657200Y-80198823D01*
X215657200Y-80198823D02*
X215704819Y-80341680D01*
X215704819Y-80341680D02*
X215704819Y-80436918D01*
X215704819Y-80436918D02*
X215657200Y-80579775D01*
X215657200Y-80579775D02*
X215561961Y-80675013D01*
X215561961Y-80675013D02*
X215466723Y-80722632D01*
X215466723Y-80722632D02*
X215276247Y-80770251D01*
X215276247Y-80770251D02*
X215133390Y-80770251D01*
X215133390Y-80770251D02*
X214942914Y-80722632D01*
X214942914Y-80722632D02*
X214847676Y-80675013D01*
X214847676Y-80675013D02*
X214752438Y-80579775D01*
X214752438Y-80579775D02*
X214704819Y-80436918D01*
X214704819Y-80436918D02*
X214704819Y-80341680D01*
X214704819Y-80341680D02*
X214752438Y-80198823D01*
X214752438Y-80198823D02*
X214800057Y-80151204D01*
X214704819Y-79817870D02*
X214704819Y-79198823D01*
X214704819Y-79198823D02*
X215085771Y-79532156D01*
X215085771Y-79532156D02*
X215085771Y-79389299D01*
X215085771Y-79389299D02*
X215133390Y-79294061D01*
X215133390Y-79294061D02*
X215181009Y-79246442D01*
X215181009Y-79246442D02*
X215276247Y-79198823D01*
X215276247Y-79198823D02*
X215514342Y-79198823D01*
X215514342Y-79198823D02*
X215609580Y-79246442D01*
X215609580Y-79246442D02*
X215657200Y-79294061D01*
X215657200Y-79294061D02*
X215704819Y-79389299D01*
X215704819Y-79389299D02*
X215704819Y-79675013D01*
X215704819Y-79675013D02*
X215657200Y-79770251D01*
X215657200Y-79770251D02*
X215609580Y-79817870D01*
X214704819Y-78341680D02*
X214704819Y-78532156D01*
X214704819Y-78532156D02*
X214752438Y-78627394D01*
X214752438Y-78627394D02*
X214800057Y-78675013D01*
X214800057Y-78675013D02*
X214942914Y-78770251D01*
X214942914Y-78770251D02*
X215133390Y-78817870D01*
X215133390Y-78817870D02*
X215514342Y-78817870D01*
X215514342Y-78817870D02*
X215609580Y-78770251D01*
X215609580Y-78770251D02*
X215657200Y-78722632D01*
X215657200Y-78722632D02*
X215704819Y-78627394D01*
X215704819Y-78627394D02*
X215704819Y-78436918D01*
X215704819Y-78436918D02*
X215657200Y-78341680D01*
X215657200Y-78341680D02*
X215609580Y-78294061D01*
X215609580Y-78294061D02*
X215514342Y-78246442D01*
X215514342Y-78246442D02*
X215276247Y-78246442D01*
X215276247Y-78246442D02*
X215181009Y-78294061D01*
X215181009Y-78294061D02*
X215133390Y-78341680D01*
X215133390Y-78341680D02*
X215085771Y-78436918D01*
X215085771Y-78436918D02*
X215085771Y-78627394D01*
X215085771Y-78627394D02*
X215133390Y-78722632D01*
X215133390Y-78722632D02*
X215181009Y-78770251D01*
X215181009Y-78770251D02*
X215276247Y-78817870D01*
X209029580Y-85967257D02*
X209077200Y-86014876D01*
X209077200Y-86014876D02*
X209124819Y-86157733D01*
X209124819Y-86157733D02*
X209124819Y-86252971D01*
X209124819Y-86252971D02*
X209077200Y-86395828D01*
X209077200Y-86395828D02*
X208981961Y-86491066D01*
X208981961Y-86491066D02*
X208886723Y-86538685D01*
X208886723Y-86538685D02*
X208696247Y-86586304D01*
X208696247Y-86586304D02*
X208553390Y-86586304D01*
X208553390Y-86586304D02*
X208362914Y-86538685D01*
X208362914Y-86538685D02*
X208267676Y-86491066D01*
X208267676Y-86491066D02*
X208172438Y-86395828D01*
X208172438Y-86395828D02*
X208124819Y-86252971D01*
X208124819Y-86252971D02*
X208124819Y-86157733D01*
X208124819Y-86157733D02*
X208172438Y-86014876D01*
X208172438Y-86014876D02*
X208220057Y-85967257D01*
X209124819Y-85014876D02*
X209124819Y-85586304D01*
X209124819Y-85300590D02*
X208124819Y-85300590D01*
X208124819Y-85300590D02*
X208267676Y-85395828D01*
X208267676Y-85395828D02*
X208362914Y-85491066D01*
X208362914Y-85491066D02*
X208410533Y-85586304D01*
X208124819Y-84395828D02*
X208124819Y-84300590D01*
X208124819Y-84300590D02*
X208172438Y-84205352D01*
X208172438Y-84205352D02*
X208220057Y-84157733D01*
X208220057Y-84157733D02*
X208315295Y-84110114D01*
X208315295Y-84110114D02*
X208505771Y-84062495D01*
X208505771Y-84062495D02*
X208743866Y-84062495D01*
X208743866Y-84062495D02*
X208934342Y-84110114D01*
X208934342Y-84110114D02*
X209029580Y-84157733D01*
X209029580Y-84157733D02*
X209077200Y-84205352D01*
X209077200Y-84205352D02*
X209124819Y-84300590D01*
X209124819Y-84300590D02*
X209124819Y-84395828D01*
X209124819Y-84395828D02*
X209077200Y-84491066D01*
X209077200Y-84491066D02*
X209029580Y-84538685D01*
X209029580Y-84538685D02*
X208934342Y-84586304D01*
X208934342Y-84586304D02*
X208743866Y-84633923D01*
X208743866Y-84633923D02*
X208505771Y-84633923D01*
X208505771Y-84633923D02*
X208315295Y-84586304D01*
X208315295Y-84586304D02*
X208220057Y-84538685D01*
X208220057Y-84538685D02*
X208172438Y-84491066D01*
X208172438Y-84491066D02*
X208124819Y-84395828D01*
X213057804Y-70328527D02*
X213057804Y-69519004D01*
X213057804Y-69519004D02*
X213010185Y-69423766D01*
X213010185Y-69423766D02*
X212962566Y-69376147D01*
X212962566Y-69376147D02*
X212867328Y-69328527D01*
X212867328Y-69328527D02*
X212676852Y-69328527D01*
X212676852Y-69328527D02*
X212581614Y-69376147D01*
X212581614Y-69376147D02*
X212533995Y-69423766D01*
X212533995Y-69423766D02*
X212486376Y-69519004D01*
X212486376Y-69519004D02*
X212486376Y-70328527D01*
X212057804Y-70233289D02*
X212010185Y-70280908D01*
X212010185Y-70280908D02*
X211914947Y-70328527D01*
X211914947Y-70328527D02*
X211676852Y-70328527D01*
X211676852Y-70328527D02*
X211581614Y-70280908D01*
X211581614Y-70280908D02*
X211533995Y-70233289D01*
X211533995Y-70233289D02*
X211486376Y-70138051D01*
X211486376Y-70138051D02*
X211486376Y-70042813D01*
X211486376Y-70042813D02*
X211533995Y-69899956D01*
X211533995Y-69899956D02*
X212105423Y-69328527D01*
X212105423Y-69328527D02*
X211486376Y-69328527D01*
X216724999Y-73670180D02*
X216724999Y-73432085D01*
X216963094Y-73527323D02*
X216724999Y-73432085D01*
X216724999Y-73432085D02*
X216486904Y-73527323D01*
X216867856Y-73241609D02*
X216724999Y-73432085D01*
X216724999Y-73432085D02*
X216582142Y-73241609D01*
X217833100Y-72704819D02*
X217833100Y-72942914D01*
X217595005Y-72847676D02*
X217833100Y-72942914D01*
X217833100Y-72942914D02*
X218071195Y-72847676D01*
X217690243Y-73133390D02*
X217833100Y-72942914D01*
X217833100Y-72942914D02*
X217975957Y-73133390D01*
X213258333Y-99354219D02*
X212925000Y-98878028D01*
X212686905Y-99354219D02*
X212686905Y-98354219D01*
X212686905Y-98354219D02*
X213067857Y-98354219D01*
X213067857Y-98354219D02*
X213163095Y-98401838D01*
X213163095Y-98401838D02*
X213210714Y-98449457D01*
X213210714Y-98449457D02*
X213258333Y-98544695D01*
X213258333Y-98544695D02*
X213258333Y-98687552D01*
X213258333Y-98687552D02*
X213210714Y-98782790D01*
X213210714Y-98782790D02*
X213163095Y-98830409D01*
X213163095Y-98830409D02*
X213067857Y-98878028D01*
X213067857Y-98878028D02*
X212686905Y-98878028D01*
X213829762Y-98782790D02*
X213734524Y-98735171D01*
X213734524Y-98735171D02*
X213686905Y-98687552D01*
X213686905Y-98687552D02*
X213639286Y-98592314D01*
X213639286Y-98592314D02*
X213639286Y-98544695D01*
X213639286Y-98544695D02*
X213686905Y-98449457D01*
X213686905Y-98449457D02*
X213734524Y-98401838D01*
X213734524Y-98401838D02*
X213829762Y-98354219D01*
X213829762Y-98354219D02*
X214020238Y-98354219D01*
X214020238Y-98354219D02*
X214115476Y-98401838D01*
X214115476Y-98401838D02*
X214163095Y-98449457D01*
X214163095Y-98449457D02*
X214210714Y-98544695D01*
X214210714Y-98544695D02*
X214210714Y-98592314D01*
X214210714Y-98592314D02*
X214163095Y-98687552D01*
X214163095Y-98687552D02*
X214115476Y-98735171D01*
X214115476Y-98735171D02*
X214020238Y-98782790D01*
X214020238Y-98782790D02*
X213829762Y-98782790D01*
X213829762Y-98782790D02*
X213734524Y-98830409D01*
X213734524Y-98830409D02*
X213686905Y-98878028D01*
X213686905Y-98878028D02*
X213639286Y-98973266D01*
X213639286Y-98973266D02*
X213639286Y-99163742D01*
X213639286Y-99163742D02*
X213686905Y-99258980D01*
X213686905Y-99258980D02*
X213734524Y-99306600D01*
X213734524Y-99306600D02*
X213829762Y-99354219D01*
X213829762Y-99354219D02*
X214020238Y-99354219D01*
X214020238Y-99354219D02*
X214115476Y-99306600D01*
X214115476Y-99306600D02*
X214163095Y-99258980D01*
X214163095Y-99258980D02*
X214210714Y-99163742D01*
X214210714Y-99163742D02*
X214210714Y-98973266D01*
X214210714Y-98973266D02*
X214163095Y-98878028D01*
X214163095Y-98878028D02*
X214115476Y-98830409D01*
X214115476Y-98830409D02*
X214020238Y-98782790D01*
X200242037Y-71010496D02*
X200289657Y-71058115D01*
X200289657Y-71058115D02*
X200337276Y-71200972D01*
X200337276Y-71200972D02*
X200337276Y-71296210D01*
X200337276Y-71296210D02*
X200289657Y-71439067D01*
X200289657Y-71439067D02*
X200194418Y-71534305D01*
X200194418Y-71534305D02*
X200099180Y-71581924D01*
X200099180Y-71581924D02*
X199908704Y-71629543D01*
X199908704Y-71629543D02*
X199765847Y-71629543D01*
X199765847Y-71629543D02*
X199575371Y-71581924D01*
X199575371Y-71581924D02*
X199480133Y-71534305D01*
X199480133Y-71534305D02*
X199384895Y-71439067D01*
X199384895Y-71439067D02*
X199337276Y-71296210D01*
X199337276Y-71296210D02*
X199337276Y-71200972D01*
X199337276Y-71200972D02*
X199384895Y-71058115D01*
X199384895Y-71058115D02*
X199432514Y-71010496D01*
X199337276Y-70677162D02*
X199337276Y-70058115D01*
X199337276Y-70058115D02*
X199718228Y-70391448D01*
X199718228Y-70391448D02*
X199718228Y-70248591D01*
X199718228Y-70248591D02*
X199765847Y-70153353D01*
X199765847Y-70153353D02*
X199813466Y-70105734D01*
X199813466Y-70105734D02*
X199908704Y-70058115D01*
X199908704Y-70058115D02*
X200146799Y-70058115D01*
X200146799Y-70058115D02*
X200242037Y-70105734D01*
X200242037Y-70105734D02*
X200289657Y-70153353D01*
X200289657Y-70153353D02*
X200337276Y-70248591D01*
X200337276Y-70248591D02*
X200337276Y-70534305D01*
X200337276Y-70534305D02*
X200289657Y-70629543D01*
X200289657Y-70629543D02*
X200242037Y-70677162D01*
X199670609Y-69200972D02*
X200337276Y-69200972D01*
X199289657Y-69439067D02*
X200003942Y-69677162D01*
X200003942Y-69677162D02*
X200003942Y-69058115D01*
X179243333Y-64639580D02*
X179195714Y-64687200D01*
X179195714Y-64687200D02*
X179052857Y-64734819D01*
X179052857Y-64734819D02*
X178957619Y-64734819D01*
X178957619Y-64734819D02*
X178814762Y-64687200D01*
X178814762Y-64687200D02*
X178719524Y-64591961D01*
X178719524Y-64591961D02*
X178671905Y-64496723D01*
X178671905Y-64496723D02*
X178624286Y-64306247D01*
X178624286Y-64306247D02*
X178624286Y-64163390D01*
X178624286Y-64163390D02*
X178671905Y-63972914D01*
X178671905Y-63972914D02*
X178719524Y-63877676D01*
X178719524Y-63877676D02*
X178814762Y-63782438D01*
X178814762Y-63782438D02*
X178957619Y-63734819D01*
X178957619Y-63734819D02*
X179052857Y-63734819D01*
X179052857Y-63734819D02*
X179195714Y-63782438D01*
X179195714Y-63782438D02*
X179243333Y-63830057D01*
X179719524Y-64734819D02*
X179910000Y-64734819D01*
X179910000Y-64734819D02*
X180005238Y-64687200D01*
X180005238Y-64687200D02*
X180052857Y-64639580D01*
X180052857Y-64639580D02*
X180148095Y-64496723D01*
X180148095Y-64496723D02*
X180195714Y-64306247D01*
X180195714Y-64306247D02*
X180195714Y-63925295D01*
X180195714Y-63925295D02*
X180148095Y-63830057D01*
X180148095Y-63830057D02*
X180100476Y-63782438D01*
X180100476Y-63782438D02*
X180005238Y-63734819D01*
X180005238Y-63734819D02*
X179814762Y-63734819D01*
X179814762Y-63734819D02*
X179719524Y-63782438D01*
X179719524Y-63782438D02*
X179671905Y-63830057D01*
X179671905Y-63830057D02*
X179624286Y-63925295D01*
X179624286Y-63925295D02*
X179624286Y-64163390D01*
X179624286Y-64163390D02*
X179671905Y-64258628D01*
X179671905Y-64258628D02*
X179719524Y-64306247D01*
X179719524Y-64306247D02*
X179814762Y-64353866D01*
X179814762Y-64353866D02*
X180005238Y-64353866D01*
X180005238Y-64353866D02*
X180100476Y-64306247D01*
X180100476Y-64306247D02*
X180148095Y-64258628D01*
X180148095Y-64258628D02*
X180195714Y-64163390D01*
X245687142Y-66689580D02*
X245639523Y-66737200D01*
X245639523Y-66737200D02*
X245496666Y-66784819D01*
X245496666Y-66784819D02*
X245401428Y-66784819D01*
X245401428Y-66784819D02*
X245258571Y-66737200D01*
X245258571Y-66737200D02*
X245163333Y-66641961D01*
X245163333Y-66641961D02*
X245115714Y-66546723D01*
X245115714Y-66546723D02*
X245068095Y-66356247D01*
X245068095Y-66356247D02*
X245068095Y-66213390D01*
X245068095Y-66213390D02*
X245115714Y-66022914D01*
X245115714Y-66022914D02*
X245163333Y-65927676D01*
X245163333Y-65927676D02*
X245258571Y-65832438D01*
X245258571Y-65832438D02*
X245401428Y-65784819D01*
X245401428Y-65784819D02*
X245496666Y-65784819D01*
X245496666Y-65784819D02*
X245639523Y-65832438D01*
X245639523Y-65832438D02*
X245687142Y-65880057D01*
X246068095Y-65880057D02*
X246115714Y-65832438D01*
X246115714Y-65832438D02*
X246210952Y-65784819D01*
X246210952Y-65784819D02*
X246449047Y-65784819D01*
X246449047Y-65784819D02*
X246544285Y-65832438D01*
X246544285Y-65832438D02*
X246591904Y-65880057D01*
X246591904Y-65880057D02*
X246639523Y-65975295D01*
X246639523Y-65975295D02*
X246639523Y-66070533D01*
X246639523Y-66070533D02*
X246591904Y-66213390D01*
X246591904Y-66213390D02*
X246020476Y-66784819D01*
X246020476Y-66784819D02*
X246639523Y-66784819D01*
X247258571Y-65784819D02*
X247353809Y-65784819D01*
X247353809Y-65784819D02*
X247449047Y-65832438D01*
X247449047Y-65832438D02*
X247496666Y-65880057D01*
X247496666Y-65880057D02*
X247544285Y-65975295D01*
X247544285Y-65975295D02*
X247591904Y-66165771D01*
X247591904Y-66165771D02*
X247591904Y-66403866D01*
X247591904Y-66403866D02*
X247544285Y-66594342D01*
X247544285Y-66594342D02*
X247496666Y-66689580D01*
X247496666Y-66689580D02*
X247449047Y-66737200D01*
X247449047Y-66737200D02*
X247353809Y-66784819D01*
X247353809Y-66784819D02*
X247258571Y-66784819D01*
X247258571Y-66784819D02*
X247163333Y-66737200D01*
X247163333Y-66737200D02*
X247115714Y-66689580D01*
X247115714Y-66689580D02*
X247068095Y-66594342D01*
X247068095Y-66594342D02*
X247020476Y-66403866D01*
X247020476Y-66403866D02*
X247020476Y-66165771D01*
X247020476Y-66165771D02*
X247068095Y-65975295D01*
X247068095Y-65975295D02*
X247115714Y-65880057D01*
X247115714Y-65880057D02*
X247163333Y-65832438D01*
X247163333Y-65832438D02*
X247258571Y-65784819D01*
X190409580Y-71062857D02*
X190457200Y-71110476D01*
X190457200Y-71110476D02*
X190504819Y-71253333D01*
X190504819Y-71253333D02*
X190504819Y-71348571D01*
X190504819Y-71348571D02*
X190457200Y-71491428D01*
X190457200Y-71491428D02*
X190361961Y-71586666D01*
X190361961Y-71586666D02*
X190266723Y-71634285D01*
X190266723Y-71634285D02*
X190076247Y-71681904D01*
X190076247Y-71681904D02*
X189933390Y-71681904D01*
X189933390Y-71681904D02*
X189742914Y-71634285D01*
X189742914Y-71634285D02*
X189647676Y-71586666D01*
X189647676Y-71586666D02*
X189552438Y-71491428D01*
X189552438Y-71491428D02*
X189504819Y-71348571D01*
X189504819Y-71348571D02*
X189504819Y-71253333D01*
X189504819Y-71253333D02*
X189552438Y-71110476D01*
X189552438Y-71110476D02*
X189600057Y-71062857D01*
X189600057Y-70681904D02*
X189552438Y-70634285D01*
X189552438Y-70634285D02*
X189504819Y-70539047D01*
X189504819Y-70539047D02*
X189504819Y-70300952D01*
X189504819Y-70300952D02*
X189552438Y-70205714D01*
X189552438Y-70205714D02*
X189600057Y-70158095D01*
X189600057Y-70158095D02*
X189695295Y-70110476D01*
X189695295Y-70110476D02*
X189790533Y-70110476D01*
X189790533Y-70110476D02*
X189933390Y-70158095D01*
X189933390Y-70158095D02*
X190504819Y-70729523D01*
X190504819Y-70729523D02*
X190504819Y-70110476D01*
X189504819Y-69205714D02*
X189504819Y-69681904D01*
X189504819Y-69681904D02*
X189981009Y-69729523D01*
X189981009Y-69729523D02*
X189933390Y-69681904D01*
X189933390Y-69681904D02*
X189885771Y-69586666D01*
X189885771Y-69586666D02*
X189885771Y-69348571D01*
X189885771Y-69348571D02*
X189933390Y-69253333D01*
X189933390Y-69253333D02*
X189981009Y-69205714D01*
X189981009Y-69205714D02*
X190076247Y-69158095D01*
X190076247Y-69158095D02*
X190314342Y-69158095D01*
X190314342Y-69158095D02*
X190409580Y-69205714D01*
X190409580Y-69205714D02*
X190457200Y-69253333D01*
X190457200Y-69253333D02*
X190504819Y-69348571D01*
X190504819Y-69348571D02*
X190504819Y-69586666D01*
X190504819Y-69586666D02*
X190457200Y-69681904D01*
X190457200Y-69681904D02*
X190409580Y-69729523D01*
X206636905Y-46854819D02*
X206636905Y-45854819D01*
X206636905Y-45854819D02*
X206875000Y-45854819D01*
X206875000Y-45854819D02*
X207017857Y-45902438D01*
X207017857Y-45902438D02*
X207113095Y-45997676D01*
X207113095Y-45997676D02*
X207160714Y-46092914D01*
X207160714Y-46092914D02*
X207208333Y-46283390D01*
X207208333Y-46283390D02*
X207208333Y-46426247D01*
X207208333Y-46426247D02*
X207160714Y-46616723D01*
X207160714Y-46616723D02*
X207113095Y-46711961D01*
X207113095Y-46711961D02*
X207017857Y-46807200D01*
X207017857Y-46807200D02*
X206875000Y-46854819D01*
X206875000Y-46854819D02*
X206636905Y-46854819D01*
X208065476Y-46188152D02*
X208065476Y-46854819D01*
X207827381Y-45807200D02*
X207589286Y-46521485D01*
X207589286Y-46521485D02*
X208208333Y-46521485D01*
X224832142Y-67331819D02*
X224498809Y-66855628D01*
X224260714Y-67331819D02*
X224260714Y-66331819D01*
X224260714Y-66331819D02*
X224641666Y-66331819D01*
X224641666Y-66331819D02*
X224736904Y-66379438D01*
X224736904Y-66379438D02*
X224784523Y-66427057D01*
X224784523Y-66427057D02*
X224832142Y-66522295D01*
X224832142Y-66522295D02*
X224832142Y-66665152D01*
X224832142Y-66665152D02*
X224784523Y-66760390D01*
X224784523Y-66760390D02*
X224736904Y-66808009D01*
X224736904Y-66808009D02*
X224641666Y-66855628D01*
X224641666Y-66855628D02*
X224260714Y-66855628D01*
X225689285Y-66665152D02*
X225689285Y-67331819D01*
X225451190Y-66284200D02*
X225213095Y-66998485D01*
X225213095Y-66998485D02*
X225832142Y-66998485D01*
X226641666Y-66331819D02*
X226451190Y-66331819D01*
X226451190Y-66331819D02*
X226355952Y-66379438D01*
X226355952Y-66379438D02*
X226308333Y-66427057D01*
X226308333Y-66427057D02*
X226213095Y-66569914D01*
X226213095Y-66569914D02*
X226165476Y-66760390D01*
X226165476Y-66760390D02*
X226165476Y-67141342D01*
X226165476Y-67141342D02*
X226213095Y-67236580D01*
X226213095Y-67236580D02*
X226260714Y-67284200D01*
X226260714Y-67284200D02*
X226355952Y-67331819D01*
X226355952Y-67331819D02*
X226546428Y-67331819D01*
X226546428Y-67331819D02*
X226641666Y-67284200D01*
X226641666Y-67284200D02*
X226689285Y-67236580D01*
X226689285Y-67236580D02*
X226736904Y-67141342D01*
X226736904Y-67141342D02*
X226736904Y-66903247D01*
X226736904Y-66903247D02*
X226689285Y-66808009D01*
X226689285Y-66808009D02*
X226641666Y-66760390D01*
X226641666Y-66760390D02*
X226546428Y-66712771D01*
X226546428Y-66712771D02*
X226355952Y-66712771D01*
X226355952Y-66712771D02*
X226260714Y-66760390D01*
X226260714Y-66760390D02*
X226213095Y-66808009D01*
X226213095Y-66808009D02*
X226165476Y-66903247D01*
X182529580Y-70952857D02*
X182577200Y-71000476D01*
X182577200Y-71000476D02*
X182624819Y-71143333D01*
X182624819Y-71143333D02*
X182624819Y-71238571D01*
X182624819Y-71238571D02*
X182577200Y-71381428D01*
X182577200Y-71381428D02*
X182481961Y-71476666D01*
X182481961Y-71476666D02*
X182386723Y-71524285D01*
X182386723Y-71524285D02*
X182196247Y-71571904D01*
X182196247Y-71571904D02*
X182053390Y-71571904D01*
X182053390Y-71571904D02*
X181862914Y-71524285D01*
X181862914Y-71524285D02*
X181767676Y-71476666D01*
X181767676Y-71476666D02*
X181672438Y-71381428D01*
X181672438Y-71381428D02*
X181624819Y-71238571D01*
X181624819Y-71238571D02*
X181624819Y-71143333D01*
X181624819Y-71143333D02*
X181672438Y-71000476D01*
X181672438Y-71000476D02*
X181720057Y-70952857D01*
X181720057Y-70571904D02*
X181672438Y-70524285D01*
X181672438Y-70524285D02*
X181624819Y-70429047D01*
X181624819Y-70429047D02*
X181624819Y-70190952D01*
X181624819Y-70190952D02*
X181672438Y-70095714D01*
X181672438Y-70095714D02*
X181720057Y-70048095D01*
X181720057Y-70048095D02*
X181815295Y-70000476D01*
X181815295Y-70000476D02*
X181910533Y-70000476D01*
X181910533Y-70000476D02*
X182053390Y-70048095D01*
X182053390Y-70048095D02*
X182624819Y-70619523D01*
X182624819Y-70619523D02*
X182624819Y-70000476D01*
X181958152Y-69143333D02*
X182624819Y-69143333D01*
X181577200Y-69381428D02*
X182291485Y-69619523D01*
X182291485Y-69619523D02*
X182291485Y-69000476D01*
X226574819Y-65182857D02*
X226098628Y-65516190D01*
X226574819Y-65754285D02*
X225574819Y-65754285D01*
X225574819Y-65754285D02*
X225574819Y-65373333D01*
X225574819Y-65373333D02*
X225622438Y-65278095D01*
X225622438Y-65278095D02*
X225670057Y-65230476D01*
X225670057Y-65230476D02*
X225765295Y-65182857D01*
X225765295Y-65182857D02*
X225908152Y-65182857D01*
X225908152Y-65182857D02*
X226003390Y-65230476D01*
X226003390Y-65230476D02*
X226051009Y-65278095D01*
X226051009Y-65278095D02*
X226098628Y-65373333D01*
X226098628Y-65373333D02*
X226098628Y-65754285D01*
X225908152Y-64325714D02*
X226574819Y-64325714D01*
X225527200Y-64563809D02*
X226241485Y-64801904D01*
X226241485Y-64801904D02*
X226241485Y-64182857D01*
X225574819Y-63897142D02*
X225574819Y-63230476D01*
X225574819Y-63230476D02*
X226574819Y-63659047D01*
X194254819Y-69582857D02*
X193778628Y-69916190D01*
X194254819Y-70154285D02*
X193254819Y-70154285D01*
X193254819Y-70154285D02*
X193254819Y-69773333D01*
X193254819Y-69773333D02*
X193302438Y-69678095D01*
X193302438Y-69678095D02*
X193350057Y-69630476D01*
X193350057Y-69630476D02*
X193445295Y-69582857D01*
X193445295Y-69582857D02*
X193588152Y-69582857D01*
X193588152Y-69582857D02*
X193683390Y-69630476D01*
X193683390Y-69630476D02*
X193731009Y-69678095D01*
X193731009Y-69678095D02*
X193778628Y-69773333D01*
X193778628Y-69773333D02*
X193778628Y-70154285D01*
X193350057Y-69201904D02*
X193302438Y-69154285D01*
X193302438Y-69154285D02*
X193254819Y-69059047D01*
X193254819Y-69059047D02*
X193254819Y-68820952D01*
X193254819Y-68820952D02*
X193302438Y-68725714D01*
X193302438Y-68725714D02*
X193350057Y-68678095D01*
X193350057Y-68678095D02*
X193445295Y-68630476D01*
X193445295Y-68630476D02*
X193540533Y-68630476D01*
X193540533Y-68630476D02*
X193683390Y-68678095D01*
X193683390Y-68678095D02*
X194254819Y-69249523D01*
X194254819Y-69249523D02*
X194254819Y-68630476D01*
X193254819Y-68297142D02*
X193254819Y-67630476D01*
X193254819Y-67630476D02*
X194254819Y-68059047D01*
X217404819Y-80126204D02*
X216928628Y-80459537D01*
X217404819Y-80697632D02*
X216404819Y-80697632D01*
X216404819Y-80697632D02*
X216404819Y-80316680D01*
X216404819Y-80316680D02*
X216452438Y-80221442D01*
X216452438Y-80221442D02*
X216500057Y-80173823D01*
X216500057Y-80173823D02*
X216595295Y-80126204D01*
X216595295Y-80126204D02*
X216738152Y-80126204D01*
X216738152Y-80126204D02*
X216833390Y-80173823D01*
X216833390Y-80173823D02*
X216881009Y-80221442D01*
X216881009Y-80221442D02*
X216928628Y-80316680D01*
X216928628Y-80316680D02*
X216928628Y-80697632D01*
X216500057Y-79745251D02*
X216452438Y-79697632D01*
X216452438Y-79697632D02*
X216404819Y-79602394D01*
X216404819Y-79602394D02*
X216404819Y-79364299D01*
X216404819Y-79364299D02*
X216452438Y-79269061D01*
X216452438Y-79269061D02*
X216500057Y-79221442D01*
X216500057Y-79221442D02*
X216595295Y-79173823D01*
X216595295Y-79173823D02*
X216690533Y-79173823D01*
X216690533Y-79173823D02*
X216833390Y-79221442D01*
X216833390Y-79221442D02*
X217404819Y-79792870D01*
X217404819Y-79792870D02*
X217404819Y-79173823D01*
X216404819Y-78840489D02*
X216404819Y-78221442D01*
X216404819Y-78221442D02*
X216785771Y-78554775D01*
X216785771Y-78554775D02*
X216785771Y-78411918D01*
X216785771Y-78411918D02*
X216833390Y-78316680D01*
X216833390Y-78316680D02*
X216881009Y-78269061D01*
X216881009Y-78269061D02*
X216976247Y-78221442D01*
X216976247Y-78221442D02*
X217214342Y-78221442D01*
X217214342Y-78221442D02*
X217309580Y-78269061D01*
X217309580Y-78269061D02*
X217357200Y-78316680D01*
X217357200Y-78316680D02*
X217404819Y-78411918D01*
X217404819Y-78411918D02*
X217404819Y-78697632D01*
X217404819Y-78697632D02*
X217357200Y-78792870D01*
X217357200Y-78792870D02*
X217309580Y-78840489D01*
X248587142Y-89159580D02*
X248539523Y-89207200D01*
X248539523Y-89207200D02*
X248396666Y-89254819D01*
X248396666Y-89254819D02*
X248301428Y-89254819D01*
X248301428Y-89254819D02*
X248158571Y-89207200D01*
X248158571Y-89207200D02*
X248063333Y-89111961D01*
X248063333Y-89111961D02*
X248015714Y-89016723D01*
X248015714Y-89016723D02*
X247968095Y-88826247D01*
X247968095Y-88826247D02*
X247968095Y-88683390D01*
X247968095Y-88683390D02*
X248015714Y-88492914D01*
X248015714Y-88492914D02*
X248063333Y-88397676D01*
X248063333Y-88397676D02*
X248158571Y-88302438D01*
X248158571Y-88302438D02*
X248301428Y-88254819D01*
X248301428Y-88254819D02*
X248396666Y-88254819D01*
X248396666Y-88254819D02*
X248539523Y-88302438D01*
X248539523Y-88302438D02*
X248587142Y-88350057D01*
X248968095Y-88350057D02*
X249015714Y-88302438D01*
X249015714Y-88302438D02*
X249110952Y-88254819D01*
X249110952Y-88254819D02*
X249349047Y-88254819D01*
X249349047Y-88254819D02*
X249444285Y-88302438D01*
X249444285Y-88302438D02*
X249491904Y-88350057D01*
X249491904Y-88350057D02*
X249539523Y-88445295D01*
X249539523Y-88445295D02*
X249539523Y-88540533D01*
X249539523Y-88540533D02*
X249491904Y-88683390D01*
X249491904Y-88683390D02*
X248920476Y-89254819D01*
X248920476Y-89254819D02*
X249539523Y-89254819D01*
X250491904Y-89254819D02*
X249920476Y-89254819D01*
X250206190Y-89254819D02*
X250206190Y-88254819D01*
X250206190Y-88254819D02*
X250110952Y-88397676D01*
X250110952Y-88397676D02*
X250015714Y-88492914D01*
X250015714Y-88492914D02*
X249920476Y-88540533D01*
X221704819Y-97767257D02*
X221228628Y-98100590D01*
X221704819Y-98338685D02*
X220704819Y-98338685D01*
X220704819Y-98338685D02*
X220704819Y-97957733D01*
X220704819Y-97957733D02*
X220752438Y-97862495D01*
X220752438Y-97862495D02*
X220800057Y-97814876D01*
X220800057Y-97814876D02*
X220895295Y-97767257D01*
X220895295Y-97767257D02*
X221038152Y-97767257D01*
X221038152Y-97767257D02*
X221133390Y-97814876D01*
X221133390Y-97814876D02*
X221181009Y-97862495D01*
X221181009Y-97862495D02*
X221228628Y-97957733D01*
X221228628Y-97957733D02*
X221228628Y-98338685D01*
X221704819Y-96814876D02*
X221704819Y-97386304D01*
X221704819Y-97100590D02*
X220704819Y-97100590D01*
X220704819Y-97100590D02*
X220847676Y-97195828D01*
X220847676Y-97195828D02*
X220942914Y-97291066D01*
X220942914Y-97291066D02*
X220990533Y-97386304D01*
X221704819Y-95862495D02*
X221704819Y-96433923D01*
X221704819Y-96148209D02*
X220704819Y-96148209D01*
X220704819Y-96148209D02*
X220847676Y-96243447D01*
X220847676Y-96243447D02*
X220942914Y-96338685D01*
X220942914Y-96338685D02*
X220990533Y-96433923D01*
X206264819Y-77202857D02*
X205788628Y-77536190D01*
X206264819Y-77774285D02*
X205264819Y-77774285D01*
X205264819Y-77774285D02*
X205264819Y-77393333D01*
X205264819Y-77393333D02*
X205312438Y-77298095D01*
X205312438Y-77298095D02*
X205360057Y-77250476D01*
X205360057Y-77250476D02*
X205455295Y-77202857D01*
X205455295Y-77202857D02*
X205598152Y-77202857D01*
X205598152Y-77202857D02*
X205693390Y-77250476D01*
X205693390Y-77250476D02*
X205741009Y-77298095D01*
X205741009Y-77298095D02*
X205788628Y-77393333D01*
X205788628Y-77393333D02*
X205788628Y-77774285D01*
X205264819Y-76869523D02*
X205264819Y-76250476D01*
X205264819Y-76250476D02*
X205645771Y-76583809D01*
X205645771Y-76583809D02*
X205645771Y-76440952D01*
X205645771Y-76440952D02*
X205693390Y-76345714D01*
X205693390Y-76345714D02*
X205741009Y-76298095D01*
X205741009Y-76298095D02*
X205836247Y-76250476D01*
X205836247Y-76250476D02*
X206074342Y-76250476D01*
X206074342Y-76250476D02*
X206169580Y-76298095D01*
X206169580Y-76298095D02*
X206217200Y-76345714D01*
X206217200Y-76345714D02*
X206264819Y-76440952D01*
X206264819Y-76440952D02*
X206264819Y-76726666D01*
X206264819Y-76726666D02*
X206217200Y-76821904D01*
X206217200Y-76821904D02*
X206169580Y-76869523D01*
X206264819Y-75298095D02*
X206264819Y-75869523D01*
X206264819Y-75583809D02*
X205264819Y-75583809D01*
X205264819Y-75583809D02*
X205407676Y-75679047D01*
X205407676Y-75679047D02*
X205502914Y-75774285D01*
X205502914Y-75774285D02*
X205550533Y-75869523D01*
X225184819Y-81332857D02*
X224708628Y-81666190D01*
X225184819Y-81904285D02*
X224184819Y-81904285D01*
X224184819Y-81904285D02*
X224184819Y-81523333D01*
X224184819Y-81523333D02*
X224232438Y-81428095D01*
X224232438Y-81428095D02*
X224280057Y-81380476D01*
X224280057Y-81380476D02*
X224375295Y-81332857D01*
X224375295Y-81332857D02*
X224518152Y-81332857D01*
X224518152Y-81332857D02*
X224613390Y-81380476D01*
X224613390Y-81380476D02*
X224661009Y-81428095D01*
X224661009Y-81428095D02*
X224708628Y-81523333D01*
X224708628Y-81523333D02*
X224708628Y-81904285D01*
X224184819Y-80428095D02*
X224184819Y-80904285D01*
X224184819Y-80904285D02*
X224661009Y-80951904D01*
X224661009Y-80951904D02*
X224613390Y-80904285D01*
X224613390Y-80904285D02*
X224565771Y-80809047D01*
X224565771Y-80809047D02*
X224565771Y-80570952D01*
X224565771Y-80570952D02*
X224613390Y-80475714D01*
X224613390Y-80475714D02*
X224661009Y-80428095D01*
X224661009Y-80428095D02*
X224756247Y-80380476D01*
X224756247Y-80380476D02*
X224994342Y-80380476D01*
X224994342Y-80380476D02*
X225089580Y-80428095D01*
X225089580Y-80428095D02*
X225137200Y-80475714D01*
X225137200Y-80475714D02*
X225184819Y-80570952D01*
X225184819Y-80570952D02*
X225184819Y-80809047D01*
X225184819Y-80809047D02*
X225137200Y-80904285D01*
X225137200Y-80904285D02*
X225089580Y-80951904D01*
X224184819Y-79761428D02*
X224184819Y-79666190D01*
X224184819Y-79666190D02*
X224232438Y-79570952D01*
X224232438Y-79570952D02*
X224280057Y-79523333D01*
X224280057Y-79523333D02*
X224375295Y-79475714D01*
X224375295Y-79475714D02*
X224565771Y-79428095D01*
X224565771Y-79428095D02*
X224803866Y-79428095D01*
X224803866Y-79428095D02*
X224994342Y-79475714D01*
X224994342Y-79475714D02*
X225089580Y-79523333D01*
X225089580Y-79523333D02*
X225137200Y-79570952D01*
X225137200Y-79570952D02*
X225184819Y-79666190D01*
X225184819Y-79666190D02*
X225184819Y-79761428D01*
X225184819Y-79761428D02*
X225137200Y-79856666D01*
X225137200Y-79856666D02*
X225089580Y-79904285D01*
X225089580Y-79904285D02*
X224994342Y-79951904D01*
X224994342Y-79951904D02*
X224803866Y-79999523D01*
X224803866Y-79999523D02*
X224565771Y-79999523D01*
X224565771Y-79999523D02*
X224375295Y-79951904D01*
X224375295Y-79951904D02*
X224280057Y-79904285D01*
X224280057Y-79904285D02*
X224232438Y-79856666D01*
X224232438Y-79856666D02*
X224184819Y-79761428D01*
X230245180Y-93696605D02*
X231245180Y-93696605D01*
X231245180Y-93696605D02*
X231245180Y-93934700D01*
X231245180Y-93934700D02*
X231197561Y-94077557D01*
X231197561Y-94077557D02*
X231102323Y-94172795D01*
X231102323Y-94172795D02*
X231007085Y-94220414D01*
X231007085Y-94220414D02*
X230816609Y-94268033D01*
X230816609Y-94268033D02*
X230673752Y-94268033D01*
X230673752Y-94268033D02*
X230483276Y-94220414D01*
X230483276Y-94220414D02*
X230388038Y-94172795D01*
X230388038Y-94172795D02*
X230292800Y-94077557D01*
X230292800Y-94077557D02*
X230245180Y-93934700D01*
X230245180Y-93934700D02*
X230245180Y-93696605D01*
X231245180Y-95125176D02*
X231245180Y-94934700D01*
X231245180Y-94934700D02*
X231197561Y-94839462D01*
X231197561Y-94839462D02*
X231149942Y-94791843D01*
X231149942Y-94791843D02*
X231007085Y-94696605D01*
X231007085Y-94696605D02*
X230816609Y-94648986D01*
X230816609Y-94648986D02*
X230435657Y-94648986D01*
X230435657Y-94648986D02*
X230340419Y-94696605D01*
X230340419Y-94696605D02*
X230292800Y-94744224D01*
X230292800Y-94744224D02*
X230245180Y-94839462D01*
X230245180Y-94839462D02*
X230245180Y-95029938D01*
X230245180Y-95029938D02*
X230292800Y-95125176D01*
X230292800Y-95125176D02*
X230340419Y-95172795D01*
X230340419Y-95172795D02*
X230435657Y-95220414D01*
X230435657Y-95220414D02*
X230673752Y-95220414D01*
X230673752Y-95220414D02*
X230768990Y-95172795D01*
X230768990Y-95172795D02*
X230816609Y-95125176D01*
X230816609Y-95125176D02*
X230864228Y-95029938D01*
X230864228Y-95029938D02*
X230864228Y-94839462D01*
X230864228Y-94839462D02*
X230816609Y-94744224D01*
X230816609Y-94744224D02*
X230768990Y-94696605D01*
X230768990Y-94696605D02*
X230673752Y-94648986D01*
X180009580Y-46926666D02*
X180057200Y-46974285D01*
X180057200Y-46974285D02*
X180104819Y-47117142D01*
X180104819Y-47117142D02*
X180104819Y-47212380D01*
X180104819Y-47212380D02*
X180057200Y-47355237D01*
X180057200Y-47355237D02*
X179961961Y-47450475D01*
X179961961Y-47450475D02*
X179866723Y-47498094D01*
X179866723Y-47498094D02*
X179676247Y-47545713D01*
X179676247Y-47545713D02*
X179533390Y-47545713D01*
X179533390Y-47545713D02*
X179342914Y-47498094D01*
X179342914Y-47498094D02*
X179247676Y-47450475D01*
X179247676Y-47450475D02*
X179152438Y-47355237D01*
X179152438Y-47355237D02*
X179104819Y-47212380D01*
X179104819Y-47212380D02*
X179104819Y-47117142D01*
X179104819Y-47117142D02*
X179152438Y-46974285D01*
X179152438Y-46974285D02*
X179200057Y-46926666D01*
X179104819Y-46593332D02*
X179104819Y-45926666D01*
X179104819Y-45926666D02*
X180104819Y-46355237D01*
X236497142Y-89454580D02*
X236449523Y-89502200D01*
X236449523Y-89502200D02*
X236306666Y-89549819D01*
X236306666Y-89549819D02*
X236211428Y-89549819D01*
X236211428Y-89549819D02*
X236068571Y-89502200D01*
X236068571Y-89502200D02*
X235973333Y-89406961D01*
X235973333Y-89406961D02*
X235925714Y-89311723D01*
X235925714Y-89311723D02*
X235878095Y-89121247D01*
X235878095Y-89121247D02*
X235878095Y-88978390D01*
X235878095Y-88978390D02*
X235925714Y-88787914D01*
X235925714Y-88787914D02*
X235973333Y-88692676D01*
X235973333Y-88692676D02*
X236068571Y-88597438D01*
X236068571Y-88597438D02*
X236211428Y-88549819D01*
X236211428Y-88549819D02*
X236306666Y-88549819D01*
X236306666Y-88549819D02*
X236449523Y-88597438D01*
X236449523Y-88597438D02*
X236497142Y-88645057D01*
X236878095Y-88645057D02*
X236925714Y-88597438D01*
X236925714Y-88597438D02*
X237020952Y-88549819D01*
X237020952Y-88549819D02*
X237259047Y-88549819D01*
X237259047Y-88549819D02*
X237354285Y-88597438D01*
X237354285Y-88597438D02*
X237401904Y-88645057D01*
X237401904Y-88645057D02*
X237449523Y-88740295D01*
X237449523Y-88740295D02*
X237449523Y-88835533D01*
X237449523Y-88835533D02*
X237401904Y-88978390D01*
X237401904Y-88978390D02*
X236830476Y-89549819D01*
X236830476Y-89549819D02*
X237449523Y-89549819D01*
X238306666Y-88549819D02*
X238116190Y-88549819D01*
X238116190Y-88549819D02*
X238020952Y-88597438D01*
X238020952Y-88597438D02*
X237973333Y-88645057D01*
X237973333Y-88645057D02*
X237878095Y-88787914D01*
X237878095Y-88787914D02*
X237830476Y-88978390D01*
X237830476Y-88978390D02*
X237830476Y-89359342D01*
X237830476Y-89359342D02*
X237878095Y-89454580D01*
X237878095Y-89454580D02*
X237925714Y-89502200D01*
X237925714Y-89502200D02*
X238020952Y-89549819D01*
X238020952Y-89549819D02*
X238211428Y-89549819D01*
X238211428Y-89549819D02*
X238306666Y-89502200D01*
X238306666Y-89502200D02*
X238354285Y-89454580D01*
X238354285Y-89454580D02*
X238401904Y-89359342D01*
X238401904Y-89359342D02*
X238401904Y-89121247D01*
X238401904Y-89121247D02*
X238354285Y-89026009D01*
X238354285Y-89026009D02*
X238306666Y-88978390D01*
X238306666Y-88978390D02*
X238211428Y-88930771D01*
X238211428Y-88930771D02*
X238020952Y-88930771D01*
X238020952Y-88930771D02*
X237925714Y-88978390D01*
X237925714Y-88978390D02*
X237878095Y-89026009D01*
X237878095Y-89026009D02*
X237830476Y-89121247D01*
X201932142Y-65313166D02*
X201598809Y-64836975D01*
X201360714Y-65313166D02*
X201360714Y-64313166D01*
X201360714Y-64313166D02*
X201741666Y-64313166D01*
X201741666Y-64313166D02*
X201836904Y-64360785D01*
X201836904Y-64360785D02*
X201884523Y-64408404D01*
X201884523Y-64408404D02*
X201932142Y-64503642D01*
X201932142Y-64503642D02*
X201932142Y-64646499D01*
X201932142Y-64646499D02*
X201884523Y-64741737D01*
X201884523Y-64741737D02*
X201836904Y-64789356D01*
X201836904Y-64789356D02*
X201741666Y-64836975D01*
X201741666Y-64836975D02*
X201360714Y-64836975D01*
X202313095Y-64408404D02*
X202360714Y-64360785D01*
X202360714Y-64360785D02*
X202455952Y-64313166D01*
X202455952Y-64313166D02*
X202694047Y-64313166D01*
X202694047Y-64313166D02*
X202789285Y-64360785D01*
X202789285Y-64360785D02*
X202836904Y-64408404D01*
X202836904Y-64408404D02*
X202884523Y-64503642D01*
X202884523Y-64503642D02*
X202884523Y-64598880D01*
X202884523Y-64598880D02*
X202836904Y-64741737D01*
X202836904Y-64741737D02*
X202265476Y-65313166D01*
X202265476Y-65313166D02*
X202884523Y-65313166D01*
X203741666Y-64313166D02*
X203551190Y-64313166D01*
X203551190Y-64313166D02*
X203455952Y-64360785D01*
X203455952Y-64360785D02*
X203408333Y-64408404D01*
X203408333Y-64408404D02*
X203313095Y-64551261D01*
X203313095Y-64551261D02*
X203265476Y-64741737D01*
X203265476Y-64741737D02*
X203265476Y-65122689D01*
X203265476Y-65122689D02*
X203313095Y-65217927D01*
X203313095Y-65217927D02*
X203360714Y-65265547D01*
X203360714Y-65265547D02*
X203455952Y-65313166D01*
X203455952Y-65313166D02*
X203646428Y-65313166D01*
X203646428Y-65313166D02*
X203741666Y-65265547D01*
X203741666Y-65265547D02*
X203789285Y-65217927D01*
X203789285Y-65217927D02*
X203836904Y-65122689D01*
X203836904Y-65122689D02*
X203836904Y-64884594D01*
X203836904Y-64884594D02*
X203789285Y-64789356D01*
X203789285Y-64789356D02*
X203741666Y-64741737D01*
X203741666Y-64741737D02*
X203646428Y-64694118D01*
X203646428Y-64694118D02*
X203455952Y-64694118D01*
X203455952Y-64694118D02*
X203360714Y-64741737D01*
X203360714Y-64741737D02*
X203313095Y-64789356D01*
X203313095Y-64789356D02*
X203265476Y-64884594D01*
X230712581Y-68812933D02*
X230379248Y-68336742D01*
X230141153Y-68812933D02*
X230141153Y-67812933D01*
X230141153Y-67812933D02*
X230522105Y-67812933D01*
X230522105Y-67812933D02*
X230617343Y-67860552D01*
X230617343Y-67860552D02*
X230664962Y-67908171D01*
X230664962Y-67908171D02*
X230712581Y-68003409D01*
X230712581Y-68003409D02*
X230712581Y-68146266D01*
X230712581Y-68146266D02*
X230664962Y-68241504D01*
X230664962Y-68241504D02*
X230617343Y-68289123D01*
X230617343Y-68289123D02*
X230522105Y-68336742D01*
X230522105Y-68336742D02*
X230141153Y-68336742D01*
X231569724Y-68146266D02*
X231569724Y-68812933D01*
X231331629Y-67765314D02*
X231093534Y-68479599D01*
X231093534Y-68479599D02*
X231712581Y-68479599D01*
X232141153Y-68812933D02*
X232331629Y-68812933D01*
X232331629Y-68812933D02*
X232426867Y-68765314D01*
X232426867Y-68765314D02*
X232474486Y-68717694D01*
X232474486Y-68717694D02*
X232569724Y-68574837D01*
X232569724Y-68574837D02*
X232617343Y-68384361D01*
X232617343Y-68384361D02*
X232617343Y-68003409D01*
X232617343Y-68003409D02*
X232569724Y-67908171D01*
X232569724Y-67908171D02*
X232522105Y-67860552D01*
X232522105Y-67860552D02*
X232426867Y-67812933D01*
X232426867Y-67812933D02*
X232236391Y-67812933D01*
X232236391Y-67812933D02*
X232141153Y-67860552D01*
X232141153Y-67860552D02*
X232093534Y-67908171D01*
X232093534Y-67908171D02*
X232045915Y-68003409D01*
X232045915Y-68003409D02*
X232045915Y-68241504D01*
X232045915Y-68241504D02*
X232093534Y-68336742D01*
X232093534Y-68336742D02*
X232141153Y-68384361D01*
X232141153Y-68384361D02*
X232236391Y-68431980D01*
X232236391Y-68431980D02*
X232426867Y-68431980D01*
X232426867Y-68431980D02*
X232522105Y-68384361D01*
X232522105Y-68384361D02*
X232569724Y-68336742D01*
X232569724Y-68336742D02*
X232617343Y-68241504D01*
X225194819Y-84532857D02*
X224718628Y-84866190D01*
X225194819Y-85104285D02*
X224194819Y-85104285D01*
X224194819Y-85104285D02*
X224194819Y-84723333D01*
X224194819Y-84723333D02*
X224242438Y-84628095D01*
X224242438Y-84628095D02*
X224290057Y-84580476D01*
X224290057Y-84580476D02*
X224385295Y-84532857D01*
X224385295Y-84532857D02*
X224528152Y-84532857D01*
X224528152Y-84532857D02*
X224623390Y-84580476D01*
X224623390Y-84580476D02*
X224671009Y-84628095D01*
X224671009Y-84628095D02*
X224718628Y-84723333D01*
X224718628Y-84723333D02*
X224718628Y-85104285D01*
X224528152Y-83675714D02*
X225194819Y-83675714D01*
X224147200Y-83913809D02*
X224861485Y-84151904D01*
X224861485Y-84151904D02*
X224861485Y-83532857D01*
X224528152Y-82723333D02*
X225194819Y-82723333D01*
X224147200Y-82961428D02*
X224861485Y-83199523D01*
X224861485Y-83199523D02*
X224861485Y-82580476D01*
X210004957Y-79691707D02*
X209671624Y-79215516D01*
X209433529Y-79691707D02*
X209433529Y-78691707D01*
X209433529Y-78691707D02*
X209814481Y-78691707D01*
X209814481Y-78691707D02*
X209909719Y-78739326D01*
X209909719Y-78739326D02*
X209957338Y-78786945D01*
X209957338Y-78786945D02*
X210004957Y-78882183D01*
X210004957Y-78882183D02*
X210004957Y-79025040D01*
X210004957Y-79025040D02*
X209957338Y-79120278D01*
X209957338Y-79120278D02*
X209909719Y-79167897D01*
X209909719Y-79167897D02*
X209814481Y-79215516D01*
X209814481Y-79215516D02*
X209433529Y-79215516D01*
X210338291Y-78691707D02*
X210957338Y-78691707D01*
X210957338Y-78691707D02*
X210624005Y-79072659D01*
X210624005Y-79072659D02*
X210766862Y-79072659D01*
X210766862Y-79072659D02*
X210862100Y-79120278D01*
X210862100Y-79120278D02*
X210909719Y-79167897D01*
X210909719Y-79167897D02*
X210957338Y-79263135D01*
X210957338Y-79263135D02*
X210957338Y-79501230D01*
X210957338Y-79501230D02*
X210909719Y-79596468D01*
X210909719Y-79596468D02*
X210862100Y-79644088D01*
X210862100Y-79644088D02*
X210766862Y-79691707D01*
X210766862Y-79691707D02*
X210481148Y-79691707D01*
X210481148Y-79691707D02*
X210385910Y-79644088D01*
X210385910Y-79644088D02*
X210338291Y-79596468D01*
X211814481Y-79025040D02*
X211814481Y-79691707D01*
X211576386Y-78644088D02*
X211338291Y-79358373D01*
X211338291Y-79358373D02*
X211957338Y-79358373D01*
X213258333Y-102404219D02*
X212925000Y-101928028D01*
X212686905Y-102404219D02*
X212686905Y-101404219D01*
X212686905Y-101404219D02*
X213067857Y-101404219D01*
X213067857Y-101404219D02*
X213163095Y-101451838D01*
X213163095Y-101451838D02*
X213210714Y-101499457D01*
X213210714Y-101499457D02*
X213258333Y-101594695D01*
X213258333Y-101594695D02*
X213258333Y-101737552D01*
X213258333Y-101737552D02*
X213210714Y-101832790D01*
X213210714Y-101832790D02*
X213163095Y-101880409D01*
X213163095Y-101880409D02*
X213067857Y-101928028D01*
X213067857Y-101928028D02*
X212686905Y-101928028D01*
X214115476Y-101404219D02*
X213925000Y-101404219D01*
X213925000Y-101404219D02*
X213829762Y-101451838D01*
X213829762Y-101451838D02*
X213782143Y-101499457D01*
X213782143Y-101499457D02*
X213686905Y-101642314D01*
X213686905Y-101642314D02*
X213639286Y-101832790D01*
X213639286Y-101832790D02*
X213639286Y-102213742D01*
X213639286Y-102213742D02*
X213686905Y-102308980D01*
X213686905Y-102308980D02*
X213734524Y-102356600D01*
X213734524Y-102356600D02*
X213829762Y-102404219D01*
X213829762Y-102404219D02*
X214020238Y-102404219D01*
X214020238Y-102404219D02*
X214115476Y-102356600D01*
X214115476Y-102356600D02*
X214163095Y-102308980D01*
X214163095Y-102308980D02*
X214210714Y-102213742D01*
X214210714Y-102213742D02*
X214210714Y-101975647D01*
X214210714Y-101975647D02*
X214163095Y-101880409D01*
X214163095Y-101880409D02*
X214115476Y-101832790D01*
X214115476Y-101832790D02*
X214020238Y-101785171D01*
X214020238Y-101785171D02*
X213829762Y-101785171D01*
X213829762Y-101785171D02*
X213734524Y-101832790D01*
X213734524Y-101832790D02*
X213686905Y-101880409D01*
X213686905Y-101880409D02*
X213639286Y-101975647D01*
X208907142Y-90684219D02*
X208573809Y-90208028D01*
X208335714Y-90684219D02*
X208335714Y-89684219D01*
X208335714Y-89684219D02*
X208716666Y-89684219D01*
X208716666Y-89684219D02*
X208811904Y-89731838D01*
X208811904Y-89731838D02*
X208859523Y-89779457D01*
X208859523Y-89779457D02*
X208907142Y-89874695D01*
X208907142Y-89874695D02*
X208907142Y-90017552D01*
X208907142Y-90017552D02*
X208859523Y-90112790D01*
X208859523Y-90112790D02*
X208811904Y-90160409D01*
X208811904Y-90160409D02*
X208716666Y-90208028D01*
X208716666Y-90208028D02*
X208335714Y-90208028D01*
X209240476Y-89684219D02*
X209859523Y-89684219D01*
X209859523Y-89684219D02*
X209526190Y-90065171D01*
X209526190Y-90065171D02*
X209669047Y-90065171D01*
X209669047Y-90065171D02*
X209764285Y-90112790D01*
X209764285Y-90112790D02*
X209811904Y-90160409D01*
X209811904Y-90160409D02*
X209859523Y-90255647D01*
X209859523Y-90255647D02*
X209859523Y-90493742D01*
X209859523Y-90493742D02*
X209811904Y-90588980D01*
X209811904Y-90588980D02*
X209764285Y-90636600D01*
X209764285Y-90636600D02*
X209669047Y-90684219D01*
X209669047Y-90684219D02*
X209383333Y-90684219D01*
X209383333Y-90684219D02*
X209288095Y-90636600D01*
X209288095Y-90636600D02*
X209240476Y-90588980D01*
X210240476Y-89779457D02*
X210288095Y-89731838D01*
X210288095Y-89731838D02*
X210383333Y-89684219D01*
X210383333Y-89684219D02*
X210621428Y-89684219D01*
X210621428Y-89684219D02*
X210716666Y-89731838D01*
X210716666Y-89731838D02*
X210764285Y-89779457D01*
X210764285Y-89779457D02*
X210811904Y-89874695D01*
X210811904Y-89874695D02*
X210811904Y-89969933D01*
X210811904Y-89969933D02*
X210764285Y-90112790D01*
X210764285Y-90112790D02*
X210192857Y-90684219D01*
X210192857Y-90684219D02*
X210811904Y-90684219D01*
X198477142Y-56224819D02*
X198143809Y-55748628D01*
X197905714Y-56224819D02*
X197905714Y-55224819D01*
X197905714Y-55224819D02*
X198286666Y-55224819D01*
X198286666Y-55224819D02*
X198381904Y-55272438D01*
X198381904Y-55272438D02*
X198429523Y-55320057D01*
X198429523Y-55320057D02*
X198477142Y-55415295D01*
X198477142Y-55415295D02*
X198477142Y-55558152D01*
X198477142Y-55558152D02*
X198429523Y-55653390D01*
X198429523Y-55653390D02*
X198381904Y-55701009D01*
X198381904Y-55701009D02*
X198286666Y-55748628D01*
X198286666Y-55748628D02*
X197905714Y-55748628D01*
X198858095Y-55320057D02*
X198905714Y-55272438D01*
X198905714Y-55272438D02*
X199000952Y-55224819D01*
X199000952Y-55224819D02*
X199239047Y-55224819D01*
X199239047Y-55224819D02*
X199334285Y-55272438D01*
X199334285Y-55272438D02*
X199381904Y-55320057D01*
X199381904Y-55320057D02*
X199429523Y-55415295D01*
X199429523Y-55415295D02*
X199429523Y-55510533D01*
X199429523Y-55510533D02*
X199381904Y-55653390D01*
X199381904Y-55653390D02*
X198810476Y-56224819D01*
X198810476Y-56224819D02*
X199429523Y-56224819D01*
X199905714Y-56224819D02*
X200096190Y-56224819D01*
X200096190Y-56224819D02*
X200191428Y-56177200D01*
X200191428Y-56177200D02*
X200239047Y-56129580D01*
X200239047Y-56129580D02*
X200334285Y-55986723D01*
X200334285Y-55986723D02*
X200381904Y-55796247D01*
X200381904Y-55796247D02*
X200381904Y-55415295D01*
X200381904Y-55415295D02*
X200334285Y-55320057D01*
X200334285Y-55320057D02*
X200286666Y-55272438D01*
X200286666Y-55272438D02*
X200191428Y-55224819D01*
X200191428Y-55224819D02*
X200000952Y-55224819D01*
X200000952Y-55224819D02*
X199905714Y-55272438D01*
X199905714Y-55272438D02*
X199858095Y-55320057D01*
X199858095Y-55320057D02*
X199810476Y-55415295D01*
X199810476Y-55415295D02*
X199810476Y-55653390D01*
X199810476Y-55653390D02*
X199858095Y-55748628D01*
X199858095Y-55748628D02*
X199905714Y-55796247D01*
X199905714Y-55796247D02*
X200000952Y-55843866D01*
X200000952Y-55843866D02*
X200191428Y-55843866D01*
X200191428Y-55843866D02*
X200286666Y-55796247D01*
X200286666Y-55796247D02*
X200334285Y-55748628D01*
X200334285Y-55748628D02*
X200381904Y-55653390D01*
X218874578Y-60684457D02*
X218922198Y-60732076D01*
X218922198Y-60732076D02*
X218969817Y-60874933D01*
X218969817Y-60874933D02*
X218969817Y-60970171D01*
X218969817Y-60970171D02*
X218922198Y-61113028D01*
X218922198Y-61113028D02*
X218826959Y-61208266D01*
X218826959Y-61208266D02*
X218731721Y-61255885D01*
X218731721Y-61255885D02*
X218541245Y-61303504D01*
X218541245Y-61303504D02*
X218398388Y-61303504D01*
X218398388Y-61303504D02*
X218207912Y-61255885D01*
X218207912Y-61255885D02*
X218112674Y-61208266D01*
X218112674Y-61208266D02*
X218017436Y-61113028D01*
X218017436Y-61113028D02*
X217969817Y-60970171D01*
X217969817Y-60970171D02*
X217969817Y-60874933D01*
X217969817Y-60874933D02*
X218017436Y-60732076D01*
X218017436Y-60732076D02*
X218065055Y-60684457D01*
X218969817Y-59732076D02*
X218969817Y-60303504D01*
X218969817Y-60017790D02*
X217969817Y-60017790D01*
X217969817Y-60017790D02*
X218112674Y-60113028D01*
X218112674Y-60113028D02*
X218207912Y-60208266D01*
X218207912Y-60208266D02*
X218255531Y-60303504D01*
X217969817Y-59398742D02*
X217969817Y-58732076D01*
X217969817Y-58732076D02*
X218969817Y-59160647D01*
X237039580Y-98192257D02*
X237087200Y-98239876D01*
X237087200Y-98239876D02*
X237134819Y-98382733D01*
X237134819Y-98382733D02*
X237134819Y-98477971D01*
X237134819Y-98477971D02*
X237087200Y-98620828D01*
X237087200Y-98620828D02*
X236991961Y-98716066D01*
X236991961Y-98716066D02*
X236896723Y-98763685D01*
X236896723Y-98763685D02*
X236706247Y-98811304D01*
X236706247Y-98811304D02*
X236563390Y-98811304D01*
X236563390Y-98811304D02*
X236372914Y-98763685D01*
X236372914Y-98763685D02*
X236277676Y-98716066D01*
X236277676Y-98716066D02*
X236182438Y-98620828D01*
X236182438Y-98620828D02*
X236134819Y-98477971D01*
X236134819Y-98477971D02*
X236134819Y-98382733D01*
X236134819Y-98382733D02*
X236182438Y-98239876D01*
X236182438Y-98239876D02*
X236230057Y-98192257D01*
X237134819Y-97239876D02*
X237134819Y-97811304D01*
X237134819Y-97525590D02*
X236134819Y-97525590D01*
X236134819Y-97525590D02*
X236277676Y-97620828D01*
X236277676Y-97620828D02*
X236372914Y-97716066D01*
X236372914Y-97716066D02*
X236420533Y-97811304D01*
X236230057Y-96858923D02*
X236182438Y-96811304D01*
X236182438Y-96811304D02*
X236134819Y-96716066D01*
X236134819Y-96716066D02*
X236134819Y-96477971D01*
X236134819Y-96477971D02*
X236182438Y-96382733D01*
X236182438Y-96382733D02*
X236230057Y-96335114D01*
X236230057Y-96335114D02*
X236325295Y-96287495D01*
X236325295Y-96287495D02*
X236420533Y-96287495D01*
X236420533Y-96287495D02*
X236563390Y-96335114D01*
X236563390Y-96335114D02*
X237134819Y-96906542D01*
X237134819Y-96906542D02*
X237134819Y-96287495D01*
X203298333Y-49404819D02*
X202965000Y-48928628D01*
X202726905Y-49404819D02*
X202726905Y-48404819D01*
X202726905Y-48404819D02*
X203107857Y-48404819D01*
X203107857Y-48404819D02*
X203203095Y-48452438D01*
X203203095Y-48452438D02*
X203250714Y-48500057D01*
X203250714Y-48500057D02*
X203298333Y-48595295D01*
X203298333Y-48595295D02*
X203298333Y-48738152D01*
X203298333Y-48738152D02*
X203250714Y-48833390D01*
X203250714Y-48833390D02*
X203203095Y-48881009D01*
X203203095Y-48881009D02*
X203107857Y-48928628D01*
X203107857Y-48928628D02*
X202726905Y-48928628D01*
X204203095Y-48404819D02*
X203726905Y-48404819D01*
X203726905Y-48404819D02*
X203679286Y-48881009D01*
X203679286Y-48881009D02*
X203726905Y-48833390D01*
X203726905Y-48833390D02*
X203822143Y-48785771D01*
X203822143Y-48785771D02*
X204060238Y-48785771D01*
X204060238Y-48785771D02*
X204155476Y-48833390D01*
X204155476Y-48833390D02*
X204203095Y-48881009D01*
X204203095Y-48881009D02*
X204250714Y-48976247D01*
X204250714Y-48976247D02*
X204250714Y-49214342D01*
X204250714Y-49214342D02*
X204203095Y-49309580D01*
X204203095Y-49309580D02*
X204155476Y-49357200D01*
X204155476Y-49357200D02*
X204060238Y-49404819D01*
X204060238Y-49404819D02*
X203822143Y-49404819D01*
X203822143Y-49404819D02*
X203726905Y-49357200D01*
X203726905Y-49357200D02*
X203679286Y-49309580D01*
X196883333Y-64569580D02*
X196835714Y-64617200D01*
X196835714Y-64617200D02*
X196692857Y-64664819D01*
X196692857Y-64664819D02*
X196597619Y-64664819D01*
X196597619Y-64664819D02*
X196454762Y-64617200D01*
X196454762Y-64617200D02*
X196359524Y-64521961D01*
X196359524Y-64521961D02*
X196311905Y-64426723D01*
X196311905Y-64426723D02*
X196264286Y-64236247D01*
X196264286Y-64236247D02*
X196264286Y-64093390D01*
X196264286Y-64093390D02*
X196311905Y-63902914D01*
X196311905Y-63902914D02*
X196359524Y-63807676D01*
X196359524Y-63807676D02*
X196454762Y-63712438D01*
X196454762Y-63712438D02*
X196597619Y-63664819D01*
X196597619Y-63664819D02*
X196692857Y-63664819D01*
X196692857Y-63664819D02*
X196835714Y-63712438D01*
X196835714Y-63712438D02*
X196883333Y-63760057D01*
X197740476Y-63998152D02*
X197740476Y-64664819D01*
X197502381Y-63617200D02*
X197264286Y-64331485D01*
X197264286Y-64331485D02*
X197883333Y-64331485D01*
X233957142Y-67236580D02*
X233909523Y-67284200D01*
X233909523Y-67284200D02*
X233766666Y-67331819D01*
X233766666Y-67331819D02*
X233671428Y-67331819D01*
X233671428Y-67331819D02*
X233528571Y-67284200D01*
X233528571Y-67284200D02*
X233433333Y-67188961D01*
X233433333Y-67188961D02*
X233385714Y-67093723D01*
X233385714Y-67093723D02*
X233338095Y-66903247D01*
X233338095Y-66903247D02*
X233338095Y-66760390D01*
X233338095Y-66760390D02*
X233385714Y-66569914D01*
X233385714Y-66569914D02*
X233433333Y-66474676D01*
X233433333Y-66474676D02*
X233528571Y-66379438D01*
X233528571Y-66379438D02*
X233671428Y-66331819D01*
X233671428Y-66331819D02*
X233766666Y-66331819D01*
X233766666Y-66331819D02*
X233909523Y-66379438D01*
X233909523Y-66379438D02*
X233957142Y-66427057D01*
X234909523Y-67331819D02*
X234338095Y-67331819D01*
X234623809Y-67331819D02*
X234623809Y-66331819D01*
X234623809Y-66331819D02*
X234528571Y-66474676D01*
X234528571Y-66474676D02*
X234433333Y-66569914D01*
X234433333Y-66569914D02*
X234338095Y-66617533D01*
X235385714Y-67331819D02*
X235576190Y-67331819D01*
X235576190Y-67331819D02*
X235671428Y-67284200D01*
X235671428Y-67284200D02*
X235719047Y-67236580D01*
X235719047Y-67236580D02*
X235814285Y-67093723D01*
X235814285Y-67093723D02*
X235861904Y-66903247D01*
X235861904Y-66903247D02*
X235861904Y-66522295D01*
X235861904Y-66522295D02*
X235814285Y-66427057D01*
X235814285Y-66427057D02*
X235766666Y-66379438D01*
X235766666Y-66379438D02*
X235671428Y-66331819D01*
X235671428Y-66331819D02*
X235480952Y-66331819D01*
X235480952Y-66331819D02*
X235385714Y-66379438D01*
X235385714Y-66379438D02*
X235338095Y-66427057D01*
X235338095Y-66427057D02*
X235290476Y-66522295D01*
X235290476Y-66522295D02*
X235290476Y-66760390D01*
X235290476Y-66760390D02*
X235338095Y-66855628D01*
X235338095Y-66855628D02*
X235385714Y-66903247D01*
X235385714Y-66903247D02*
X235480952Y-66950866D01*
X235480952Y-66950866D02*
X235671428Y-66950866D01*
X235671428Y-66950866D02*
X235766666Y-66903247D01*
X235766666Y-66903247D02*
X235814285Y-66855628D01*
X235814285Y-66855628D02*
X235861904Y-66760390D01*
X239188095Y-42324819D02*
X239759523Y-42324819D01*
X239473809Y-43324819D02*
X239473809Y-42324819D01*
X240092857Y-43324819D02*
X240092857Y-42324819D01*
X240092857Y-42324819D02*
X240473809Y-42324819D01*
X240473809Y-42324819D02*
X240569047Y-42372438D01*
X240569047Y-42372438D02*
X240616666Y-42420057D01*
X240616666Y-42420057D02*
X240664285Y-42515295D01*
X240664285Y-42515295D02*
X240664285Y-42658152D01*
X240664285Y-42658152D02*
X240616666Y-42753390D01*
X240616666Y-42753390D02*
X240569047Y-42801009D01*
X240569047Y-42801009D02*
X240473809Y-42848628D01*
X240473809Y-42848628D02*
X240092857Y-42848628D01*
X241616666Y-43324819D02*
X241045238Y-43324819D01*
X241330952Y-43324819D02*
X241330952Y-42324819D01*
X241330952Y-42324819D02*
X241235714Y-42467676D01*
X241235714Y-42467676D02*
X241140476Y-42562914D01*
X241140476Y-42562914D02*
X241045238Y-42610533D01*
X183183333Y-43109580D02*
X183135714Y-43157200D01*
X183135714Y-43157200D02*
X182992857Y-43204819D01*
X182992857Y-43204819D02*
X182897619Y-43204819D01*
X182897619Y-43204819D02*
X182754762Y-43157200D01*
X182754762Y-43157200D02*
X182659524Y-43061961D01*
X182659524Y-43061961D02*
X182611905Y-42966723D01*
X182611905Y-42966723D02*
X182564286Y-42776247D01*
X182564286Y-42776247D02*
X182564286Y-42633390D01*
X182564286Y-42633390D02*
X182611905Y-42442914D01*
X182611905Y-42442914D02*
X182659524Y-42347676D01*
X182659524Y-42347676D02*
X182754762Y-42252438D01*
X182754762Y-42252438D02*
X182897619Y-42204819D01*
X182897619Y-42204819D02*
X182992857Y-42204819D01*
X182992857Y-42204819D02*
X183135714Y-42252438D01*
X183135714Y-42252438D02*
X183183333Y-42300057D01*
X183516667Y-42204819D02*
X184135714Y-42204819D01*
X184135714Y-42204819D02*
X183802381Y-42585771D01*
X183802381Y-42585771D02*
X183945238Y-42585771D01*
X183945238Y-42585771D02*
X184040476Y-42633390D01*
X184040476Y-42633390D02*
X184088095Y-42681009D01*
X184088095Y-42681009D02*
X184135714Y-42776247D01*
X184135714Y-42776247D02*
X184135714Y-43014342D01*
X184135714Y-43014342D02*
X184088095Y-43109580D01*
X184088095Y-43109580D02*
X184040476Y-43157200D01*
X184040476Y-43157200D02*
X183945238Y-43204819D01*
X183945238Y-43204819D02*
X183659524Y-43204819D01*
X183659524Y-43204819D02*
X183564286Y-43157200D01*
X183564286Y-43157200D02*
X183516667Y-43109580D01*
X220520419Y-66784457D02*
X220044228Y-67117790D01*
X220520419Y-67355885D02*
X219520419Y-67355885D01*
X219520419Y-67355885D02*
X219520419Y-66974933D01*
X219520419Y-66974933D02*
X219568038Y-66879695D01*
X219568038Y-66879695D02*
X219615657Y-66832076D01*
X219615657Y-66832076D02*
X219710895Y-66784457D01*
X219710895Y-66784457D02*
X219853752Y-66784457D01*
X219853752Y-66784457D02*
X219948990Y-66832076D01*
X219948990Y-66832076D02*
X219996609Y-66879695D01*
X219996609Y-66879695D02*
X220044228Y-66974933D01*
X220044228Y-66974933D02*
X220044228Y-67355885D01*
X220520419Y-65832076D02*
X220520419Y-66403504D01*
X220520419Y-66117790D02*
X219520419Y-66117790D01*
X219520419Y-66117790D02*
X219663276Y-66213028D01*
X219663276Y-66213028D02*
X219758514Y-66308266D01*
X219758514Y-66308266D02*
X219806133Y-66403504D01*
X219520419Y-65498742D02*
X219520419Y-64832076D01*
X219520419Y-64832076D02*
X220520419Y-65260647D01*
X200957142Y-68463166D02*
X200623809Y-67986975D01*
X200385714Y-68463166D02*
X200385714Y-67463166D01*
X200385714Y-67463166D02*
X200766666Y-67463166D01*
X200766666Y-67463166D02*
X200861904Y-67510785D01*
X200861904Y-67510785D02*
X200909523Y-67558404D01*
X200909523Y-67558404D02*
X200957142Y-67653642D01*
X200957142Y-67653642D02*
X200957142Y-67796499D01*
X200957142Y-67796499D02*
X200909523Y-67891737D01*
X200909523Y-67891737D02*
X200861904Y-67939356D01*
X200861904Y-67939356D02*
X200766666Y-67986975D01*
X200766666Y-67986975D02*
X200385714Y-67986975D01*
X201338095Y-67558404D02*
X201385714Y-67510785D01*
X201385714Y-67510785D02*
X201480952Y-67463166D01*
X201480952Y-67463166D02*
X201719047Y-67463166D01*
X201719047Y-67463166D02*
X201814285Y-67510785D01*
X201814285Y-67510785D02*
X201861904Y-67558404D01*
X201861904Y-67558404D02*
X201909523Y-67653642D01*
X201909523Y-67653642D02*
X201909523Y-67748880D01*
X201909523Y-67748880D02*
X201861904Y-67891737D01*
X201861904Y-67891737D02*
X201290476Y-68463166D01*
X201290476Y-68463166D02*
X201909523Y-68463166D01*
X202766666Y-67796499D02*
X202766666Y-68463166D01*
X202528571Y-67415547D02*
X202290476Y-68129832D01*
X202290476Y-68129832D02*
X202909523Y-68129832D01*
X221180819Y-72794257D02*
X220704628Y-73127590D01*
X221180819Y-73365685D02*
X220180819Y-73365685D01*
X220180819Y-73365685D02*
X220180819Y-72984733D01*
X220180819Y-72984733D02*
X220228438Y-72889495D01*
X220228438Y-72889495D02*
X220276057Y-72841876D01*
X220276057Y-72841876D02*
X220371295Y-72794257D01*
X220371295Y-72794257D02*
X220514152Y-72794257D01*
X220514152Y-72794257D02*
X220609390Y-72841876D01*
X220609390Y-72841876D02*
X220657009Y-72889495D01*
X220657009Y-72889495D02*
X220704628Y-72984733D01*
X220704628Y-72984733D02*
X220704628Y-73365685D01*
X220276057Y-72413304D02*
X220228438Y-72365685D01*
X220228438Y-72365685D02*
X220180819Y-72270447D01*
X220180819Y-72270447D02*
X220180819Y-72032352D01*
X220180819Y-72032352D02*
X220228438Y-71937114D01*
X220228438Y-71937114D02*
X220276057Y-71889495D01*
X220276057Y-71889495D02*
X220371295Y-71841876D01*
X220371295Y-71841876D02*
X220466533Y-71841876D01*
X220466533Y-71841876D02*
X220609390Y-71889495D01*
X220609390Y-71889495D02*
X221180819Y-72460923D01*
X221180819Y-72460923D02*
X221180819Y-71841876D01*
X220180819Y-71222828D02*
X220180819Y-71127590D01*
X220180819Y-71127590D02*
X220228438Y-71032352D01*
X220228438Y-71032352D02*
X220276057Y-70984733D01*
X220276057Y-70984733D02*
X220371295Y-70937114D01*
X220371295Y-70937114D02*
X220561771Y-70889495D01*
X220561771Y-70889495D02*
X220799866Y-70889495D01*
X220799866Y-70889495D02*
X220990342Y-70937114D01*
X220990342Y-70937114D02*
X221085580Y-70984733D01*
X221085580Y-70984733D02*
X221133200Y-71032352D01*
X221133200Y-71032352D02*
X221180819Y-71127590D01*
X221180819Y-71127590D02*
X221180819Y-71222828D01*
X221180819Y-71222828D02*
X221133200Y-71318066D01*
X221133200Y-71318066D02*
X221085580Y-71365685D01*
X221085580Y-71365685D02*
X220990342Y-71413304D01*
X220990342Y-71413304D02*
X220799866Y-71460923D01*
X220799866Y-71460923D02*
X220561771Y-71460923D01*
X220561771Y-71460923D02*
X220371295Y-71413304D01*
X220371295Y-71413304D02*
X220276057Y-71365685D01*
X220276057Y-71365685D02*
X220228438Y-71318066D01*
X220228438Y-71318066D02*
X220180819Y-71222828D01*
X201827254Y-71003775D02*
X201874874Y-71051394D01*
X201874874Y-71051394D02*
X201922493Y-71194251D01*
X201922493Y-71194251D02*
X201922493Y-71289489D01*
X201922493Y-71289489D02*
X201874874Y-71432346D01*
X201874874Y-71432346D02*
X201779635Y-71527584D01*
X201779635Y-71527584D02*
X201684397Y-71575203D01*
X201684397Y-71575203D02*
X201493921Y-71622822D01*
X201493921Y-71622822D02*
X201351064Y-71622822D01*
X201351064Y-71622822D02*
X201160588Y-71575203D01*
X201160588Y-71575203D02*
X201065350Y-71527584D01*
X201065350Y-71527584D02*
X200970112Y-71432346D01*
X200970112Y-71432346D02*
X200922493Y-71289489D01*
X200922493Y-71289489D02*
X200922493Y-71194251D01*
X200922493Y-71194251D02*
X200970112Y-71051394D01*
X200970112Y-71051394D02*
X201017731Y-71003775D01*
X200922493Y-70670441D02*
X200922493Y-70051394D01*
X200922493Y-70051394D02*
X201303445Y-70384727D01*
X201303445Y-70384727D02*
X201303445Y-70241870D01*
X201303445Y-70241870D02*
X201351064Y-70146632D01*
X201351064Y-70146632D02*
X201398683Y-70099013D01*
X201398683Y-70099013D02*
X201493921Y-70051394D01*
X201493921Y-70051394D02*
X201732016Y-70051394D01*
X201732016Y-70051394D02*
X201827254Y-70099013D01*
X201827254Y-70099013D02*
X201874874Y-70146632D01*
X201874874Y-70146632D02*
X201922493Y-70241870D01*
X201922493Y-70241870D02*
X201922493Y-70527584D01*
X201922493Y-70527584D02*
X201874874Y-70622822D01*
X201874874Y-70622822D02*
X201827254Y-70670441D01*
X200922493Y-69718060D02*
X200922493Y-69099013D01*
X200922493Y-69099013D02*
X201303445Y-69432346D01*
X201303445Y-69432346D02*
X201303445Y-69289489D01*
X201303445Y-69289489D02*
X201351064Y-69194251D01*
X201351064Y-69194251D02*
X201398683Y-69146632D01*
X201398683Y-69146632D02*
X201493921Y-69099013D01*
X201493921Y-69099013D02*
X201732016Y-69099013D01*
X201732016Y-69099013D02*
X201827254Y-69146632D01*
X201827254Y-69146632D02*
X201874874Y-69194251D01*
X201874874Y-69194251D02*
X201922493Y-69289489D01*
X201922493Y-69289489D02*
X201922493Y-69575203D01*
X201922493Y-69575203D02*
X201874874Y-69670441D01*
X201874874Y-69670441D02*
X201827254Y-69718060D01*
X224866666Y-103735409D02*
X224533333Y-103735409D01*
X224533333Y-104259219D02*
X224533333Y-103259219D01*
X224533333Y-103259219D02*
X225009523Y-103259219D01*
X225914285Y-104259219D02*
X225342857Y-104259219D01*
X225628571Y-104259219D02*
X225628571Y-103259219D01*
X225628571Y-103259219D02*
X225533333Y-103402076D01*
X225533333Y-103402076D02*
X225438095Y-103497314D01*
X225438095Y-103497314D02*
X225342857Y-103544933D01*
X194344819Y-78833333D02*
X195059104Y-78833333D01*
X195059104Y-78833333D02*
X195201961Y-78880952D01*
X195201961Y-78880952D02*
X195297200Y-78976190D01*
X195297200Y-78976190D02*
X195344819Y-79119047D01*
X195344819Y-79119047D02*
X195344819Y-79214285D01*
X194344819Y-78452380D02*
X194344819Y-77833333D01*
X194344819Y-77833333D02*
X194725771Y-78166666D01*
X194725771Y-78166666D02*
X194725771Y-78023809D01*
X194725771Y-78023809D02*
X194773390Y-77928571D01*
X194773390Y-77928571D02*
X194821009Y-77880952D01*
X194821009Y-77880952D02*
X194916247Y-77833333D01*
X194916247Y-77833333D02*
X195154342Y-77833333D01*
X195154342Y-77833333D02*
X195249580Y-77880952D01*
X195249580Y-77880952D02*
X195297200Y-77928571D01*
X195297200Y-77928571D02*
X195344819Y-78023809D01*
X195344819Y-78023809D02*
X195344819Y-78309523D01*
X195344819Y-78309523D02*
X195297200Y-78404761D01*
X195297200Y-78404761D02*
X195249580Y-78452380D01*
X206661905Y-49579819D02*
X206661905Y-48579819D01*
X206661905Y-48579819D02*
X206900000Y-48579819D01*
X206900000Y-48579819D02*
X207042857Y-48627438D01*
X207042857Y-48627438D02*
X207138095Y-48722676D01*
X207138095Y-48722676D02*
X207185714Y-48817914D01*
X207185714Y-48817914D02*
X207233333Y-49008390D01*
X207233333Y-49008390D02*
X207233333Y-49151247D01*
X207233333Y-49151247D02*
X207185714Y-49341723D01*
X207185714Y-49341723D02*
X207138095Y-49436961D01*
X207138095Y-49436961D02*
X207042857Y-49532200D01*
X207042857Y-49532200D02*
X206900000Y-49579819D01*
X206900000Y-49579819D02*
X206661905Y-49579819D01*
X207566667Y-48579819D02*
X208185714Y-48579819D01*
X208185714Y-48579819D02*
X207852381Y-48960771D01*
X207852381Y-48960771D02*
X207995238Y-48960771D01*
X207995238Y-48960771D02*
X208090476Y-49008390D01*
X208090476Y-49008390D02*
X208138095Y-49056009D01*
X208138095Y-49056009D02*
X208185714Y-49151247D01*
X208185714Y-49151247D02*
X208185714Y-49389342D01*
X208185714Y-49389342D02*
X208138095Y-49484580D01*
X208138095Y-49484580D02*
X208090476Y-49532200D01*
X208090476Y-49532200D02*
X207995238Y-49579819D01*
X207995238Y-49579819D02*
X207709524Y-49579819D01*
X207709524Y-49579819D02*
X207614286Y-49532200D01*
X207614286Y-49532200D02*
X207566667Y-49484580D01*
X196963333Y-47249580D02*
X196915714Y-47297200D01*
X196915714Y-47297200D02*
X196772857Y-47344819D01*
X196772857Y-47344819D02*
X196677619Y-47344819D01*
X196677619Y-47344819D02*
X196534762Y-47297200D01*
X196534762Y-47297200D02*
X196439524Y-47201961D01*
X196439524Y-47201961D02*
X196391905Y-47106723D01*
X196391905Y-47106723D02*
X196344286Y-46916247D01*
X196344286Y-46916247D02*
X196344286Y-46773390D01*
X196344286Y-46773390D02*
X196391905Y-46582914D01*
X196391905Y-46582914D02*
X196439524Y-46487676D01*
X196439524Y-46487676D02*
X196534762Y-46392438D01*
X196534762Y-46392438D02*
X196677619Y-46344819D01*
X196677619Y-46344819D02*
X196772857Y-46344819D01*
X196772857Y-46344819D02*
X196915714Y-46392438D01*
X196915714Y-46392438D02*
X196963333Y-46440057D01*
X197820476Y-46344819D02*
X197630000Y-46344819D01*
X197630000Y-46344819D02*
X197534762Y-46392438D01*
X197534762Y-46392438D02*
X197487143Y-46440057D01*
X197487143Y-46440057D02*
X197391905Y-46582914D01*
X197391905Y-46582914D02*
X197344286Y-46773390D01*
X197344286Y-46773390D02*
X197344286Y-47154342D01*
X197344286Y-47154342D02*
X197391905Y-47249580D01*
X197391905Y-47249580D02*
X197439524Y-47297200D01*
X197439524Y-47297200D02*
X197534762Y-47344819D01*
X197534762Y-47344819D02*
X197725238Y-47344819D01*
X197725238Y-47344819D02*
X197820476Y-47297200D01*
X197820476Y-47297200D02*
X197868095Y-47249580D01*
X197868095Y-47249580D02*
X197915714Y-47154342D01*
X197915714Y-47154342D02*
X197915714Y-46916247D01*
X197915714Y-46916247D02*
X197868095Y-46821009D01*
X197868095Y-46821009D02*
X197820476Y-46773390D01*
X197820476Y-46773390D02*
X197725238Y-46725771D01*
X197725238Y-46725771D02*
X197534762Y-46725771D01*
X197534762Y-46725771D02*
X197439524Y-46773390D01*
X197439524Y-46773390D02*
X197391905Y-46821009D01*
X197391905Y-46821009D02*
X197344286Y-46916247D01*
X223004819Y-97742257D02*
X222528628Y-98075590D01*
X223004819Y-98313685D02*
X222004819Y-98313685D01*
X222004819Y-98313685D02*
X222004819Y-97932733D01*
X222004819Y-97932733D02*
X222052438Y-97837495D01*
X222052438Y-97837495D02*
X222100057Y-97789876D01*
X222100057Y-97789876D02*
X222195295Y-97742257D01*
X222195295Y-97742257D02*
X222338152Y-97742257D01*
X222338152Y-97742257D02*
X222433390Y-97789876D01*
X222433390Y-97789876D02*
X222481009Y-97837495D01*
X222481009Y-97837495D02*
X222528628Y-97932733D01*
X222528628Y-97932733D02*
X222528628Y-98313685D01*
X223004819Y-96789876D02*
X223004819Y-97361304D01*
X223004819Y-97075590D02*
X222004819Y-97075590D01*
X222004819Y-97075590D02*
X222147676Y-97170828D01*
X222147676Y-97170828D02*
X222242914Y-97266066D01*
X222242914Y-97266066D02*
X222290533Y-97361304D01*
X222004819Y-96170828D02*
X222004819Y-96075590D01*
X222004819Y-96075590D02*
X222052438Y-95980352D01*
X222052438Y-95980352D02*
X222100057Y-95932733D01*
X222100057Y-95932733D02*
X222195295Y-95885114D01*
X222195295Y-95885114D02*
X222385771Y-95837495D01*
X222385771Y-95837495D02*
X222623866Y-95837495D01*
X222623866Y-95837495D02*
X222814342Y-95885114D01*
X222814342Y-95885114D02*
X222909580Y-95932733D01*
X222909580Y-95932733D02*
X222957200Y-95980352D01*
X222957200Y-95980352D02*
X223004819Y-96075590D01*
X223004819Y-96075590D02*
X223004819Y-96170828D01*
X223004819Y-96170828D02*
X222957200Y-96266066D01*
X222957200Y-96266066D02*
X222909580Y-96313685D01*
X222909580Y-96313685D02*
X222814342Y-96361304D01*
X222814342Y-96361304D02*
X222623866Y-96408923D01*
X222623866Y-96408923D02*
X222385771Y-96408923D01*
X222385771Y-96408923D02*
X222195295Y-96361304D01*
X222195295Y-96361304D02*
X222100057Y-96313685D01*
X222100057Y-96313685D02*
X222052438Y-96266066D01*
X222052438Y-96266066D02*
X222004819Y-96170828D01*
X217421619Y-62669657D02*
X216945428Y-63002990D01*
X217421619Y-63241085D02*
X216421619Y-63241085D01*
X216421619Y-63241085D02*
X216421619Y-62860133D01*
X216421619Y-62860133D02*
X216469238Y-62764895D01*
X216469238Y-62764895D02*
X216516857Y-62717276D01*
X216516857Y-62717276D02*
X216612095Y-62669657D01*
X216612095Y-62669657D02*
X216754952Y-62669657D01*
X216754952Y-62669657D02*
X216850190Y-62717276D01*
X216850190Y-62717276D02*
X216897809Y-62764895D01*
X216897809Y-62764895D02*
X216945428Y-62860133D01*
X216945428Y-62860133D02*
X216945428Y-63241085D01*
X217421619Y-61717276D02*
X217421619Y-62288704D01*
X217421619Y-62002990D02*
X216421619Y-62002990D01*
X216421619Y-62002990D02*
X216564476Y-62098228D01*
X216564476Y-62098228D02*
X216659714Y-62193466D01*
X216659714Y-62193466D02*
X216707333Y-62288704D01*
X216850190Y-61145847D02*
X216802571Y-61241085D01*
X216802571Y-61241085D02*
X216754952Y-61288704D01*
X216754952Y-61288704D02*
X216659714Y-61336323D01*
X216659714Y-61336323D02*
X216612095Y-61336323D01*
X216612095Y-61336323D02*
X216516857Y-61288704D01*
X216516857Y-61288704D02*
X216469238Y-61241085D01*
X216469238Y-61241085D02*
X216421619Y-61145847D01*
X216421619Y-61145847D02*
X216421619Y-60955371D01*
X216421619Y-60955371D02*
X216469238Y-60860133D01*
X216469238Y-60860133D02*
X216516857Y-60812514D01*
X216516857Y-60812514D02*
X216612095Y-60764895D01*
X216612095Y-60764895D02*
X216659714Y-60764895D01*
X216659714Y-60764895D02*
X216754952Y-60812514D01*
X216754952Y-60812514D02*
X216802571Y-60860133D01*
X216802571Y-60860133D02*
X216850190Y-60955371D01*
X216850190Y-60955371D02*
X216850190Y-61145847D01*
X216850190Y-61145847D02*
X216897809Y-61241085D01*
X216897809Y-61241085D02*
X216945428Y-61288704D01*
X216945428Y-61288704D02*
X217040666Y-61336323D01*
X217040666Y-61336323D02*
X217231142Y-61336323D01*
X217231142Y-61336323D02*
X217326380Y-61288704D01*
X217326380Y-61288704D02*
X217374000Y-61241085D01*
X217374000Y-61241085D02*
X217421619Y-61145847D01*
X217421619Y-61145847D02*
X217421619Y-60955371D01*
X217421619Y-60955371D02*
X217374000Y-60860133D01*
X217374000Y-60860133D02*
X217326380Y-60812514D01*
X217326380Y-60812514D02*
X217231142Y-60764895D01*
X217231142Y-60764895D02*
X217040666Y-60764895D01*
X217040666Y-60764895D02*
X216945428Y-60812514D01*
X216945428Y-60812514D02*
X216897809Y-60860133D01*
X216897809Y-60860133D02*
X216850190Y-60955371D01*
X224329819Y-92413094D02*
X223329819Y-92413094D01*
X223329819Y-92413094D02*
X223329819Y-92174999D01*
X223329819Y-92174999D02*
X223377438Y-92032142D01*
X223377438Y-92032142D02*
X223472676Y-91936904D01*
X223472676Y-91936904D02*
X223567914Y-91889285D01*
X223567914Y-91889285D02*
X223758390Y-91841666D01*
X223758390Y-91841666D02*
X223901247Y-91841666D01*
X223901247Y-91841666D02*
X224091723Y-91889285D01*
X224091723Y-91889285D02*
X224186961Y-91936904D01*
X224186961Y-91936904D02*
X224282200Y-92032142D01*
X224282200Y-92032142D02*
X224329819Y-92174999D01*
X224329819Y-92174999D02*
X224329819Y-92413094D01*
X223329819Y-91508332D02*
X223329819Y-90841666D01*
X223329819Y-90841666D02*
X224329819Y-91270237D01*
X203283333Y-50779819D02*
X202950000Y-50303628D01*
X202711905Y-50779819D02*
X202711905Y-49779819D01*
X202711905Y-49779819D02*
X203092857Y-49779819D01*
X203092857Y-49779819D02*
X203188095Y-49827438D01*
X203188095Y-49827438D02*
X203235714Y-49875057D01*
X203235714Y-49875057D02*
X203283333Y-49970295D01*
X203283333Y-49970295D02*
X203283333Y-50113152D01*
X203283333Y-50113152D02*
X203235714Y-50208390D01*
X203235714Y-50208390D02*
X203188095Y-50256009D01*
X203188095Y-50256009D02*
X203092857Y-50303628D01*
X203092857Y-50303628D02*
X202711905Y-50303628D01*
X203616667Y-49779819D02*
X204235714Y-49779819D01*
X204235714Y-49779819D02*
X203902381Y-50160771D01*
X203902381Y-50160771D02*
X204045238Y-50160771D01*
X204045238Y-50160771D02*
X204140476Y-50208390D01*
X204140476Y-50208390D02*
X204188095Y-50256009D01*
X204188095Y-50256009D02*
X204235714Y-50351247D01*
X204235714Y-50351247D02*
X204235714Y-50589342D01*
X204235714Y-50589342D02*
X204188095Y-50684580D01*
X204188095Y-50684580D02*
X204140476Y-50732200D01*
X204140476Y-50732200D02*
X204045238Y-50779819D01*
X204045238Y-50779819D02*
X203759524Y-50779819D01*
X203759524Y-50779819D02*
X203664286Y-50732200D01*
X203664286Y-50732200D02*
X203616667Y-50684580D01*
D11*
X214132380Y-89903718D02*
X214132380Y-90931813D01*
X214132380Y-90931813D02*
X214192857Y-91052765D01*
X214192857Y-91052765D02*
X214253333Y-91113242D01*
X214253333Y-91113242D02*
X214374285Y-91173718D01*
X214374285Y-91173718D02*
X214616190Y-91173718D01*
X214616190Y-91173718D02*
X214737142Y-91113242D01*
X214737142Y-91113242D02*
X214797619Y-91052765D01*
X214797619Y-91052765D02*
X214858095Y-90931813D01*
X214858095Y-90931813D02*
X214858095Y-89903718D01*
X215341904Y-89903718D02*
X216128095Y-89903718D01*
X216128095Y-89903718D02*
X215704761Y-90387527D01*
X215704761Y-90387527D02*
X215886190Y-90387527D01*
X215886190Y-90387527D02*
X216007142Y-90448003D01*
X216007142Y-90448003D02*
X216067618Y-90508480D01*
X216067618Y-90508480D02*
X216128095Y-90629432D01*
X216128095Y-90629432D02*
X216128095Y-90931813D01*
X216128095Y-90931813D02*
X216067618Y-91052765D01*
X216067618Y-91052765D02*
X216007142Y-91113242D01*
X216007142Y-91113242D02*
X215886190Y-91173718D01*
X215886190Y-91173718D02*
X215523333Y-91173718D01*
X215523333Y-91173718D02*
X215402380Y-91113242D01*
X215402380Y-91113242D02*
X215341904Y-91052765D01*
D10*
X226604819Y-57042857D02*
X226128628Y-57376190D01*
X226604819Y-57614285D02*
X225604819Y-57614285D01*
X225604819Y-57614285D02*
X225604819Y-57233333D01*
X225604819Y-57233333D02*
X225652438Y-57138095D01*
X225652438Y-57138095D02*
X225700057Y-57090476D01*
X225700057Y-57090476D02*
X225795295Y-57042857D01*
X225795295Y-57042857D02*
X225938152Y-57042857D01*
X225938152Y-57042857D02*
X226033390Y-57090476D01*
X226033390Y-57090476D02*
X226081009Y-57138095D01*
X226081009Y-57138095D02*
X226128628Y-57233333D01*
X226128628Y-57233333D02*
X226128628Y-57614285D01*
X225938152Y-56185714D02*
X226604819Y-56185714D01*
X225557200Y-56423809D02*
X226271485Y-56661904D01*
X226271485Y-56661904D02*
X226271485Y-56042857D01*
X225604819Y-55185714D02*
X225604819Y-55661904D01*
X225604819Y-55661904D02*
X226081009Y-55709523D01*
X226081009Y-55709523D02*
X226033390Y-55661904D01*
X226033390Y-55661904D02*
X225985771Y-55566666D01*
X225985771Y-55566666D02*
X225985771Y-55328571D01*
X225985771Y-55328571D02*
X226033390Y-55233333D01*
X226033390Y-55233333D02*
X226081009Y-55185714D01*
X226081009Y-55185714D02*
X226176247Y-55138095D01*
X226176247Y-55138095D02*
X226414342Y-55138095D01*
X226414342Y-55138095D02*
X226509580Y-55185714D01*
X226509580Y-55185714D02*
X226557200Y-55233333D01*
X226557200Y-55233333D02*
X226604819Y-55328571D01*
X226604819Y-55328571D02*
X226604819Y-55566666D01*
X226604819Y-55566666D02*
X226557200Y-55661904D01*
X226557200Y-55661904D02*
X226509580Y-55709523D01*
X178324819Y-56351904D02*
X179134342Y-56351904D01*
X179134342Y-56351904D02*
X179229580Y-56304285D01*
X179229580Y-56304285D02*
X179277200Y-56256666D01*
X179277200Y-56256666D02*
X179324819Y-56161428D01*
X179324819Y-56161428D02*
X179324819Y-55970952D01*
X179324819Y-55970952D02*
X179277200Y-55875714D01*
X179277200Y-55875714D02*
X179229580Y-55828095D01*
X179229580Y-55828095D02*
X179134342Y-55780476D01*
X179134342Y-55780476D02*
X178324819Y-55780476D01*
X179324819Y-54780476D02*
X179324819Y-55351904D01*
X179324819Y-55066190D02*
X178324819Y-55066190D01*
X178324819Y-55066190D02*
X178467676Y-55161428D01*
X178467676Y-55161428D02*
X178562914Y-55256666D01*
X178562914Y-55256666D02*
X178610533Y-55351904D01*
X243958095Y-42304819D02*
X244529523Y-42304819D01*
X244243809Y-43304819D02*
X244243809Y-42304819D01*
X244862857Y-43304819D02*
X244862857Y-42304819D01*
X244862857Y-42304819D02*
X245243809Y-42304819D01*
X245243809Y-42304819D02*
X245339047Y-42352438D01*
X245339047Y-42352438D02*
X245386666Y-42400057D01*
X245386666Y-42400057D02*
X245434285Y-42495295D01*
X245434285Y-42495295D02*
X245434285Y-42638152D01*
X245434285Y-42638152D02*
X245386666Y-42733390D01*
X245386666Y-42733390D02*
X245339047Y-42781009D01*
X245339047Y-42781009D02*
X245243809Y-42828628D01*
X245243809Y-42828628D02*
X244862857Y-42828628D01*
X245815238Y-42400057D02*
X245862857Y-42352438D01*
X245862857Y-42352438D02*
X245958095Y-42304819D01*
X245958095Y-42304819D02*
X246196190Y-42304819D01*
X246196190Y-42304819D02*
X246291428Y-42352438D01*
X246291428Y-42352438D02*
X246339047Y-42400057D01*
X246339047Y-42400057D02*
X246386666Y-42495295D01*
X246386666Y-42495295D02*
X246386666Y-42590533D01*
X246386666Y-42590533D02*
X246339047Y-42733390D01*
X246339047Y-42733390D02*
X245767619Y-43304819D01*
X245767619Y-43304819D02*
X246386666Y-43304819D01*
X221136819Y-90021904D02*
X221136819Y-89450476D01*
X222136819Y-89736190D02*
X221136819Y-89736190D01*
X222136819Y-89117142D02*
X221136819Y-89117142D01*
X221136819Y-89117142D02*
X221136819Y-88736190D01*
X221136819Y-88736190D02*
X221184438Y-88640952D01*
X221184438Y-88640952D02*
X221232057Y-88593333D01*
X221232057Y-88593333D02*
X221327295Y-88545714D01*
X221327295Y-88545714D02*
X221470152Y-88545714D01*
X221470152Y-88545714D02*
X221565390Y-88593333D01*
X221565390Y-88593333D02*
X221613009Y-88640952D01*
X221613009Y-88640952D02*
X221660628Y-88736190D01*
X221660628Y-88736190D02*
X221660628Y-89117142D01*
X221136819Y-88212380D02*
X221136819Y-87593333D01*
X221136819Y-87593333D02*
X221517771Y-87926666D01*
X221517771Y-87926666D02*
X221517771Y-87783809D01*
X221517771Y-87783809D02*
X221565390Y-87688571D01*
X221565390Y-87688571D02*
X221613009Y-87640952D01*
X221613009Y-87640952D02*
X221708247Y-87593333D01*
X221708247Y-87593333D02*
X221946342Y-87593333D01*
X221946342Y-87593333D02*
X222041580Y-87640952D01*
X222041580Y-87640952D02*
X222089200Y-87688571D01*
X222089200Y-87688571D02*
X222136819Y-87783809D01*
X222136819Y-87783809D02*
X222136819Y-88069523D01*
X222136819Y-88069523D02*
X222089200Y-88164761D01*
X222089200Y-88164761D02*
X222041580Y-88212380D01*
X192629580Y-68596666D02*
X192677200Y-68644285D01*
X192677200Y-68644285D02*
X192724819Y-68787142D01*
X192724819Y-68787142D02*
X192724819Y-68882380D01*
X192724819Y-68882380D02*
X192677200Y-69025237D01*
X192677200Y-69025237D02*
X192581961Y-69120475D01*
X192581961Y-69120475D02*
X192486723Y-69168094D01*
X192486723Y-69168094D02*
X192296247Y-69215713D01*
X192296247Y-69215713D02*
X192153390Y-69215713D01*
X192153390Y-69215713D02*
X191962914Y-69168094D01*
X191962914Y-69168094D02*
X191867676Y-69120475D01*
X191867676Y-69120475D02*
X191772438Y-69025237D01*
X191772438Y-69025237D02*
X191724819Y-68882380D01*
X191724819Y-68882380D02*
X191724819Y-68787142D01*
X191724819Y-68787142D02*
X191772438Y-68644285D01*
X191772438Y-68644285D02*
X191820057Y-68596666D01*
X191820057Y-68215713D02*
X191772438Y-68168094D01*
X191772438Y-68168094D02*
X191724819Y-68072856D01*
X191724819Y-68072856D02*
X191724819Y-67834761D01*
X191724819Y-67834761D02*
X191772438Y-67739523D01*
X191772438Y-67739523D02*
X191820057Y-67691904D01*
X191820057Y-67691904D02*
X191915295Y-67644285D01*
X191915295Y-67644285D02*
X192010533Y-67644285D01*
X192010533Y-67644285D02*
X192153390Y-67691904D01*
X192153390Y-67691904D02*
X192724819Y-68263332D01*
X192724819Y-68263332D02*
X192724819Y-67644285D01*
X221714580Y-86242257D02*
X221762200Y-86289876D01*
X221762200Y-86289876D02*
X221809819Y-86432733D01*
X221809819Y-86432733D02*
X221809819Y-86527971D01*
X221809819Y-86527971D02*
X221762200Y-86670828D01*
X221762200Y-86670828D02*
X221666961Y-86766066D01*
X221666961Y-86766066D02*
X221571723Y-86813685D01*
X221571723Y-86813685D02*
X221381247Y-86861304D01*
X221381247Y-86861304D02*
X221238390Y-86861304D01*
X221238390Y-86861304D02*
X221047914Y-86813685D01*
X221047914Y-86813685D02*
X220952676Y-86766066D01*
X220952676Y-86766066D02*
X220857438Y-86670828D01*
X220857438Y-86670828D02*
X220809819Y-86527971D01*
X220809819Y-86527971D02*
X220809819Y-86432733D01*
X220809819Y-86432733D02*
X220857438Y-86289876D01*
X220857438Y-86289876D02*
X220905057Y-86242257D01*
X221809819Y-85289876D02*
X221809819Y-85861304D01*
X221809819Y-85575590D02*
X220809819Y-85575590D01*
X220809819Y-85575590D02*
X220952676Y-85670828D01*
X220952676Y-85670828D02*
X221047914Y-85766066D01*
X221047914Y-85766066D02*
X221095533Y-85861304D01*
X221809819Y-84337495D02*
X221809819Y-84908923D01*
X221809819Y-84623209D02*
X220809819Y-84623209D01*
X220809819Y-84623209D02*
X220952676Y-84718447D01*
X220952676Y-84718447D02*
X221047914Y-84813685D01*
X221047914Y-84813685D02*
X221095533Y-84908923D01*
X226644819Y-47982857D02*
X226168628Y-48316190D01*
X226644819Y-48554285D02*
X225644819Y-48554285D01*
X225644819Y-48554285D02*
X225644819Y-48173333D01*
X225644819Y-48173333D02*
X225692438Y-48078095D01*
X225692438Y-48078095D02*
X225740057Y-48030476D01*
X225740057Y-48030476D02*
X225835295Y-47982857D01*
X225835295Y-47982857D02*
X225978152Y-47982857D01*
X225978152Y-47982857D02*
X226073390Y-48030476D01*
X226073390Y-48030476D02*
X226121009Y-48078095D01*
X226121009Y-48078095D02*
X226168628Y-48173333D01*
X226168628Y-48173333D02*
X226168628Y-48554285D01*
X225978152Y-47125714D02*
X226644819Y-47125714D01*
X225597200Y-47363809D02*
X226311485Y-47601904D01*
X226311485Y-47601904D02*
X226311485Y-46982857D01*
X226073390Y-46459047D02*
X226025771Y-46554285D01*
X226025771Y-46554285D02*
X225978152Y-46601904D01*
X225978152Y-46601904D02*
X225882914Y-46649523D01*
X225882914Y-46649523D02*
X225835295Y-46649523D01*
X225835295Y-46649523D02*
X225740057Y-46601904D01*
X225740057Y-46601904D02*
X225692438Y-46554285D01*
X225692438Y-46554285D02*
X225644819Y-46459047D01*
X225644819Y-46459047D02*
X225644819Y-46268571D01*
X225644819Y-46268571D02*
X225692438Y-46173333D01*
X225692438Y-46173333D02*
X225740057Y-46125714D01*
X225740057Y-46125714D02*
X225835295Y-46078095D01*
X225835295Y-46078095D02*
X225882914Y-46078095D01*
X225882914Y-46078095D02*
X225978152Y-46125714D01*
X225978152Y-46125714D02*
X226025771Y-46173333D01*
X226025771Y-46173333D02*
X226073390Y-46268571D01*
X226073390Y-46268571D02*
X226073390Y-46459047D01*
X226073390Y-46459047D02*
X226121009Y-46554285D01*
X226121009Y-46554285D02*
X226168628Y-46601904D01*
X226168628Y-46601904D02*
X226263866Y-46649523D01*
X226263866Y-46649523D02*
X226454342Y-46649523D01*
X226454342Y-46649523D02*
X226549580Y-46601904D01*
X226549580Y-46601904D02*
X226597200Y-46554285D01*
X226597200Y-46554285D02*
X226644819Y-46459047D01*
X226644819Y-46459047D02*
X226644819Y-46268571D01*
X226644819Y-46268571D02*
X226597200Y-46173333D01*
X226597200Y-46173333D02*
X226549580Y-46125714D01*
X226549580Y-46125714D02*
X226454342Y-46078095D01*
X226454342Y-46078095D02*
X226263866Y-46078095D01*
X226263866Y-46078095D02*
X226168628Y-46125714D01*
X226168628Y-46125714D02*
X226121009Y-46173333D01*
X226121009Y-46173333D02*
X226073390Y-46268571D01*
X222854819Y-78446441D02*
X221854819Y-78446441D01*
X221854819Y-78446441D02*
X221854819Y-78208346D01*
X221854819Y-78208346D02*
X221902438Y-78065489D01*
X221902438Y-78065489D02*
X221997676Y-77970251D01*
X221997676Y-77970251D02*
X222092914Y-77922632D01*
X222092914Y-77922632D02*
X222283390Y-77875013D01*
X222283390Y-77875013D02*
X222426247Y-77875013D01*
X222426247Y-77875013D02*
X222616723Y-77922632D01*
X222616723Y-77922632D02*
X222711961Y-77970251D01*
X222711961Y-77970251D02*
X222807200Y-78065489D01*
X222807200Y-78065489D02*
X222854819Y-78208346D01*
X222854819Y-78208346D02*
X222854819Y-78446441D01*
X222283390Y-77303584D02*
X222235771Y-77398822D01*
X222235771Y-77398822D02*
X222188152Y-77446441D01*
X222188152Y-77446441D02*
X222092914Y-77494060D01*
X222092914Y-77494060D02*
X222045295Y-77494060D01*
X222045295Y-77494060D02*
X221950057Y-77446441D01*
X221950057Y-77446441D02*
X221902438Y-77398822D01*
X221902438Y-77398822D02*
X221854819Y-77303584D01*
X221854819Y-77303584D02*
X221854819Y-77113108D01*
X221854819Y-77113108D02*
X221902438Y-77017870D01*
X221902438Y-77017870D02*
X221950057Y-76970251D01*
X221950057Y-76970251D02*
X222045295Y-76922632D01*
X222045295Y-76922632D02*
X222092914Y-76922632D01*
X222092914Y-76922632D02*
X222188152Y-76970251D01*
X222188152Y-76970251D02*
X222235771Y-77017870D01*
X222235771Y-77017870D02*
X222283390Y-77113108D01*
X222283390Y-77113108D02*
X222283390Y-77303584D01*
X222283390Y-77303584D02*
X222331009Y-77398822D01*
X222331009Y-77398822D02*
X222378628Y-77446441D01*
X222378628Y-77446441D02*
X222473866Y-77494060D01*
X222473866Y-77494060D02*
X222664342Y-77494060D01*
X222664342Y-77494060D02*
X222759580Y-77446441D01*
X222759580Y-77446441D02*
X222807200Y-77398822D01*
X222807200Y-77398822D02*
X222854819Y-77303584D01*
X222854819Y-77303584D02*
X222854819Y-77113108D01*
X222854819Y-77113108D02*
X222807200Y-77017870D01*
X222807200Y-77017870D02*
X222759580Y-76970251D01*
X222759580Y-76970251D02*
X222664342Y-76922632D01*
X222664342Y-76922632D02*
X222473866Y-76922632D01*
X222473866Y-76922632D02*
X222378628Y-76970251D01*
X222378628Y-76970251D02*
X222331009Y-77017870D01*
X222331009Y-77017870D02*
X222283390Y-77113108D01*
X198741169Y-70980839D02*
X198788789Y-71028458D01*
X198788789Y-71028458D02*
X198836408Y-71171315D01*
X198836408Y-71171315D02*
X198836408Y-71266553D01*
X198836408Y-71266553D02*
X198788789Y-71409410D01*
X198788789Y-71409410D02*
X198693550Y-71504648D01*
X198693550Y-71504648D02*
X198598312Y-71552267D01*
X198598312Y-71552267D02*
X198407836Y-71599886D01*
X198407836Y-71599886D02*
X198264979Y-71599886D01*
X198264979Y-71599886D02*
X198074503Y-71552267D01*
X198074503Y-71552267D02*
X197979265Y-71504648D01*
X197979265Y-71504648D02*
X197884027Y-71409410D01*
X197884027Y-71409410D02*
X197836408Y-71266553D01*
X197836408Y-71266553D02*
X197836408Y-71171315D01*
X197836408Y-71171315D02*
X197884027Y-71028458D01*
X197884027Y-71028458D02*
X197931646Y-70980839D01*
X197836408Y-70647505D02*
X197836408Y-70028458D01*
X197836408Y-70028458D02*
X198217360Y-70361791D01*
X198217360Y-70361791D02*
X198217360Y-70218934D01*
X198217360Y-70218934D02*
X198264979Y-70123696D01*
X198264979Y-70123696D02*
X198312598Y-70076077D01*
X198312598Y-70076077D02*
X198407836Y-70028458D01*
X198407836Y-70028458D02*
X198645931Y-70028458D01*
X198645931Y-70028458D02*
X198741169Y-70076077D01*
X198741169Y-70076077D02*
X198788789Y-70123696D01*
X198788789Y-70123696D02*
X198836408Y-70218934D01*
X198836408Y-70218934D02*
X198836408Y-70504648D01*
X198836408Y-70504648D02*
X198788789Y-70599886D01*
X198788789Y-70599886D02*
X198741169Y-70647505D01*
X197836408Y-69123696D02*
X197836408Y-69599886D01*
X197836408Y-69599886D02*
X198312598Y-69647505D01*
X198312598Y-69647505D02*
X198264979Y-69599886D01*
X198264979Y-69599886D02*
X198217360Y-69504648D01*
X198217360Y-69504648D02*
X198217360Y-69266553D01*
X198217360Y-69266553D02*
X198264979Y-69171315D01*
X198264979Y-69171315D02*
X198312598Y-69123696D01*
X198312598Y-69123696D02*
X198407836Y-69076077D01*
X198407836Y-69076077D02*
X198645931Y-69076077D01*
X198645931Y-69076077D02*
X198741169Y-69123696D01*
X198741169Y-69123696D02*
X198788789Y-69171315D01*
X198788789Y-69171315D02*
X198836408Y-69266553D01*
X198836408Y-69266553D02*
X198836408Y-69504648D01*
X198836408Y-69504648D02*
X198788789Y-69599886D01*
X198788789Y-69599886D02*
X198741169Y-69647505D01*
X213258333Y-100879219D02*
X212925000Y-100403028D01*
X212686905Y-100879219D02*
X212686905Y-99879219D01*
X212686905Y-99879219D02*
X213067857Y-99879219D01*
X213067857Y-99879219D02*
X213163095Y-99926838D01*
X213163095Y-99926838D02*
X213210714Y-99974457D01*
X213210714Y-99974457D02*
X213258333Y-100069695D01*
X213258333Y-100069695D02*
X213258333Y-100212552D01*
X213258333Y-100212552D02*
X213210714Y-100307790D01*
X213210714Y-100307790D02*
X213163095Y-100355409D01*
X213163095Y-100355409D02*
X213067857Y-100403028D01*
X213067857Y-100403028D02*
X212686905Y-100403028D01*
X213591667Y-99879219D02*
X214258333Y-99879219D01*
X214258333Y-99879219D02*
X213829762Y-100879219D01*
X213258333Y-97829219D02*
X212925000Y-97353028D01*
X212686905Y-97829219D02*
X212686905Y-96829219D01*
X212686905Y-96829219D02*
X213067857Y-96829219D01*
X213067857Y-96829219D02*
X213163095Y-96876838D01*
X213163095Y-96876838D02*
X213210714Y-96924457D01*
X213210714Y-96924457D02*
X213258333Y-97019695D01*
X213258333Y-97019695D02*
X213258333Y-97162552D01*
X213258333Y-97162552D02*
X213210714Y-97257790D01*
X213210714Y-97257790D02*
X213163095Y-97305409D01*
X213163095Y-97305409D02*
X213067857Y-97353028D01*
X213067857Y-97353028D02*
X212686905Y-97353028D01*
X213734524Y-97829219D02*
X213925000Y-97829219D01*
X213925000Y-97829219D02*
X214020238Y-97781600D01*
X214020238Y-97781600D02*
X214067857Y-97733980D01*
X214067857Y-97733980D02*
X214163095Y-97591123D01*
X214163095Y-97591123D02*
X214210714Y-97400647D01*
X214210714Y-97400647D02*
X214210714Y-97019695D01*
X214210714Y-97019695D02*
X214163095Y-96924457D01*
X214163095Y-96924457D02*
X214115476Y-96876838D01*
X214115476Y-96876838D02*
X214020238Y-96829219D01*
X214020238Y-96829219D02*
X213829762Y-96829219D01*
X213829762Y-96829219D02*
X213734524Y-96876838D01*
X213734524Y-96876838D02*
X213686905Y-96924457D01*
X213686905Y-96924457D02*
X213639286Y-97019695D01*
X213639286Y-97019695D02*
X213639286Y-97257790D01*
X213639286Y-97257790D02*
X213686905Y-97353028D01*
X213686905Y-97353028D02*
X213734524Y-97400647D01*
X213734524Y-97400647D02*
X213829762Y-97448266D01*
X213829762Y-97448266D02*
X214020238Y-97448266D01*
X214020238Y-97448266D02*
X214115476Y-97400647D01*
X214115476Y-97400647D02*
X214163095Y-97353028D01*
X214163095Y-97353028D02*
X214210714Y-97257790D01*
X222774819Y-72832857D02*
X222298628Y-73166190D01*
X222774819Y-73404285D02*
X221774819Y-73404285D01*
X221774819Y-73404285D02*
X221774819Y-73023333D01*
X221774819Y-73023333D02*
X221822438Y-72928095D01*
X221822438Y-72928095D02*
X221870057Y-72880476D01*
X221870057Y-72880476D02*
X221965295Y-72832857D01*
X221965295Y-72832857D02*
X222108152Y-72832857D01*
X222108152Y-72832857D02*
X222203390Y-72880476D01*
X222203390Y-72880476D02*
X222251009Y-72928095D01*
X222251009Y-72928095D02*
X222298628Y-73023333D01*
X222298628Y-73023333D02*
X222298628Y-73404285D01*
X222774819Y-71880476D02*
X222774819Y-72451904D01*
X222774819Y-72166190D02*
X221774819Y-72166190D01*
X221774819Y-72166190D02*
X221917676Y-72261428D01*
X221917676Y-72261428D02*
X222012914Y-72356666D01*
X222012914Y-72356666D02*
X222060533Y-72451904D01*
X222774819Y-71404285D02*
X222774819Y-71213809D01*
X222774819Y-71213809D02*
X222727200Y-71118571D01*
X222727200Y-71118571D02*
X222679580Y-71070952D01*
X222679580Y-71070952D02*
X222536723Y-70975714D01*
X222536723Y-70975714D02*
X222346247Y-70928095D01*
X222346247Y-70928095D02*
X221965295Y-70928095D01*
X221965295Y-70928095D02*
X221870057Y-70975714D01*
X221870057Y-70975714D02*
X221822438Y-71023333D01*
X221822438Y-71023333D02*
X221774819Y-71118571D01*
X221774819Y-71118571D02*
X221774819Y-71309047D01*
X221774819Y-71309047D02*
X221822438Y-71404285D01*
X221822438Y-71404285D02*
X221870057Y-71451904D01*
X221870057Y-71451904D02*
X221965295Y-71499523D01*
X221965295Y-71499523D02*
X222203390Y-71499523D01*
X222203390Y-71499523D02*
X222298628Y-71451904D01*
X222298628Y-71451904D02*
X222346247Y-71404285D01*
X222346247Y-71404285D02*
X222393866Y-71309047D01*
X222393866Y-71309047D02*
X222393866Y-71118571D01*
X222393866Y-71118571D02*
X222346247Y-71023333D01*
X222346247Y-71023333D02*
X222298628Y-70975714D01*
X222298628Y-70975714D02*
X222203390Y-70928095D01*
X185663809Y-69921128D02*
X185663809Y-70397319D01*
X185330476Y-69397319D02*
X185663809Y-69921128D01*
X185663809Y-69921128D02*
X185997142Y-69397319D01*
X186854285Y-70397319D02*
X186282857Y-70397319D01*
X186568571Y-70397319D02*
X186568571Y-69397319D01*
X186568571Y-69397319D02*
X186473333Y-69540176D01*
X186473333Y-69540176D02*
X186378095Y-69635414D01*
X186378095Y-69635414D02*
X186282857Y-69683033D01*
D11*
X219981047Y-104695270D02*
X219860095Y-104634794D01*
X219860095Y-104634794D02*
X219739142Y-104513842D01*
X219739142Y-104513842D02*
X219557714Y-104332413D01*
X219557714Y-104332413D02*
X219436761Y-104271937D01*
X219436761Y-104271937D02*
X219315809Y-104271937D01*
X219376285Y-104574318D02*
X219255333Y-104513842D01*
X219255333Y-104513842D02*
X219134380Y-104392889D01*
X219134380Y-104392889D02*
X219073904Y-104150984D01*
X219073904Y-104150984D02*
X219073904Y-103727651D01*
X219073904Y-103727651D02*
X219134380Y-103485746D01*
X219134380Y-103485746D02*
X219255333Y-103364794D01*
X219255333Y-103364794D02*
X219376285Y-103304318D01*
X219376285Y-103304318D02*
X219618190Y-103304318D01*
X219618190Y-103304318D02*
X219739142Y-103364794D01*
X219739142Y-103364794D02*
X219860095Y-103485746D01*
X219860095Y-103485746D02*
X219920571Y-103727651D01*
X219920571Y-103727651D02*
X219920571Y-104150984D01*
X219920571Y-104150984D02*
X219860095Y-104392889D01*
X219860095Y-104392889D02*
X219739142Y-104513842D01*
X219739142Y-104513842D02*
X219618190Y-104574318D01*
X219618190Y-104574318D02*
X219376285Y-104574318D01*
X221130095Y-104574318D02*
X220404380Y-104574318D01*
X220767237Y-104574318D02*
X220767237Y-103304318D01*
X220767237Y-103304318D02*
X220646285Y-103485746D01*
X220646285Y-103485746D02*
X220525333Y-103606699D01*
X220525333Y-103606699D02*
X220404380Y-103667175D01*
D10*
X214529819Y-59901204D02*
X214053628Y-60234537D01*
X214529819Y-60472632D02*
X213529819Y-60472632D01*
X213529819Y-60472632D02*
X213529819Y-60091680D01*
X213529819Y-60091680D02*
X213577438Y-59996442D01*
X213577438Y-59996442D02*
X213625057Y-59948823D01*
X213625057Y-59948823D02*
X213720295Y-59901204D01*
X213720295Y-59901204D02*
X213863152Y-59901204D01*
X213863152Y-59901204D02*
X213958390Y-59948823D01*
X213958390Y-59948823D02*
X214006009Y-59996442D01*
X214006009Y-59996442D02*
X214053628Y-60091680D01*
X214053628Y-60091680D02*
X214053628Y-60472632D01*
X213625057Y-59520251D02*
X213577438Y-59472632D01*
X213577438Y-59472632D02*
X213529819Y-59377394D01*
X213529819Y-59377394D02*
X213529819Y-59139299D01*
X213529819Y-59139299D02*
X213577438Y-59044061D01*
X213577438Y-59044061D02*
X213625057Y-58996442D01*
X213625057Y-58996442D02*
X213720295Y-58948823D01*
X213720295Y-58948823D02*
X213815533Y-58948823D01*
X213815533Y-58948823D02*
X213958390Y-58996442D01*
X213958390Y-58996442D02*
X214529819Y-59567870D01*
X214529819Y-59567870D02*
X214529819Y-58948823D01*
X213958390Y-58377394D02*
X213910771Y-58472632D01*
X213910771Y-58472632D02*
X213863152Y-58520251D01*
X213863152Y-58520251D02*
X213767914Y-58567870D01*
X213767914Y-58567870D02*
X213720295Y-58567870D01*
X213720295Y-58567870D02*
X213625057Y-58520251D01*
X213625057Y-58520251D02*
X213577438Y-58472632D01*
X213577438Y-58472632D02*
X213529819Y-58377394D01*
X213529819Y-58377394D02*
X213529819Y-58186918D01*
X213529819Y-58186918D02*
X213577438Y-58091680D01*
X213577438Y-58091680D02*
X213625057Y-58044061D01*
X213625057Y-58044061D02*
X213720295Y-57996442D01*
X213720295Y-57996442D02*
X213767914Y-57996442D01*
X213767914Y-57996442D02*
X213863152Y-58044061D01*
X213863152Y-58044061D02*
X213910771Y-58091680D01*
X213910771Y-58091680D02*
X213958390Y-58186918D01*
X213958390Y-58186918D02*
X213958390Y-58377394D01*
X213958390Y-58377394D02*
X214006009Y-58472632D01*
X214006009Y-58472632D02*
X214053628Y-58520251D01*
X214053628Y-58520251D02*
X214148866Y-58567870D01*
X214148866Y-58567870D02*
X214339342Y-58567870D01*
X214339342Y-58567870D02*
X214434580Y-58520251D01*
X214434580Y-58520251D02*
X214482200Y-58472632D01*
X214482200Y-58472632D02*
X214529819Y-58377394D01*
X214529819Y-58377394D02*
X214529819Y-58186918D01*
X214529819Y-58186918D02*
X214482200Y-58091680D01*
X214482200Y-58091680D02*
X214434580Y-58044061D01*
X214434580Y-58044061D02*
X214339342Y-57996442D01*
X214339342Y-57996442D02*
X214148866Y-57996442D01*
X214148866Y-57996442D02*
X214053628Y-58044061D01*
X214053628Y-58044061D02*
X214006009Y-58091680D01*
X214006009Y-58091680D02*
X213958390Y-58186918D01*
X206686905Y-48229819D02*
X206686905Y-47229819D01*
X206686905Y-47229819D02*
X206925000Y-47229819D01*
X206925000Y-47229819D02*
X207067857Y-47277438D01*
X207067857Y-47277438D02*
X207163095Y-47372676D01*
X207163095Y-47372676D02*
X207210714Y-47467914D01*
X207210714Y-47467914D02*
X207258333Y-47658390D01*
X207258333Y-47658390D02*
X207258333Y-47801247D01*
X207258333Y-47801247D02*
X207210714Y-47991723D01*
X207210714Y-47991723D02*
X207163095Y-48086961D01*
X207163095Y-48086961D02*
X207067857Y-48182200D01*
X207067857Y-48182200D02*
X206925000Y-48229819D01*
X206925000Y-48229819D02*
X206686905Y-48229819D01*
X208163095Y-47229819D02*
X207686905Y-47229819D01*
X207686905Y-47229819D02*
X207639286Y-47706009D01*
X207639286Y-47706009D02*
X207686905Y-47658390D01*
X207686905Y-47658390D02*
X207782143Y-47610771D01*
X207782143Y-47610771D02*
X208020238Y-47610771D01*
X208020238Y-47610771D02*
X208115476Y-47658390D01*
X208115476Y-47658390D02*
X208163095Y-47706009D01*
X208163095Y-47706009D02*
X208210714Y-47801247D01*
X208210714Y-47801247D02*
X208210714Y-48039342D01*
X208210714Y-48039342D02*
X208163095Y-48134580D01*
X208163095Y-48134580D02*
X208115476Y-48182200D01*
X208115476Y-48182200D02*
X208020238Y-48229819D01*
X208020238Y-48229819D02*
X207782143Y-48229819D01*
X207782143Y-48229819D02*
X207686905Y-48182200D01*
X207686905Y-48182200D02*
X207639286Y-48134580D01*
G04 #@! TO.C,R52*
D12*
X184177500Y-39745276D02*
X184177500Y-40254724D01*
X185222500Y-39745276D02*
X185222500Y-40254724D01*
G04 #@! TO.C,C18*
X224424420Y-69440000D02*
X224705580Y-69440000D01*
X224424420Y-70460000D02*
X224705580Y-70460000D01*
G04 #@! TO.C,C5*
X198870580Y-50080000D02*
X198589420Y-50080000D01*
X198870580Y-51100000D02*
X198589420Y-51100000D01*
G04 #@! TO.C,TP4*
X222700000Y-93530000D02*
G75*
G02*
X219800000Y-93530000I-1450000J0D01*
G01*
X219800000Y-93530000D02*
G75*
G02*
X222700000Y-93530000I1450000J0D01*
G01*
G04 #@! TO.C,R25*
X204762258Y-65960847D02*
X204287742Y-65960847D01*
X204762258Y-67005847D02*
X204287742Y-67005847D01*
G04 #@! TO.C,R51*
X196577500Y-39745276D02*
X196577500Y-40254724D01*
X197622500Y-39745276D02*
X197622500Y-40254724D01*
G04 #@! TO.C,R37*
X199367258Y-58097500D02*
X198892742Y-58097500D01*
X199367258Y-59142500D02*
X198892742Y-59142500D01*
G04 #@! TO.C,R4*
X203187742Y-51182500D02*
X203662258Y-51182500D01*
X203187742Y-52227500D02*
X203662258Y-52227500D01*
G04 #@! TO.C,C36*
X214740000Y-76673927D02*
X214740000Y-76392767D01*
X215760000Y-76673927D02*
X215760000Y-76392767D01*
G04 #@! TO.C,C10*
X209590000Y-85464980D02*
X209590000Y-85183820D01*
X210610000Y-85464980D02*
X210610000Y-85183820D01*
G04 #@! TO.C,U2*
D13*
X208612900Y-66100347D02*
X208612900Y-66573607D01*
X208612900Y-72993087D02*
X208612900Y-73466347D01*
X208612900Y-73466347D02*
X209086160Y-73466347D01*
X209086160Y-66100347D02*
X208612900Y-66100347D01*
X215505640Y-73466347D02*
X215978900Y-73466347D01*
X215978900Y-66100347D02*
X215505640Y-66100347D01*
X215978900Y-66573607D02*
X215978900Y-66100347D01*
X215978900Y-73466347D02*
X215978900Y-72993087D01*
D14*
G36*
X207139700Y-69723848D02*
G01*
X206885700Y-69723848D01*
X206885700Y-69342847D01*
X207139700Y-69342847D01*
X207139700Y-69723848D01*
G37*
G36*
X211236400Y-75193547D02*
G01*
X210855400Y-75193547D01*
X210855400Y-74939547D01*
X211236400Y-74939547D01*
X211236400Y-75193547D01*
G37*
G36*
X211736399Y-64627147D02*
G01*
X211355399Y-64627147D01*
X211355399Y-64373147D01*
X211736399Y-64373147D01*
X211736399Y-64627147D01*
G37*
G36*
X217706100Y-68223848D02*
G01*
X217452100Y-68223848D01*
X217452100Y-67842848D01*
X217706100Y-67842848D01*
X217706100Y-68223848D01*
G37*
G04 #@! TO.C,R8*
D12*
X216037258Y-98376900D02*
X215562742Y-98376900D01*
X216037258Y-99421900D02*
X215562742Y-99421900D01*
G04 #@! TO.C,C34*
X203848643Y-70468827D02*
X203848643Y-70187667D01*
X204868643Y-70468827D02*
X204868643Y-70187667D01*
G04 #@! TO.C,C9*
X179550580Y-62340000D02*
X179269420Y-62340000D01*
X179550580Y-63360000D02*
X179269420Y-63360000D01*
G04 #@! TO.C,C20*
X249350580Y-65780000D02*
X249069420Y-65780000D01*
X249350580Y-66800000D02*
X249069420Y-66800000D01*
G04 #@! TO.C,J1*
D15*
X227258048Y-48804947D02*
X227258048Y-65111747D01*
X227258048Y-48804947D02*
X247024048Y-48804947D01*
X227258048Y-65111747D02*
X247024048Y-65111747D01*
D16*
X233902048Y-48258347D02*
G75*
G02*
X233702048Y-48258347I-100000J0D01*
G01*
X233702048Y-48258347D02*
G75*
G02*
X233902048Y-48258347I100000J0D01*
G01*
G04 #@! TO.C,C25*
D12*
X189540000Y-66669420D02*
X189540000Y-66950580D01*
X190560000Y-66669420D02*
X190560000Y-66950580D01*
G04 #@! TO.C,D4*
X206355000Y-51900000D02*
X209040000Y-51900000D01*
X209040000Y-49980000D02*
X206355000Y-49980000D01*
X209040000Y-51900000D02*
X209040000Y-49980000D01*
G04 #@! TO.C,R46*
X228237742Y-66279500D02*
X228712258Y-66279500D01*
X228237742Y-67324500D02*
X228712258Y-67324500D01*
G04 #@! TO.C,C24*
X181690000Y-67224420D02*
X181690000Y-67505580D01*
X182710000Y-67224420D02*
X182710000Y-67505580D01*
G04 #@! TO.C,R47*
X225607500Y-61837258D02*
X225607500Y-61362742D01*
X226652500Y-61837258D02*
X226652500Y-61362742D01*
G04 #@! TO.C,R27*
X193327500Y-66127258D02*
X193327500Y-65652742D01*
X194372500Y-66127258D02*
X194372500Y-65652742D01*
G04 #@! TO.C,J2*
D15*
X227260000Y-69934600D02*
X227260000Y-86241400D01*
X227260000Y-69934600D02*
X247026000Y-69934600D01*
X227260000Y-86241400D02*
X247026000Y-86241400D01*
D16*
X233904000Y-69388000D02*
G75*
G02*
X233704000Y-69388000I-100000J0D01*
G01*
X233704000Y-69388000D02*
G75*
G02*
X233904000Y-69388000I100000J0D01*
G01*
G04 #@! TO.C,R23*
D12*
X216402500Y-76296089D02*
X216402500Y-76770605D01*
X217447500Y-76296089D02*
X217447500Y-76770605D01*
G04 #@! TO.C,C21*
X249370580Y-86860000D02*
X249089420Y-86860000D01*
X249370580Y-87880000D02*
X249089420Y-87880000D01*
G04 #@! TO.C,R11*
X217652500Y-97511658D02*
X217652500Y-97037142D01*
X218697500Y-97511658D02*
X218697500Y-97037142D01*
G04 #@! TO.C,R31*
X205237500Y-73897258D02*
X205237500Y-73422742D01*
X206282500Y-73897258D02*
X206282500Y-73422742D01*
G04 #@! TO.C,R50*
X225637500Y-80472742D02*
X225637500Y-80947258D01*
X226682500Y-80472742D02*
X226682500Y-80947258D01*
G04 #@! TO.C,D6*
D13*
X227461500Y-90243700D02*
X227461500Y-98625700D01*
X227461500Y-98625700D02*
X228767060Y-98625700D01*
X228767060Y-90243700D02*
X227461500Y-90243700D01*
X230700000Y-88846700D02*
X230065000Y-89608700D01*
X230700000Y-88846700D02*
X230192000Y-89608700D01*
X230700000Y-88846700D02*
X230319000Y-89608700D01*
X230700000Y-88846700D02*
X230446000Y-89608700D01*
X230700000Y-88846700D02*
X230573000Y-89608700D01*
X230700000Y-88846700D02*
X230827000Y-89608700D01*
X230700000Y-88846700D02*
X230954000Y-89608700D01*
X230700000Y-88846700D02*
X231081000Y-89608700D01*
X230700000Y-88846700D02*
X231208000Y-89608700D01*
X230700000Y-88846700D02*
X231335000Y-89608700D01*
X230700000Y-89783960D02*
X230700000Y-88592700D01*
X231335000Y-88846700D02*
X230065000Y-88846700D01*
X231335000Y-89608700D02*
X230065000Y-89608700D01*
X232632940Y-98625700D02*
X233938500Y-98625700D01*
X233938500Y-90243700D02*
X232632940Y-90243700D01*
X233938500Y-98625700D02*
X233938500Y-90243700D01*
G04 #@! TO.C,C7*
D12*
X180570000Y-46900580D02*
X180570000Y-46619420D01*
X181590000Y-46900580D02*
X181590000Y-46619420D01*
G04 #@! TO.C,C26*
X236999420Y-87110000D02*
X237280580Y-87110000D01*
X236999420Y-88130000D02*
X237280580Y-88130000D01*
G04 #@! TO.C,R26*
X205287742Y-64360847D02*
X205762258Y-64360847D01*
X205287742Y-65405847D02*
X205762258Y-65405847D01*
G04 #@! TO.C,R49*
X228243181Y-67810614D02*
X228717697Y-67810614D01*
X228243181Y-68855614D02*
X228717697Y-68855614D01*
G04 #@! TO.C,R44*
X225607500Y-84167258D02*
X225607500Y-83692742D01*
X226652500Y-84167258D02*
X226652500Y-83692742D01*
G04 #@! TO.C,R34*
X210887258Y-77187500D02*
X210412742Y-77187500D01*
X210887258Y-78232500D02*
X210412742Y-78232500D01*
G04 #@! TO.C,R6*
X216037258Y-101426900D02*
X215562742Y-101426900D01*
X216037258Y-102471900D02*
X215562742Y-102471900D01*
G04 #@! TO.C,R32*
X209787258Y-88276900D02*
X209312742Y-88276900D01*
X209787258Y-89321900D02*
X209312742Y-89321900D01*
G04 #@! TO.C,R29*
X199377258Y-56567500D02*
X198902742Y-56567500D01*
X199377258Y-57612500D02*
X198902742Y-57612500D01*
G04 #@! TO.C,C17*
X218079998Y-63107180D02*
X218079998Y-62826020D01*
X219099998Y-63107180D02*
X219099998Y-62826020D01*
G04 #@! TO.C,C12*
X234740000Y-97408820D02*
X234740000Y-97689980D01*
X235760000Y-97408820D02*
X235760000Y-97689980D01*
G04 #@! TO.C,R5*
X203192742Y-52732500D02*
X203667258Y-52732500D01*
X203192742Y-53777500D02*
X203667258Y-53777500D01*
G04 #@! TO.C,C4*
X196989420Y-62310000D02*
X197270580Y-62310000D01*
X196989420Y-63330000D02*
X197270580Y-63330000D01*
G04 #@! TO.C,C19*
X231377141Y-66290008D02*
X231658301Y-66290008D01*
X231377141Y-67310008D02*
X231658301Y-67310008D01*
G04 #@! TO.C,TP1*
X242040000Y-40150000D02*
G75*
G02*
X239140000Y-40150000I-1450000J0D01*
G01*
X239140000Y-40150000D02*
G75*
G02*
X242040000Y-40150000I1450000J0D01*
G01*
G04 #@! TO.C,C3*
X182810000Y-44839420D02*
X182810000Y-45120580D01*
X183830000Y-44839420D02*
X183830000Y-45120580D01*
G04 #@! TO.C,R17*
X218069900Y-66328058D02*
X218069900Y-65853542D01*
X219114900Y-66328058D02*
X219114900Y-65853542D01*
G04 #@! TO.C,R24*
X204287742Y-67510847D02*
X204762258Y-67510847D01*
X204287742Y-68555847D02*
X204762258Y-68555847D01*
G04 #@! TO.C,R20*
X220178100Y-69442258D02*
X220178100Y-68967742D01*
X221223100Y-69442258D02*
X221223100Y-68967742D01*
G04 #@! TO.C,C33*
X205390000Y-70473927D02*
X205390000Y-70192767D01*
X206410000Y-70473927D02*
X206410000Y-70192767D01*
G04 #@! TO.C,F1*
X225802064Y-101064400D02*
X224597936Y-101064400D01*
X225802064Y-102884400D02*
X224597936Y-102884400D01*
G04 #@! TO.C,J3*
X180630000Y-77170000D02*
X180630000Y-79830000D01*
X190850000Y-77170000D02*
X180630000Y-77170000D01*
X190850000Y-77170000D02*
X190850000Y-79830000D01*
X190850000Y-79830000D02*
X180630000Y-79830000D01*
X193450000Y-78500000D02*
X193450000Y-79830000D01*
X193450000Y-79830000D02*
X192120000Y-79830000D01*
G04 #@! TO.C,D3*
X206340000Y-56560000D02*
X209025000Y-56560000D01*
X209025000Y-54640000D02*
X206340000Y-54640000D01*
X209025000Y-56560000D02*
X209025000Y-54640000D01*
G04 #@! TO.C,C6*
X196989420Y-47810000D02*
X197270580Y-47810000D01*
X196989420Y-48830000D02*
X197270580Y-48830000D01*
G04 #@! TO.C,R10*
X219227500Y-97486658D02*
X219227500Y-97012142D01*
X220272500Y-97486658D02*
X220272500Y-97012142D01*
G04 #@! TO.C,R18*
X216418900Y-65185058D02*
X216418900Y-64710542D01*
X217463900Y-65185058D02*
X217463900Y-64710542D01*
G04 #@! TO.C,D7*
D13*
X223563000Y-93034599D02*
X223563000Y-98878601D01*
X223563000Y-98878601D02*
X224002260Y-98878601D01*
X224002260Y-93034599D02*
X223563000Y-93034599D01*
X224515000Y-99513601D02*
X225785000Y-99513601D01*
X224515000Y-100275601D02*
X225785000Y-100275601D01*
X225150000Y-99259601D02*
X225150000Y-100529601D01*
X225150000Y-100275601D02*
X224515000Y-99513601D01*
X225150000Y-100275601D02*
X224642000Y-99513601D01*
X225150000Y-100275601D02*
X224769000Y-99513601D01*
X225150000Y-100275601D02*
X224896000Y-99513601D01*
X225150000Y-100275601D02*
X225023000Y-99513601D01*
X225150000Y-100275601D02*
X225277000Y-99513601D01*
X225150000Y-100275601D02*
X225404000Y-99513601D01*
X225150000Y-100275601D02*
X225531000Y-99513601D01*
X225150000Y-100275601D02*
X225658000Y-99513601D01*
X225150000Y-100275601D02*
X225785000Y-99513601D01*
X226297740Y-98878601D02*
X226737000Y-98878601D01*
X226737000Y-93034599D02*
X226297740Y-93034599D01*
X226737000Y-98878601D02*
X226737000Y-93034599D01*
G04 #@! TO.C,R3*
D12*
X203182742Y-54487500D02*
X203657258Y-54487500D01*
X203182742Y-55532500D02*
X203657258Y-55532500D01*
G04 #@! TO.C,U3*
D16*
X211425000Y-85799400D02*
X212900000Y-85799400D01*
X213250000Y-85749400D02*
X216950000Y-85749400D01*
X213250000Y-95449400D02*
X213250000Y-85749400D01*
X216950000Y-85749400D02*
X216950000Y-95449400D01*
X216950000Y-95449400D02*
X213250000Y-95449400D01*
G04 #@! TO.C,R45*
D12*
X225677500Y-53162742D02*
X225677500Y-53637258D01*
X226722500Y-53162742D02*
X226722500Y-53637258D01*
G04 #@! TO.C,U1*
X181190000Y-48480000D02*
X181890000Y-48480000D01*
X181190000Y-49180000D02*
X181190000Y-48480000D01*
X181190000Y-62700000D02*
X181190000Y-62000000D01*
X181890000Y-62700000D02*
X181190000Y-62700000D01*
X194710000Y-48480000D02*
X195410000Y-48480000D01*
X195410000Y-48480000D02*
X195410000Y-49180000D01*
X195410000Y-62000000D02*
X195410000Y-62700000D01*
X195410000Y-62700000D02*
X194710000Y-62700000D01*
X181890000Y-63340000D02*
X181420000Y-63680000D01*
X181420000Y-63000000D01*
X181890000Y-63340000D01*
G36*
X181890000Y-63340000D02*
G01*
X181420000Y-63680000D01*
X181420000Y-63000000D01*
X181890000Y-63340000D01*
G37*
G04 #@! TO.C,TP2*
X246590000Y-40150000D02*
G75*
G02*
X243690000Y-40150000I-1450000J0D01*
G01*
X243690000Y-40150000D02*
G75*
G02*
X246590000Y-40150000I1450000J0D01*
G01*
G04 #@! TO.C,TP3*
X225280000Y-88760000D02*
G75*
G02*
X222380000Y-88760000I-1450000J0D01*
G01*
X222380000Y-88760000D02*
G75*
G02*
X225280000Y-88760000I1450000J0D01*
G01*
G04 #@! TO.C,C2*
X191780000Y-65749420D02*
X191780000Y-66030580D01*
X192800000Y-65749420D02*
X192800000Y-66030580D01*
G04 #@! TO.C,C11*
X219415000Y-85458820D02*
X219415000Y-85739980D01*
X220435000Y-85458820D02*
X220435000Y-85739980D01*
G04 #@! TO.C,R48*
X225647500Y-50557258D02*
X225647500Y-50082742D01*
X226692500Y-50557258D02*
X226692500Y-50082742D01*
G04 #@! TO.C,D8*
X217975000Y-81268347D02*
X217975000Y-75758347D01*
X217975000Y-81268347D02*
X221275000Y-81268347D01*
X221275000Y-81268347D02*
X221275000Y-75758347D01*
G04 #@! TO.C,C35*
X202310263Y-70460876D02*
X202310263Y-70179716D01*
X203330263Y-70460876D02*
X203330263Y-70179716D01*
G04 #@! TO.C,R7*
X216037258Y-99901900D02*
X215562742Y-99901900D01*
X216037258Y-100946900D02*
X215562742Y-100946900D01*
G04 #@! TO.C,R9*
X216037258Y-96851900D02*
X215562742Y-96851900D01*
X216037258Y-97896900D02*
X215562742Y-97896900D01*
G04 #@! TO.C,R19*
X221744182Y-69439058D02*
X221744182Y-68964542D01*
X222789182Y-69439058D02*
X222789182Y-68964542D01*
G04 #@! TO.C,Y1*
X183380000Y-65282500D02*
X183430000Y-65282500D01*
X183380000Y-69002500D02*
X183380000Y-65282500D01*
X183430000Y-69002500D02*
X183380000Y-69002500D01*
X185550000Y-65282500D02*
X186730000Y-65282500D01*
X186730000Y-65282500D02*
X186730000Y-64932500D01*
X186730000Y-69002500D02*
X185550000Y-69002500D01*
X188850000Y-64932500D02*
X188850000Y-65282500D01*
X188850000Y-65282500D02*
X188900000Y-65282500D01*
X188900000Y-65282500D02*
X188900000Y-69002500D01*
X188900000Y-69002500D02*
X188850000Y-69002500D01*
G04 #@! TO.C,J9*
X186230000Y-41000000D02*
X186230000Y-42700000D01*
X195570000Y-41000000D02*
X195570000Y-42700000D01*
G04 #@! TO.C,Q1*
D16*
D14*
X218148000Y-99949400D02*
X218147999Y-99949400D01*
X218147999Y-99949400D01*
X218147999Y-99949400D01*
X218147999Y-99949400D01*
X218147999Y-99949400D01*
X218147999Y-99949400D01*
X218147999Y-99949400D01*
X218147999Y-99949399D01*
X218147999Y-99949399D01*
X218147999Y-99949399D01*
X218147999Y-99949399D01*
X218147999Y-99949399D01*
X218148000Y-99949399D01*
X218148000Y-99949399D01*
X218148000Y-99949399D01*
X218148000Y-99949399D01*
X218148000Y-99949399D01*
X218148000Y-99949399D01*
X218148000Y-99949399D01*
X218148000Y-99949399D01*
X218148000Y-99949399D01*
X218148000Y-99949399D01*
X218148000Y-99949399D01*
X218148000Y-99949399D01*
X218148001Y-99949399D01*
X218148001Y-99949399D01*
X218148001Y-99949399D01*
X218148001Y-99949399D01*
X218148001Y-99949399D01*
X218148001Y-99949399D01*
X218148001Y-99949400D01*
X218148001Y-99949400D01*
X218148001Y-99949400D01*
X218148001Y-99949400D01*
X218148001Y-99949400D01*
X218148001Y-99949400D01*
X218148001Y-99949400D01*
X218148000Y-99949400D01*
X218148000Y-99949400D02*
X218148001Y-99949400D01*
X218148001Y-99949400D01*
X218148001Y-99949400D01*
X218148001Y-99949400D01*
X218148001Y-99949400D01*
X218148001Y-99949400D01*
X218148001Y-99949401D01*
X218148001Y-99949401D01*
X218148001Y-99949401D01*
X218148001Y-99949401D01*
X218148001Y-99949401D01*
X218148001Y-99949401D01*
X218148001Y-99949401D01*
X218148000Y-99949401D01*
X218148000Y-99949401D01*
X218148000Y-99949401D01*
X218148000Y-99949401D01*
X218148000Y-99949401D01*
X218148000Y-99949401D01*
X218148000Y-99949401D01*
X218148000Y-99949401D01*
X218148000Y-99949401D01*
X218148000Y-99949401D01*
X218148000Y-99949401D01*
X218148000Y-99949401D01*
X218147999Y-99949401D01*
X218147999Y-99949401D01*
X218147999Y-99949401D01*
X218147999Y-99949401D01*
X218147999Y-99949401D01*
X218147999Y-99949401D01*
X218147999Y-99949400D01*
X218147999Y-99949400D01*
X218147999Y-99949400D01*
X218147999Y-99949400D01*
X218147999Y-99949400D01*
X218147999Y-99949400D01*
X218148000Y-99949400D01*
D16*
D14*
X218148000Y-100149400D02*
X218147999Y-100149400D01*
X218147999Y-100149400D01*
X218147999Y-100149400D01*
X218147999Y-100149400D01*
X218147999Y-100149400D01*
X218147999Y-100149400D01*
X218147999Y-100149400D01*
X218147999Y-100149399D01*
X218147999Y-100149399D01*
X218147999Y-100149399D01*
X218147999Y-100149399D01*
X218147999Y-100149399D01*
X218148000Y-100149399D01*
X218148000Y-100149399D01*
X218148000Y-100149399D01*
X218148000Y-100149399D01*
X218148000Y-100149399D01*
X218148000Y-100149399D01*
X218148000Y-100149399D01*
X218148000Y-100149399D01*
X218148000Y-100149399D01*
X218148000Y-100149399D01*
X218148000Y-100149399D01*
X218148000Y-100149399D01*
X218148001Y-100149399D01*
X218148001Y-100149399D01*
X218148001Y-100149399D01*
X218148001Y-100149399D01*
X218148001Y-100149399D01*
X218148001Y-100149399D01*
X218148001Y-100149400D01*
X218148001Y-100149400D01*
X218148001Y-100149400D01*
X218148001Y-100149400D01*
X218148001Y-100149400D01*
X218148001Y-100149400D01*
X218148001Y-100149400D01*
X218148000Y-100149400D01*
X218148000Y-100149400D02*
X218148001Y-100149400D01*
X218148001Y-100149400D01*
X218148001Y-100149400D01*
X218148001Y-100149400D01*
X218148001Y-100149400D01*
X218148001Y-100149400D01*
X218148001Y-100149401D01*
X218148001Y-100149401D01*
X218148001Y-100149401D01*
X218148001Y-100149401D01*
X218148001Y-100149401D01*
X218148001Y-100149401D01*
X218148001Y-100149401D01*
X218148000Y-100149401D01*
X218148000Y-100149401D01*
X218148000Y-100149401D01*
X218148000Y-100149401D01*
X218148000Y-100149401D01*
X218148000Y-100149401D01*
X218148000Y-100149401D01*
X218148000Y-100149401D01*
X218148000Y-100149401D01*
X218148000Y-100149401D01*
X218148000Y-100149401D01*
X218148000Y-100149401D01*
X218147999Y-100149401D01*
X218147999Y-100149401D01*
X218147999Y-100149401D01*
X218147999Y-100149401D01*
X218147999Y-100149401D01*
X218147999Y-100149401D01*
X218147999Y-100149400D01*
X218147999Y-100149400D01*
X218147999Y-100149400D01*
X218147999Y-100149400D01*
X218147999Y-100149400D01*
X218147999Y-100149400D01*
X218148000Y-100149400D01*
D17*
X219648000Y-99424400D02*
X218948000Y-99424400D01*
X219648000Y-102574400D02*
X218948000Y-102574400D01*
D16*
X218148000Y-99949400D02*
G75*
G02*
X218148000Y-100149400I0J-100000D01*
G01*
X218148000Y-100149400D02*
G75*
G02*
X218148000Y-99949400I0J100000D01*
G01*
G04 #@! TO.C,R28*
D12*
X213527500Y-61946089D02*
X213527500Y-62420605D01*
X214572500Y-61946089D02*
X214572500Y-62420605D01*
G04 #@! TO.C,D5*
X206340000Y-54225000D02*
X209025000Y-54225000D01*
X209025000Y-52305000D02*
X206340000Y-52305000D01*
X209025000Y-54225000D02*
X209025000Y-52305000D01*
G04 #@! TD*
%LPC*%
D18*
G04 #@! TO.C,R52*
X184700000Y-39087500D03*
X184700000Y-40912500D03*
G04 #@! TD*
D19*
G04 #@! TO.C,C18*
X223790000Y-69950000D03*
X225340000Y-69950000D03*
G04 #@! TD*
D20*
G04 #@! TO.C,C5*
X199505000Y-50590000D03*
X197955000Y-50590000D03*
G04 #@! TD*
D21*
G04 #@! TO.C,TP4*
X221250000Y-93530000D03*
G04 #@! TD*
D22*
G04 #@! TO.C,R25*
X205350000Y-66483347D03*
X203700000Y-66483347D03*
G04 #@! TD*
D18*
G04 #@! TO.C,R51*
X197100000Y-39087500D03*
X197100000Y-40912500D03*
G04 #@! TD*
D22*
G04 #@! TO.C,R37*
X199955000Y-58620000D03*
X198305000Y-58620000D03*
G04 #@! TD*
D23*
G04 #@! TO.C,R4*
X202600000Y-51705000D03*
X204250000Y-51705000D03*
G04 #@! TD*
D24*
G04 #@! TO.C,C36*
X215250000Y-77308347D03*
X215250000Y-75758347D03*
G04 #@! TD*
G04 #@! TO.C,C10*
X210100000Y-86099400D03*
X210100000Y-84549400D03*
G04 #@! TD*
D25*
G04 #@! TO.C,U2*
X216525000Y-72533347D03*
X216525000Y-72033348D03*
X216525000Y-71533346D03*
X216525000Y-71033347D03*
X216525000Y-70533348D03*
X216525000Y-70033347D03*
X216525000Y-69533347D03*
X216525000Y-69033346D03*
X216525000Y-68533347D03*
X216525000Y-68033348D03*
X216525000Y-67533346D03*
X216525000Y-67033347D03*
D26*
X215045900Y-65554247D03*
X214545901Y-65554247D03*
X214045899Y-65554247D03*
X213545900Y-65554247D03*
X213045901Y-65554247D03*
X212545900Y-65554247D03*
X212045900Y-65554247D03*
X211545899Y-65554247D03*
X211045900Y-65554247D03*
X210545901Y-65554247D03*
X210045899Y-65554247D03*
X209545900Y-65554247D03*
D25*
X208066800Y-67033347D03*
X208066800Y-67533346D03*
X208066800Y-68033348D03*
X208066800Y-68533347D03*
X208066800Y-69033346D03*
X208066800Y-69533347D03*
X208066800Y-70033347D03*
X208066800Y-70533348D03*
X208066800Y-71033347D03*
X208066800Y-71533346D03*
X208066800Y-72033348D03*
X208066800Y-72533347D03*
D26*
X209545900Y-74012447D03*
X210045899Y-74012447D03*
X210545901Y-74012447D03*
X211045900Y-74012447D03*
X211545899Y-74012447D03*
X212045900Y-74012447D03*
X212545900Y-74012447D03*
X213045901Y-74012447D03*
X213545900Y-74012447D03*
X214045899Y-74012447D03*
X214545901Y-74012447D03*
X215045900Y-74012447D03*
G04 #@! TD*
D22*
G04 #@! TO.C,R8*
X216625000Y-98899400D03*
X214975000Y-98899400D03*
G04 #@! TD*
D24*
G04 #@! TO.C,C34*
X204358643Y-71103247D03*
X204358643Y-69553247D03*
G04 #@! TD*
D20*
G04 #@! TO.C,C9*
X180185000Y-62850000D03*
X178635000Y-62850000D03*
G04 #@! TD*
G04 #@! TO.C,C20*
X249985000Y-66290000D03*
X248435000Y-66290000D03*
G04 #@! TD*
D27*
G04 #@! TO.C,J1*
X249102048Y-50608347D03*
X249102048Y-63308347D03*
D28*
X233862048Y-57974347D03*
X233862048Y-60006347D03*
X233862048Y-62038347D03*
X231322048Y-58990347D03*
X231322048Y-61022347D03*
X231322048Y-63054347D03*
D29*
X240974048Y-51370347D03*
X240974048Y-62546347D03*
X242498048Y-51370347D03*
X242498048Y-62546347D03*
D30*
X228782048Y-50862347D03*
X228782048Y-53402347D03*
X228782048Y-60514347D03*
X228782048Y-63054347D03*
D31*
X252277048Y-48893847D03*
X252277048Y-65022847D03*
G04 #@! TD*
D32*
G04 #@! TO.C,C25*
X190050000Y-66035000D03*
X190050000Y-67585000D03*
G04 #@! TD*
D33*
G04 #@! TO.C,D4*
X208292500Y-50940000D03*
X206417500Y-50940000D03*
G04 #@! TD*
D23*
G04 #@! TO.C,R46*
X227650000Y-66802000D03*
X229300000Y-66802000D03*
G04 #@! TD*
D32*
G04 #@! TO.C,C24*
X182200000Y-66590000D03*
X182200000Y-68140000D03*
G04 #@! TD*
D34*
G04 #@! TO.C,R47*
X226130000Y-62425000D03*
X226130000Y-60775000D03*
G04 #@! TD*
G04 #@! TO.C,R27*
X193850000Y-66715000D03*
X193850000Y-65065000D03*
G04 #@! TD*
D27*
G04 #@! TO.C,J2*
X249104000Y-71738000D03*
X249104000Y-84438000D03*
D28*
X233864000Y-79104000D03*
X233864000Y-81136000D03*
X233864000Y-83168000D03*
X231324000Y-80120000D03*
X231324000Y-82152000D03*
X231324000Y-84184000D03*
D29*
X240976000Y-72500000D03*
X240976000Y-83676000D03*
X242500000Y-72500000D03*
X242500000Y-83676000D03*
D30*
X228784000Y-71992000D03*
X228784000Y-74532000D03*
X228784000Y-81644000D03*
X228784000Y-84184000D03*
D31*
X252279000Y-70023500D03*
X252279000Y-86152500D03*
G04 #@! TD*
D35*
G04 #@! TO.C,R23*
X216925000Y-75708347D03*
X216925000Y-77358347D03*
G04 #@! TD*
D20*
G04 #@! TO.C,C21*
X250005000Y-87370000D03*
X248455000Y-87370000D03*
G04 #@! TD*
D34*
G04 #@! TO.C,R11*
X218175000Y-98099400D03*
X218175000Y-96449400D03*
G04 #@! TD*
G04 #@! TO.C,R31*
X205760000Y-74485000D03*
X205760000Y-72835000D03*
G04 #@! TD*
D35*
G04 #@! TO.C,R50*
X226160000Y-79885000D03*
X226160000Y-81535000D03*
G04 #@! TD*
D36*
G04 #@! TO.C,D6*
X230700000Y-91399400D03*
X230700000Y-97470000D03*
G04 #@! TD*
D24*
G04 #@! TO.C,C7*
X181080000Y-47535000D03*
X181080000Y-45985000D03*
G04 #@! TD*
D19*
G04 #@! TO.C,C26*
X236365000Y-87620000D03*
X237915000Y-87620000D03*
G04 #@! TD*
D23*
G04 #@! TO.C,R26*
X204700000Y-64883347D03*
X206350000Y-64883347D03*
G04 #@! TD*
G04 #@! TO.C,R49*
X227655439Y-68333114D03*
X229305439Y-68333114D03*
G04 #@! TD*
D34*
G04 #@! TO.C,R44*
X226130000Y-84755000D03*
X226130000Y-83105000D03*
G04 #@! TD*
D22*
G04 #@! TO.C,R34*
X211475000Y-77710000D03*
X209825000Y-77710000D03*
G04 #@! TD*
G04 #@! TO.C,R6*
X216625000Y-101949400D03*
X214975000Y-101949400D03*
G04 #@! TD*
G04 #@! TO.C,R32*
X210375000Y-88799400D03*
X208725000Y-88799400D03*
G04 #@! TD*
G04 #@! TO.C,R29*
X199965000Y-57090000D03*
X198315000Y-57090000D03*
G04 #@! TD*
D24*
G04 #@! TO.C,C17*
X218589998Y-63741600D03*
X218589998Y-62191600D03*
G04 #@! TD*
D32*
G04 #@! TO.C,C12*
X235250000Y-96774400D03*
X235250000Y-98324400D03*
G04 #@! TD*
D23*
G04 #@! TO.C,R5*
X202605000Y-53255000D03*
X204255000Y-53255000D03*
G04 #@! TD*
D19*
G04 #@! TO.C,C4*
X196355000Y-62820000D03*
X197905000Y-62820000D03*
G04 #@! TD*
G04 #@! TO.C,C19*
X230742721Y-66800008D03*
X232292721Y-66800008D03*
G04 #@! TD*
D21*
G04 #@! TO.C,TP1*
X240590000Y-40150000D03*
G04 #@! TD*
D32*
G04 #@! TO.C,C3*
X183320000Y-44205000D03*
X183320000Y-45755000D03*
G04 #@! TD*
D34*
G04 #@! TO.C,R17*
X218592400Y-66915800D03*
X218592400Y-65265800D03*
G04 #@! TD*
D23*
G04 #@! TO.C,R24*
X203700000Y-68033347D03*
X205350000Y-68033347D03*
G04 #@! TD*
D34*
G04 #@! TO.C,R20*
X220700600Y-70030000D03*
X220700600Y-68380000D03*
G04 #@! TD*
D24*
G04 #@! TO.C,C33*
X205900000Y-71108347D03*
X205900000Y-69558347D03*
G04 #@! TD*
D37*
G04 #@! TO.C,F1*
X226600000Y-101974400D03*
X223800000Y-101974400D03*
G04 #@! TD*
D38*
G04 #@! TO.C,J3*
X192120000Y-78500000D03*
D39*
X189580000Y-78500000D03*
X187040000Y-78500000D03*
X184500000Y-78500000D03*
X181960000Y-78500000D03*
G04 #@! TD*
D33*
G04 #@! TO.C,D3*
X208277500Y-55600000D03*
X206402500Y-55600000D03*
G04 #@! TD*
D19*
G04 #@! TO.C,C6*
X196355000Y-48320000D03*
X197905000Y-48320000D03*
G04 #@! TD*
D34*
G04 #@! TO.C,R10*
X219750000Y-98074400D03*
X219750000Y-96424400D03*
G04 #@! TD*
G04 #@! TO.C,R18*
X216941400Y-65772800D03*
X216941400Y-64122800D03*
G04 #@! TD*
D40*
G04 #@! TO.C,D7*
X225150000Y-97813800D03*
X225150000Y-94099400D03*
G04 #@! TD*
D23*
G04 #@! TO.C,R3*
X202595000Y-55010000D03*
X204245000Y-55010000D03*
G04 #@! TD*
D41*
G04 #@! TO.C,U3*
X212162000Y-86374400D03*
X212162000Y-87024400D03*
X212162000Y-87674400D03*
X212162000Y-88324400D03*
X212162000Y-88974400D03*
X212162000Y-89624400D03*
X212162000Y-90274400D03*
X212162000Y-90924400D03*
X212162000Y-91574400D03*
X212162000Y-92224400D03*
X212162000Y-92874400D03*
X212162000Y-93524400D03*
X212162000Y-94174400D03*
X212162000Y-94824400D03*
X218038000Y-94824400D03*
X218038000Y-94174400D03*
X218038000Y-93524400D03*
X218038000Y-92874400D03*
X218038000Y-92224400D03*
X218038000Y-91574400D03*
X218038000Y-90924400D03*
X218038000Y-90274400D03*
X218038000Y-89624400D03*
X218038000Y-88974400D03*
X218038000Y-88324400D03*
X218038000Y-87674400D03*
X218038000Y-87024400D03*
X218038000Y-86374400D03*
G04 #@! TD*
D35*
G04 #@! TO.C,R45*
X226200000Y-52575000D03*
X226200000Y-54225000D03*
G04 #@! TD*
D42*
G04 #@! TO.C,U1*
X182300000Y-63265000D03*
X182800000Y-63265000D03*
X183300000Y-63265000D03*
X183800000Y-63265000D03*
X184300000Y-63265000D03*
X184800000Y-63265000D03*
X185300000Y-63265000D03*
X185800000Y-63265000D03*
X186300000Y-63265000D03*
X186800000Y-63265000D03*
X187300000Y-63265000D03*
X187800000Y-63265000D03*
X188300000Y-63265000D03*
X188800000Y-63265000D03*
X189300000Y-63265000D03*
X189800000Y-63265000D03*
X190300000Y-63265000D03*
X190800000Y-63265000D03*
X191300000Y-63265000D03*
X191800000Y-63265000D03*
X192300000Y-63265000D03*
X192800000Y-63265000D03*
X193300000Y-63265000D03*
X193800000Y-63265000D03*
X194300000Y-63265000D03*
D43*
X195975000Y-61590000D03*
X195975000Y-61090000D03*
X195975000Y-60590000D03*
X195975000Y-60090000D03*
X195975000Y-59590000D03*
X195975000Y-59090000D03*
X195975000Y-58590000D03*
X195975000Y-58090000D03*
X195975000Y-57590000D03*
X195975000Y-57090000D03*
X195975000Y-56590000D03*
X195975000Y-56090000D03*
X195975000Y-55590000D03*
X195975000Y-55090000D03*
X195975000Y-54590000D03*
X195975000Y-54090000D03*
X195975000Y-53590000D03*
X195975000Y-53090000D03*
X195975000Y-52590000D03*
X195975000Y-52090000D03*
X195975000Y-51590000D03*
X195975000Y-51090000D03*
X195975000Y-50590000D03*
X195975000Y-50090000D03*
X195975000Y-49590000D03*
D42*
X194300000Y-47915000D03*
X193800000Y-47915000D03*
X193300000Y-47915000D03*
X192800000Y-47915000D03*
X192300000Y-47915000D03*
X191800000Y-47915000D03*
X191300000Y-47915000D03*
X190800000Y-47915000D03*
X190300000Y-47915000D03*
X189800000Y-47915000D03*
X189300000Y-47915000D03*
X188800000Y-47915000D03*
X188300000Y-47915000D03*
X187800000Y-47915000D03*
X187300000Y-47915000D03*
X186800000Y-47915000D03*
X186300000Y-47915000D03*
X185800000Y-47915000D03*
X185300000Y-47915000D03*
X184800000Y-47915000D03*
X184300000Y-47915000D03*
X183800000Y-47915000D03*
X183300000Y-47915000D03*
X182800000Y-47915000D03*
X182300000Y-47915000D03*
D43*
X180625000Y-49590000D03*
X180625000Y-50090000D03*
X180625000Y-50590000D03*
X180625000Y-51090000D03*
X180625000Y-51590000D03*
X180625000Y-52090000D03*
X180625000Y-52590000D03*
X180625000Y-53090000D03*
X180625000Y-53590000D03*
X180625000Y-54090000D03*
X180625000Y-54590000D03*
X180625000Y-55090000D03*
X180625000Y-55590000D03*
X180625000Y-56090000D03*
X180625000Y-56590000D03*
X180625000Y-57090000D03*
X180625000Y-57590000D03*
X180625000Y-58090000D03*
X180625000Y-58590000D03*
X180625000Y-59090000D03*
X180625000Y-59590000D03*
X180625000Y-60090000D03*
X180625000Y-60590000D03*
X180625000Y-61090000D03*
X180625000Y-61590000D03*
G04 #@! TD*
D21*
G04 #@! TO.C,TP2*
X245140000Y-40150000D03*
G04 #@! TD*
G04 #@! TO.C,TP3*
X223830000Y-88760000D03*
G04 #@! TD*
D32*
G04 #@! TO.C,C2*
X192290000Y-65115000D03*
X192290000Y-66665000D03*
G04 #@! TD*
G04 #@! TO.C,C11*
X219925000Y-84824400D03*
X219925000Y-86374400D03*
G04 #@! TD*
D34*
G04 #@! TO.C,R48*
X226170000Y-51145000D03*
X226170000Y-49495000D03*
G04 #@! TD*
D44*
G04 #@! TO.C,D8*
X219625000Y-79758347D03*
X219625000Y-75758347D03*
G04 #@! TD*
D24*
G04 #@! TO.C,C35*
X202820263Y-71095296D03*
X202820263Y-69545296D03*
G04 #@! TD*
D22*
G04 #@! TO.C,R7*
X216625000Y-100424400D03*
X214975000Y-100424400D03*
G04 #@! TD*
G04 #@! TO.C,R9*
X216625000Y-97374400D03*
X214975000Y-97374400D03*
G04 #@! TD*
D34*
G04 #@! TO.C,R19*
X222266682Y-70026800D03*
X222266682Y-68376800D03*
G04 #@! TD*
D45*
G04 #@! TO.C,Y1*
X187990000Y-66042500D03*
X187990000Y-68242500D03*
X184290000Y-66042500D03*
X184290000Y-68242500D03*
G04 #@! TD*
D46*
G04 #@! TO.C,J9*
X193790000Y-43505000D03*
X188010000Y-43505000D03*
D47*
X194100000Y-44580000D03*
X193300000Y-44580000D03*
D48*
X192150000Y-44580000D03*
X191150000Y-44580000D03*
X190650000Y-44580000D03*
X189650000Y-44580000D03*
D47*
X188500000Y-44580000D03*
X187700000Y-44580000D03*
X187700000Y-44580000D03*
D48*
X189150000Y-44580000D03*
X190150000Y-44580000D03*
X191650000Y-44580000D03*
X192650000Y-44580000D03*
D47*
X194100000Y-44580000D03*
D49*
X195220000Y-44005000D03*
D50*
X195220000Y-39825000D03*
D49*
X186580000Y-44005000D03*
D50*
X186580000Y-39825000D03*
G04 #@! TD*
D51*
G04 #@! TO.C,Q1*
X218945000Y-100024400D03*
X218945000Y-100674400D03*
X218945000Y-101324400D03*
X218945000Y-101974400D03*
D52*
X221951000Y-101974400D03*
X221951000Y-101324400D03*
X221951000Y-100674400D03*
X221951000Y-100024400D03*
D53*
X220770000Y-100999400D03*
D54*
X221775000Y-99724400D03*
X221775000Y-102274400D03*
G04 #@! TD*
D35*
G04 #@! TO.C,R28*
X214050000Y-61358347D03*
X214050000Y-63008347D03*
G04 #@! TD*
D33*
G04 #@! TO.C,D5*
X208277500Y-53265000D03*
X206402500Y-53265000D03*
G04 #@! TD*
G36*
X250318039Y-98469685D02*
G01*
X250363794Y-98522489D01*
X250375000Y-98574000D01*
X250375000Y-104826000D01*
X250355315Y-104893039D01*
X250302511Y-104938794D01*
X250251000Y-104950000D01*
X244499000Y-104950000D01*
X244431961Y-104930315D01*
X244386206Y-104877511D01*
X244375000Y-104826000D01*
X244375000Y-98574000D01*
X244394685Y-98506961D01*
X244447489Y-98461206D01*
X244499000Y-98450000D01*
X250251000Y-98450000D01*
X250318039Y-98469685D01*
G37*
G36*
X231443039Y-37519685D02*
G01*
X231488794Y-37572489D01*
X231500000Y-37624000D01*
X231500000Y-43876000D01*
X231480315Y-43943039D01*
X231427511Y-43988794D01*
X231376000Y-44000000D01*
X225624000Y-44000000D01*
X225556961Y-43980315D01*
X225511206Y-43927511D01*
X225500000Y-43876000D01*
X225500000Y-37624000D01*
X225519685Y-37556961D01*
X225572489Y-37511206D01*
X225624000Y-37500000D01*
X231376000Y-37500000D01*
X231443039Y-37519685D01*
G37*
G36*
X220443039Y-37519685D02*
G01*
X220488794Y-37572489D01*
X220500000Y-37624000D01*
X220500000Y-43876000D01*
X220480315Y-43943039D01*
X220427511Y-43988794D01*
X220376000Y-44000000D01*
X210349000Y-44000000D01*
X210281961Y-43980315D01*
X210236206Y-43927511D01*
X210225000Y-43876000D01*
X210225000Y-37624000D01*
X210244685Y-37556961D01*
X210297489Y-37511206D01*
X210349000Y-37500000D01*
X220376000Y-37500000D01*
X220443039Y-37519685D01*
G37*
%LPD*%
M02*
