G04 #@! TF.GenerationSoftware,KiCad,Pcbnew,10.0.0*
G04 #@! TF.CreationDate,2026-06-29T05:34:33-04:00*
G04 #@! TF.ProjectId,ethdemo,65746864-656d-46f2-9e6b-696361645f70,rev?*
G04 #@! TF.SameCoordinates,Original*
G04 #@! TF.FileFunction,Copper,L2,Inr*
G04 #@! TF.FilePolarity,Positive*
%FSLAX46Y46*%
G04 Gerber Fmt 4.6, Leading zero omitted, Abs format (unit mm)*
G04 Created by KiCad (PCBNEW 10.0.0) date 2026-06-29 05:34:33*
%MOMM*%
%LPD*%
G01*
G04 APERTURE LIST*
G04 #@! TA.AperFunction,ComponentPad*
%ADD10C,1.524000*%
G04 #@! TD*
G04 #@! TA.AperFunction,ComponentPad*
%ADD11C,1.371600*%
G04 #@! TD*
G04 #@! TA.AperFunction,ComponentPad*
%ADD12C,1.714500*%
G04 #@! TD*
G04 #@! TA.AperFunction,ComponentPad*
%ADD13C,2.362200*%
G04 #@! TD*
G04 #@! TA.AperFunction,ComponentPad*
%ADD14R,1.700000X1.700000*%
G04 #@! TD*
G04 #@! TA.AperFunction,ComponentPad*
%ADD15C,1.700000*%
G04 #@! TD*
G04 #@! TA.AperFunction,ComponentPad*
%ADD16O,1.000000X2.100000*%
G04 #@! TD*
G04 #@! TA.AperFunction,ComponentPad*
%ADD17O,1.000000X1.800000*%
G04 #@! TD*
G04 #@! TA.AperFunction,ViaPad*
%ADD18C,0.600000*%
G04 #@! TD*
G04 APERTURE END LIST*
D10*
G04 #@! TO.N,/RX2+*
G04 #@! TO.C,J1*
X233862048Y-57974347D03*
G04 #@! TO.N,/RX2-*
X233862048Y-60006347D03*
G04 #@! TO.N,+3.3V*
X233862048Y-62038347D03*
G04 #@! TO.N,/TX2-*
X231322048Y-58990347D03*
G04 #@! TO.N,/TX2+*
X231322048Y-61022347D03*
G04 #@! TO.N,+3.3V*
X231322048Y-63054347D03*
D11*
G04 #@! TO.N,unconnected-(J1-VC12-Pad13)*
X240974048Y-51370347D03*
G04 #@! TO.N,unconnected-(J1-VC36-Pad14)*
X240974048Y-62546347D03*
G04 #@! TO.N,unconnected-(J1-VC45-Pad15)*
X242498048Y-51370347D03*
G04 #@! TO.N,unconnected-(J1-VC78-Pad16)*
X242498048Y-62546347D03*
D12*
G04 #@! TO.N,/P2LED1*
X228782048Y-50862347D03*
G04 #@! TO.N,Net-(J1-Pad18)*
X228782048Y-53402347D03*
G04 #@! TO.N,/P2LED0*
X228782048Y-60514347D03*
G04 #@! TO.N,Net-(J1-Pad20)*
X228782048Y-63054347D03*
D13*
G04 #@! TO.N,Net-(C20-Pad1)*
X252277048Y-48893847D03*
X252277048Y-65022847D03*
G04 #@! TD*
D10*
G04 #@! TO.N,/D2+*
G04 #@! TO.C,J2*
X233864000Y-79104000D03*
G04 #@! TO.N,/D2-*
X233864000Y-81136000D03*
G04 #@! TO.N,+3.3V*
X233864000Y-83168000D03*
G04 #@! TO.N,/D1-*
X231324000Y-80120000D03*
G04 #@! TO.N,/D1+*
X231324000Y-82152000D03*
G04 #@! TO.N,+3.3V*
X231324000Y-84184000D03*
D11*
G04 #@! TO.N,unconnected-(J2-VC12-Pad13)*
X240976000Y-72500000D03*
G04 #@! TO.N,unconnected-(J2-VC36-Pad14)*
X240976000Y-83676000D03*
G04 #@! TO.N,48V*
X242500000Y-72500000D03*
G04 #@! TO.N,V-*
X242500000Y-83676000D03*
D12*
G04 #@! TO.N,/P1LED1*
X228784000Y-71992000D03*
G04 #@! TO.N,Net-(J2-Pad18)*
X228784000Y-74532000D03*
G04 #@! TO.N,/P1LED0*
X228784000Y-81644000D03*
G04 #@! TO.N,Net-(J2-Pad20)*
X228784000Y-84184000D03*
D13*
G04 #@! TO.N,Net-(C21-Pad1)*
X252279000Y-70023500D03*
X252279000Y-86152500D03*
G04 #@! TD*
D14*
G04 #@! TO.N,+3.3V*
G04 #@! TO.C,J3*
X192120000Y-78500000D03*
D15*
G04 #@! TO.N,GND*
X189580000Y-78500000D03*
G04 #@! TO.N,/SWO{slash}TRACE*
X187040000Y-78500000D03*
G04 #@! TO.N,/SWCLK*
X184500000Y-78500000D03*
G04 #@! TO.N,/SWDIO*
X181960000Y-78500000D03*
G04 #@! TD*
D16*
G04 #@! TO.N,N/C*
G04 #@! TO.C,J9*
X195220000Y-44005000D03*
D17*
X195220000Y-39825000D03*
D16*
X186580000Y-44005000D03*
D17*
X186580000Y-39825000D03*
G04 #@! TD*
D18*
G04 #@! TO.N,GND*
X186130000Y-67112500D03*
X210970000Y-84570000D03*
X185600000Y-44900000D03*
X209520000Y-50940000D03*
X247350000Y-87340000D03*
X216020000Y-76580000D03*
X209775000Y-61000000D03*
X219110000Y-70458347D03*
X209640000Y-53295000D03*
X197100000Y-39900000D03*
X223560000Y-71160000D03*
X214290000Y-93520000D03*
X196340000Y-63870000D03*
X209025000Y-60808347D03*
X182200000Y-65672500D03*
X215000000Y-43500000D03*
X216330000Y-93170000D03*
X247330000Y-66320000D03*
X216000000Y-43500000D03*
X211999228Y-43496217D03*
X190040000Y-68642500D03*
X219150000Y-73370000D03*
X180040000Y-45990000D03*
X182440000Y-44210000D03*
X216370000Y-91240000D03*
X211525000Y-76608347D03*
X214213243Y-76646757D03*
X213880000Y-91680000D03*
X186780000Y-61840000D03*
X217500200Y-62204600D03*
X211925000Y-70508347D03*
X191310000Y-61920000D03*
X215290000Y-68380000D03*
X213000000Y-43500000D03*
X213575000Y-70533347D03*
X214340000Y-90940000D03*
X199500000Y-49350000D03*
X211179171Y-66939954D03*
X191350000Y-66660000D03*
X219150000Y-69633346D03*
X211025000Y-43500000D03*
X209300000Y-69783347D03*
X218690000Y-84830000D03*
X217000000Y-43500000D03*
X219000000Y-43500000D03*
X225100000Y-49510000D03*
X220000000Y-43500000D03*
X190470000Y-59370000D03*
X214970000Y-103470000D03*
X242790000Y-40160000D03*
X201500000Y-69558347D03*
X237980000Y-86620000D03*
X218000000Y-43500000D03*
X209590000Y-55660000D03*
X225190000Y-91630000D03*
X216010000Y-90270000D03*
X223976691Y-73343309D03*
X226510000Y-69950000D03*
X184700000Y-39900000D03*
X194600000Y-46000000D03*
X233360000Y-66820000D03*
X213910000Y-90050000D03*
X214000000Y-43500000D03*
X197900000Y-47130000D03*
X213740000Y-92590000D03*
X213810000Y-94410000D03*
X178630000Y-63890000D03*
X215950000Y-92200000D03*
G04 #@! TO.N,Net-(U2-SMRXD31)*
X209410000Y-66970000D03*
G04 #@! TO.N,/TX+*
X194663036Y-50012706D03*
X200664999Y-63909999D03*
G04 #@! TO.N,+3.3V*
X229500000Y-43000000D03*
X224790000Y-83060000D03*
X229500000Y-42000000D03*
X230500000Y-43000000D03*
X247430000Y-40160000D03*
X207875000Y-74933347D03*
X227500000Y-42000000D03*
X230500000Y-42000000D03*
X224950000Y-81920000D03*
X210788156Y-72852810D03*
X235170000Y-87630000D03*
X197940000Y-63940000D03*
X180080000Y-47530000D03*
X208600000Y-64808347D03*
X190520000Y-60950000D03*
X207790000Y-88790000D03*
X204954576Y-63909564D03*
X180180000Y-63880000D03*
X211350000Y-62925000D03*
X228500000Y-42000000D03*
X230300000Y-68340000D03*
X228500000Y-43000000D03*
X210300000Y-66925000D03*
X225000000Y-54300000D03*
X205750000Y-75880000D03*
X226500000Y-43000000D03*
X219370000Y-88990000D03*
X224890000Y-62390000D03*
X203675000Y-73508347D03*
X219580000Y-77860000D03*
X187830000Y-61830000D03*
X216990000Y-78440000D03*
X210070000Y-86980000D03*
X226500000Y-42000000D03*
X231800000Y-72580000D03*
X196340000Y-47120000D03*
X191300000Y-65130000D03*
X215351898Y-71569336D03*
X227487775Y-42994683D03*
G04 #@! TO.N,/D2-*
X224524434Y-77885945D03*
G04 #@! TO.N,/D2+*
X225374434Y-77885945D03*
G04 #@! TO.N,/D1-*
X226127805Y-77262195D03*
X227607521Y-77670000D03*
G04 #@! TO.N,/D1+*
X227000521Y-76932826D03*
G04 #@! TO.N,Net-(U2-ISET)*
X214912976Y-70522367D03*
G04 #@! TO.N,+1.8V*
X212050000Y-72833347D03*
X215203399Y-69253399D03*
G04 #@! TO.N,/RX2-*
X225600000Y-66505000D03*
G04 #@! TO.N,/RX2+*
X225600000Y-67355000D03*
X221620000Y-69090000D03*
X219725600Y-68406773D03*
G04 #@! TO.N,/REF_CLK*
X211220000Y-71120000D03*
X193880000Y-65815000D03*
G04 #@! TO.N,Net-(U2-SMTXD33{slash}EN_REFCLKO_3)*
X213374999Y-66762889D03*
G04 #@! TO.N,Net-(U2-SMTXD32)*
X211975000Y-66858347D03*
G04 #@! TO.N,Net-(U2-SMTXC3{slash}REFCLKI_3)*
X196036371Y-66383629D03*
X208000000Y-62880000D03*
G04 #@! TO.N,Net-(U2-SMRXDV3)*
X207450000Y-64833347D03*
G04 #@! TO.N,Net-(U2-SMRXD33{slash}REFCLKO_3)*
X206894299Y-67184854D03*
G04 #@! TO.N,Net-(U2-SMRXD32)*
X209550000Y-68033347D03*
G04 #@! TO.N,Net-(U2-SMRXD30)*
X210230000Y-69695000D03*
G04 #@! TO.N,/Lost Connect*
X204650000Y-72583347D03*
G04 #@! TO.N,/Clock*
X210810000Y-87520000D03*
X207950000Y-87420000D03*
G04 #@! TO.N,/Data*
X181950000Y-58050000D03*
X208800000Y-74033347D03*
G04 #@! TO.N,/P1LED1*
X221820000Y-81930000D03*
G04 #@! TO.N,/P2LED1*
X213712976Y-72235019D03*
X225060000Y-51320000D03*
G04 #@! TO.N,/P2LED0*
X225080373Y-61450373D03*
X214060328Y-72990883D03*
G04 #@! TO.N,/TX_EN*
X197274099Y-60702399D03*
X194520000Y-52050000D03*
G04 #@! TO.N,/TX-*
X194750000Y-49040000D03*
X199865000Y-63710000D03*
G04 #@! TO.N,/SWO{slash}TRACE*
X178700000Y-56100000D03*
X183900000Y-70600000D03*
G04 #@! TO.N,/SWCLK*
X183200000Y-69700000D03*
X181908831Y-52302327D03*
G04 #@! TO.N,/SWDIO*
X183800000Y-49400000D03*
X180500000Y-65800000D03*
G04 #@! TO.N,Net-(Q1-G)*
X218180000Y-102710000D03*
X216760000Y-95950000D03*
G04 #@! TO.N,/CRS_DV*
X214020000Y-60240000D03*
X201170000Y-61730000D03*
G04 #@! TD*
G04 #@! TA.AperFunction,Conductor*
G04 #@! TO.N,GND*
G36*
X254742539Y-37720185D02*
G01*
X254788294Y-37772989D01*
X254799500Y-37824500D01*
X254799500Y-104675500D01*
X254779815Y-104742539D01*
X254727011Y-104788294D01*
X254675500Y-104799500D01*
X177824500Y-104799500D01*
X177757461Y-104779815D01*
X177711706Y-104727011D01*
X177700500Y-104675500D01*
X177700500Y-102631153D01*
X217379500Y-102631153D01*
X217379500Y-102788846D01*
X217410261Y-102943489D01*
X217410264Y-102943501D01*
X217470602Y-103089172D01*
X217470609Y-103089185D01*
X217558210Y-103220288D01*
X217558213Y-103220292D01*
X217669707Y-103331786D01*
X217669711Y-103331789D01*
X217800814Y-103419390D01*
X217800827Y-103419397D01*
X217946498Y-103479735D01*
X217946503Y-103479737D01*
X218101153Y-103510499D01*
X218101156Y-103510500D01*
X218101158Y-103510500D01*
X218258844Y-103510500D01*
X218258845Y-103510499D01*
X218413497Y-103479737D01*
X218559179Y-103419394D01*
X218690289Y-103331789D01*
X218801789Y-103220289D01*
X218889394Y-103089179D01*
X218949737Y-102943497D01*
X218980500Y-102788842D01*
X218980500Y-102631158D01*
X218980500Y-102631155D01*
X218980499Y-102631153D01*
X218949738Y-102476510D01*
X218949737Y-102476503D01*
X218949735Y-102476498D01*
X218889397Y-102330827D01*
X218889390Y-102330814D01*
X218801789Y-102199711D01*
X218801786Y-102199707D01*
X218690292Y-102088213D01*
X218690288Y-102088210D01*
X218559185Y-102000609D01*
X218559172Y-102000602D01*
X218413501Y-101940264D01*
X218413489Y-101940261D01*
X218258845Y-101909500D01*
X218258842Y-101909500D01*
X218101158Y-101909500D01*
X218101155Y-101909500D01*
X217946510Y-101940261D01*
X217946498Y-101940264D01*
X217800827Y-102000602D01*
X217800814Y-102000609D01*
X217669711Y-102088210D01*
X217669707Y-102088213D01*
X217558213Y-102199707D01*
X217558210Y-102199711D01*
X217470609Y-102330814D01*
X217470602Y-102330827D01*
X217410264Y-102476498D01*
X217410261Y-102476510D01*
X217379500Y-102631153D01*
X177700500Y-102631153D01*
X177700500Y-95871153D01*
X215959500Y-95871153D01*
X215959500Y-96028846D01*
X215990261Y-96183489D01*
X215990264Y-96183501D01*
X216050602Y-96329172D01*
X216050609Y-96329185D01*
X216138210Y-96460288D01*
X216138213Y-96460292D01*
X216249707Y-96571786D01*
X216249711Y-96571789D01*
X216380814Y-96659390D01*
X216380827Y-96659397D01*
X216526498Y-96719735D01*
X216526503Y-96719737D01*
X216681153Y-96750499D01*
X216681156Y-96750500D01*
X216681158Y-96750500D01*
X216838844Y-96750500D01*
X216838845Y-96750499D01*
X216993497Y-96719737D01*
X217139179Y-96659394D01*
X217270289Y-96571789D01*
X217381789Y-96460289D01*
X217469394Y-96329179D01*
X217529737Y-96183497D01*
X217560500Y-96028842D01*
X217560500Y-95871158D01*
X217560500Y-95871155D01*
X217560499Y-95871153D01*
X217529738Y-95716510D01*
X217529737Y-95716503D01*
X217529735Y-95716498D01*
X217469397Y-95570827D01*
X217469390Y-95570814D01*
X217381789Y-95439711D01*
X217381786Y-95439707D01*
X217270292Y-95328213D01*
X217270288Y-95328210D01*
X217139185Y-95240609D01*
X217139172Y-95240602D01*
X216993501Y-95180264D01*
X216993489Y-95180261D01*
X216838845Y-95149500D01*
X216838842Y-95149500D01*
X216681158Y-95149500D01*
X216681155Y-95149500D01*
X216526510Y-95180261D01*
X216526498Y-95180264D01*
X216380827Y-95240602D01*
X216380814Y-95240609D01*
X216249711Y-95328210D01*
X216249707Y-95328213D01*
X216138213Y-95439707D01*
X216138210Y-95439711D01*
X216050609Y-95570814D01*
X216050602Y-95570827D01*
X215990264Y-95716498D01*
X215990261Y-95716510D01*
X215959500Y-95871153D01*
X177700500Y-95871153D01*
X177700500Y-88711153D01*
X206989500Y-88711153D01*
X206989500Y-88868846D01*
X207020261Y-89023489D01*
X207020264Y-89023501D01*
X207080602Y-89169172D01*
X207080609Y-89169185D01*
X207168210Y-89300288D01*
X207168213Y-89300292D01*
X207279707Y-89411786D01*
X207279711Y-89411789D01*
X207410814Y-89499390D01*
X207410827Y-89499397D01*
X207556498Y-89559735D01*
X207556503Y-89559737D01*
X207711153Y-89590499D01*
X207711156Y-89590500D01*
X207711158Y-89590500D01*
X207868844Y-89590500D01*
X207868845Y-89590499D01*
X208023497Y-89559737D01*
X208169179Y-89499394D01*
X208300289Y-89411789D01*
X208411789Y-89300289D01*
X208499394Y-89169179D01*
X208559737Y-89023497D01*
X208582083Y-88911158D01*
X208582084Y-88911153D01*
X218569500Y-88911153D01*
X218569500Y-89068846D01*
X218600261Y-89223489D01*
X218600264Y-89223501D01*
X218660602Y-89369172D01*
X218660609Y-89369185D01*
X218748210Y-89500288D01*
X218748213Y-89500292D01*
X218859707Y-89611786D01*
X218859711Y-89611789D01*
X218990814Y-89699390D01*
X218990827Y-89699397D01*
X219136498Y-89759735D01*
X219136503Y-89759737D01*
X219291153Y-89790499D01*
X219291156Y-89790500D01*
X219291158Y-89790500D01*
X219448844Y-89790500D01*
X219448845Y-89790499D01*
X219603497Y-89759737D01*
X219749179Y-89699394D01*
X219880289Y-89611789D01*
X219991789Y-89500289D01*
X220079394Y-89369179D01*
X220139737Y-89223497D01*
X220170500Y-89068842D01*
X220170500Y-88911158D01*
X220170500Y-88911155D01*
X220170499Y-88911153D01*
X220164476Y-88880874D01*
X220139737Y-88756503D01*
X220120955Y-88711158D01*
X220079397Y-88610827D01*
X220079390Y-88610814D01*
X219991789Y-88479711D01*
X219991786Y-88479707D01*
X219880292Y-88368213D01*
X219880288Y-88368210D01*
X219749185Y-88280609D01*
X219749172Y-88280602D01*
X219603501Y-88220264D01*
X219603489Y-88220261D01*
X219448845Y-88189500D01*
X219448842Y-88189500D01*
X219291158Y-88189500D01*
X219291155Y-88189500D01*
X219136510Y-88220261D01*
X219136498Y-88220264D01*
X218990827Y-88280602D01*
X218990814Y-88280609D01*
X218859711Y-88368210D01*
X218859707Y-88368213D01*
X218748213Y-88479707D01*
X218748210Y-88479711D01*
X218660609Y-88610814D01*
X218660602Y-88610827D01*
X218600264Y-88756498D01*
X218600261Y-88756510D01*
X218569500Y-88911153D01*
X208582084Y-88911153D01*
X208588107Y-88880875D01*
X208588107Y-88880874D01*
X208590500Y-88868844D01*
X208590500Y-88711155D01*
X208590499Y-88711153D01*
X208570543Y-88610827D01*
X208559737Y-88556503D01*
X208527929Y-88479711D01*
X208499397Y-88410827D01*
X208499390Y-88410814D01*
X208411789Y-88279711D01*
X208411786Y-88279707D01*
X208395432Y-88263353D01*
X208361947Y-88202030D01*
X208366931Y-88132338D01*
X208408803Y-88076405D01*
X208414214Y-88072575D01*
X208460289Y-88041789D01*
X208571789Y-87930289D01*
X208659394Y-87799179D01*
X208667074Y-87780639D01*
X208696812Y-87708844D01*
X208719737Y-87653497D01*
X208750500Y-87498842D01*
X208750500Y-87341158D01*
X208750500Y-87341155D01*
X208750499Y-87341153D01*
X208739627Y-87286498D01*
X208719737Y-87186503D01*
X208692071Y-87119711D01*
X208659397Y-87040827D01*
X208659390Y-87040814D01*
X208608036Y-86963957D01*
X208571789Y-86909711D01*
X208571786Y-86909707D01*
X208563232Y-86901153D01*
X209269500Y-86901153D01*
X209269500Y-87058846D01*
X209300261Y-87213489D01*
X209300264Y-87213501D01*
X209360602Y-87359172D01*
X209360609Y-87359185D01*
X209448210Y-87490288D01*
X209448213Y-87490292D01*
X209559707Y-87601786D01*
X209559711Y-87601789D01*
X209690814Y-87689390D01*
X209690827Y-87689397D01*
X209832966Y-87748272D01*
X209836503Y-87749737D01*
X209917835Y-87765915D01*
X209991855Y-87780639D01*
X210053766Y-87813024D01*
X210082225Y-87854804D01*
X210100602Y-87899172D01*
X210100609Y-87899185D01*
X210188210Y-88030288D01*
X210188213Y-88030292D01*
X210299707Y-88141786D01*
X210299711Y-88141789D01*
X210430814Y-88229390D01*
X210430827Y-88229397D01*
X210554466Y-88280609D01*
X210576503Y-88289737D01*
X210731153Y-88320499D01*
X210731156Y-88320500D01*
X210731158Y-88320500D01*
X210888844Y-88320500D01*
X210888845Y-88320499D01*
X211043497Y-88289737D01*
X211189179Y-88229394D01*
X211320289Y-88141789D01*
X211431789Y-88030289D01*
X211519394Y-87899179D01*
X211579737Y-87753497D01*
X211610500Y-87598842D01*
X211610500Y-87551153D01*
X234369500Y-87551153D01*
X234369500Y-87708846D01*
X234400261Y-87863489D01*
X234400264Y-87863501D01*
X234460602Y-88009172D01*
X234460609Y-88009185D01*
X234548210Y-88140288D01*
X234548213Y-88140292D01*
X234659707Y-88251786D01*
X234659711Y-88251789D01*
X234790814Y-88339390D01*
X234790827Y-88339397D01*
X234936498Y-88399735D01*
X234936503Y-88399737D01*
X235091153Y-88430499D01*
X235091156Y-88430500D01*
X235091158Y-88430500D01*
X235248844Y-88430500D01*
X235248845Y-88430499D01*
X235403497Y-88399737D01*
X235549179Y-88339394D01*
X235680289Y-88251789D01*
X235791789Y-88140289D01*
X235879394Y-88009179D01*
X235939737Y-87863497D01*
X235970500Y-87708842D01*
X235970500Y-87551158D01*
X235970500Y-87551155D01*
X235970499Y-87551153D01*
X235960094Y-87498844D01*
X235939737Y-87396503D01*
X235939735Y-87396498D01*
X235879397Y-87250827D01*
X235879390Y-87250814D01*
X235791789Y-87119711D01*
X235791786Y-87119707D01*
X235680292Y-87008213D01*
X235680288Y-87008210D01*
X235549185Y-86920609D01*
X235549172Y-86920602D01*
X235403501Y-86860264D01*
X235403489Y-86860261D01*
X235248845Y-86829500D01*
X235248842Y-86829500D01*
X235091158Y-86829500D01*
X235091155Y-86829500D01*
X234936510Y-86860261D01*
X234936498Y-86860264D01*
X234790827Y-86920602D01*
X234790814Y-86920609D01*
X234659711Y-87008210D01*
X234659707Y-87008213D01*
X234548213Y-87119707D01*
X234548210Y-87119711D01*
X234460609Y-87250814D01*
X234460602Y-87250827D01*
X234400264Y-87396498D01*
X234400261Y-87396510D01*
X234369500Y-87551153D01*
X211610500Y-87551153D01*
X211610500Y-87441158D01*
X211610500Y-87441155D01*
X211610499Y-87441153D01*
X211601619Y-87396510D01*
X211579737Y-87286503D01*
X211538314Y-87186498D01*
X211519397Y-87140827D01*
X211519390Y-87140814D01*
X211431789Y-87009711D01*
X211431786Y-87009707D01*
X211320292Y-86898213D01*
X211320288Y-86898210D01*
X211189185Y-86810609D01*
X211189172Y-86810602D01*
X211043501Y-86750264D01*
X211043491Y-86750261D01*
X210888143Y-86719360D01*
X210826232Y-86686975D01*
X210797774Y-86645196D01*
X210779394Y-86600821D01*
X210779390Y-86600814D01*
X210691789Y-86469711D01*
X210691786Y-86469707D01*
X210580292Y-86358213D01*
X210580288Y-86358210D01*
X210449185Y-86270609D01*
X210449172Y-86270602D01*
X210303501Y-86210264D01*
X210303489Y-86210261D01*
X210148845Y-86179500D01*
X210148842Y-86179500D01*
X209991158Y-86179500D01*
X209991155Y-86179500D01*
X209836510Y-86210261D01*
X209836498Y-86210264D01*
X209690827Y-86270602D01*
X209690814Y-86270609D01*
X209559711Y-86358210D01*
X209559707Y-86358213D01*
X209448213Y-86469707D01*
X209448210Y-86469711D01*
X209360609Y-86600814D01*
X209360602Y-86600827D01*
X209300264Y-86746498D01*
X209300261Y-86746510D01*
X209269500Y-86901153D01*
X208563232Y-86901153D01*
X208460292Y-86798213D01*
X208460288Y-86798210D01*
X208329185Y-86710609D01*
X208329172Y-86710602D01*
X208183501Y-86650264D01*
X208183489Y-86650261D01*
X208028845Y-86619500D01*
X208028842Y-86619500D01*
X207871158Y-86619500D01*
X207871155Y-86619500D01*
X207716510Y-86650261D01*
X207716498Y-86650264D01*
X207570827Y-86710602D01*
X207570814Y-86710609D01*
X207439711Y-86798210D01*
X207439707Y-86798213D01*
X207328213Y-86909707D01*
X207328210Y-86909711D01*
X207240609Y-87040814D01*
X207240602Y-87040827D01*
X207180264Y-87186498D01*
X207180261Y-87186510D01*
X207149500Y-87341153D01*
X207149500Y-87498846D01*
X207180261Y-87653489D01*
X207180264Y-87653501D01*
X207240602Y-87799172D01*
X207240609Y-87799185D01*
X207328210Y-87930288D01*
X207328213Y-87930292D01*
X207344567Y-87946646D01*
X207378052Y-88007969D01*
X207373068Y-88077661D01*
X207331196Y-88133594D01*
X207325779Y-88137428D01*
X207279709Y-88168211D01*
X207168213Y-88279707D01*
X207168210Y-88279711D01*
X207080609Y-88410814D01*
X207080602Y-88410827D01*
X207020264Y-88556498D01*
X207020261Y-88556510D01*
X206989500Y-88711153D01*
X177700500Y-88711153D01*
X177700500Y-82981153D01*
X223989500Y-82981153D01*
X223989500Y-83138846D01*
X224020261Y-83293489D01*
X224020264Y-83293501D01*
X224080602Y-83439172D01*
X224080609Y-83439185D01*
X224168210Y-83570288D01*
X224168213Y-83570292D01*
X224279707Y-83681786D01*
X224279711Y-83681789D01*
X224410814Y-83769390D01*
X224410827Y-83769397D01*
X224475324Y-83796112D01*
X224556503Y-83829737D01*
X224711153Y-83860499D01*
X224711156Y-83860500D01*
X224711158Y-83860500D01*
X224868844Y-83860500D01*
X224868845Y-83860499D01*
X225023497Y-83829737D01*
X225169179Y-83769394D01*
X225300289Y-83681789D01*
X225411789Y-83570289D01*
X225499394Y-83439179D01*
X225559737Y-83293497D01*
X225590500Y-83138842D01*
X225590500Y-82981158D01*
X225590500Y-82981155D01*
X225590499Y-82981153D01*
X225576093Y-82908730D01*
X225559737Y-82826503D01*
X225551989Y-82807797D01*
X225499397Y-82680827D01*
X225499391Y-82680816D01*
X225484579Y-82658648D01*
X225463702Y-82591971D01*
X225482187Y-82524591D01*
X225499997Y-82502080D01*
X225571789Y-82430289D01*
X225659394Y-82299179D01*
X225719737Y-82153497D01*
X225750500Y-81998842D01*
X225750500Y-81841158D01*
X225750500Y-81841155D01*
X225750499Y-81841153D01*
X225719737Y-81686503D01*
X225692453Y-81620632D01*
X225675508Y-81579723D01*
X225659397Y-81540827D01*
X225659390Y-81540814D01*
X225656937Y-81537143D01*
X227426250Y-81537143D01*
X227426250Y-81750857D01*
X227437119Y-81819478D01*
X227459683Y-81961941D01*
X227525722Y-82165192D01*
X227525724Y-82165195D01*
X227622748Y-82355616D01*
X227748367Y-82528514D01*
X227899486Y-82679633D01*
X228047981Y-82787522D01*
X228072391Y-82805257D01*
X228076536Y-82807797D01*
X228075427Y-82809605D01*
X228119777Y-82851501D01*
X228136566Y-82919323D01*
X228114021Y-82985456D01*
X228075628Y-83018722D01*
X228076536Y-83020203D01*
X228072391Y-83022742D01*
X227899484Y-83148368D01*
X227748368Y-83299484D01*
X227622748Y-83472383D01*
X227525724Y-83662804D01*
X227525722Y-83662807D01*
X227459683Y-83866058D01*
X227426250Y-84077143D01*
X227426250Y-84290856D01*
X227459683Y-84501941D01*
X227525722Y-84705192D01*
X227525724Y-84705195D01*
X227622748Y-84895616D01*
X227748367Y-85068514D01*
X227899486Y-85219633D01*
X228072384Y-85345252D01*
X228262805Y-85442276D01*
X228262807Y-85442277D01*
X228364432Y-85475296D01*
X228466060Y-85508317D01*
X228677143Y-85541750D01*
X228677144Y-85541750D01*
X228890856Y-85541750D01*
X228890857Y-85541750D01*
X229101940Y-85508317D01*
X229305195Y-85442276D01*
X229495616Y-85345252D01*
X229668514Y-85219633D01*
X229819633Y-85068514D01*
X229945252Y-84895616D01*
X229996966Y-84794120D01*
X230044939Y-84743326D01*
X230112759Y-84726530D01*
X230178895Y-84749067D01*
X230217934Y-84794121D01*
X230244209Y-84845689D01*
X230244213Y-84845694D01*
X230361019Y-85006464D01*
X230501536Y-85146981D01*
X230662306Y-85263787D01*
X230749149Y-85308035D01*
X230839367Y-85354005D01*
X230839370Y-85354006D01*
X230933866Y-85384709D01*
X231028364Y-85415413D01*
X231224639Y-85446500D01*
X231224640Y-85446500D01*
X231423360Y-85446500D01*
X231423361Y-85446500D01*
X231619636Y-85415413D01*
X231808632Y-85354005D01*
X231985694Y-85263787D01*
X232146464Y-85146981D01*
X232286981Y-85006464D01*
X232403787Y-84845694D01*
X232494005Y-84668632D01*
X232555413Y-84479636D01*
X232586500Y-84283361D01*
X232586500Y-84084639D01*
X232571584Y-83990464D01*
X232560546Y-83920772D01*
X232569501Y-83851478D01*
X232614497Y-83798026D01*
X232681248Y-83777387D01*
X232748562Y-83796112D01*
X232783337Y-83828489D01*
X232810633Y-83866058D01*
X232901019Y-83990464D01*
X233041536Y-84130981D01*
X233202306Y-84247787D01*
X233222262Y-84257955D01*
X233379367Y-84338005D01*
X233379370Y-84338006D01*
X233473866Y-84368709D01*
X233568364Y-84399413D01*
X233764639Y-84430500D01*
X233764640Y-84430500D01*
X233963360Y-84430500D01*
X233963361Y-84430500D01*
X234159636Y-84399413D01*
X234348632Y-84338005D01*
X234525694Y-84247787D01*
X234686464Y-84130981D01*
X234826981Y-83990464D01*
X234943787Y-83829694D01*
X235034005Y-83652632D01*
X235041812Y-83628604D01*
X235056748Y-83582636D01*
X239789700Y-83582636D01*
X239789700Y-83769363D01*
X239804134Y-83860499D01*
X239818911Y-83953793D01*
X239876613Y-84131381D01*
X239961385Y-84297757D01*
X240071141Y-84448822D01*
X240203178Y-84580859D01*
X240354243Y-84690615D01*
X240520619Y-84775387D01*
X240698207Y-84833089D01*
X240882636Y-84862300D01*
X240882637Y-84862300D01*
X241069363Y-84862300D01*
X241069364Y-84862300D01*
X241253793Y-84833089D01*
X241431381Y-84775387D01*
X241597757Y-84690615D01*
X241665115Y-84641675D01*
X241730921Y-84618196D01*
X241798975Y-84634021D01*
X241810879Y-84641671D01*
X241878243Y-84690615D01*
X242044619Y-84775387D01*
X242222207Y-84833089D01*
X242406636Y-84862300D01*
X242406637Y-84862300D01*
X242593363Y-84862300D01*
X242593364Y-84862300D01*
X242777793Y-84833089D01*
X242955381Y-84775387D01*
X243121757Y-84690615D01*
X243272822Y-84580859D01*
X243404859Y-84448822D01*
X243499677Y-84318317D01*
X247277900Y-84318317D01*
X247277900Y-84557682D01*
X247277901Y-84557698D01*
X247309144Y-84795015D01*
X247371101Y-85026240D01*
X247462704Y-85247389D01*
X247462708Y-85247399D01*
X247582395Y-85454703D01*
X247728118Y-85644613D01*
X247728124Y-85644620D01*
X247897379Y-85813875D01*
X247897386Y-85813881D01*
X248087296Y-85959604D01*
X248294600Y-86079291D01*
X248294601Y-86079291D01*
X248294604Y-86079293D01*
X248515760Y-86170899D01*
X248746981Y-86232855D01*
X248984311Y-86264100D01*
X248984318Y-86264100D01*
X249223682Y-86264100D01*
X249223689Y-86264100D01*
X249461019Y-86232855D01*
X249692240Y-86170899D01*
X249913396Y-86079293D01*
X250120704Y-85959604D01*
X250310615Y-85813880D01*
X250418051Y-85706443D01*
X250479372Y-85672960D01*
X250549064Y-85677944D01*
X250604998Y-85719815D01*
X250629415Y-85785279D01*
X250626149Y-85819588D01*
X250626965Y-85819751D01*
X250626173Y-85823730D01*
X250597400Y-86042274D01*
X250597400Y-86262725D01*
X250626172Y-86481264D01*
X250683227Y-86694196D01*
X250767581Y-86897844D01*
X250767586Y-86897855D01*
X250877796Y-87088743D01*
X250877807Y-87088759D01*
X251011992Y-87263633D01*
X251011998Y-87263640D01*
X251167859Y-87419501D01*
X251167866Y-87419507D01*
X251196082Y-87441158D01*
X251342749Y-87553699D01*
X251342756Y-87553703D01*
X251533644Y-87663913D01*
X251533649Y-87663915D01*
X251533652Y-87663917D01*
X251737308Y-87748274D01*
X251950232Y-87805327D01*
X252168782Y-87834100D01*
X252168789Y-87834100D01*
X252389211Y-87834100D01*
X252389218Y-87834100D01*
X252607768Y-87805327D01*
X252820692Y-87748274D01*
X253024348Y-87663917D01*
X253215251Y-87553699D01*
X253390135Y-87419506D01*
X253546006Y-87263635D01*
X253680199Y-87088751D01*
X253790417Y-86897848D01*
X253874774Y-86694192D01*
X253931827Y-86481268D01*
X253960600Y-86262718D01*
X253960600Y-86042282D01*
X253931827Y-85823732D01*
X253874774Y-85610808D01*
X253790417Y-85407152D01*
X253790415Y-85407149D01*
X253790413Y-85407144D01*
X253680203Y-85216256D01*
X253680199Y-85216249D01*
X253546006Y-85041365D01*
X253546001Y-85041359D01*
X253390140Y-84885498D01*
X253390133Y-84885492D01*
X253215259Y-84751307D01*
X253215257Y-84751305D01*
X253215251Y-84751301D01*
X253215246Y-84751298D01*
X253215243Y-84751296D01*
X253024355Y-84641086D01*
X253024344Y-84641081D01*
X252820696Y-84556727D01*
X252714230Y-84528199D01*
X252607768Y-84499673D01*
X252607767Y-84499672D01*
X252607764Y-84499672D01*
X252389225Y-84470900D01*
X252389218Y-84470900D01*
X252168782Y-84470900D01*
X252168774Y-84470900D01*
X251950235Y-84499672D01*
X251737303Y-84556727D01*
X251533655Y-84641081D01*
X251533644Y-84641086D01*
X251342756Y-84751296D01*
X251342740Y-84751307D01*
X251167867Y-84885491D01*
X251094504Y-84958854D01*
X251033180Y-84992338D01*
X250963489Y-84987353D01*
X250907555Y-84945482D01*
X250883139Y-84880017D01*
X250887048Y-84839080D01*
X250898855Y-84795019D01*
X250930100Y-84557689D01*
X250930100Y-84318311D01*
X250898855Y-84080981D01*
X250836899Y-83849760D01*
X250745293Y-83628604D01*
X250739708Y-83618931D01*
X250625604Y-83421296D01*
X250479881Y-83231386D01*
X250479875Y-83231379D01*
X250310620Y-83062124D01*
X250310613Y-83062118D01*
X250120703Y-82916395D01*
X249913399Y-82796708D01*
X249913389Y-82796704D01*
X249692240Y-82705101D01*
X249601649Y-82680827D01*
X249461019Y-82643145D01*
X249461018Y-82643144D01*
X249461015Y-82643144D01*
X249223698Y-82611901D01*
X249223695Y-82611900D01*
X249223689Y-82611900D01*
X248984311Y-82611900D01*
X248984305Y-82611900D01*
X248984301Y-82611901D01*
X248746984Y-82643144D01*
X248515759Y-82705101D01*
X248294610Y-82796704D01*
X248294600Y-82796708D01*
X248087296Y-82916395D01*
X247897386Y-83062118D01*
X247897379Y-83062124D01*
X247728124Y-83231379D01*
X247728118Y-83231386D01*
X247582395Y-83421296D01*
X247462708Y-83628600D01*
X247462704Y-83628610D01*
X247371101Y-83849759D01*
X247309144Y-84080984D01*
X247277901Y-84318301D01*
X247277900Y-84318317D01*
X243499677Y-84318317D01*
X243514615Y-84297757D01*
X243599387Y-84131381D01*
X243657089Y-83953793D01*
X243686300Y-83769364D01*
X243686300Y-83582636D01*
X243657089Y-83398207D01*
X243599387Y-83220619D01*
X243514615Y-83054243D01*
X243404859Y-82903178D01*
X243272822Y-82771141D01*
X243121757Y-82661385D01*
X242955381Y-82576613D01*
X242777793Y-82518911D01*
X242777791Y-82518910D01*
X242777789Y-82518910D01*
X242649018Y-82498514D01*
X242593364Y-82489700D01*
X242406636Y-82489700D01*
X242363883Y-82496471D01*
X242222210Y-82518910D01*
X242044616Y-82576614D01*
X241878243Y-82661384D01*
X241810885Y-82710323D01*
X241745078Y-82733802D01*
X241677024Y-82717976D01*
X241665115Y-82710323D01*
X241597756Y-82661384D01*
X241431383Y-82576614D01*
X241431382Y-82576613D01*
X241431381Y-82576613D01*
X241253793Y-82518911D01*
X241253791Y-82518910D01*
X241253789Y-82518910D01*
X241125018Y-82498514D01*
X241069364Y-82489700D01*
X240882636Y-82489700D01*
X240839883Y-82496471D01*
X240698210Y-82518910D01*
X240520616Y-82576614D01*
X240354242Y-82661385D01*
X240203176Y-82771142D01*
X240071142Y-82903176D01*
X239961385Y-83054242D01*
X239876614Y-83220616D01*
X239818910Y-83398210D01*
X239789700Y-83582636D01*
X235056748Y-83582636D01*
X235070781Y-83539447D01*
X235070781Y-83539446D01*
X235092570Y-83472385D01*
X235095413Y-83463636D01*
X235126500Y-83267361D01*
X235126500Y-83068639D01*
X235095413Y-82872364D01*
X235042763Y-82710323D01*
X235034006Y-82683370D01*
X235034005Y-82683367D01*
X234965901Y-82549707D01*
X234943787Y-82506306D01*
X234826981Y-82345536D01*
X234721126Y-82239681D01*
X234687641Y-82178358D01*
X234692625Y-82108666D01*
X234721126Y-82064319D01*
X234732806Y-82052639D01*
X234826981Y-81958464D01*
X234943787Y-81797694D01*
X235034005Y-81620632D01*
X235095413Y-81431636D01*
X235126500Y-81235361D01*
X235126500Y-81036639D01*
X235095413Y-80840364D01*
X235034005Y-80651368D01*
X235034005Y-80651367D01*
X234966140Y-80518176D01*
X234943787Y-80474306D01*
X234826981Y-80313536D01*
X234721126Y-80207681D01*
X234687641Y-80146358D01*
X234692625Y-80076666D01*
X234721126Y-80032319D01*
X234732806Y-80020639D01*
X234826981Y-79926464D01*
X234943787Y-79765694D01*
X235034005Y-79588632D01*
X235095413Y-79399636D01*
X235126500Y-79203361D01*
X235126500Y-79004639D01*
X235095413Y-78808364D01*
X235057927Y-78692993D01*
X235034006Y-78619370D01*
X235034005Y-78619367D01*
X234973183Y-78499999D01*
X234943787Y-78442306D01*
X234826981Y-78281536D01*
X234686464Y-78141019D01*
X234525694Y-78024213D01*
X234478174Y-78000000D01*
X234348632Y-77933994D01*
X234348629Y-77933993D01*
X234159637Y-77872587D01*
X234028026Y-77851742D01*
X233963361Y-77841500D01*
X233764639Y-77841500D01*
X233736240Y-77845998D01*
X233568362Y-77872587D01*
X233379370Y-77933993D01*
X233379367Y-77933994D01*
X233202305Y-78024213D01*
X233041533Y-78141021D01*
X232901021Y-78281533D01*
X232784213Y-78442305D01*
X232693994Y-78619367D01*
X232693993Y-78619370D01*
X232632587Y-78808362D01*
X232601500Y-79004639D01*
X232601500Y-79203361D01*
X232601499Y-79203361D01*
X232627453Y-79367228D01*
X232618498Y-79436521D01*
X232573502Y-79489973D01*
X232506750Y-79510612D01*
X232439436Y-79491887D01*
X232404662Y-79459510D01*
X232286983Y-79297539D01*
X232286978Y-79297533D01*
X232146466Y-79157021D01*
X232146464Y-79157019D01*
X231985694Y-79040213D01*
X231808632Y-78949994D01*
X231808629Y-78949993D01*
X231619637Y-78888587D01*
X231521498Y-78873043D01*
X231423361Y-78857500D01*
X231224639Y-78857500D01*
X231159214Y-78867862D01*
X231028362Y-78888587D01*
X230839370Y-78949993D01*
X230839367Y-78949994D01*
X230662305Y-79040213D01*
X230501533Y-79157021D01*
X230361021Y-79297533D01*
X230244213Y-79458305D01*
X230153994Y-79635367D01*
X230153993Y-79635370D01*
X230092587Y-79824362D01*
X230061500Y-80020639D01*
X230061500Y-80219360D01*
X230092587Y-80415637D01*
X230153993Y-80604629D01*
X230153994Y-80604632D01*
X230232896Y-80759484D01*
X230244213Y-80781694D01*
X230361019Y-80942464D01*
X230361021Y-80942466D01*
X230466874Y-81048319D01*
X230500359Y-81109642D01*
X230495375Y-81179334D01*
X230470676Y-81219707D01*
X230468824Y-81221730D01*
X230361019Y-81329536D01*
X230325698Y-81378150D01*
X230320973Y-81383315D01*
X230296831Y-81397922D01*
X230274477Y-81415160D01*
X230267329Y-81415773D01*
X230261194Y-81419486D01*
X230232985Y-81418723D01*
X230204863Y-81421138D01*
X230198519Y-81417790D01*
X230191350Y-81417597D01*
X230168025Y-81401699D01*
X230143069Y-81388531D01*
X230139495Y-81382254D01*
X230133615Y-81378247D01*
X230123087Y-81353440D01*
X230110086Y-81330608D01*
X230109823Y-81330694D01*
X230109408Y-81329416D01*
X230108915Y-81328551D01*
X230108316Y-81326056D01*
X230042277Y-81122807D01*
X230042275Y-81122804D01*
X230021985Y-81082981D01*
X229945252Y-80932384D01*
X229819633Y-80759486D01*
X229668514Y-80608367D01*
X229495616Y-80482748D01*
X229305195Y-80385724D01*
X229305192Y-80385722D01*
X229101941Y-80319683D01*
X228996398Y-80302966D01*
X228890857Y-80286250D01*
X228677143Y-80286250D01*
X228606782Y-80297394D01*
X228466058Y-80319683D01*
X228262807Y-80385722D01*
X228262804Y-80385724D01*
X228072383Y-80482748D01*
X227899484Y-80608368D01*
X227748368Y-80759484D01*
X227622748Y-80932383D01*
X227525724Y-81122804D01*
X227525722Y-81122807D01*
X227459683Y-81326058D01*
X227445154Y-81417790D01*
X227426250Y-81537143D01*
X225656937Y-81537143D01*
X225571789Y-81409711D01*
X225571786Y-81409707D01*
X225460292Y-81298213D01*
X225460288Y-81298210D01*
X225329185Y-81210609D01*
X225329172Y-81210602D01*
X225183501Y-81150264D01*
X225183489Y-81150261D01*
X225028845Y-81119500D01*
X225028842Y-81119500D01*
X224871158Y-81119500D01*
X224871155Y-81119500D01*
X224716510Y-81150261D01*
X224716498Y-81150264D01*
X224570827Y-81210602D01*
X224570814Y-81210609D01*
X224439711Y-81298210D01*
X224439707Y-81298213D01*
X224328213Y-81409707D01*
X224328210Y-81409711D01*
X224240609Y-81540814D01*
X224240602Y-81540827D01*
X224180264Y-81686498D01*
X224180261Y-81686510D01*
X224149500Y-81841153D01*
X224149500Y-81998846D01*
X224180261Y-82153489D01*
X224180264Y-82153501D01*
X224240602Y-82299172D01*
X224240610Y-82299187D01*
X224255419Y-82321349D01*
X224276298Y-82388026D01*
X224257814Y-82455407D01*
X224239999Y-82477922D01*
X224168213Y-82549707D01*
X224168210Y-82549711D01*
X224080609Y-82680814D01*
X224080602Y-82680827D01*
X224020264Y-82826498D01*
X224020261Y-82826510D01*
X223989500Y-82981153D01*
X177700500Y-82981153D01*
X177700500Y-81851153D01*
X221019500Y-81851153D01*
X221019500Y-82008846D01*
X221050261Y-82163489D01*
X221050264Y-82163501D01*
X221110602Y-82309172D01*
X221110609Y-82309185D01*
X221198210Y-82440288D01*
X221198213Y-82440292D01*
X221309707Y-82551786D01*
X221309711Y-82551789D01*
X221440814Y-82639390D01*
X221440827Y-82639397D01*
X221546982Y-82683367D01*
X221586503Y-82699737D01*
X221741153Y-82730499D01*
X221741156Y-82730500D01*
X221741158Y-82730500D01*
X221898844Y-82730500D01*
X221898845Y-82730499D01*
X222053497Y-82699737D01*
X222199179Y-82639394D01*
X222330289Y-82551789D01*
X222441789Y-82440289D01*
X222529394Y-82309179D01*
X222589737Y-82163497D01*
X222620500Y-82008842D01*
X222620500Y-81851158D01*
X222620500Y-81851155D01*
X222620499Y-81851153D01*
X222609865Y-81797694D01*
X222589737Y-81696503D01*
X222577669Y-81667368D01*
X222529397Y-81550827D01*
X222529390Y-81550814D01*
X222441789Y-81419711D01*
X222441786Y-81419707D01*
X222330292Y-81308213D01*
X222330288Y-81308210D01*
X222199185Y-81220609D01*
X222199172Y-81220602D01*
X222053501Y-81160264D01*
X222053489Y-81160261D01*
X221898845Y-81129500D01*
X221898842Y-81129500D01*
X221741158Y-81129500D01*
X221741155Y-81129500D01*
X221586510Y-81160261D01*
X221586498Y-81160264D01*
X221440827Y-81220602D01*
X221440814Y-81220609D01*
X221309711Y-81308210D01*
X221309707Y-81308213D01*
X221198213Y-81419707D01*
X221198210Y-81419711D01*
X221110609Y-81550814D01*
X221110602Y-81550827D01*
X221050264Y-81696498D01*
X221050261Y-81696510D01*
X221019500Y-81851153D01*
X177700500Y-81851153D01*
X177700500Y-78393713D01*
X180609500Y-78393713D01*
X180609500Y-78606286D01*
X180641505Y-78808362D01*
X180642754Y-78816243D01*
X180686309Y-78950292D01*
X180708444Y-79018414D01*
X180804951Y-79207820D01*
X180929890Y-79379786D01*
X181080213Y-79530109D01*
X181252179Y-79655048D01*
X181252181Y-79655049D01*
X181252184Y-79655051D01*
X181441588Y-79751557D01*
X181643757Y-79817246D01*
X181853713Y-79850500D01*
X181853714Y-79850500D01*
X182066286Y-79850500D01*
X182066287Y-79850500D01*
X182276243Y-79817246D01*
X182478412Y-79751557D01*
X182667816Y-79655051D01*
X182754138Y-79592335D01*
X182839786Y-79530109D01*
X182839788Y-79530106D01*
X182839792Y-79530104D01*
X182990104Y-79379792D01*
X182990106Y-79379788D01*
X182990109Y-79379786D01*
X183115048Y-79207820D01*
X183115047Y-79207820D01*
X183115051Y-79207816D01*
X183119514Y-79199054D01*
X183167488Y-79148259D01*
X183235308Y-79131463D01*
X183301444Y-79153999D01*
X183340486Y-79199056D01*
X183344951Y-79207820D01*
X183469890Y-79379786D01*
X183620213Y-79530109D01*
X183792179Y-79655048D01*
X183792181Y-79655049D01*
X183792184Y-79655051D01*
X183981588Y-79751557D01*
X184183757Y-79817246D01*
X184393713Y-79850500D01*
X184393714Y-79850500D01*
X184606286Y-79850500D01*
X184606287Y-79850500D01*
X184816243Y-79817246D01*
X185018412Y-79751557D01*
X185207816Y-79655051D01*
X185294138Y-79592335D01*
X185379786Y-79530109D01*
X185379788Y-79530106D01*
X185379792Y-79530104D01*
X185530104Y-79379792D01*
X185530106Y-79379788D01*
X185530109Y-79379786D01*
X185655048Y-79207820D01*
X185655047Y-79207820D01*
X185655051Y-79207816D01*
X185659514Y-79199054D01*
X185707488Y-79148259D01*
X185775308Y-79131463D01*
X185841444Y-79153999D01*
X185880486Y-79199056D01*
X185884951Y-79207820D01*
X186009890Y-79379786D01*
X186160213Y-79530109D01*
X186332179Y-79655048D01*
X186332181Y-79655049D01*
X186332184Y-79655051D01*
X186521588Y-79751557D01*
X186723757Y-79817246D01*
X186933713Y-79850500D01*
X186933714Y-79850500D01*
X187146286Y-79850500D01*
X187146287Y-79850500D01*
X187356243Y-79817246D01*
X187558412Y-79751557D01*
X187747816Y-79655051D01*
X187834138Y-79592335D01*
X187919786Y-79530109D01*
X187919788Y-79530106D01*
X187919792Y-79530104D01*
X188070104Y-79379792D01*
X188070106Y-79379788D01*
X188070109Y-79379786D01*
X188137515Y-79287007D01*
X188195051Y-79207816D01*
X188199793Y-79198508D01*
X188247763Y-79147711D01*
X188315583Y-79130911D01*
X188381719Y-79153445D01*
X188420763Y-79198500D01*
X188425373Y-79207547D01*
X188464728Y-79261716D01*
X189097037Y-78629408D01*
X189114075Y-78692993D01*
X189179901Y-78807007D01*
X189272993Y-78900099D01*
X189387007Y-78965925D01*
X189450590Y-78982962D01*
X188818282Y-79615269D01*
X188818282Y-79615270D01*
X188872449Y-79654624D01*
X189061782Y-79751095D01*
X189263870Y-79816757D01*
X189473754Y-79850000D01*
X189686246Y-79850000D01*
X189896127Y-79816757D01*
X189896130Y-79816757D01*
X190098217Y-79751095D01*
X190287554Y-79654622D01*
X190341716Y-79615270D01*
X190341717Y-79615270D01*
X189709408Y-78982962D01*
X189772993Y-78965925D01*
X189887007Y-78900099D01*
X189980099Y-78807007D01*
X190045925Y-78692993D01*
X190062962Y-78629408D01*
X190733181Y-79299628D01*
X190766666Y-79360951D01*
X190769500Y-79387300D01*
X190769500Y-79397865D01*
X190769501Y-79397876D01*
X190775908Y-79457483D01*
X190826202Y-79592328D01*
X190826206Y-79592335D01*
X190912452Y-79707544D01*
X190912455Y-79707547D01*
X191027664Y-79793793D01*
X191027671Y-79793797D01*
X191162517Y-79844091D01*
X191162516Y-79844091D01*
X191169444Y-79844835D01*
X191222127Y-79850500D01*
X193017872Y-79850499D01*
X193077483Y-79844091D01*
X193212331Y-79793796D01*
X193327546Y-79707546D01*
X193413796Y-79592331D01*
X193464091Y-79457483D01*
X193470500Y-79397873D01*
X193470499Y-78361153D01*
X216189500Y-78361153D01*
X216189500Y-78518846D01*
X216220261Y-78673489D01*
X216220264Y-78673501D01*
X216280602Y-78819172D01*
X216280609Y-78819185D01*
X216368210Y-78950288D01*
X216368213Y-78950292D01*
X216479707Y-79061786D01*
X216479711Y-79061789D01*
X216610814Y-79149390D01*
X216610827Y-79149397D01*
X216741107Y-79203360D01*
X216756503Y-79209737D01*
X216911153Y-79240499D01*
X216911156Y-79240500D01*
X216911158Y-79240500D01*
X217068844Y-79240500D01*
X217068845Y-79240499D01*
X217223497Y-79209737D01*
X217350766Y-79157021D01*
X217369172Y-79149397D01*
X217369172Y-79149396D01*
X217369179Y-79149394D01*
X217500289Y-79061789D01*
X217611789Y-78950289D01*
X217699394Y-78819179D01*
X217759737Y-78673497D01*
X217790500Y-78518842D01*
X217790500Y-78361158D01*
X217790500Y-78361155D01*
X217790499Y-78361153D01*
X217759737Y-78206503D01*
X217750317Y-78183760D01*
X217699397Y-78060827D01*
X217699390Y-78060814D01*
X217611789Y-77929711D01*
X217611786Y-77929707D01*
X217500292Y-77818213D01*
X217500288Y-77818210D01*
X217444829Y-77781153D01*
X218779500Y-77781153D01*
X218779500Y-77938846D01*
X218810261Y-78093489D01*
X218810264Y-78093501D01*
X218870602Y-78239172D01*
X218870609Y-78239185D01*
X218958210Y-78370288D01*
X218958213Y-78370292D01*
X219069707Y-78481786D01*
X219069711Y-78481789D01*
X219200814Y-78569390D01*
X219200827Y-78569397D01*
X219346498Y-78629735D01*
X219346503Y-78629737D01*
X219501153Y-78660499D01*
X219501156Y-78660500D01*
X219501158Y-78660500D01*
X219658844Y-78660500D01*
X219658845Y-78660499D01*
X219813497Y-78629737D01*
X219959179Y-78569394D01*
X220090289Y-78481789D01*
X220201789Y-78370289D01*
X220289394Y-78239179D01*
X220349737Y-78093497D01*
X220380500Y-77938842D01*
X220380500Y-77807098D01*
X223723934Y-77807098D01*
X223723934Y-77964791D01*
X223754695Y-78119434D01*
X223754698Y-78119446D01*
X223815036Y-78265117D01*
X223815043Y-78265130D01*
X223902644Y-78396233D01*
X223902647Y-78396237D01*
X224014141Y-78507731D01*
X224014145Y-78507734D01*
X224145248Y-78595335D01*
X224145261Y-78595342D01*
X224228302Y-78629738D01*
X224290937Y-78655682D01*
X224380519Y-78673501D01*
X224445587Y-78686444D01*
X224445590Y-78686445D01*
X224445592Y-78686445D01*
X224603278Y-78686445D01*
X224603279Y-78686444D01*
X224757931Y-78655682D01*
X224845597Y-78619370D01*
X224901982Y-78596015D01*
X224971451Y-78588546D01*
X224996886Y-78596015D01*
X225078302Y-78629738D01*
X225140937Y-78655682D01*
X225230519Y-78673501D01*
X225295587Y-78686444D01*
X225295590Y-78686445D01*
X225295592Y-78686445D01*
X225453278Y-78686445D01*
X225453279Y-78686444D01*
X225607931Y-78655682D01*
X225753613Y-78595339D01*
X225884723Y-78507734D01*
X225996223Y-78396234D01*
X226083828Y-78265124D01*
X226138813Y-78132376D01*
X226182653Y-78077973D01*
X226229181Y-78058212D01*
X226361302Y-78031932D01*
X226506984Y-77971589D01*
X226638094Y-77883984D01*
X226642352Y-77879726D01*
X226703673Y-77846237D01*
X226773365Y-77851218D01*
X226829301Y-77893086D01*
X226844599Y-77919950D01*
X226898123Y-78049172D01*
X226898130Y-78049185D01*
X226985731Y-78180288D01*
X226985734Y-78180292D01*
X227097228Y-78291786D01*
X227097232Y-78291789D01*
X227228335Y-78379390D01*
X227228348Y-78379397D01*
X227374019Y-78439735D01*
X227374024Y-78439737D01*
X227528674Y-78470499D01*
X227528677Y-78470500D01*
X227528679Y-78470500D01*
X227686365Y-78470500D01*
X227686366Y-78470499D01*
X227841018Y-78439737D01*
X227986700Y-78379394D01*
X228117810Y-78291789D01*
X228229310Y-78180289D01*
X228316915Y-78049179D01*
X228324059Y-78031933D01*
X228349052Y-77971592D01*
X228377258Y-77903497D01*
X228408021Y-77748842D01*
X228408021Y-77591158D01*
X228408021Y-77591155D01*
X228408020Y-77591153D01*
X228391233Y-77506759D01*
X228377258Y-77436503D01*
X228377256Y-77436498D01*
X228316918Y-77290827D01*
X228316911Y-77290814D01*
X228229310Y-77159711D01*
X228229307Y-77159707D01*
X228117813Y-77048213D01*
X228117809Y-77048210D01*
X227986706Y-76960609D01*
X227986693Y-76960602D01*
X227868696Y-76911727D01*
X227814292Y-76867886D01*
X227794531Y-76821357D01*
X227770259Y-76699336D01*
X227770258Y-76699329D01*
X227762459Y-76680500D01*
X227709918Y-76553653D01*
X227709911Y-76553640D01*
X227622310Y-76422537D01*
X227622307Y-76422533D01*
X227510813Y-76311039D01*
X227510809Y-76311036D01*
X227379706Y-76223435D01*
X227379693Y-76223428D01*
X227234022Y-76163090D01*
X227234010Y-76163087D01*
X227079366Y-76132326D01*
X227079363Y-76132326D01*
X226921679Y-76132326D01*
X226921676Y-76132326D01*
X226767031Y-76163087D01*
X226767019Y-76163090D01*
X226621348Y-76223428D01*
X226621335Y-76223435D01*
X226490232Y-76311036D01*
X226490228Y-76311039D01*
X226378738Y-76422530D01*
X226374874Y-76427239D01*
X226372897Y-76425617D01*
X226327794Y-76463261D01*
X226258464Y-76471923D01*
X226254189Y-76471151D01*
X226206647Y-76461695D01*
X226048963Y-76461695D01*
X226048960Y-76461695D01*
X225894315Y-76492456D01*
X225894303Y-76492459D01*
X225748632Y-76552797D01*
X225748619Y-76552804D01*
X225617516Y-76640405D01*
X225617512Y-76640408D01*
X225506018Y-76751902D01*
X225506015Y-76751906D01*
X225418414Y-76883009D01*
X225418409Y-76883019D01*
X225363425Y-77015763D01*
X225319584Y-77070166D01*
X225273056Y-77089927D01*
X225140942Y-77116206D01*
X225140932Y-77116209D01*
X224996886Y-77175875D01*
X224927417Y-77183344D01*
X224901982Y-77175875D01*
X224757935Y-77116209D01*
X224757923Y-77116206D01*
X224603279Y-77085445D01*
X224603276Y-77085445D01*
X224445592Y-77085445D01*
X224445589Y-77085445D01*
X224290944Y-77116206D01*
X224290932Y-77116209D01*
X224145261Y-77176547D01*
X224145248Y-77176554D01*
X224014145Y-77264155D01*
X224014141Y-77264158D01*
X223902647Y-77375652D01*
X223902644Y-77375656D01*
X223815043Y-77506759D01*
X223815036Y-77506772D01*
X223754698Y-77652443D01*
X223754695Y-77652455D01*
X223723934Y-77807098D01*
X220380500Y-77807098D01*
X220380500Y-77781158D01*
X220380500Y-77781155D01*
X220380499Y-77781153D01*
X220370445Y-77730609D01*
X220349737Y-77626503D01*
X220335097Y-77591158D01*
X220289397Y-77480827D01*
X220289390Y-77480814D01*
X220201789Y-77349711D01*
X220201786Y-77349707D01*
X220090292Y-77238213D01*
X220090288Y-77238210D01*
X219959185Y-77150609D01*
X219959172Y-77150602D01*
X219813501Y-77090264D01*
X219813489Y-77090261D01*
X219658845Y-77059500D01*
X219658842Y-77059500D01*
X219501158Y-77059500D01*
X219501155Y-77059500D01*
X219346510Y-77090261D01*
X219346498Y-77090264D01*
X219200827Y-77150602D01*
X219200814Y-77150609D01*
X219069711Y-77238210D01*
X219069707Y-77238213D01*
X218958213Y-77349707D01*
X218958210Y-77349711D01*
X218870609Y-77480814D01*
X218870602Y-77480827D01*
X218810264Y-77626498D01*
X218810261Y-77626510D01*
X218779500Y-77781153D01*
X217444829Y-77781153D01*
X217369185Y-77730609D01*
X217369172Y-77730602D01*
X217223501Y-77670264D01*
X217223489Y-77670261D01*
X217068845Y-77639500D01*
X217068842Y-77639500D01*
X216911158Y-77639500D01*
X216911155Y-77639500D01*
X216756510Y-77670261D01*
X216756498Y-77670264D01*
X216610827Y-77730602D01*
X216610814Y-77730609D01*
X216479711Y-77818210D01*
X216479707Y-77818213D01*
X216368213Y-77929707D01*
X216368210Y-77929711D01*
X216280609Y-78060814D01*
X216280602Y-78060827D01*
X216220264Y-78206498D01*
X216220261Y-78206510D01*
X216189500Y-78361153D01*
X193470499Y-78361153D01*
X193470499Y-77602128D01*
X193464091Y-77542517D01*
X193441077Y-77480814D01*
X193413797Y-77407671D01*
X193413793Y-77407664D01*
X193327547Y-77292455D01*
X193327544Y-77292452D01*
X193212335Y-77206206D01*
X193212328Y-77206202D01*
X193077482Y-77155908D01*
X193077483Y-77155908D01*
X193017883Y-77149501D01*
X193017881Y-77149500D01*
X193017873Y-77149500D01*
X193017864Y-77149500D01*
X191222129Y-77149500D01*
X191222123Y-77149501D01*
X191162516Y-77155908D01*
X191027671Y-77206202D01*
X191027664Y-77206206D01*
X190912455Y-77292452D01*
X190912452Y-77292455D01*
X190826206Y-77407664D01*
X190826202Y-77407671D01*
X190775908Y-77542517D01*
X190770679Y-77591158D01*
X190769501Y-77602123D01*
X190769500Y-77602135D01*
X190769500Y-77612690D01*
X190749815Y-77679729D01*
X190733181Y-77700371D01*
X190062962Y-78370590D01*
X190045925Y-78307007D01*
X189980099Y-78192993D01*
X189887007Y-78099901D01*
X189772993Y-78034075D01*
X189709409Y-78017037D01*
X190341716Y-77384728D01*
X190287550Y-77345375D01*
X190098217Y-77248904D01*
X189896129Y-77183242D01*
X189686246Y-77150000D01*
X189473754Y-77150000D01*
X189263872Y-77183242D01*
X189263869Y-77183242D01*
X189061782Y-77248904D01*
X188872439Y-77345380D01*
X188818282Y-77384727D01*
X188818282Y-77384728D01*
X189450591Y-78017037D01*
X189387007Y-78034075D01*
X189272993Y-78099901D01*
X189179901Y-78192993D01*
X189114075Y-78307007D01*
X189097037Y-78370590D01*
X188464728Y-77738282D01*
X188464727Y-77738282D01*
X188425380Y-77792440D01*
X188425376Y-77792446D01*
X188420760Y-77801505D01*
X188372781Y-77852297D01*
X188304959Y-77869087D01*
X188238826Y-77846543D01*
X188199794Y-77801493D01*
X188195051Y-77792184D01*
X188195049Y-77792181D01*
X188195048Y-77792179D01*
X188070109Y-77620213D01*
X187919786Y-77469890D01*
X187747820Y-77344951D01*
X187558414Y-77248444D01*
X187558413Y-77248443D01*
X187558412Y-77248443D01*
X187356243Y-77182754D01*
X187356241Y-77182753D01*
X187356240Y-77182753D01*
X187194957Y-77157208D01*
X187146287Y-77149500D01*
X186933713Y-77149500D01*
X186885042Y-77157208D01*
X186723760Y-77182753D01*
X186521585Y-77248444D01*
X186332179Y-77344951D01*
X186160213Y-77469890D01*
X186009890Y-77620213D01*
X185884949Y-77792182D01*
X185880484Y-77800946D01*
X185832509Y-77851742D01*
X185764688Y-77868536D01*
X185698553Y-77845998D01*
X185659516Y-77800946D01*
X185655050Y-77792182D01*
X185530109Y-77620213D01*
X185379786Y-77469890D01*
X185207820Y-77344951D01*
X185018414Y-77248444D01*
X185018413Y-77248443D01*
X185018412Y-77248443D01*
X184816243Y-77182754D01*
X184816241Y-77182753D01*
X184816240Y-77182753D01*
X184654957Y-77157208D01*
X184606287Y-77149500D01*
X184393713Y-77149500D01*
X184345042Y-77157208D01*
X184183760Y-77182753D01*
X183981585Y-77248444D01*
X183792179Y-77344951D01*
X183620213Y-77469890D01*
X183469890Y-77620213D01*
X183344949Y-77792182D01*
X183340484Y-77800946D01*
X183292509Y-77851742D01*
X183224688Y-77868536D01*
X183158553Y-77845998D01*
X183119516Y-77800946D01*
X183115050Y-77792182D01*
X182990109Y-77620213D01*
X182839786Y-77469890D01*
X182667820Y-77344951D01*
X182478414Y-77248444D01*
X182478413Y-77248443D01*
X182478412Y-77248443D01*
X182276243Y-77182754D01*
X182276241Y-77182753D01*
X182276240Y-77182753D01*
X182114957Y-77157208D01*
X182066287Y-77149500D01*
X181853713Y-77149500D01*
X181805042Y-77157208D01*
X181643760Y-77182753D01*
X181441585Y-77248444D01*
X181252179Y-77344951D01*
X181080213Y-77469890D01*
X180929890Y-77620213D01*
X180804951Y-77792179D01*
X180708444Y-77981585D01*
X180642753Y-78183760D01*
X180609500Y-78393713D01*
X177700500Y-78393713D01*
X177700500Y-75801153D01*
X204949500Y-75801153D01*
X204949500Y-75958846D01*
X204980261Y-76113489D01*
X204980264Y-76113501D01*
X205040602Y-76259172D01*
X205040609Y-76259185D01*
X205128210Y-76390288D01*
X205128213Y-76390292D01*
X205239707Y-76501786D01*
X205239711Y-76501789D01*
X205370814Y-76589390D01*
X205370827Y-76589397D01*
X205516498Y-76649735D01*
X205516503Y-76649737D01*
X205671153Y-76680499D01*
X205671156Y-76680500D01*
X205671158Y-76680500D01*
X205828844Y-76680500D01*
X205828845Y-76680499D01*
X205983497Y-76649737D01*
X206129179Y-76589394D01*
X206260289Y-76501789D01*
X206371789Y-76390289D01*
X206459394Y-76259179D01*
X206519737Y-76113497D01*
X206550500Y-75958842D01*
X206550500Y-75801158D01*
X206550500Y-75801155D01*
X206550499Y-75801153D01*
X206530992Y-75703085D01*
X206519737Y-75646503D01*
X206518177Y-75642737D01*
X206459397Y-75500827D01*
X206459390Y-75500814D01*
X206371789Y-75369711D01*
X206371786Y-75369707D01*
X206260292Y-75258213D01*
X206260288Y-75258210D01*
X206129185Y-75170609D01*
X206129172Y-75170602D01*
X205983501Y-75110264D01*
X205983489Y-75110261D01*
X205828845Y-75079500D01*
X205828842Y-75079500D01*
X205671158Y-75079500D01*
X205671155Y-75079500D01*
X205516510Y-75110261D01*
X205516498Y-75110264D01*
X205370827Y-75170602D01*
X205370814Y-75170609D01*
X205239711Y-75258210D01*
X205239707Y-75258213D01*
X205128213Y-75369707D01*
X205128210Y-75369711D01*
X205040609Y-75500814D01*
X205040602Y-75500827D01*
X204980264Y-75646498D01*
X204980261Y-75646510D01*
X204949500Y-75801153D01*
X177700500Y-75801153D01*
X177700500Y-74854500D01*
X207074500Y-74854500D01*
X207074500Y-75012193D01*
X207105261Y-75166836D01*
X207105264Y-75166848D01*
X207165602Y-75312519D01*
X207165609Y-75312532D01*
X207253210Y-75443635D01*
X207253213Y-75443639D01*
X207364707Y-75555133D01*
X207364711Y-75555136D01*
X207495814Y-75642737D01*
X207495827Y-75642744D01*
X207617764Y-75693251D01*
X207641503Y-75703084D01*
X207796153Y-75733846D01*
X207796156Y-75733847D01*
X207796158Y-75733847D01*
X207953844Y-75733847D01*
X207953845Y-75733846D01*
X208108497Y-75703084D01*
X208254179Y-75642741D01*
X208385289Y-75555136D01*
X208496789Y-75443636D01*
X208584394Y-75312526D01*
X208644737Y-75166844D01*
X208675500Y-75012189D01*
X208675500Y-74957847D01*
X208695185Y-74890808D01*
X208747989Y-74845053D01*
X208799500Y-74833847D01*
X208878844Y-74833847D01*
X208878845Y-74833846D01*
X209033497Y-74803084D01*
X209179179Y-74742741D01*
X209310289Y-74655136D01*
X209421789Y-74543636D01*
X209509394Y-74412526D01*
X209569737Y-74266844D01*
X209600500Y-74112189D01*
X209600500Y-73954505D01*
X209600500Y-73954502D01*
X209600499Y-73954500D01*
X209587177Y-73887526D01*
X209569737Y-73799850D01*
X209566230Y-73791383D01*
X209509397Y-73654174D01*
X209509390Y-73654161D01*
X209421789Y-73523058D01*
X209421786Y-73523054D01*
X209310292Y-73411560D01*
X209310288Y-73411557D01*
X209179185Y-73323956D01*
X209179172Y-73323949D01*
X209033501Y-73263611D01*
X209033489Y-73263608D01*
X208878845Y-73232847D01*
X208878842Y-73232847D01*
X208721158Y-73232847D01*
X208721155Y-73232847D01*
X208566510Y-73263608D01*
X208566498Y-73263611D01*
X208420827Y-73323949D01*
X208420814Y-73323956D01*
X208289711Y-73411557D01*
X208289707Y-73411560D01*
X208178213Y-73523054D01*
X208178210Y-73523058D01*
X208090609Y-73654161D01*
X208090602Y-73654174D01*
X208030264Y-73799845D01*
X208030261Y-73799857D01*
X207999500Y-73954500D01*
X207999500Y-74008847D01*
X207979815Y-74075886D01*
X207927011Y-74121641D01*
X207875500Y-74132847D01*
X207796155Y-74132847D01*
X207641510Y-74163608D01*
X207641498Y-74163611D01*
X207495827Y-74223949D01*
X207495814Y-74223956D01*
X207364711Y-74311557D01*
X207364707Y-74311560D01*
X207253213Y-74423054D01*
X207253210Y-74423058D01*
X207165609Y-74554161D01*
X207165602Y-74554174D01*
X207105264Y-74699845D01*
X207105261Y-74699857D01*
X207074500Y-74854500D01*
X177700500Y-74854500D01*
X177700500Y-73429500D01*
X202874500Y-73429500D01*
X202874500Y-73587193D01*
X202905261Y-73741836D01*
X202905264Y-73741848D01*
X202965602Y-73887519D01*
X202965609Y-73887532D01*
X203053210Y-74018635D01*
X203053213Y-74018639D01*
X203164707Y-74130133D01*
X203164711Y-74130136D01*
X203295814Y-74217737D01*
X203295827Y-74217744D01*
X203441498Y-74278082D01*
X203441503Y-74278084D01*
X203596153Y-74308846D01*
X203596156Y-74308847D01*
X203596158Y-74308847D01*
X203753844Y-74308847D01*
X203753845Y-74308846D01*
X203908497Y-74278084D01*
X204039182Y-74223953D01*
X204054172Y-74217744D01*
X204054172Y-74217743D01*
X204054179Y-74217741D01*
X204185289Y-74130136D01*
X204296789Y-74018636D01*
X204384394Y-73887526D01*
X204444737Y-73741844D01*
X204475500Y-73587189D01*
X204475500Y-73507847D01*
X204495185Y-73440808D01*
X204547989Y-73395053D01*
X204599500Y-73383847D01*
X204728844Y-73383847D01*
X204728845Y-73383846D01*
X204883497Y-73353084D01*
X205029179Y-73292741D01*
X205160289Y-73205136D01*
X205271789Y-73093636D01*
X205359394Y-72962526D01*
X205419737Y-72816844D01*
X205450500Y-72662189D01*
X205450500Y-72504505D01*
X205450500Y-72504502D01*
X205450499Y-72504500D01*
X205434875Y-72425955D01*
X205419737Y-72349850D01*
X205416293Y-72341536D01*
X205359397Y-72204174D01*
X205359390Y-72204161D01*
X205271789Y-72073058D01*
X205271786Y-72073054D01*
X205160292Y-71961560D01*
X205160288Y-71961557D01*
X205029185Y-71873956D01*
X205029172Y-71873949D01*
X204883501Y-71813611D01*
X204883489Y-71813608D01*
X204728845Y-71782847D01*
X204728842Y-71782847D01*
X204571158Y-71782847D01*
X204571155Y-71782847D01*
X204416510Y-71813608D01*
X204416498Y-71813611D01*
X204270827Y-71873949D01*
X204270814Y-71873956D01*
X204139711Y-71961557D01*
X204139707Y-71961560D01*
X204028213Y-72073054D01*
X204028210Y-72073058D01*
X203940609Y-72204161D01*
X203940602Y-72204174D01*
X203880264Y-72349845D01*
X203880261Y-72349857D01*
X203849500Y-72504500D01*
X203849500Y-72583847D01*
X203829815Y-72650886D01*
X203777011Y-72696641D01*
X203725500Y-72707847D01*
X203596155Y-72707847D01*
X203441510Y-72738608D01*
X203441498Y-72738611D01*
X203295827Y-72798949D01*
X203295814Y-72798956D01*
X203164711Y-72886557D01*
X203164707Y-72886560D01*
X203053213Y-72998054D01*
X203053210Y-72998058D01*
X202965609Y-73129161D01*
X202965602Y-73129174D01*
X202905264Y-73274845D01*
X202905261Y-73274857D01*
X202874500Y-73429500D01*
X177700500Y-73429500D01*
X177700500Y-69621153D01*
X182399500Y-69621153D01*
X182399500Y-69778846D01*
X182430261Y-69933489D01*
X182430264Y-69933501D01*
X182490602Y-70079172D01*
X182490609Y-70079185D01*
X182578210Y-70210288D01*
X182578213Y-70210292D01*
X182689707Y-70321786D01*
X182689711Y-70321789D01*
X182820814Y-70409390D01*
X182820827Y-70409397D01*
X182903209Y-70443520D01*
X182966503Y-70469737D01*
X182999690Y-70476338D01*
X183061600Y-70508721D01*
X183096176Y-70569435D01*
X183099500Y-70597955D01*
X183099500Y-70678846D01*
X183130261Y-70833489D01*
X183130264Y-70833501D01*
X183190602Y-70979172D01*
X183190609Y-70979185D01*
X183278210Y-71110288D01*
X183278213Y-71110292D01*
X183389707Y-71221786D01*
X183389711Y-71221789D01*
X183520814Y-71309390D01*
X183520827Y-71309397D01*
X183666498Y-71369735D01*
X183666503Y-71369737D01*
X183821153Y-71400499D01*
X183821156Y-71400500D01*
X183821158Y-71400500D01*
X183978844Y-71400500D01*
X183978845Y-71400499D01*
X184133497Y-71369737D01*
X184279179Y-71309394D01*
X184410289Y-71221789D01*
X184521789Y-71110289D01*
X184609394Y-70979179D01*
X184669737Y-70833497D01*
X184700500Y-70678842D01*
X184700500Y-70521158D01*
X184700500Y-70521155D01*
X184700499Y-70521153D01*
X184695936Y-70498213D01*
X184669737Y-70366503D01*
X184663010Y-70350263D01*
X184609397Y-70220827D01*
X184609390Y-70220814D01*
X184521789Y-70089711D01*
X184521786Y-70089707D01*
X184410292Y-69978213D01*
X184410288Y-69978210D01*
X184279185Y-69890609D01*
X184279172Y-69890602D01*
X184133501Y-69830264D01*
X184133493Y-69830262D01*
X184100306Y-69823660D01*
X184038396Y-69791273D01*
X184003823Y-69730557D01*
X184000500Y-69702043D01*
X184000500Y-69621155D01*
X184000499Y-69621153D01*
X183969738Y-69466510D01*
X183969737Y-69466503D01*
X183914126Y-69332245D01*
X183909397Y-69320827D01*
X183909390Y-69320814D01*
X183821789Y-69189711D01*
X183821786Y-69189707D01*
X183710292Y-69078213D01*
X183710288Y-69078210D01*
X183579185Y-68990609D01*
X183579172Y-68990602D01*
X183433501Y-68930264D01*
X183433489Y-68930261D01*
X183278845Y-68899500D01*
X183278842Y-68899500D01*
X183121158Y-68899500D01*
X183121155Y-68899500D01*
X182966510Y-68930261D01*
X182966498Y-68930264D01*
X182820827Y-68990602D01*
X182820814Y-68990609D01*
X182689711Y-69078210D01*
X182689707Y-69078213D01*
X182578213Y-69189707D01*
X182578210Y-69189711D01*
X182490609Y-69320814D01*
X182490602Y-69320827D01*
X182430264Y-69466498D01*
X182430261Y-69466510D01*
X182399500Y-69621153D01*
X177700500Y-69621153D01*
X177700500Y-65721153D01*
X179699500Y-65721153D01*
X179699500Y-65878846D01*
X179730261Y-66033489D01*
X179730264Y-66033501D01*
X179790602Y-66179172D01*
X179790609Y-66179185D01*
X179878210Y-66310288D01*
X179878213Y-66310292D01*
X179989707Y-66421786D01*
X179989711Y-66421789D01*
X180120814Y-66509390D01*
X180120827Y-66509397D01*
X180250393Y-66563064D01*
X180266503Y-66569737D01*
X180416628Y-66599599D01*
X180421153Y-66600499D01*
X180421156Y-66600500D01*
X180421158Y-66600500D01*
X180578844Y-66600500D01*
X180578845Y-66600499D01*
X180733497Y-66569737D01*
X180879179Y-66509394D01*
X181010289Y-66421789D01*
X181121789Y-66310289D01*
X181209394Y-66179179D01*
X181269737Y-66033497D01*
X181300500Y-65878842D01*
X181300500Y-65721158D01*
X181300500Y-65721155D01*
X181300499Y-65721153D01*
X181291166Y-65674235D01*
X181269737Y-65566503D01*
X181268925Y-65564543D01*
X181209397Y-65420827D01*
X181209390Y-65420814D01*
X181121789Y-65289711D01*
X181121786Y-65289707D01*
X181010292Y-65178213D01*
X181010288Y-65178210D01*
X180965327Y-65148168D01*
X180879185Y-65090609D01*
X180879172Y-65090602D01*
X180783932Y-65051153D01*
X190499500Y-65051153D01*
X190499500Y-65208846D01*
X190530261Y-65363489D01*
X190530264Y-65363501D01*
X190590602Y-65509172D01*
X190590609Y-65509185D01*
X190678210Y-65640288D01*
X190678213Y-65640292D01*
X190789707Y-65751786D01*
X190789711Y-65751789D01*
X190920814Y-65839390D01*
X190920827Y-65839397D01*
X191066498Y-65899735D01*
X191066503Y-65899737D01*
X191221153Y-65930499D01*
X191221156Y-65930500D01*
X191221158Y-65930500D01*
X191378844Y-65930500D01*
X191378845Y-65930499D01*
X191533497Y-65899737D01*
X191679179Y-65839394D01*
X191810289Y-65751789D01*
X191825925Y-65736153D01*
X193079500Y-65736153D01*
X193079500Y-65893846D01*
X193110261Y-66048489D01*
X193110264Y-66048501D01*
X193170602Y-66194172D01*
X193170609Y-66194185D01*
X193258210Y-66325288D01*
X193258213Y-66325292D01*
X193369707Y-66436786D01*
X193369711Y-66436789D01*
X193500814Y-66524390D01*
X193500827Y-66524397D01*
X193644342Y-66583842D01*
X193646503Y-66584737D01*
X193801153Y-66615499D01*
X193801156Y-66615500D01*
X193801158Y-66615500D01*
X193958844Y-66615500D01*
X193958845Y-66615499D01*
X194113497Y-66584737D01*
X194259179Y-66524394D01*
X194390289Y-66436789D01*
X194501789Y-66325289D01*
X194515491Y-66304782D01*
X195235871Y-66304782D01*
X195235871Y-66462475D01*
X195266632Y-66617118D01*
X195266635Y-66617130D01*
X195326973Y-66762801D01*
X195326980Y-66762814D01*
X195414581Y-66893917D01*
X195414584Y-66893921D01*
X195526078Y-67005415D01*
X195526082Y-67005418D01*
X195657185Y-67093019D01*
X195657198Y-67093026D01*
X195775581Y-67142061D01*
X195802874Y-67153366D01*
X195931553Y-67178962D01*
X195957524Y-67184128D01*
X195957527Y-67184129D01*
X195957529Y-67184129D01*
X196115215Y-67184129D01*
X196115216Y-67184128D01*
X196269868Y-67153366D01*
X196384204Y-67106007D01*
X206093799Y-67106007D01*
X206093799Y-67263700D01*
X206124560Y-67418343D01*
X206124563Y-67418355D01*
X206184901Y-67564026D01*
X206184908Y-67564039D01*
X206272509Y-67695142D01*
X206272512Y-67695146D01*
X206384006Y-67806640D01*
X206384010Y-67806643D01*
X206515113Y-67894244D01*
X206515126Y-67894251D01*
X206660582Y-67954500D01*
X206660802Y-67954591D01*
X206815452Y-67985353D01*
X206815455Y-67985354D01*
X206815457Y-67985354D01*
X206973143Y-67985354D01*
X206973144Y-67985353D01*
X207127796Y-67954591D01*
X207268080Y-67896484D01*
X207273471Y-67894251D01*
X207273471Y-67894250D01*
X207273478Y-67894248D01*
X207404588Y-67806643D01*
X207516088Y-67695143D01*
X207603693Y-67564033D01*
X207664036Y-67418351D01*
X207694799Y-67263696D01*
X207694799Y-67106012D01*
X207694799Y-67106009D01*
X207694798Y-67106007D01*
X207692215Y-67093023D01*
X207664036Y-66951357D01*
X207664034Y-66951352D01*
X207656233Y-66932518D01*
X207639099Y-66891153D01*
X208609500Y-66891153D01*
X208609500Y-67048846D01*
X208640261Y-67203489D01*
X208640264Y-67203501D01*
X208700602Y-67349172D01*
X208700609Y-67349185D01*
X208788209Y-67480287D01*
X208788210Y-67480288D01*
X208788211Y-67480289D01*
X208817893Y-67509971D01*
X208851378Y-67571292D01*
X208846394Y-67640984D01*
X208842400Y-67649834D01*
X208780264Y-67799845D01*
X208780261Y-67799857D01*
X208749500Y-67954500D01*
X208749500Y-68112193D01*
X208780261Y-68266836D01*
X208780264Y-68266848D01*
X208840602Y-68412519D01*
X208840609Y-68412532D01*
X208928210Y-68543635D01*
X208928213Y-68543639D01*
X209039707Y-68655133D01*
X209039711Y-68655136D01*
X209170814Y-68742737D01*
X209170827Y-68742744D01*
X209316498Y-68803082D01*
X209316503Y-68803084D01*
X209443106Y-68828267D01*
X209471153Y-68833846D01*
X209471156Y-68833847D01*
X209471158Y-68833847D01*
X209628844Y-68833847D01*
X209656896Y-68828267D01*
X209726488Y-68834494D01*
X209781665Y-68877357D01*
X209804910Y-68943246D01*
X209788843Y-69011243D01*
X209749979Y-69052986D01*
X209719711Y-69073210D01*
X209719707Y-69073213D01*
X209608213Y-69184707D01*
X209608210Y-69184711D01*
X209520609Y-69315814D01*
X209520602Y-69315827D01*
X209460264Y-69461498D01*
X209460261Y-69461510D01*
X209429500Y-69616153D01*
X209429500Y-69773846D01*
X209460261Y-69928489D01*
X209460264Y-69928501D01*
X209520602Y-70074172D01*
X209520609Y-70074185D01*
X209608210Y-70205288D01*
X209608213Y-70205292D01*
X209719707Y-70316786D01*
X209719711Y-70316789D01*
X209850814Y-70404390D01*
X209850827Y-70404397D01*
X209945280Y-70443520D01*
X209996503Y-70464737D01*
X210140525Y-70493385D01*
X210151153Y-70495499D01*
X210151156Y-70495500D01*
X210151158Y-70495500D01*
X210308843Y-70495500D01*
X210341621Y-70488979D01*
X210436967Y-70470014D01*
X210506556Y-70476241D01*
X210561734Y-70519103D01*
X210584979Y-70584993D01*
X210568912Y-70652990D01*
X210564259Y-70660521D01*
X210510612Y-70740809D01*
X210510602Y-70740827D01*
X210450264Y-70886498D01*
X210450261Y-70886510D01*
X210419500Y-71041153D01*
X210419500Y-71198846D01*
X210450261Y-71353489D01*
X210450264Y-71353501D01*
X210510602Y-71499172D01*
X210510609Y-71499185D01*
X210598210Y-71630288D01*
X210598213Y-71630292D01*
X210709707Y-71741786D01*
X210709711Y-71741789D01*
X210834555Y-71825208D01*
X210879360Y-71878820D01*
X210888067Y-71948145D01*
X210857912Y-72011173D01*
X210798469Y-72047892D01*
X210765664Y-72052310D01*
X210709311Y-72052310D01*
X210554666Y-72083071D01*
X210554654Y-72083074D01*
X210408983Y-72143412D01*
X210408970Y-72143419D01*
X210277867Y-72231020D01*
X210277863Y-72231023D01*
X210166369Y-72342517D01*
X210166366Y-72342521D01*
X210078765Y-72473624D01*
X210078758Y-72473637D01*
X210018420Y-72619308D01*
X210018417Y-72619320D01*
X209987656Y-72773963D01*
X209987656Y-72931656D01*
X210018417Y-73086299D01*
X210018420Y-73086311D01*
X210078758Y-73231982D01*
X210078765Y-73231995D01*
X210166366Y-73363098D01*
X210166369Y-73363102D01*
X210277863Y-73474596D01*
X210277867Y-73474599D01*
X210408970Y-73562200D01*
X210408983Y-73562207D01*
X210507673Y-73603085D01*
X210554659Y-73622547D01*
X210680025Y-73647484D01*
X210709309Y-73653309D01*
X210709312Y-73653310D01*
X210709314Y-73653310D01*
X210867000Y-73653310D01*
X210867001Y-73653309D01*
X211021653Y-73622547D01*
X211162758Y-73564100D01*
X211167328Y-73562207D01*
X211167328Y-73562206D01*
X211167335Y-73562204D01*
X211298445Y-73474599D01*
X211341127Y-73431917D01*
X211402450Y-73398431D01*
X211472141Y-73403415D01*
X211516490Y-73431916D01*
X211539707Y-73455133D01*
X211539711Y-73455136D01*
X211670814Y-73542737D01*
X211670827Y-73542744D01*
X211816498Y-73603082D01*
X211816503Y-73603084D01*
X211971153Y-73633846D01*
X211971156Y-73633847D01*
X211971158Y-73633847D01*
X212128844Y-73633847D01*
X212128845Y-73633846D01*
X212283497Y-73603084D01*
X212429179Y-73542741D01*
X212560289Y-73455136D01*
X212671789Y-73343636D01*
X212759394Y-73212526D01*
X212819737Y-73066844D01*
X212850500Y-72912189D01*
X212850500Y-72793868D01*
X212870185Y-72726829D01*
X212922989Y-72681074D01*
X212992147Y-72671130D01*
X213055703Y-72700155D01*
X213063786Y-72707821D01*
X213071458Y-72715782D01*
X213091187Y-72745308D01*
X213202687Y-72856808D01*
X213215836Y-72865594D01*
X213225114Y-72875221D01*
X213235347Y-72894814D01*
X213249524Y-72911777D01*
X213253048Y-72928705D01*
X213257460Y-72937152D01*
X213256658Y-72946045D01*
X213259828Y-72961268D01*
X213259828Y-73069729D01*
X213290589Y-73224372D01*
X213290592Y-73224384D01*
X213350930Y-73370055D01*
X213350937Y-73370068D01*
X213438538Y-73501171D01*
X213438541Y-73501175D01*
X213550035Y-73612669D01*
X213550039Y-73612672D01*
X213681142Y-73700273D01*
X213681155Y-73700280D01*
X213781482Y-73741836D01*
X213826831Y-73760620D01*
X213981481Y-73791382D01*
X213981484Y-73791383D01*
X213981486Y-73791383D01*
X214139172Y-73791383D01*
X214139173Y-73791382D01*
X214293825Y-73760620D01*
X214439507Y-73700277D01*
X214570617Y-73612672D01*
X214682117Y-73501172D01*
X214769722Y-73370062D01*
X214771106Y-73366722D01*
X214803134Y-73289397D01*
X214830065Y-73224380D01*
X214860828Y-73069725D01*
X214860828Y-72912041D01*
X214860828Y-72912038D01*
X214860827Y-72912036D01*
X214841226Y-72813497D01*
X214830065Y-72757386D01*
X214822287Y-72738608D01*
X214769725Y-72611710D01*
X214769718Y-72611697D01*
X214682117Y-72480594D01*
X214682114Y-72480590D01*
X214570620Y-72369096D01*
X214570612Y-72369090D01*
X214568576Y-72367729D01*
X214567751Y-72366741D01*
X214565909Y-72365230D01*
X214566195Y-72364880D01*
X214523776Y-72314113D01*
X214513476Y-72264633D01*
X214513476Y-72162214D01*
X214533161Y-72095175D01*
X214585965Y-72049420D01*
X214655123Y-72039476D01*
X214718679Y-72068501D01*
X214725554Y-72075564D01*
X214725801Y-72075318D01*
X214841605Y-72191122D01*
X214841609Y-72191125D01*
X214972712Y-72278726D01*
X214972725Y-72278733D01*
X215087419Y-72326240D01*
X215118401Y-72339073D01*
X215264882Y-72368210D01*
X215273051Y-72369835D01*
X215273054Y-72369836D01*
X215273056Y-72369836D01*
X215430742Y-72369836D01*
X215430743Y-72369835D01*
X215585395Y-72339073D01*
X215731077Y-72278730D01*
X215862187Y-72191125D01*
X215973687Y-72079625D01*
X216061292Y-71948515D01*
X216085638Y-71889738D01*
X216087541Y-71885143D01*
X227426250Y-71885143D01*
X227426250Y-72098856D01*
X227459683Y-72309941D01*
X227525722Y-72513192D01*
X227525724Y-72513195D01*
X227622748Y-72703616D01*
X227748367Y-72876514D01*
X227899486Y-73027633D01*
X228039226Y-73129161D01*
X228072391Y-73153257D01*
X228076536Y-73155797D01*
X228075427Y-73157605D01*
X228119777Y-73199501D01*
X228136566Y-73267323D01*
X228114021Y-73333456D01*
X228075628Y-73366722D01*
X228076536Y-73368203D01*
X228072391Y-73370742D01*
X227899484Y-73496368D01*
X227748368Y-73647484D01*
X227622748Y-73820383D01*
X227525724Y-74010804D01*
X227525722Y-74010807D01*
X227459683Y-74214058D01*
X227444240Y-74311558D01*
X227426250Y-74425143D01*
X227426250Y-74638857D01*
X227435910Y-74699845D01*
X227459683Y-74849941D01*
X227525722Y-75053192D01*
X227525724Y-75053195D01*
X227622748Y-75243616D01*
X227748367Y-75416514D01*
X227899486Y-75567633D01*
X228072384Y-75693252D01*
X228262805Y-75790276D01*
X228262807Y-75790277D01*
X228364432Y-75823296D01*
X228466060Y-75856317D01*
X228677143Y-75889750D01*
X228677144Y-75889750D01*
X228890856Y-75889750D01*
X228890857Y-75889750D01*
X229101940Y-75856317D01*
X229305195Y-75790276D01*
X229495616Y-75693252D01*
X229668514Y-75567633D01*
X229819633Y-75416514D01*
X229945252Y-75243616D01*
X230042276Y-75053195D01*
X230108317Y-74849940D01*
X230141750Y-74638857D01*
X230141750Y-74425143D01*
X230108317Y-74214060D01*
X230063422Y-74075886D01*
X230042277Y-74010807D01*
X230042275Y-74010804D01*
X230013590Y-73954505D01*
X229945252Y-73820384D01*
X229819633Y-73647486D01*
X229668514Y-73496367D01*
X229513644Y-73383846D01*
X229495608Y-73370742D01*
X229491464Y-73368203D01*
X229492578Y-73366384D01*
X229448249Y-73324546D01*
X229431431Y-73256730D01*
X229453947Y-73190588D01*
X229492377Y-73157288D01*
X229491464Y-73155797D01*
X229495608Y-73153257D01*
X229495612Y-73153253D01*
X229495616Y-73153252D01*
X229668514Y-73027633D01*
X229819633Y-72876514D01*
X229945252Y-72703616D01*
X230042276Y-72513195D01*
X230046189Y-72501153D01*
X230999500Y-72501153D01*
X230999500Y-72658846D01*
X231030261Y-72813489D01*
X231030264Y-72813501D01*
X231090602Y-72959172D01*
X231090609Y-72959185D01*
X231178210Y-73090288D01*
X231178213Y-73090292D01*
X231289707Y-73201786D01*
X231289711Y-73201789D01*
X231420814Y-73289390D01*
X231420827Y-73289397D01*
X231551781Y-73343639D01*
X231566503Y-73349737D01*
X231672102Y-73370742D01*
X231721153Y-73380499D01*
X231721156Y-73380500D01*
X231721158Y-73380500D01*
X231878844Y-73380500D01*
X231878845Y-73380499D01*
X232033497Y-73349737D01*
X232146166Y-73303067D01*
X232179172Y-73289397D01*
X232179172Y-73289396D01*
X232179179Y-73289394D01*
X232310289Y-73201789D01*
X232421789Y-73090289D01*
X232509394Y-72959179D01*
X232515425Y-72944620D01*
X232536055Y-72894814D01*
X232569737Y-72813497D01*
X232600500Y-72658842D01*
X232600500Y-72501158D01*
X232600500Y-72501155D01*
X232600499Y-72501153D01*
X232585542Y-72425955D01*
X232581699Y-72406636D01*
X239789700Y-72406636D01*
X239789700Y-72593363D01*
X239815222Y-72754505D01*
X239818911Y-72777793D01*
X239876613Y-72955381D01*
X239961385Y-73121757D01*
X240071141Y-73272822D01*
X240203178Y-73404859D01*
X240354243Y-73514615D01*
X240520619Y-73599387D01*
X240698207Y-73657089D01*
X240882636Y-73686300D01*
X240882637Y-73686300D01*
X241069363Y-73686300D01*
X241069364Y-73686300D01*
X241253793Y-73657089D01*
X241431381Y-73599387D01*
X241597757Y-73514615D01*
X241665115Y-73465675D01*
X241730921Y-73442196D01*
X241798975Y-73458021D01*
X241810879Y-73465671D01*
X241878243Y-73514615D01*
X242044619Y-73599387D01*
X242222207Y-73657089D01*
X242406636Y-73686300D01*
X242406637Y-73686300D01*
X242593363Y-73686300D01*
X242593364Y-73686300D01*
X242777793Y-73657089D01*
X242955381Y-73599387D01*
X243121757Y-73514615D01*
X243272822Y-73404859D01*
X243404859Y-73272822D01*
X243514615Y-73121757D01*
X243599387Y-72955381D01*
X243657089Y-72777793D01*
X243686300Y-72593364D01*
X243686300Y-72406636D01*
X243657089Y-72222207D01*
X243599387Y-72044619D01*
X243514615Y-71878243D01*
X243404859Y-71727178D01*
X243295998Y-71618317D01*
X247277900Y-71618317D01*
X247277900Y-71857682D01*
X247277901Y-71857698D01*
X247309144Y-72095015D01*
X247371101Y-72326240D01*
X247462704Y-72547389D01*
X247462708Y-72547399D01*
X247582395Y-72754703D01*
X247728118Y-72944613D01*
X247728124Y-72944620D01*
X247897379Y-73113875D01*
X247897386Y-73113881D01*
X248087296Y-73259604D01*
X248294600Y-73379291D01*
X248294601Y-73379291D01*
X248294604Y-73379293D01*
X248515760Y-73470899D01*
X248746981Y-73532855D01*
X248984311Y-73564100D01*
X248984318Y-73564100D01*
X249223682Y-73564100D01*
X249223689Y-73564100D01*
X249461019Y-73532855D01*
X249692240Y-73470899D01*
X249913396Y-73379293D01*
X250120704Y-73259604D01*
X250310615Y-73113880D01*
X250479880Y-72944615D01*
X250625604Y-72754704D01*
X250745293Y-72547396D01*
X250836899Y-72326240D01*
X250898855Y-72095019D01*
X250930100Y-71857689D01*
X250930100Y-71618311D01*
X250898855Y-71380981D01*
X250887049Y-71336920D01*
X250888711Y-71267072D01*
X250927872Y-71209209D01*
X250992101Y-71181704D01*
X251061003Y-71193290D01*
X251094504Y-71217146D01*
X251167859Y-71290501D01*
X251167866Y-71290507D01*
X251285778Y-71380984D01*
X251342749Y-71424699D01*
X251342756Y-71424703D01*
X251533644Y-71534913D01*
X251533649Y-71534915D01*
X251533652Y-71534917D01*
X251660063Y-71587278D01*
X251734997Y-71618317D01*
X251737308Y-71619274D01*
X251950232Y-71676327D01*
X252168782Y-71705100D01*
X252168789Y-71705100D01*
X252389211Y-71705100D01*
X252389218Y-71705100D01*
X252607768Y-71676327D01*
X252820692Y-71619274D01*
X253024348Y-71534917D01*
X253215251Y-71424699D01*
X253390135Y-71290506D01*
X253546006Y-71134635D01*
X253680199Y-70959751D01*
X253790417Y-70768848D01*
X253874774Y-70565192D01*
X253931827Y-70352268D01*
X253960600Y-70133718D01*
X253960600Y-69913282D01*
X253931827Y-69694732D01*
X253874774Y-69481808D01*
X253868434Y-69466503D01*
X253809196Y-69323489D01*
X253790417Y-69278152D01*
X253790415Y-69278149D01*
X253790413Y-69278144D01*
X253680203Y-69087256D01*
X253680199Y-69087249D01*
X253569702Y-68943246D01*
X253546007Y-68912366D01*
X253546001Y-68912359D01*
X253390140Y-68756498D01*
X253390133Y-68756492D01*
X253215259Y-68622307D01*
X253215257Y-68622305D01*
X253215251Y-68622301D01*
X253215246Y-68622298D01*
X253215243Y-68622296D01*
X253024355Y-68512086D01*
X253024344Y-68512081D01*
X252820696Y-68427727D01*
X252714230Y-68399199D01*
X252607768Y-68370673D01*
X252607767Y-68370672D01*
X252607764Y-68370672D01*
X252389225Y-68341900D01*
X252389218Y-68341900D01*
X252168782Y-68341900D01*
X252168774Y-68341900D01*
X251950235Y-68370672D01*
X251737303Y-68427727D01*
X251533655Y-68512081D01*
X251533644Y-68512086D01*
X251342756Y-68622296D01*
X251342740Y-68622307D01*
X251167866Y-68756492D01*
X251167859Y-68756498D01*
X251011998Y-68912359D01*
X251011992Y-68912366D01*
X250877807Y-69087240D01*
X250877796Y-69087256D01*
X250767586Y-69278144D01*
X250767581Y-69278155D01*
X250683227Y-69481803D01*
X250626172Y-69694735D01*
X250597400Y-69913274D01*
X250597400Y-70133725D01*
X250626173Y-70352269D01*
X250626965Y-70356249D01*
X250625356Y-70356568D01*
X250623826Y-70419683D01*
X250584637Y-70477528D01*
X250520396Y-70505003D01*
X250451499Y-70493385D01*
X250418050Y-70469554D01*
X250310620Y-70362124D01*
X250310613Y-70362118D01*
X250120703Y-70216395D01*
X249913399Y-70096708D01*
X249913389Y-70096704D01*
X249692240Y-70005101D01*
X249591882Y-69978210D01*
X249461019Y-69943145D01*
X249461018Y-69943144D01*
X249461015Y-69943144D01*
X249223698Y-69911901D01*
X249223695Y-69911900D01*
X249223689Y-69911900D01*
X248984311Y-69911900D01*
X248984305Y-69911900D01*
X248984301Y-69911901D01*
X248746984Y-69943144D01*
X248515759Y-70005101D01*
X248294610Y-70096704D01*
X248294600Y-70096708D01*
X248087296Y-70216395D01*
X247897386Y-70362118D01*
X247897379Y-70362124D01*
X247728124Y-70531379D01*
X247728118Y-70531386D01*
X247582395Y-70721296D01*
X247462708Y-70928600D01*
X247462704Y-70928610D01*
X247371101Y-71149759D01*
X247309144Y-71380984D01*
X247277901Y-71618301D01*
X247277900Y-71618317D01*
X243295998Y-71618317D01*
X243272822Y-71595141D01*
X243121757Y-71485385D01*
X242955381Y-71400613D01*
X242777793Y-71342911D01*
X242777791Y-71342910D01*
X242777789Y-71342910D01*
X242649018Y-71322514D01*
X242593364Y-71313700D01*
X242406636Y-71313700D01*
X242363883Y-71320471D01*
X242222210Y-71342910D01*
X242044616Y-71400614D01*
X241878243Y-71485384D01*
X241810885Y-71534323D01*
X241745078Y-71557802D01*
X241677024Y-71541976D01*
X241665115Y-71534323D01*
X241597756Y-71485384D01*
X241431383Y-71400614D01*
X241431382Y-71400613D01*
X241431381Y-71400613D01*
X241253793Y-71342911D01*
X241253791Y-71342910D01*
X241253789Y-71342910D01*
X241125018Y-71322514D01*
X241069364Y-71313700D01*
X240882636Y-71313700D01*
X240839883Y-71320471D01*
X240698210Y-71342910D01*
X240520616Y-71400614D01*
X240354242Y-71485385D01*
X240203176Y-71595142D01*
X240071142Y-71727176D01*
X239961385Y-71878242D01*
X239876614Y-72044616D01*
X239818910Y-72222210D01*
X239789700Y-72406636D01*
X232581699Y-72406636D01*
X232569738Y-72346508D01*
X232569737Y-72346507D01*
X232569737Y-72346503D01*
X232566660Y-72339074D01*
X232509397Y-72200827D01*
X232509390Y-72200814D01*
X232421789Y-72069711D01*
X232421786Y-72069707D01*
X232310292Y-71958213D01*
X232310288Y-71958210D01*
X232179185Y-71870609D01*
X232179172Y-71870602D01*
X232033501Y-71810264D01*
X232033489Y-71810261D01*
X231878845Y-71779500D01*
X231878842Y-71779500D01*
X231721158Y-71779500D01*
X231721155Y-71779500D01*
X231566510Y-71810261D01*
X231566498Y-71810264D01*
X231420827Y-71870602D01*
X231420814Y-71870609D01*
X231289711Y-71958210D01*
X231289707Y-71958213D01*
X231178213Y-72069707D01*
X231178210Y-72069711D01*
X231090609Y-72200814D01*
X231090602Y-72200827D01*
X231030264Y-72346498D01*
X231030261Y-72346510D01*
X230999500Y-72501153D01*
X230046189Y-72501153D01*
X230055131Y-72473631D01*
X230060617Y-72456748D01*
X230095347Y-72349857D01*
X230108317Y-72309940D01*
X230141750Y-72098857D01*
X230141750Y-71885143D01*
X230108317Y-71674060D01*
X230065401Y-71541976D01*
X230042277Y-71470807D01*
X230042275Y-71470804D01*
X230039462Y-71465282D01*
X229945252Y-71280384D01*
X229819633Y-71107486D01*
X229668514Y-70956367D01*
X229495616Y-70830748D01*
X229305195Y-70733724D01*
X229305192Y-70733722D01*
X229101941Y-70667683D01*
X228996398Y-70650966D01*
X228890857Y-70634250D01*
X228677143Y-70634250D01*
X228606782Y-70645394D01*
X228466058Y-70667683D01*
X228262807Y-70733722D01*
X228262804Y-70733724D01*
X228072383Y-70830748D01*
X227899484Y-70956368D01*
X227748368Y-71107484D01*
X227622748Y-71280383D01*
X227525724Y-71470804D01*
X227525722Y-71470807D01*
X227459683Y-71674058D01*
X227426250Y-71885143D01*
X216087541Y-71885143D01*
X216109212Y-71832826D01*
X216109214Y-71832819D01*
X216121635Y-71802833D01*
X216152398Y-71648178D01*
X216152398Y-71490494D01*
X216152398Y-71490491D01*
X216152397Y-71490489D01*
X216139309Y-71424692D01*
X216121635Y-71335839D01*
X216112465Y-71313700D01*
X216061295Y-71190163D01*
X216061288Y-71190150D01*
X215973687Y-71059047D01*
X215973684Y-71059043D01*
X215862190Y-70947549D01*
X215862186Y-70947546D01*
X215739003Y-70865237D01*
X215694198Y-70811625D01*
X215685491Y-70742300D01*
X215686269Y-70737982D01*
X215713476Y-70601209D01*
X215713476Y-70443525D01*
X215713476Y-70443522D01*
X215713475Y-70443520D01*
X215708733Y-70419683D01*
X215682713Y-70288870D01*
X215654529Y-70220827D01*
X215622373Y-70143194D01*
X215622369Y-70143187D01*
X215616042Y-70133718D01*
X215595646Y-70103193D01*
X215574769Y-70036517D01*
X215593253Y-69969137D01*
X215629856Y-69931202D01*
X215713688Y-69875188D01*
X215825188Y-69763688D01*
X215912793Y-69632578D01*
X215973136Y-69486896D01*
X216003899Y-69332241D01*
X216003899Y-69174557D01*
X216003899Y-69174554D01*
X216003898Y-69174552D01*
X215992284Y-69116167D01*
X215973136Y-69019902D01*
X215961000Y-68990602D01*
X215912796Y-68874226D01*
X215912789Y-68874213D01*
X215825188Y-68743110D01*
X215825185Y-68743106D01*
X215713691Y-68631612D01*
X215713687Y-68631609D01*
X215582584Y-68544008D01*
X215582571Y-68544001D01*
X215436900Y-68483663D01*
X215436888Y-68483660D01*
X215282244Y-68452899D01*
X215282241Y-68452899D01*
X215124557Y-68452899D01*
X215124554Y-68452899D01*
X214969909Y-68483660D01*
X214969897Y-68483663D01*
X214824226Y-68544001D01*
X214824213Y-68544008D01*
X214693110Y-68631609D01*
X214693106Y-68631612D01*
X214581612Y-68743106D01*
X214581609Y-68743110D01*
X214494008Y-68874213D01*
X214494001Y-68874226D01*
X214433663Y-69019897D01*
X214433660Y-69019909D01*
X214402899Y-69174552D01*
X214402899Y-69332245D01*
X214433660Y-69486888D01*
X214433663Y-69486900D01*
X214494001Y-69632571D01*
X214494008Y-69632584D01*
X214520727Y-69672571D01*
X214541605Y-69739248D01*
X214523121Y-69806629D01*
X214486516Y-69844564D01*
X214402687Y-69900577D01*
X214402683Y-69900580D01*
X214291189Y-70012074D01*
X214291186Y-70012078D01*
X214203585Y-70143181D01*
X214203578Y-70143194D01*
X214143240Y-70288865D01*
X214143237Y-70288877D01*
X214112476Y-70443520D01*
X214112476Y-70601213D01*
X214143237Y-70755856D01*
X214143240Y-70755868D01*
X214203578Y-70901539D01*
X214203585Y-70901552D01*
X214291186Y-71032655D01*
X214291189Y-71032659D01*
X214402683Y-71144153D01*
X214402691Y-71144159D01*
X214525869Y-71226464D01*
X214570675Y-71280076D01*
X214579382Y-71349401D01*
X214578596Y-71353757D01*
X214551398Y-71490489D01*
X214551398Y-71642140D01*
X214531713Y-71709179D01*
X214478909Y-71754934D01*
X214409751Y-71764878D01*
X214346195Y-71735853D01*
X214339317Y-71728792D01*
X214339073Y-71729037D01*
X214223268Y-71613232D01*
X214223264Y-71613229D01*
X214092161Y-71525628D01*
X214092148Y-71525621D01*
X213946477Y-71465283D01*
X213946465Y-71465280D01*
X213791821Y-71434519D01*
X213791818Y-71434519D01*
X213634134Y-71434519D01*
X213634131Y-71434519D01*
X213479486Y-71465280D01*
X213479474Y-71465283D01*
X213333803Y-71525621D01*
X213333790Y-71525628D01*
X213202687Y-71613229D01*
X213202683Y-71613232D01*
X213091189Y-71724726D01*
X213091186Y-71724730D01*
X213003585Y-71855833D01*
X213003578Y-71855846D01*
X212943240Y-72001517D01*
X212943237Y-72001529D01*
X212912476Y-72156172D01*
X212912476Y-72274497D01*
X212892791Y-72341536D01*
X212839987Y-72387291D01*
X212770829Y-72397235D01*
X212707273Y-72368210D01*
X212685375Y-72343389D01*
X212671791Y-72323060D01*
X212671786Y-72323054D01*
X212560292Y-72211560D01*
X212560288Y-72211557D01*
X212429185Y-72123956D01*
X212429172Y-72123949D01*
X212283501Y-72063611D01*
X212283489Y-72063608D01*
X212128845Y-72032847D01*
X212128842Y-72032847D01*
X211971158Y-72032847D01*
X211971155Y-72032847D01*
X211816510Y-72063608D01*
X211816498Y-72063611D01*
X211670827Y-72123949D01*
X211670814Y-72123956D01*
X211539711Y-72211557D01*
X211539706Y-72211561D01*
X211497026Y-72254241D01*
X211435703Y-72287725D01*
X211366011Y-72282740D01*
X211336134Y-72266639D01*
X211328419Y-72260995D01*
X211298445Y-72231021D01*
X211171420Y-72146145D01*
X211169280Y-72144580D01*
X211149579Y-72118858D01*
X211128796Y-72093990D01*
X211128455Y-72091278D01*
X211126795Y-72089111D01*
X211124127Y-72056820D01*
X211120089Y-72024665D01*
X211121267Y-72022201D01*
X211121043Y-72019479D01*
X211136257Y-71990871D01*
X211150244Y-71961637D01*
X211152568Y-71960201D01*
X211153850Y-71957791D01*
X211182108Y-71941953D01*
X211209687Y-71924918D01*
X211213396Y-71924418D01*
X211214800Y-71923632D01*
X211217861Y-71923817D01*
X211242492Y-71920500D01*
X211298844Y-71920500D01*
X211298845Y-71920499D01*
X211453497Y-71889737D01*
X211566166Y-71843067D01*
X211599172Y-71829397D01*
X211599172Y-71829396D01*
X211599179Y-71829394D01*
X211730289Y-71741789D01*
X211841789Y-71630289D01*
X211929394Y-71499179D01*
X211932994Y-71490489D01*
X211960247Y-71424692D01*
X211989737Y-71353497D01*
X212020500Y-71198842D01*
X212020500Y-71041158D01*
X212020500Y-71041155D01*
X212020499Y-71041153D01*
X212008173Y-70979185D01*
X211989737Y-70886503D01*
X211989735Y-70886498D01*
X211929397Y-70740827D01*
X211929390Y-70740814D01*
X211841789Y-70609711D01*
X211841786Y-70609707D01*
X211730292Y-70498213D01*
X211730288Y-70498210D01*
X211599185Y-70410609D01*
X211599172Y-70410602D01*
X211453501Y-70350264D01*
X211453489Y-70350261D01*
X211298845Y-70319500D01*
X211298842Y-70319500D01*
X211141158Y-70319500D01*
X211141155Y-70319500D01*
X211013033Y-70344985D01*
X210943442Y-70338758D01*
X210888264Y-70295895D01*
X210865020Y-70230005D01*
X210881088Y-70162008D01*
X210885725Y-70154499D01*
X210939394Y-70074179D01*
X210999737Y-69928497D01*
X211030500Y-69773842D01*
X211030500Y-69616158D01*
X211030500Y-69616155D01*
X211030499Y-69616153D01*
X211027343Y-69600288D01*
X210999737Y-69461503D01*
X210946197Y-69332245D01*
X210939397Y-69315827D01*
X210939390Y-69315814D01*
X210851789Y-69184711D01*
X210851786Y-69184707D01*
X210740292Y-69073213D01*
X210740288Y-69073210D01*
X210609185Y-68985609D01*
X210609172Y-68985602D01*
X210463501Y-68925264D01*
X210463489Y-68925261D01*
X210308845Y-68894500D01*
X210308842Y-68894500D01*
X210151158Y-68894500D01*
X210151156Y-68894500D01*
X210123099Y-68900080D01*
X210053507Y-68893851D01*
X209998331Y-68850986D01*
X209975089Y-68785096D01*
X209991159Y-68717099D01*
X210030020Y-68675360D01*
X210060289Y-68655136D01*
X210171789Y-68543636D01*
X210259394Y-68412526D01*
X210294436Y-68327926D01*
X218925100Y-68327926D01*
X218925100Y-68485619D01*
X218955861Y-68640262D01*
X218955864Y-68640274D01*
X219016202Y-68785945D01*
X219016209Y-68785958D01*
X219103810Y-68917061D01*
X219103813Y-68917065D01*
X219215307Y-69028559D01*
X219215311Y-69028562D01*
X219346414Y-69116163D01*
X219346427Y-69116170D01*
X219473595Y-69168844D01*
X219492103Y-69176510D01*
X219646753Y-69207272D01*
X219646756Y-69207273D01*
X219646758Y-69207273D01*
X219804444Y-69207273D01*
X219804445Y-69207272D01*
X219959097Y-69176510D01*
X220104779Y-69116167D01*
X220235889Y-69028562D01*
X220253298Y-69011153D01*
X220819500Y-69011153D01*
X220819500Y-69168846D01*
X220850261Y-69323489D01*
X220850264Y-69323501D01*
X220910602Y-69469172D01*
X220910609Y-69469185D01*
X220998210Y-69600288D01*
X220998213Y-69600292D01*
X221109707Y-69711786D01*
X221109711Y-69711789D01*
X221240814Y-69799390D01*
X221240827Y-69799397D01*
X221386498Y-69859735D01*
X221386503Y-69859737D01*
X221541153Y-69890499D01*
X221541156Y-69890500D01*
X221541158Y-69890500D01*
X221698844Y-69890500D01*
X221698845Y-69890499D01*
X221853497Y-69859737D01*
X221999179Y-69799394D01*
X222130289Y-69711789D01*
X222241789Y-69600289D01*
X222329394Y-69469179D01*
X222330503Y-69466503D01*
X222389735Y-69323501D01*
X222389737Y-69323497D01*
X222420500Y-69168842D01*
X222420500Y-69011158D01*
X222420500Y-69011155D01*
X222420499Y-69011153D01*
X222389737Y-68856503D01*
X222380352Y-68833846D01*
X222329397Y-68710827D01*
X222329390Y-68710814D01*
X222241789Y-68579711D01*
X222241786Y-68579707D01*
X222130292Y-68468213D01*
X222130288Y-68468210D01*
X221999185Y-68380609D01*
X221999172Y-68380602D01*
X221853501Y-68320264D01*
X221853489Y-68320261D01*
X221698845Y-68289500D01*
X221698842Y-68289500D01*
X221541158Y-68289500D01*
X221541155Y-68289500D01*
X221386510Y-68320261D01*
X221386498Y-68320264D01*
X221240827Y-68380602D01*
X221240814Y-68380609D01*
X221109711Y-68468210D01*
X221109707Y-68468213D01*
X220998213Y-68579707D01*
X220998210Y-68579711D01*
X220910609Y-68710814D01*
X220910602Y-68710827D01*
X220850264Y-68856498D01*
X220850261Y-68856510D01*
X220819500Y-69011153D01*
X220253298Y-69011153D01*
X220278849Y-68985602D01*
X220347067Y-68917385D01*
X220347386Y-68917065D01*
X220347389Y-68917062D01*
X220434994Y-68785952D01*
X220495337Y-68640270D01*
X220526100Y-68485615D01*
X220526100Y-68327931D01*
X220526100Y-68327928D01*
X220526099Y-68327926D01*
X220524574Y-68320261D01*
X220512817Y-68261153D01*
X229499500Y-68261153D01*
X229499500Y-68418846D01*
X229530261Y-68573489D01*
X229530264Y-68573501D01*
X229590602Y-68719172D01*
X229590609Y-68719185D01*
X229678210Y-68850288D01*
X229678213Y-68850292D01*
X229789707Y-68961786D01*
X229789711Y-68961789D01*
X229920814Y-69049390D01*
X229920827Y-69049397D01*
X230066498Y-69109735D01*
X230066503Y-69109737D01*
X230221153Y-69140499D01*
X230221156Y-69140500D01*
X230221158Y-69140500D01*
X230378844Y-69140500D01*
X230378845Y-69140499D01*
X230533497Y-69109737D01*
X230679179Y-69049394D01*
X230810289Y-68961789D01*
X230921789Y-68850289D01*
X231009394Y-68719179D01*
X231012854Y-68710827D01*
X231035922Y-68655135D01*
X231069737Y-68573497D01*
X231100500Y-68418842D01*
X231100500Y-68261158D01*
X231100500Y-68261155D01*
X231100499Y-68261153D01*
X231073364Y-68124737D01*
X231069737Y-68106503D01*
X231052295Y-68064394D01*
X231009397Y-67960827D01*
X231009390Y-67960814D01*
X230921789Y-67829711D01*
X230921786Y-67829707D01*
X230810292Y-67718213D01*
X230810288Y-67718210D01*
X230679185Y-67630609D01*
X230679172Y-67630602D01*
X230533501Y-67570264D01*
X230533489Y-67570261D01*
X230378845Y-67539500D01*
X230378842Y-67539500D01*
X230221158Y-67539500D01*
X230221155Y-67539500D01*
X230066510Y-67570261D01*
X230066498Y-67570264D01*
X229920827Y-67630602D01*
X229920814Y-67630609D01*
X229789711Y-67718210D01*
X229789707Y-67718213D01*
X229678213Y-67829707D01*
X229678210Y-67829711D01*
X229590609Y-67960814D01*
X229590602Y-67960827D01*
X229530264Y-68106498D01*
X229530261Y-68106510D01*
X229499500Y-68261153D01*
X220512817Y-68261153D01*
X220495337Y-68173276D01*
X220467677Y-68106498D01*
X220434997Y-68027600D01*
X220434990Y-68027587D01*
X220347389Y-67896484D01*
X220347386Y-67896480D01*
X220235892Y-67784986D01*
X220235888Y-67784983D01*
X220104785Y-67697382D01*
X220104772Y-67697375D01*
X219959101Y-67637037D01*
X219959089Y-67637034D01*
X219804445Y-67606273D01*
X219804442Y-67606273D01*
X219646758Y-67606273D01*
X219646755Y-67606273D01*
X219492110Y-67637034D01*
X219492098Y-67637037D01*
X219346427Y-67697375D01*
X219346414Y-67697382D01*
X219215311Y-67784983D01*
X219215307Y-67784986D01*
X219103813Y-67896480D01*
X219103810Y-67896484D01*
X219016209Y-68027587D01*
X219016202Y-68027600D01*
X218955864Y-68173271D01*
X218955861Y-68173283D01*
X218925100Y-68327926D01*
X210294436Y-68327926D01*
X210319737Y-68266844D01*
X210350500Y-68112189D01*
X210350500Y-67954505D01*
X210350500Y-67954502D01*
X210331952Y-67861257D01*
X210338179Y-67791665D01*
X210381042Y-67736488D01*
X210429378Y-67715448D01*
X210464675Y-67708426D01*
X210533497Y-67694737D01*
X210672801Y-67637036D01*
X210679172Y-67634397D01*
X210679172Y-67634396D01*
X210679179Y-67634394D01*
X210810289Y-67546789D01*
X210921789Y-67435289D01*
X211009394Y-67304179D01*
X211036744Y-67238149D01*
X211080583Y-67183749D01*
X211146877Y-67161683D01*
X211214576Y-67178962D01*
X211262187Y-67230098D01*
X211265424Y-67237186D01*
X211265609Y-67237532D01*
X211353210Y-67368635D01*
X211353213Y-67368639D01*
X211464707Y-67480133D01*
X211464711Y-67480136D01*
X211595814Y-67567737D01*
X211595827Y-67567744D01*
X211645940Y-67588501D01*
X211741503Y-67628084D01*
X211896153Y-67658846D01*
X211896156Y-67658847D01*
X211896158Y-67658847D01*
X212053844Y-67658847D01*
X212053845Y-67658846D01*
X212208497Y-67628084D01*
X212348088Y-67570264D01*
X212354172Y-67567744D01*
X212354172Y-67567743D01*
X212354179Y-67567741D01*
X212485289Y-67480136D01*
X212596789Y-67368636D01*
X212613733Y-67343276D01*
X212667345Y-67298472D01*
X212736670Y-67289764D01*
X212799698Y-67319918D01*
X212804517Y-67324486D01*
X212864706Y-67384675D01*
X212864710Y-67384678D01*
X212995813Y-67472279D01*
X212995826Y-67472286D01*
X213141497Y-67532624D01*
X213141502Y-67532626D01*
X213296152Y-67563388D01*
X213296155Y-67563389D01*
X213296157Y-67563389D01*
X213453843Y-67563389D01*
X213453844Y-67563388D01*
X213608496Y-67532626D01*
X213734850Y-67480289D01*
X213754171Y-67472286D01*
X213754171Y-67472285D01*
X213754178Y-67472283D01*
X213885288Y-67384678D01*
X213996788Y-67273178D01*
X214084393Y-67142068D01*
X214144736Y-66996386D01*
X214175499Y-66841731D01*
X214175499Y-66684047D01*
X214175499Y-66684044D01*
X214175498Y-66684042D01*
X214156955Y-66590821D01*
X214144736Y-66529392D01*
X214101973Y-66426153D01*
X224799500Y-66426153D01*
X224799500Y-66583846D01*
X224830261Y-66738489D01*
X224830264Y-66738501D01*
X224889930Y-66882548D01*
X224897399Y-66952017D01*
X224889930Y-66977452D01*
X224830264Y-67121498D01*
X224830261Y-67121510D01*
X224799500Y-67276153D01*
X224799500Y-67433846D01*
X224830261Y-67588489D01*
X224830264Y-67588501D01*
X224890602Y-67734172D01*
X224890609Y-67734185D01*
X224978210Y-67865288D01*
X224978213Y-67865292D01*
X225089707Y-67976786D01*
X225089711Y-67976789D01*
X225220814Y-68064390D01*
X225220827Y-68064397D01*
X225366498Y-68124735D01*
X225366503Y-68124737D01*
X225521153Y-68155499D01*
X225521156Y-68155500D01*
X225521158Y-68155500D01*
X225678844Y-68155500D01*
X225678845Y-68155499D01*
X225717574Y-68147795D01*
X225789696Y-68133450D01*
X225789701Y-68133449D01*
X225818589Y-68127702D01*
X225833497Y-68124737D01*
X225979179Y-68064394D01*
X226110289Y-67976789D01*
X226221789Y-67865289D01*
X226309394Y-67734179D01*
X226369737Y-67588497D01*
X226400500Y-67433842D01*
X226400500Y-67276158D01*
X226400500Y-67276155D01*
X226400499Y-67276153D01*
X226398022Y-67263700D01*
X226369737Y-67121503D01*
X226369735Y-67121498D01*
X226310070Y-66977452D01*
X226302601Y-66907983D01*
X226310070Y-66882548D01*
X226352751Y-66779505D01*
X226369737Y-66738497D01*
X226400500Y-66583842D01*
X226400500Y-66426158D01*
X226400500Y-66426155D01*
X226400499Y-66426153D01*
X226400080Y-66424046D01*
X226369737Y-66271503D01*
X226355263Y-66236560D01*
X226309397Y-66125827D01*
X226309390Y-66125814D01*
X226221789Y-65994711D01*
X226221786Y-65994707D01*
X226110292Y-65883213D01*
X226110288Y-65883210D01*
X225979185Y-65795609D01*
X225979172Y-65795602D01*
X225833501Y-65735264D01*
X225833489Y-65735261D01*
X225678845Y-65704500D01*
X225678842Y-65704500D01*
X225521158Y-65704500D01*
X225521155Y-65704500D01*
X225366510Y-65735261D01*
X225366498Y-65735264D01*
X225220827Y-65795602D01*
X225220814Y-65795609D01*
X225089711Y-65883210D01*
X225089707Y-65883213D01*
X224978213Y-65994707D01*
X224978210Y-65994711D01*
X224890609Y-66125814D01*
X224890602Y-66125827D01*
X224830264Y-66271498D01*
X224830261Y-66271510D01*
X224799500Y-66426153D01*
X214101973Y-66426153D01*
X214084393Y-66383710D01*
X214084392Y-66383709D01*
X214084389Y-66383703D01*
X213996788Y-66252600D01*
X213996785Y-66252596D01*
X213885291Y-66141102D01*
X213885287Y-66141099D01*
X213754184Y-66053498D01*
X213754171Y-66053491D01*
X213608500Y-65993153D01*
X213608488Y-65993150D01*
X213453844Y-65962389D01*
X213453841Y-65962389D01*
X213296157Y-65962389D01*
X213296154Y-65962389D01*
X213141509Y-65993150D01*
X213141497Y-65993153D01*
X212995826Y-66053491D01*
X212995813Y-66053498D01*
X212864710Y-66141099D01*
X212864706Y-66141102D01*
X212753212Y-66252596D01*
X212753208Y-66252601D01*
X212736262Y-66277962D01*
X212682649Y-66322765D01*
X212613323Y-66331471D01*
X212550297Y-66301314D01*
X212545481Y-66296749D01*
X212485292Y-66236560D01*
X212485288Y-66236557D01*
X212354185Y-66148956D01*
X212354172Y-66148949D01*
X212208501Y-66088611D01*
X212208489Y-66088608D01*
X212053845Y-66057847D01*
X212053842Y-66057847D01*
X211896158Y-66057847D01*
X211896155Y-66057847D01*
X211741510Y-66088608D01*
X211741498Y-66088611D01*
X211595827Y-66148949D01*
X211595814Y-66148956D01*
X211464711Y-66236557D01*
X211464707Y-66236560D01*
X211353213Y-66348054D01*
X211353210Y-66348058D01*
X211265609Y-66479161D01*
X211265604Y-66479171D01*
X211238256Y-66545195D01*
X211194414Y-66599599D01*
X211128120Y-66621663D01*
X211060421Y-66604383D01*
X211012811Y-66553246D01*
X211009580Y-66546169D01*
X211009390Y-66545814D01*
X210921789Y-66414711D01*
X210921786Y-66414707D01*
X210810292Y-66303213D01*
X210810288Y-66303210D01*
X210679185Y-66215609D01*
X210679172Y-66215602D01*
X210533501Y-66155264D01*
X210533489Y-66155261D01*
X210378845Y-66124500D01*
X210378842Y-66124500D01*
X210221158Y-66124500D01*
X210221155Y-66124500D01*
X210066510Y-66155261D01*
X210066498Y-66155264D01*
X209920828Y-66215602D01*
X209920817Y-66215608D01*
X209883977Y-66240224D01*
X209817299Y-66261101D01*
X209767635Y-66251682D01*
X209643501Y-66200264D01*
X209643489Y-66200261D01*
X209488845Y-66169500D01*
X209488842Y-66169500D01*
X209331158Y-66169500D01*
X209331155Y-66169500D01*
X209176510Y-66200261D01*
X209176498Y-66200264D01*
X209030827Y-66260602D01*
X209030814Y-66260609D01*
X208899711Y-66348210D01*
X208899707Y-66348213D01*
X208788213Y-66459707D01*
X208788210Y-66459711D01*
X208700609Y-66590814D01*
X208700602Y-66590827D01*
X208640264Y-66736498D01*
X208640261Y-66736510D01*
X208609500Y-66891153D01*
X207639099Y-66891153D01*
X207603696Y-66805681D01*
X207603689Y-66805668D01*
X207516088Y-66674565D01*
X207516085Y-66674561D01*
X207404591Y-66563067D01*
X207404587Y-66563064D01*
X207273484Y-66475463D01*
X207273471Y-66475456D01*
X207127800Y-66415118D01*
X207127788Y-66415115D01*
X206973144Y-66384354D01*
X206973141Y-66384354D01*
X206815457Y-66384354D01*
X206815454Y-66384354D01*
X206660809Y-66415115D01*
X206660797Y-66415118D01*
X206515126Y-66475456D01*
X206515113Y-66475463D01*
X206384010Y-66563064D01*
X206384006Y-66563067D01*
X206272512Y-66674561D01*
X206272509Y-66674565D01*
X206184908Y-66805668D01*
X206184901Y-66805681D01*
X206124563Y-66951352D01*
X206124560Y-66951364D01*
X206093799Y-67106007D01*
X196384204Y-67106007D01*
X196415550Y-67093023D01*
X196546660Y-67005418D01*
X196658160Y-66893918D01*
X196745765Y-66762808D01*
X196806108Y-66617126D01*
X196836871Y-66462471D01*
X196836871Y-66304787D01*
X196836871Y-66304784D01*
X196836870Y-66304782D01*
X196826308Y-66251682D01*
X196806108Y-66150132D01*
X196802367Y-66141100D01*
X196745768Y-66004456D01*
X196745761Y-66004443D01*
X196658160Y-65873340D01*
X196658157Y-65873336D01*
X196546663Y-65761842D01*
X196546659Y-65761839D01*
X196415556Y-65674238D01*
X196415543Y-65674231D01*
X196269872Y-65613893D01*
X196269860Y-65613890D01*
X196115216Y-65583129D01*
X196115213Y-65583129D01*
X195957529Y-65583129D01*
X195957526Y-65583129D01*
X195802881Y-65613890D01*
X195802869Y-65613893D01*
X195657198Y-65674231D01*
X195657185Y-65674238D01*
X195526082Y-65761839D01*
X195526078Y-65761842D01*
X195414584Y-65873336D01*
X195414581Y-65873340D01*
X195326980Y-66004443D01*
X195326973Y-66004456D01*
X195266635Y-66150127D01*
X195266632Y-66150139D01*
X195235871Y-66304782D01*
X194515491Y-66304782D01*
X194550358Y-66252601D01*
X194565591Y-66229804D01*
X194565592Y-66229802D01*
X194589387Y-66194190D01*
X194589390Y-66194185D01*
X194589394Y-66194179D01*
X194649737Y-66048497D01*
X194680500Y-65893842D01*
X194680500Y-65736158D01*
X194680500Y-65736155D01*
X194680499Y-65736153D01*
X194660149Y-65633847D01*
X194649737Y-65581503D01*
X194633683Y-65542744D01*
X194589397Y-65435827D01*
X194589390Y-65435814D01*
X194501789Y-65304711D01*
X194501786Y-65304707D01*
X194390292Y-65193213D01*
X194390288Y-65193210D01*
X194259185Y-65105609D01*
X194259172Y-65105602D01*
X194113501Y-65045264D01*
X194113489Y-65045261D01*
X193958845Y-65014500D01*
X193958842Y-65014500D01*
X193801158Y-65014500D01*
X193801155Y-65014500D01*
X193646510Y-65045261D01*
X193646498Y-65045264D01*
X193500827Y-65105602D01*
X193500814Y-65105609D01*
X193369711Y-65193210D01*
X193369707Y-65193213D01*
X193258213Y-65304707D01*
X193258210Y-65304711D01*
X193170609Y-65435814D01*
X193170602Y-65435827D01*
X193110264Y-65581498D01*
X193110261Y-65581510D01*
X193079500Y-65736153D01*
X191825925Y-65736153D01*
X191857578Y-65704500D01*
X191919694Y-65642385D01*
X191921786Y-65640292D01*
X191921789Y-65640289D01*
X192009394Y-65509179D01*
X192069737Y-65363497D01*
X192100500Y-65208842D01*
X192100500Y-65051158D01*
X192100500Y-65051155D01*
X192100499Y-65051153D01*
X192093208Y-65014500D01*
X192069737Y-64896503D01*
X192065879Y-64887189D01*
X192010918Y-64754500D01*
X206649500Y-64754500D01*
X206649500Y-64912193D01*
X206680261Y-65066836D01*
X206680264Y-65066848D01*
X206740602Y-65212519D01*
X206740609Y-65212532D01*
X206828210Y-65343635D01*
X206828213Y-65343639D01*
X206939707Y-65455133D01*
X206939711Y-65455136D01*
X207070814Y-65542737D01*
X207070827Y-65542744D01*
X207216498Y-65603082D01*
X207216503Y-65603084D01*
X207371153Y-65633846D01*
X207371156Y-65633847D01*
X207371158Y-65633847D01*
X207528844Y-65633847D01*
X207528845Y-65633846D01*
X207683497Y-65603084D01*
X207829179Y-65542741D01*
X207960289Y-65455136D01*
X207960291Y-65455133D01*
X207964067Y-65452035D01*
X208028375Y-65424718D01*
X208097243Y-65436504D01*
X208111627Y-65444780D01*
X208220821Y-65517741D01*
X208220823Y-65517742D01*
X208220827Y-65517744D01*
X208366498Y-65578082D01*
X208366503Y-65578084D01*
X208492176Y-65603082D01*
X208521153Y-65608846D01*
X208521156Y-65608847D01*
X208521158Y-65608847D01*
X208678844Y-65608847D01*
X208678845Y-65608846D01*
X208833497Y-65578084D01*
X208979179Y-65517741D01*
X209110289Y-65430136D01*
X209221789Y-65318636D01*
X209309394Y-65187526D01*
X209369737Y-65041844D01*
X209400500Y-64887189D01*
X209400500Y-64729505D01*
X209400500Y-64729502D01*
X209400499Y-64729500D01*
X209391494Y-64684228D01*
X209369737Y-64574850D01*
X209343082Y-64510499D01*
X209309397Y-64429174D01*
X209309390Y-64429161D01*
X209221789Y-64298058D01*
X209221786Y-64298054D01*
X209110292Y-64186560D01*
X209110288Y-64186557D01*
X208979185Y-64098956D01*
X208979172Y-64098949D01*
X208833501Y-64038611D01*
X208833489Y-64038608D01*
X208678845Y-64007847D01*
X208678842Y-64007847D01*
X208521158Y-64007847D01*
X208521155Y-64007847D01*
X208366510Y-64038608D01*
X208366498Y-64038611D01*
X208220827Y-64098949D01*
X208220814Y-64098956D01*
X208089707Y-64186559D01*
X208085920Y-64189668D01*
X208021608Y-64216977D01*
X207952742Y-64205182D01*
X207938370Y-64196912D01*
X207829185Y-64123956D01*
X207829172Y-64123949D01*
X207683501Y-64063611D01*
X207683489Y-64063608D01*
X207528845Y-64032847D01*
X207528842Y-64032847D01*
X207371158Y-64032847D01*
X207371155Y-64032847D01*
X207216510Y-64063608D01*
X207216498Y-64063611D01*
X207070827Y-64123949D01*
X207070814Y-64123956D01*
X206939711Y-64211557D01*
X206939707Y-64211560D01*
X206828213Y-64323054D01*
X206828210Y-64323058D01*
X206740609Y-64454161D01*
X206740602Y-64454174D01*
X206680264Y-64599845D01*
X206680261Y-64599857D01*
X206649500Y-64754500D01*
X192010918Y-64754500D01*
X192009397Y-64750827D01*
X192009390Y-64750814D01*
X191921789Y-64619711D01*
X191921786Y-64619707D01*
X191810292Y-64508213D01*
X191810288Y-64508210D01*
X191679185Y-64420609D01*
X191679172Y-64420602D01*
X191533501Y-64360264D01*
X191533489Y-64360261D01*
X191378845Y-64329500D01*
X191378842Y-64329500D01*
X191221158Y-64329500D01*
X191221155Y-64329500D01*
X191066510Y-64360261D01*
X191066498Y-64360264D01*
X190920827Y-64420602D01*
X190920814Y-64420609D01*
X190789711Y-64508210D01*
X190789707Y-64508213D01*
X190678213Y-64619707D01*
X190678210Y-64619711D01*
X190590609Y-64750814D01*
X190590602Y-64750827D01*
X190530264Y-64896498D01*
X190530261Y-64896510D01*
X190499500Y-65051153D01*
X180783932Y-65051153D01*
X180733501Y-65030264D01*
X180733489Y-65030261D01*
X180578845Y-64999500D01*
X180578842Y-64999500D01*
X180421158Y-64999500D01*
X180421155Y-64999500D01*
X180266510Y-65030261D01*
X180266498Y-65030264D01*
X180120827Y-65090602D01*
X180120814Y-65090609D01*
X179989711Y-65178210D01*
X179989707Y-65178213D01*
X179878213Y-65289707D01*
X179878210Y-65289711D01*
X179790609Y-65420814D01*
X179790602Y-65420827D01*
X179730264Y-65566498D01*
X179730261Y-65566510D01*
X179699500Y-65721153D01*
X177700500Y-65721153D01*
X177700500Y-63801153D01*
X179379500Y-63801153D01*
X179379500Y-63958846D01*
X179410261Y-64113489D01*
X179410264Y-64113501D01*
X179470602Y-64259172D01*
X179470609Y-64259185D01*
X179558210Y-64390288D01*
X179558213Y-64390292D01*
X179669707Y-64501786D01*
X179669711Y-64501789D01*
X179800814Y-64589390D01*
X179800827Y-64589397D01*
X179945665Y-64649390D01*
X179946503Y-64649737D01*
X180095120Y-64679299D01*
X180101153Y-64680499D01*
X180101156Y-64680500D01*
X180101158Y-64680500D01*
X180258844Y-64680500D01*
X180258845Y-64680499D01*
X180413497Y-64649737D01*
X180559179Y-64589394D01*
X180690289Y-64501789D01*
X180801789Y-64390289D01*
X180889394Y-64259179D01*
X180949737Y-64113497D01*
X180980500Y-63958842D01*
X180980500Y-63861153D01*
X197139500Y-63861153D01*
X197139500Y-64018846D01*
X197170261Y-64173489D01*
X197170264Y-64173501D01*
X197230602Y-64319172D01*
X197230609Y-64319185D01*
X197318210Y-64450288D01*
X197318213Y-64450292D01*
X197429707Y-64561786D01*
X197429711Y-64561789D01*
X197560814Y-64649390D01*
X197560827Y-64649397D01*
X197668696Y-64694077D01*
X197706503Y-64709737D01*
X197805858Y-64729500D01*
X197861153Y-64740499D01*
X197861156Y-64740500D01*
X197861158Y-64740500D01*
X198018844Y-64740500D01*
X198018845Y-64740499D01*
X198173497Y-64709737D01*
X198319179Y-64649394D01*
X198450289Y-64561789D01*
X198561789Y-64450289D01*
X198649394Y-64319179D01*
X198709737Y-64173497D01*
X198740500Y-64018842D01*
X198740500Y-63861158D01*
X198740500Y-63861155D01*
X198740499Y-63861153D01*
X198728565Y-63801158D01*
X198709737Y-63706503D01*
X198678526Y-63631153D01*
X199064500Y-63631153D01*
X199064500Y-63788846D01*
X199095261Y-63943489D01*
X199095264Y-63943501D01*
X199155602Y-64089172D01*
X199155609Y-64089185D01*
X199243210Y-64220288D01*
X199243213Y-64220292D01*
X199354707Y-64331786D01*
X199354711Y-64331789D01*
X199485814Y-64419390D01*
X199485827Y-64419397D01*
X199631498Y-64479735D01*
X199631503Y-64479737D01*
X199774661Y-64508213D01*
X199786153Y-64510499D01*
X199786156Y-64510500D01*
X199786158Y-64510500D01*
X199943843Y-64510500D01*
X199987650Y-64501786D01*
X200036962Y-64491977D01*
X200106552Y-64498204D01*
X200148834Y-64525913D01*
X200154706Y-64531785D01*
X200154710Y-64531788D01*
X200285813Y-64619389D01*
X200285826Y-64619396D01*
X200430447Y-64679299D01*
X200431502Y-64679736D01*
X200582316Y-64709735D01*
X200586152Y-64710498D01*
X200586155Y-64710499D01*
X200586157Y-64710499D01*
X200743843Y-64710499D01*
X200743844Y-64710498D01*
X200898496Y-64679736D01*
X201011165Y-64633066D01*
X201044171Y-64619396D01*
X201044171Y-64619395D01*
X201044178Y-64619393D01*
X201175288Y-64531788D01*
X201286788Y-64420288D01*
X201374393Y-64289178D01*
X201434736Y-64143496D01*
X201465499Y-63988841D01*
X201465499Y-63831157D01*
X201465499Y-63831153D01*
X201465412Y-63830717D01*
X204154076Y-63830717D01*
X204154076Y-63988410D01*
X204184837Y-64143053D01*
X204184840Y-64143065D01*
X204245178Y-64288736D01*
X204245185Y-64288749D01*
X204332786Y-64419852D01*
X204332789Y-64419856D01*
X204444283Y-64531350D01*
X204444287Y-64531353D01*
X204575390Y-64618954D01*
X204575403Y-64618961D01*
X204721074Y-64679299D01*
X204721079Y-64679301D01*
X204874080Y-64709735D01*
X204875729Y-64710063D01*
X204875732Y-64710064D01*
X204875734Y-64710064D01*
X205033420Y-64710064D01*
X205033421Y-64710063D01*
X205188073Y-64679301D01*
X205297797Y-64633852D01*
X205297798Y-64633852D01*
X205331937Y-64619711D01*
X205333755Y-64618958D01*
X205464865Y-64531353D01*
X205576365Y-64419853D01*
X205663970Y-64288743D01*
X205674315Y-64263769D01*
X205706295Y-64186560D01*
X205724313Y-64143061D01*
X205755076Y-63988406D01*
X205755076Y-63830722D01*
X205755076Y-63830719D01*
X205755075Y-63830717D01*
X205746745Y-63788842D01*
X205724313Y-63676067D01*
X205691512Y-63596877D01*
X205663973Y-63530391D01*
X205663966Y-63530378D01*
X205576365Y-63399275D01*
X205576362Y-63399271D01*
X205464868Y-63287777D01*
X205464864Y-63287774D01*
X205333761Y-63200173D01*
X205333748Y-63200166D01*
X205188077Y-63139828D01*
X205188065Y-63139825D01*
X205033421Y-63109064D01*
X205033418Y-63109064D01*
X204875734Y-63109064D01*
X204875731Y-63109064D01*
X204721086Y-63139825D01*
X204721074Y-63139828D01*
X204575403Y-63200166D01*
X204575390Y-63200173D01*
X204444287Y-63287774D01*
X204444283Y-63287777D01*
X204332789Y-63399271D01*
X204332786Y-63399275D01*
X204245185Y-63530378D01*
X204245178Y-63530391D01*
X204184840Y-63676062D01*
X204184837Y-63676074D01*
X204154076Y-63830717D01*
X201465412Y-63830717D01*
X201442600Y-63716036D01*
X201434736Y-63676502D01*
X201417296Y-63634397D01*
X201374396Y-63530826D01*
X201374389Y-63530813D01*
X201286788Y-63399710D01*
X201286785Y-63399706D01*
X201175291Y-63288212D01*
X201175287Y-63288209D01*
X201044184Y-63200608D01*
X201044171Y-63200601D01*
X200898500Y-63140263D01*
X200898488Y-63140260D01*
X200743844Y-63109499D01*
X200743841Y-63109499D01*
X200586157Y-63109499D01*
X200586152Y-63109499D01*
X200493036Y-63128021D01*
X200423444Y-63121794D01*
X200381164Y-63094085D01*
X200375292Y-63088213D01*
X200375288Y-63088210D01*
X200244185Y-63000609D01*
X200244172Y-63000602D01*
X200098501Y-62940264D01*
X200098489Y-62940261D01*
X199979956Y-62916683D01*
X199979955Y-62916683D01*
X199943844Y-62909500D01*
X199943842Y-62909500D01*
X199786158Y-62909500D01*
X199786155Y-62909500D01*
X199631510Y-62940261D01*
X199631498Y-62940264D01*
X199485827Y-63000602D01*
X199485814Y-63000609D01*
X199354711Y-63088210D01*
X199354707Y-63088213D01*
X199243213Y-63199707D01*
X199243210Y-63199711D01*
X199155609Y-63330814D01*
X199155602Y-63330827D01*
X199095264Y-63476498D01*
X199095261Y-63476510D01*
X199064500Y-63631153D01*
X198678526Y-63631153D01*
X198664329Y-63596877D01*
X198649397Y-63560827D01*
X198649390Y-63560814D01*
X198561789Y-63429711D01*
X198561786Y-63429707D01*
X198450292Y-63318213D01*
X198450288Y-63318210D01*
X198319185Y-63230609D01*
X198319172Y-63230602D01*
X198173501Y-63170264D01*
X198173489Y-63170261D01*
X198018845Y-63139500D01*
X198018842Y-63139500D01*
X197861158Y-63139500D01*
X197861155Y-63139500D01*
X197706510Y-63170261D01*
X197706498Y-63170264D01*
X197560827Y-63230602D01*
X197560814Y-63230609D01*
X197429711Y-63318210D01*
X197429707Y-63318213D01*
X197318213Y-63429707D01*
X197318210Y-63429711D01*
X197230609Y-63560814D01*
X197230602Y-63560827D01*
X197170264Y-63706498D01*
X197170261Y-63706510D01*
X197139500Y-63861153D01*
X180980500Y-63861153D01*
X180980500Y-63801158D01*
X180980500Y-63801155D01*
X180980499Y-63801153D01*
X180949738Y-63646507D01*
X180949735Y-63646498D01*
X180889397Y-63500827D01*
X180889390Y-63500814D01*
X180801789Y-63369711D01*
X180801786Y-63369707D01*
X180690292Y-63258213D01*
X180690288Y-63258210D01*
X180559185Y-63170609D01*
X180559172Y-63170602D01*
X180413501Y-63110264D01*
X180413489Y-63110261D01*
X180258845Y-63079500D01*
X180258842Y-63079500D01*
X180101158Y-63079500D01*
X180101155Y-63079500D01*
X179946510Y-63110261D01*
X179946498Y-63110264D01*
X179800827Y-63170602D01*
X179800814Y-63170609D01*
X179669711Y-63258210D01*
X179669707Y-63258213D01*
X179558213Y-63369707D01*
X179558210Y-63369711D01*
X179470609Y-63500814D01*
X179470602Y-63500827D01*
X179410264Y-63646498D01*
X179410262Y-63646507D01*
X179379500Y-63801153D01*
X177700500Y-63801153D01*
X177700500Y-62801153D01*
X207199500Y-62801153D01*
X207199500Y-62958846D01*
X207230261Y-63113489D01*
X207230264Y-63113501D01*
X207290602Y-63259172D01*
X207290609Y-63259185D01*
X207378210Y-63390288D01*
X207378213Y-63390292D01*
X207489707Y-63501786D01*
X207489711Y-63501789D01*
X207620814Y-63589390D01*
X207620827Y-63589397D01*
X207756834Y-63645732D01*
X207766503Y-63649737D01*
X207898847Y-63676062D01*
X207921153Y-63680499D01*
X207921156Y-63680500D01*
X207921158Y-63680500D01*
X208078844Y-63680500D01*
X208078845Y-63680499D01*
X208233497Y-63649737D01*
X208379179Y-63589394D01*
X208510289Y-63501789D01*
X208621789Y-63390289D01*
X208709394Y-63259179D01*
X208769737Y-63113497D01*
X208800500Y-62958842D01*
X208800500Y-62846153D01*
X210549500Y-62846153D01*
X210549500Y-63003846D01*
X210580261Y-63158489D01*
X210580264Y-63158501D01*
X210640602Y-63304172D01*
X210640609Y-63304185D01*
X210728210Y-63435288D01*
X210728213Y-63435292D01*
X210839707Y-63546786D01*
X210839711Y-63546789D01*
X210970814Y-63634390D01*
X210970827Y-63634397D01*
X211116498Y-63694735D01*
X211116503Y-63694737D01*
X211223580Y-63716036D01*
X211271153Y-63725499D01*
X211271156Y-63725500D01*
X211271158Y-63725500D01*
X211428844Y-63725500D01*
X211428845Y-63725499D01*
X211583497Y-63694737D01*
X211729179Y-63634394D01*
X211860289Y-63546789D01*
X211971789Y-63435289D01*
X212059394Y-63304179D01*
X212119737Y-63158497D01*
X212150500Y-63003842D01*
X212150500Y-62846158D01*
X212150500Y-62846155D01*
X212150499Y-62846153D01*
X212146120Y-62824140D01*
X212119737Y-62691503D01*
X212109364Y-62666459D01*
X212059397Y-62545827D01*
X212059390Y-62545814D01*
X211971789Y-62414711D01*
X211971786Y-62414707D01*
X211868232Y-62311153D01*
X224089500Y-62311153D01*
X224089500Y-62468846D01*
X224120261Y-62623489D01*
X224120264Y-62623501D01*
X224180602Y-62769172D01*
X224180609Y-62769185D01*
X224268210Y-62900288D01*
X224268213Y-62900292D01*
X224379707Y-63011786D01*
X224379711Y-63011789D01*
X224510814Y-63099390D01*
X224510827Y-63099397D01*
X224653490Y-63158489D01*
X224656503Y-63159737D01*
X224801898Y-63188658D01*
X224811153Y-63190499D01*
X224811156Y-63190500D01*
X224811158Y-63190500D01*
X224968844Y-63190500D01*
X224968845Y-63190499D01*
X225123497Y-63159737D01*
X225269179Y-63099394D01*
X225400289Y-63011789D01*
X225511789Y-62900289D01*
X225599394Y-62769179D01*
X225659737Y-62623497D01*
X225690500Y-62468842D01*
X225690500Y-62311158D01*
X225690500Y-62311155D01*
X225690499Y-62311153D01*
X225682025Y-62268554D01*
X225659737Y-62156503D01*
X225651952Y-62137708D01*
X225646509Y-62124567D01*
X225639040Y-62055098D01*
X225670315Y-61992619D01*
X225673344Y-61989479D01*
X225702162Y-61960662D01*
X225789767Y-61829552D01*
X225798345Y-61808844D01*
X225813348Y-61772623D01*
X225850110Y-61683870D01*
X225880873Y-61529215D01*
X225880873Y-61371531D01*
X225880873Y-61371528D01*
X225880872Y-61371526D01*
X225872450Y-61329185D01*
X225850110Y-61216876D01*
X225849698Y-61215881D01*
X225789770Y-61071200D01*
X225789763Y-61071187D01*
X225702162Y-60940084D01*
X225702159Y-60940080D01*
X225590665Y-60828586D01*
X225590661Y-60828583D01*
X225459558Y-60740982D01*
X225459545Y-60740975D01*
X225313874Y-60680637D01*
X225313862Y-60680634D01*
X225159218Y-60649873D01*
X225159215Y-60649873D01*
X225001531Y-60649873D01*
X225001528Y-60649873D01*
X224846883Y-60680634D01*
X224846871Y-60680637D01*
X224701200Y-60740975D01*
X224701187Y-60740982D01*
X224570084Y-60828583D01*
X224570080Y-60828586D01*
X224458586Y-60940080D01*
X224458583Y-60940084D01*
X224370982Y-61071187D01*
X224370975Y-61071200D01*
X224310637Y-61216871D01*
X224310634Y-61216883D01*
X224279873Y-61371526D01*
X224279873Y-61529219D01*
X224310634Y-61683862D01*
X224310637Y-61683874D01*
X224323863Y-61715804D01*
X224331332Y-61785273D01*
X224300056Y-61847752D01*
X224296986Y-61850935D01*
X224268208Y-61879714D01*
X224180609Y-62010814D01*
X224180602Y-62010827D01*
X224120264Y-62156498D01*
X224120261Y-62156510D01*
X224089500Y-62311153D01*
X211868232Y-62311153D01*
X211860292Y-62303213D01*
X211860288Y-62303210D01*
X211729185Y-62215609D01*
X211729172Y-62215602D01*
X211583501Y-62155264D01*
X211583489Y-62155261D01*
X211428845Y-62124500D01*
X211428842Y-62124500D01*
X211271158Y-62124500D01*
X211271155Y-62124500D01*
X211116510Y-62155261D01*
X211116498Y-62155264D01*
X210970827Y-62215602D01*
X210970814Y-62215609D01*
X210839711Y-62303210D01*
X210839707Y-62303213D01*
X210728213Y-62414707D01*
X210728210Y-62414711D01*
X210640609Y-62545814D01*
X210640602Y-62545827D01*
X210580264Y-62691498D01*
X210580261Y-62691510D01*
X210549500Y-62846153D01*
X208800500Y-62846153D01*
X208800500Y-62801158D01*
X208800500Y-62801155D01*
X208800499Y-62801153D01*
X208794139Y-62769179D01*
X208769737Y-62646503D01*
X208766923Y-62639710D01*
X208709397Y-62500827D01*
X208709390Y-62500814D01*
X208621789Y-62369711D01*
X208621786Y-62369707D01*
X208510292Y-62258213D01*
X208510288Y-62258210D01*
X208379185Y-62170609D01*
X208379172Y-62170602D01*
X208233501Y-62110264D01*
X208233489Y-62110261D01*
X208078845Y-62079500D01*
X208078842Y-62079500D01*
X207921158Y-62079500D01*
X207921155Y-62079500D01*
X207766510Y-62110261D01*
X207766498Y-62110264D01*
X207620827Y-62170602D01*
X207620814Y-62170609D01*
X207489711Y-62258210D01*
X207489707Y-62258213D01*
X207378213Y-62369707D01*
X207378210Y-62369711D01*
X207290609Y-62500814D01*
X207290602Y-62500827D01*
X207230264Y-62646498D01*
X207230261Y-62646510D01*
X207199500Y-62801153D01*
X177700500Y-62801153D01*
X177700500Y-61751153D01*
X187029500Y-61751153D01*
X187029500Y-61908846D01*
X187060261Y-62063489D01*
X187060264Y-62063501D01*
X187120602Y-62209172D01*
X187120609Y-62209185D01*
X187208210Y-62340288D01*
X187208213Y-62340292D01*
X187319707Y-62451786D01*
X187319711Y-62451789D01*
X187450814Y-62539390D01*
X187450827Y-62539397D01*
X187596498Y-62599735D01*
X187596503Y-62599737D01*
X187715912Y-62623489D01*
X187751153Y-62630499D01*
X187751156Y-62630500D01*
X187751158Y-62630500D01*
X187908844Y-62630500D01*
X187908845Y-62630499D01*
X188063497Y-62599737D01*
X188209179Y-62539394D01*
X188340289Y-62451789D01*
X188451789Y-62340289D01*
X188539394Y-62209179D01*
X188599737Y-62063497D01*
X188630500Y-61908842D01*
X188630500Y-61751158D01*
X188630500Y-61751155D01*
X188630499Y-61751153D01*
X188624250Y-61719737D01*
X188599737Y-61596503D01*
X188582014Y-61553715D01*
X188539397Y-61450827D01*
X188539390Y-61450814D01*
X188451789Y-61319711D01*
X188451786Y-61319707D01*
X188340292Y-61208213D01*
X188340288Y-61208210D01*
X188209185Y-61120609D01*
X188209172Y-61120602D01*
X188063501Y-61060264D01*
X188063489Y-61060261D01*
X187908845Y-61029500D01*
X187908842Y-61029500D01*
X187751158Y-61029500D01*
X187751155Y-61029500D01*
X187596510Y-61060261D01*
X187596498Y-61060264D01*
X187450827Y-61120602D01*
X187450814Y-61120609D01*
X187319711Y-61208210D01*
X187319707Y-61208213D01*
X187208213Y-61319707D01*
X187208210Y-61319711D01*
X187120609Y-61450814D01*
X187120602Y-61450827D01*
X187060264Y-61596498D01*
X187060261Y-61596510D01*
X187029500Y-61751153D01*
X177700500Y-61751153D01*
X177700500Y-60871153D01*
X189719500Y-60871153D01*
X189719500Y-61028846D01*
X189750261Y-61183489D01*
X189750264Y-61183501D01*
X189810602Y-61329172D01*
X189810609Y-61329185D01*
X189898210Y-61460288D01*
X189898213Y-61460292D01*
X190009707Y-61571786D01*
X190009711Y-61571789D01*
X190140814Y-61659390D01*
X190140827Y-61659397D01*
X190270081Y-61712935D01*
X190286503Y-61719737D01*
X190441153Y-61750499D01*
X190441156Y-61750500D01*
X190441158Y-61750500D01*
X190598844Y-61750500D01*
X190598845Y-61750499D01*
X190753497Y-61719737D01*
X190899179Y-61659394D01*
X190911513Y-61651153D01*
X200369500Y-61651153D01*
X200369500Y-61808846D01*
X200400261Y-61963489D01*
X200400264Y-61963501D01*
X200460602Y-62109172D01*
X200460609Y-62109185D01*
X200548210Y-62240288D01*
X200548213Y-62240292D01*
X200659707Y-62351786D01*
X200659711Y-62351789D01*
X200790814Y-62439390D01*
X200790827Y-62439397D01*
X200925120Y-62495022D01*
X200936503Y-62499737D01*
X201053348Y-62522979D01*
X201091153Y-62530499D01*
X201091156Y-62530500D01*
X201091158Y-62530500D01*
X201248844Y-62530500D01*
X201248845Y-62530499D01*
X201403497Y-62499737D01*
X201535744Y-62444959D01*
X201549172Y-62439397D01*
X201549172Y-62439396D01*
X201549179Y-62439394D01*
X201680289Y-62351789D01*
X201791789Y-62240289D01*
X201879394Y-62109179D01*
X201939737Y-61963497D01*
X201970500Y-61808842D01*
X201970500Y-61651158D01*
X201970500Y-61651155D01*
X201970499Y-61651153D01*
X201968577Y-61641489D01*
X201939737Y-61496503D01*
X201939735Y-61496498D01*
X201879397Y-61350827D01*
X201879390Y-61350814D01*
X201791789Y-61219711D01*
X201791786Y-61219707D01*
X201680292Y-61108213D01*
X201680288Y-61108210D01*
X201549185Y-61020609D01*
X201549172Y-61020602D01*
X201403501Y-60960264D01*
X201403489Y-60960261D01*
X201248845Y-60929500D01*
X201248842Y-60929500D01*
X201091158Y-60929500D01*
X201091155Y-60929500D01*
X200936510Y-60960261D01*
X200936498Y-60960264D01*
X200790827Y-61020602D01*
X200790814Y-61020609D01*
X200659711Y-61108210D01*
X200659707Y-61108213D01*
X200548213Y-61219707D01*
X200548210Y-61219711D01*
X200460609Y-61350814D01*
X200460602Y-61350827D01*
X200400264Y-61496498D01*
X200400261Y-61496510D01*
X200369500Y-61651153D01*
X190911513Y-61651153D01*
X191030289Y-61571789D01*
X191030292Y-61571786D01*
X191044694Y-61557385D01*
X191141786Y-61460292D01*
X191141789Y-61460289D01*
X191229394Y-61329179D01*
X191234032Y-61317983D01*
X191276323Y-61215881D01*
X191289737Y-61183497D01*
X191320500Y-61028842D01*
X191320500Y-60871158D01*
X191320500Y-60871155D01*
X191320499Y-60871153D01*
X191312077Y-60828813D01*
X191289737Y-60716503D01*
X191269664Y-60668041D01*
X191268370Y-60664917D01*
X191251236Y-60623552D01*
X196473599Y-60623552D01*
X196473599Y-60781245D01*
X196504360Y-60935888D01*
X196504363Y-60935900D01*
X196564701Y-61081571D01*
X196564708Y-61081584D01*
X196652309Y-61212687D01*
X196652312Y-61212691D01*
X196763806Y-61324185D01*
X196763810Y-61324188D01*
X196894913Y-61411789D01*
X196894926Y-61411796D01*
X197040597Y-61472134D01*
X197040602Y-61472136D01*
X197163138Y-61496510D01*
X197195252Y-61502898D01*
X197195255Y-61502899D01*
X197195257Y-61502899D01*
X197352943Y-61502899D01*
X197352944Y-61502898D01*
X197507596Y-61472136D01*
X197653278Y-61411793D01*
X197784388Y-61324188D01*
X197895888Y-61212688D01*
X197983493Y-61081578D01*
X197992322Y-61060264D01*
X198031523Y-60965622D01*
X198043836Y-60935896D01*
X198074599Y-60781241D01*
X198074599Y-60623557D01*
X198074599Y-60623554D01*
X198074598Y-60623552D01*
X198048227Y-60490979D01*
X198043836Y-60468902D01*
X198012115Y-60392320D01*
X197983496Y-60323226D01*
X197983489Y-60323213D01*
X197917168Y-60223957D01*
X197895888Y-60192110D01*
X197895885Y-60192106D01*
X197864932Y-60161153D01*
X213219500Y-60161153D01*
X213219500Y-60318846D01*
X213250261Y-60473489D01*
X213250264Y-60473501D01*
X213310602Y-60619172D01*
X213310609Y-60619185D01*
X213398210Y-60750288D01*
X213398213Y-60750292D01*
X213509707Y-60861786D01*
X213509711Y-60861789D01*
X213640814Y-60949390D01*
X213640827Y-60949397D01*
X213786498Y-61009735D01*
X213786503Y-61009737D01*
X213916218Y-61035539D01*
X213941153Y-61040499D01*
X213941156Y-61040500D01*
X213941158Y-61040500D01*
X214098844Y-61040500D01*
X214098845Y-61040499D01*
X214253497Y-61009737D01*
X214399179Y-60949394D01*
X214530289Y-60861789D01*
X214641789Y-60750289D01*
X214729394Y-60619179D01*
X214789737Y-60473497D01*
X214802867Y-60407490D01*
X227424298Y-60407490D01*
X227424298Y-60621204D01*
X227435167Y-60689825D01*
X227457731Y-60832288D01*
X227523770Y-61035539D01*
X227523772Y-61035542D01*
X227620796Y-61225963D01*
X227746415Y-61398861D01*
X227897534Y-61549980D01*
X228048128Y-61659394D01*
X228070439Y-61675604D01*
X228074584Y-61678144D01*
X228073475Y-61679952D01*
X228117825Y-61721848D01*
X228134614Y-61789670D01*
X228112069Y-61855803D01*
X228073676Y-61889069D01*
X228074584Y-61890550D01*
X228070439Y-61893089D01*
X227897532Y-62018715D01*
X227746416Y-62169831D01*
X227620796Y-62342730D01*
X227523772Y-62533151D01*
X227523770Y-62533154D01*
X227457731Y-62736405D01*
X227431774Y-62900288D01*
X227424298Y-62947490D01*
X227424298Y-63161204D01*
X227430397Y-63199711D01*
X227457731Y-63372288D01*
X227523770Y-63575539D01*
X227523772Y-63575542D01*
X227620796Y-63765963D01*
X227746415Y-63938861D01*
X227897534Y-64089980D01*
X228070432Y-64215599D01*
X228260853Y-64312623D01*
X228260855Y-64312624D01*
X228312795Y-64329500D01*
X228464108Y-64378664D01*
X228675191Y-64412097D01*
X228675192Y-64412097D01*
X228888904Y-64412097D01*
X228888905Y-64412097D01*
X229099988Y-64378664D01*
X229303243Y-64312623D01*
X229493664Y-64215599D01*
X229666562Y-64089980D01*
X229817681Y-63938861D01*
X229943300Y-63765963D01*
X229995014Y-63664467D01*
X230042987Y-63613673D01*
X230110807Y-63596877D01*
X230176943Y-63619414D01*
X230215982Y-63664468D01*
X230242257Y-63716036D01*
X230249133Y-63725500D01*
X230359067Y-63876811D01*
X230499584Y-64017328D01*
X230660354Y-64134134D01*
X230678736Y-64143500D01*
X230837415Y-64224352D01*
X230837418Y-64224353D01*
X230931914Y-64255056D01*
X231026412Y-64285760D01*
X231222687Y-64316847D01*
X231222688Y-64316847D01*
X231421408Y-64316847D01*
X231421409Y-64316847D01*
X231617684Y-64285760D01*
X231806680Y-64224352D01*
X231983742Y-64134134D01*
X232144512Y-64017328D01*
X232285029Y-63876811D01*
X232401835Y-63716041D01*
X232492053Y-63538979D01*
X232553461Y-63349983D01*
X232584548Y-63153708D01*
X232584548Y-62954986D01*
X232569632Y-62860811D01*
X232558594Y-62791119D01*
X232567549Y-62721825D01*
X232612545Y-62668373D01*
X232679296Y-62647734D01*
X232746610Y-62666459D01*
X232781385Y-62698836D01*
X232872421Y-62824136D01*
X232899067Y-62860811D01*
X233039584Y-63001328D01*
X233200354Y-63118134D01*
X233279578Y-63158501D01*
X233377415Y-63208352D01*
X233377418Y-63208353D01*
X233471914Y-63239056D01*
X233566412Y-63269760D01*
X233762687Y-63300847D01*
X233762688Y-63300847D01*
X233961408Y-63300847D01*
X233961409Y-63300847D01*
X234157684Y-63269760D01*
X234346680Y-63208352D01*
X234523742Y-63118134D01*
X234684512Y-63001328D01*
X234825029Y-62860811D01*
X234941835Y-62700041D01*
X235032053Y-62522979D01*
X235039860Y-62498951D01*
X235054796Y-62452983D01*
X239787748Y-62452983D01*
X239787748Y-62639710D01*
X239800995Y-62723352D01*
X239816959Y-62824140D01*
X239874661Y-63001728D01*
X239959433Y-63168104D01*
X240069189Y-63319169D01*
X240201226Y-63451206D01*
X240352291Y-63560962D01*
X240518667Y-63645734D01*
X240696255Y-63703436D01*
X240880684Y-63732647D01*
X240880685Y-63732647D01*
X241067411Y-63732647D01*
X241067412Y-63732647D01*
X241251841Y-63703436D01*
X241429429Y-63645734D01*
X241595805Y-63560962D01*
X241663163Y-63512022D01*
X241728969Y-63488543D01*
X241797023Y-63504368D01*
X241808927Y-63512018D01*
X241876291Y-63560962D01*
X242042667Y-63645734D01*
X242220255Y-63703436D01*
X242404684Y-63732647D01*
X242404685Y-63732647D01*
X242591411Y-63732647D01*
X242591412Y-63732647D01*
X242775841Y-63703436D01*
X242953429Y-63645734D01*
X243119805Y-63560962D01*
X243270870Y-63451206D01*
X243402907Y-63319169D01*
X243497726Y-63188663D01*
X247275948Y-63188663D01*
X247275948Y-63428029D01*
X247275949Y-63428045D01*
X247307074Y-63664469D01*
X247307193Y-63665366D01*
X247318216Y-63706503D01*
X247369149Y-63896587D01*
X247460752Y-64117736D01*
X247460756Y-64117746D01*
X247580443Y-64325050D01*
X247726166Y-64514960D01*
X247726172Y-64514967D01*
X247895427Y-64684222D01*
X247895434Y-64684228D01*
X248085344Y-64829951D01*
X248292648Y-64949638D01*
X248292649Y-64949638D01*
X248292652Y-64949640D01*
X248513808Y-65041246D01*
X248745029Y-65103202D01*
X248982359Y-65134447D01*
X248982366Y-65134447D01*
X249221730Y-65134447D01*
X249221737Y-65134447D01*
X249459067Y-65103202D01*
X249690288Y-65041246D01*
X249911444Y-64949640D01*
X250118752Y-64829951D01*
X250308663Y-64684227D01*
X250416099Y-64576790D01*
X250477420Y-64543307D01*
X250547112Y-64548291D01*
X250603046Y-64590162D01*
X250627463Y-64655626D01*
X250624197Y-64689935D01*
X250625013Y-64690098D01*
X250624221Y-64694077D01*
X250595448Y-64912621D01*
X250595448Y-65133072D01*
X250624220Y-65351611D01*
X250681275Y-65564543D01*
X250765629Y-65768191D01*
X250765634Y-65768202D01*
X250875844Y-65959090D01*
X250875855Y-65959106D01*
X251010040Y-66133980D01*
X251010046Y-66133987D01*
X251165907Y-66289848D01*
X251165914Y-66289854D01*
X251208805Y-66322765D01*
X251340797Y-66424046D01*
X251340804Y-66424050D01*
X251531692Y-66534260D01*
X251531697Y-66534262D01*
X251531700Y-66534264D01*
X251735356Y-66618621D01*
X251948280Y-66675674D01*
X252166830Y-66704447D01*
X252166837Y-66704447D01*
X252387259Y-66704447D01*
X252387266Y-66704447D01*
X252605816Y-66675674D01*
X252818740Y-66618621D01*
X253022396Y-66534264D01*
X253213299Y-66424046D01*
X253388183Y-66289853D01*
X253544054Y-66133982D01*
X253678247Y-65959098D01*
X253788465Y-65768195D01*
X253872822Y-65564539D01*
X253929875Y-65351615D01*
X253958648Y-65133065D01*
X253958648Y-64912629D01*
X253929875Y-64694079D01*
X253872822Y-64481155D01*
X253860036Y-64450288D01*
X253822746Y-64360261D01*
X253788465Y-64277499D01*
X253788463Y-64277496D01*
X253788461Y-64277491D01*
X253678251Y-64086603D01*
X253678247Y-64086596D01*
X253568447Y-63943501D01*
X253544055Y-63911713D01*
X253544049Y-63911706D01*
X253388188Y-63755845D01*
X253388181Y-63755839D01*
X253213307Y-63621654D01*
X253213305Y-63621652D01*
X253213299Y-63621648D01*
X253213294Y-63621645D01*
X253213291Y-63621643D01*
X253022403Y-63511433D01*
X253022392Y-63511428D01*
X252818744Y-63427074D01*
X252681457Y-63390288D01*
X252605816Y-63370020D01*
X252605815Y-63370019D01*
X252605812Y-63370019D01*
X252387273Y-63341247D01*
X252387266Y-63341247D01*
X252166830Y-63341247D01*
X252166822Y-63341247D01*
X251948283Y-63370019D01*
X251735351Y-63427074D01*
X251531703Y-63511428D01*
X251531692Y-63511433D01*
X251340804Y-63621643D01*
X251340788Y-63621654D01*
X251165915Y-63755838D01*
X251092552Y-63829201D01*
X251031228Y-63862685D01*
X250961537Y-63857700D01*
X250905603Y-63815829D01*
X250881187Y-63750364D01*
X250885096Y-63709427D01*
X250896903Y-63665366D01*
X250928148Y-63428036D01*
X250928148Y-63188658D01*
X250896903Y-62951328D01*
X250834947Y-62720107D01*
X250743341Y-62498951D01*
X250737756Y-62489278D01*
X250623652Y-62291643D01*
X250477929Y-62101733D01*
X250477923Y-62101726D01*
X250308668Y-61932471D01*
X250308661Y-61932465D01*
X250118751Y-61786742D01*
X249911447Y-61667055D01*
X249911437Y-61667051D01*
X249690288Y-61575448D01*
X249676621Y-61571786D01*
X249459067Y-61513492D01*
X249459066Y-61513491D01*
X249459063Y-61513491D01*
X249221746Y-61482248D01*
X249221743Y-61482247D01*
X249221737Y-61482247D01*
X248982359Y-61482247D01*
X248982353Y-61482247D01*
X248982349Y-61482248D01*
X248745032Y-61513491D01*
X248513807Y-61575448D01*
X248292658Y-61667051D01*
X248292648Y-61667055D01*
X248085344Y-61786742D01*
X247895434Y-61932465D01*
X247895427Y-61932471D01*
X247726172Y-62101726D01*
X247726166Y-62101733D01*
X247580443Y-62291643D01*
X247460756Y-62498947D01*
X247460752Y-62498957D01*
X247369149Y-62720106D01*
X247307192Y-62951331D01*
X247275949Y-63188648D01*
X247275948Y-63188663D01*
X243497726Y-63188663D01*
X243512663Y-63168104D01*
X243597435Y-63001728D01*
X243655137Y-62824140D01*
X243684348Y-62639711D01*
X243684348Y-62452983D01*
X243655137Y-62268554D01*
X243597435Y-62090966D01*
X243512663Y-61924590D01*
X243402907Y-61773525D01*
X243270870Y-61641488D01*
X243119805Y-61531732D01*
X242979587Y-61460288D01*
X242953431Y-61446961D01*
X242953430Y-61446960D01*
X242953429Y-61446960D01*
X242775841Y-61389258D01*
X242775839Y-61389257D01*
X242775837Y-61389257D01*
X242647066Y-61368861D01*
X242591412Y-61360047D01*
X242404684Y-61360047D01*
X242361931Y-61366818D01*
X242220258Y-61389257D01*
X242042664Y-61446961D01*
X241876291Y-61531731D01*
X241808933Y-61580670D01*
X241743126Y-61604149D01*
X241675072Y-61588323D01*
X241663163Y-61580670D01*
X241595804Y-61531731D01*
X241429431Y-61446961D01*
X241429430Y-61446960D01*
X241429429Y-61446960D01*
X241251841Y-61389258D01*
X241251839Y-61389257D01*
X241251837Y-61389257D01*
X241123066Y-61368861D01*
X241067412Y-61360047D01*
X240880684Y-61360047D01*
X240837931Y-61366818D01*
X240696258Y-61389257D01*
X240518664Y-61446961D01*
X240352290Y-61531732D01*
X240201224Y-61641489D01*
X240069190Y-61773523D01*
X239959433Y-61924589D01*
X239874662Y-62090963D01*
X239874661Y-62090965D01*
X239874661Y-62090966D01*
X239868743Y-62109179D01*
X239816958Y-62268557D01*
X239787748Y-62452983D01*
X235054796Y-62452983D01*
X235068829Y-62409794D01*
X235068829Y-62409793D01*
X235081852Y-62369711D01*
X235093461Y-62333983D01*
X235124548Y-62137708D01*
X235124548Y-61938986D01*
X235093461Y-61742711D01*
X235040811Y-61580670D01*
X235032054Y-61553717D01*
X235032053Y-61553714D01*
X234959740Y-61411793D01*
X234941835Y-61376653D01*
X234825029Y-61215883D01*
X234719174Y-61110028D01*
X234685689Y-61048705D01*
X234690673Y-60979013D01*
X234719174Y-60934666D01*
X234730854Y-60922986D01*
X234825029Y-60828811D01*
X234941835Y-60668041D01*
X235032053Y-60490979D01*
X235093461Y-60301983D01*
X235124548Y-60105708D01*
X235124548Y-59906986D01*
X235093461Y-59710711D01*
X235032053Y-59521715D01*
X235032053Y-59521714D01*
X234964188Y-59388523D01*
X234941835Y-59344653D01*
X234825029Y-59183883D01*
X234719174Y-59078028D01*
X234685689Y-59016705D01*
X234690673Y-58947013D01*
X234719174Y-58902666D01*
X234771341Y-58850499D01*
X234825029Y-58796811D01*
X234941835Y-58636041D01*
X235032053Y-58458979D01*
X235093461Y-58269983D01*
X235124548Y-58073708D01*
X235124548Y-57874986D01*
X235093461Y-57678711D01*
X235032053Y-57489715D01*
X235032053Y-57489714D01*
X234956079Y-57340609D01*
X234941835Y-57312653D01*
X234825029Y-57151883D01*
X234684512Y-57011366D01*
X234523742Y-56894560D01*
X234346680Y-56804341D01*
X234346677Y-56804340D01*
X234157685Y-56742934D01*
X234024161Y-56721786D01*
X233961409Y-56711847D01*
X233762687Y-56711847D01*
X233699935Y-56721786D01*
X233566410Y-56742934D01*
X233377418Y-56804340D01*
X233377415Y-56804341D01*
X233200353Y-56894560D01*
X233039581Y-57011368D01*
X232899069Y-57151880D01*
X232782261Y-57312652D01*
X232692042Y-57489714D01*
X232692041Y-57489717D01*
X232630635Y-57678709D01*
X232599548Y-57874986D01*
X232599548Y-58073708D01*
X232599547Y-58073708D01*
X232625501Y-58237575D01*
X232616546Y-58306868D01*
X232571550Y-58360320D01*
X232504798Y-58380959D01*
X232437484Y-58362234D01*
X232402710Y-58329857D01*
X232285031Y-58167886D01*
X232285026Y-58167880D01*
X232144514Y-58027368D01*
X232144512Y-58027366D01*
X231983742Y-57910560D01*
X231806680Y-57820341D01*
X231806677Y-57820340D01*
X231617685Y-57758934D01*
X231519546Y-57743390D01*
X231421409Y-57727847D01*
X231222687Y-57727847D01*
X231157262Y-57738209D01*
X231026410Y-57758934D01*
X230837418Y-57820340D01*
X230837415Y-57820341D01*
X230660353Y-57910560D01*
X230499581Y-58027368D01*
X230359069Y-58167880D01*
X230242261Y-58328652D01*
X230152042Y-58505714D01*
X230152041Y-58505717D01*
X230090635Y-58694709D01*
X230059548Y-58890986D01*
X230059548Y-59089707D01*
X230090635Y-59285984D01*
X230152041Y-59474976D01*
X230152042Y-59474979D01*
X230225025Y-59618213D01*
X230242261Y-59652041D01*
X230359067Y-59812811D01*
X230359069Y-59812813D01*
X230464922Y-59918666D01*
X230498407Y-59979989D01*
X230493423Y-60049681D01*
X230468724Y-60090054D01*
X230466872Y-60092077D01*
X230359067Y-60199883D01*
X230323746Y-60248497D01*
X230319021Y-60253662D01*
X230294879Y-60268269D01*
X230272525Y-60285507D01*
X230265377Y-60286120D01*
X230259242Y-60289833D01*
X230231033Y-60289070D01*
X230202911Y-60291485D01*
X230196567Y-60288137D01*
X230189398Y-60287944D01*
X230166073Y-60272046D01*
X230141117Y-60258878D01*
X230137543Y-60252601D01*
X230131663Y-60248594D01*
X230121135Y-60223787D01*
X230108134Y-60200955D01*
X230107871Y-60201041D01*
X230107456Y-60199763D01*
X230106963Y-60198898D01*
X230106364Y-60196403D01*
X230040325Y-59993154D01*
X230040323Y-59993151D01*
X230040251Y-59993008D01*
X229943300Y-59802731D01*
X229817681Y-59629833D01*
X229666562Y-59478714D01*
X229493664Y-59353095D01*
X229303243Y-59256071D01*
X229303240Y-59256069D01*
X229099989Y-59190030D01*
X228994446Y-59173313D01*
X228888905Y-59156597D01*
X228675191Y-59156597D01*
X228604830Y-59167741D01*
X228464106Y-59190030D01*
X228260855Y-59256069D01*
X228260852Y-59256071D01*
X228070431Y-59353095D01*
X227897532Y-59478715D01*
X227746416Y-59629831D01*
X227620796Y-59802730D01*
X227523772Y-59993151D01*
X227523770Y-59993154D01*
X227457731Y-60196405D01*
X227435167Y-60338868D01*
X227424298Y-60407490D01*
X214802867Y-60407490D01*
X214808648Y-60378427D01*
X214808648Y-60378426D01*
X214820500Y-60318844D01*
X214820500Y-60161155D01*
X214820499Y-60161153D01*
X214804478Y-60080610D01*
X214789737Y-60006503D01*
X214784207Y-59993152D01*
X214729397Y-59860827D01*
X214729390Y-59860814D01*
X214641789Y-59729711D01*
X214641786Y-59729707D01*
X214530292Y-59618213D01*
X214530288Y-59618210D01*
X214399185Y-59530609D01*
X214399172Y-59530602D01*
X214253501Y-59470264D01*
X214253489Y-59470261D01*
X214098845Y-59439500D01*
X214098842Y-59439500D01*
X213941158Y-59439500D01*
X213941155Y-59439500D01*
X213786510Y-59470261D01*
X213786498Y-59470264D01*
X213640827Y-59530602D01*
X213640814Y-59530609D01*
X213509711Y-59618210D01*
X213509707Y-59618213D01*
X213398213Y-59729707D01*
X213398210Y-59729711D01*
X213310609Y-59860814D01*
X213310602Y-59860827D01*
X213250264Y-60006498D01*
X213250261Y-60006510D01*
X213219500Y-60161153D01*
X197864932Y-60161153D01*
X197784391Y-60080612D01*
X197784387Y-60080609D01*
X197653284Y-59993008D01*
X197653271Y-59993001D01*
X197507600Y-59932663D01*
X197507588Y-59932660D01*
X197352944Y-59901899D01*
X197352941Y-59901899D01*
X197195257Y-59901899D01*
X197195254Y-59901899D01*
X197040609Y-59932660D01*
X197040597Y-59932663D01*
X196894926Y-59993001D01*
X196894913Y-59993008D01*
X196763810Y-60080609D01*
X196763806Y-60080612D01*
X196652312Y-60192106D01*
X196652309Y-60192110D01*
X196564708Y-60323213D01*
X196564701Y-60323226D01*
X196504363Y-60468897D01*
X196504360Y-60468909D01*
X196473599Y-60623552D01*
X191251236Y-60623552D01*
X191229397Y-60570827D01*
X191229390Y-60570814D01*
X191141789Y-60439711D01*
X191141786Y-60439707D01*
X191030292Y-60328213D01*
X191030288Y-60328210D01*
X190899185Y-60240609D01*
X190899172Y-60240602D01*
X190753501Y-60180264D01*
X190753489Y-60180261D01*
X190598845Y-60149500D01*
X190598842Y-60149500D01*
X190441158Y-60149500D01*
X190441155Y-60149500D01*
X190286510Y-60180261D01*
X190286498Y-60180264D01*
X190140827Y-60240602D01*
X190140814Y-60240609D01*
X190009711Y-60328210D01*
X190009707Y-60328213D01*
X189898213Y-60439707D01*
X189898210Y-60439711D01*
X189810609Y-60570814D01*
X189810602Y-60570827D01*
X189750264Y-60716498D01*
X189750261Y-60716510D01*
X189719500Y-60871153D01*
X177700500Y-60871153D01*
X177700500Y-57971153D01*
X181149500Y-57971153D01*
X181149500Y-58128846D01*
X181180261Y-58283489D01*
X181180264Y-58283501D01*
X181240602Y-58429172D01*
X181240609Y-58429185D01*
X181328210Y-58560288D01*
X181328213Y-58560292D01*
X181439707Y-58671786D01*
X181439711Y-58671789D01*
X181570814Y-58759390D01*
X181570827Y-58759397D01*
X181661154Y-58796811D01*
X181716503Y-58819737D01*
X181871153Y-58850499D01*
X181871156Y-58850500D01*
X181871158Y-58850500D01*
X182028844Y-58850500D01*
X182028845Y-58850499D01*
X182183497Y-58819737D01*
X182329179Y-58759394D01*
X182460289Y-58671789D01*
X182571789Y-58560289D01*
X182659394Y-58429179D01*
X182719737Y-58283497D01*
X182750500Y-58128842D01*
X182750500Y-57971158D01*
X182750500Y-57971155D01*
X182750499Y-57971153D01*
X182731370Y-57874986D01*
X182719737Y-57816503D01*
X182719735Y-57816498D01*
X182659397Y-57670827D01*
X182659390Y-57670814D01*
X182571789Y-57539711D01*
X182571786Y-57539707D01*
X182460292Y-57428213D01*
X182460288Y-57428210D01*
X182329185Y-57340609D01*
X182329172Y-57340602D01*
X182183501Y-57280264D01*
X182183489Y-57280261D01*
X182028845Y-57249500D01*
X182028842Y-57249500D01*
X181871158Y-57249500D01*
X181871155Y-57249500D01*
X181716510Y-57280261D01*
X181716498Y-57280264D01*
X181570827Y-57340602D01*
X181570814Y-57340609D01*
X181439711Y-57428210D01*
X181439707Y-57428213D01*
X181328213Y-57539707D01*
X181328210Y-57539711D01*
X181240609Y-57670814D01*
X181240602Y-57670827D01*
X181180264Y-57816498D01*
X181180261Y-57816510D01*
X181149500Y-57971153D01*
X177700500Y-57971153D01*
X177700500Y-56402190D01*
X177720185Y-56335151D01*
X177772989Y-56289396D01*
X177842147Y-56279452D01*
X177905703Y-56308477D01*
X177939061Y-56354738D01*
X177990602Y-56479172D01*
X177990609Y-56479185D01*
X178078210Y-56610288D01*
X178078213Y-56610292D01*
X178189707Y-56721786D01*
X178189711Y-56721789D01*
X178320814Y-56809390D01*
X178320827Y-56809397D01*
X178466498Y-56869735D01*
X178466503Y-56869737D01*
X178591296Y-56894560D01*
X178621153Y-56900499D01*
X178621156Y-56900500D01*
X178621158Y-56900500D01*
X178778844Y-56900500D01*
X178778845Y-56900499D01*
X178933497Y-56869737D01*
X179079179Y-56809394D01*
X179210289Y-56721789D01*
X179321789Y-56610289D01*
X179409394Y-56479179D01*
X179469737Y-56333497D01*
X179500500Y-56178842D01*
X179500500Y-56021158D01*
X179500500Y-56021155D01*
X179500499Y-56021153D01*
X179469738Y-55866510D01*
X179469737Y-55866503D01*
X179460938Y-55845261D01*
X179409397Y-55720827D01*
X179409390Y-55720814D01*
X179321789Y-55589711D01*
X179321786Y-55589707D01*
X179210292Y-55478213D01*
X179210288Y-55478210D01*
X179079185Y-55390609D01*
X179079172Y-55390602D01*
X178933501Y-55330264D01*
X178933489Y-55330261D01*
X178778845Y-55299500D01*
X178778842Y-55299500D01*
X178621158Y-55299500D01*
X178621155Y-55299500D01*
X178466510Y-55330261D01*
X178466498Y-55330264D01*
X178320827Y-55390602D01*
X178320814Y-55390609D01*
X178189711Y-55478210D01*
X178189707Y-55478213D01*
X178078213Y-55589707D01*
X178078210Y-55589711D01*
X177990609Y-55720814D01*
X177990602Y-55720827D01*
X177939061Y-55845261D01*
X177895220Y-55899665D01*
X177828926Y-55921730D01*
X177761227Y-55904451D01*
X177713616Y-55853314D01*
X177700500Y-55797809D01*
X177700500Y-54221153D01*
X224199500Y-54221153D01*
X224199500Y-54378846D01*
X224230261Y-54533489D01*
X224230264Y-54533501D01*
X224290602Y-54679172D01*
X224290609Y-54679185D01*
X224378210Y-54810288D01*
X224378213Y-54810292D01*
X224489707Y-54921786D01*
X224489711Y-54921789D01*
X224620814Y-55009390D01*
X224620827Y-55009397D01*
X224766498Y-55069735D01*
X224766503Y-55069737D01*
X224921153Y-55100499D01*
X224921156Y-55100500D01*
X224921158Y-55100500D01*
X225078844Y-55100500D01*
X225078845Y-55100499D01*
X225233497Y-55069737D01*
X225379179Y-55009394D01*
X225510289Y-54921789D01*
X225621789Y-54810289D01*
X225709394Y-54679179D01*
X225769737Y-54533497D01*
X225800500Y-54378842D01*
X225800500Y-54221158D01*
X225800500Y-54221155D01*
X225800499Y-54221153D01*
X225769738Y-54066510D01*
X225769737Y-54066503D01*
X225769735Y-54066498D01*
X225709397Y-53920827D01*
X225709390Y-53920814D01*
X225621789Y-53789711D01*
X225621786Y-53789707D01*
X225510292Y-53678213D01*
X225510288Y-53678210D01*
X225379185Y-53590609D01*
X225379172Y-53590602D01*
X225233501Y-53530264D01*
X225233489Y-53530261D01*
X225078845Y-53499500D01*
X225078842Y-53499500D01*
X224921158Y-53499500D01*
X224921155Y-53499500D01*
X224766510Y-53530261D01*
X224766498Y-53530264D01*
X224620827Y-53590602D01*
X224620814Y-53590609D01*
X224489711Y-53678210D01*
X224489707Y-53678213D01*
X224378213Y-53789707D01*
X224378210Y-53789711D01*
X224290609Y-53920814D01*
X224290602Y-53920827D01*
X224230264Y-54066498D01*
X224230261Y-54066510D01*
X224199500Y-54221153D01*
X177700500Y-54221153D01*
X177700500Y-52223480D01*
X181108331Y-52223480D01*
X181108331Y-52381173D01*
X181139092Y-52535816D01*
X181139095Y-52535828D01*
X181199433Y-52681499D01*
X181199440Y-52681512D01*
X181287041Y-52812615D01*
X181287044Y-52812619D01*
X181398538Y-52924113D01*
X181398542Y-52924116D01*
X181529645Y-53011717D01*
X181529658Y-53011724D01*
X181675329Y-53072062D01*
X181675334Y-53072064D01*
X181829984Y-53102826D01*
X181829987Y-53102827D01*
X181829989Y-53102827D01*
X181987675Y-53102827D01*
X181987676Y-53102826D01*
X182142328Y-53072064D01*
X182288010Y-53011721D01*
X182419120Y-52924116D01*
X182530620Y-52812616D01*
X182618225Y-52681506D01*
X182678568Y-52535824D01*
X182709331Y-52381169D01*
X182709331Y-52223485D01*
X182709331Y-52223482D01*
X182709330Y-52223480D01*
X182690506Y-52128846D01*
X182678568Y-52068830D01*
X182638109Y-51971153D01*
X193719500Y-51971153D01*
X193719500Y-52128846D01*
X193750261Y-52283489D01*
X193750264Y-52283501D01*
X193810602Y-52429172D01*
X193810609Y-52429185D01*
X193898210Y-52560288D01*
X193898213Y-52560292D01*
X194009707Y-52671786D01*
X194009711Y-52671789D01*
X194140814Y-52759390D01*
X194140827Y-52759397D01*
X194269309Y-52812615D01*
X194286503Y-52819737D01*
X194441153Y-52850499D01*
X194441156Y-52850500D01*
X194441158Y-52850500D01*
X194598844Y-52850500D01*
X194598845Y-52850499D01*
X194753497Y-52819737D01*
X194899179Y-52759394D01*
X195030289Y-52671789D01*
X195141789Y-52560289D01*
X195229394Y-52429179D01*
X195289737Y-52283497D01*
X195320500Y-52128842D01*
X195320500Y-51971158D01*
X195320500Y-51971155D01*
X195320499Y-51971153D01*
X195314658Y-51941789D01*
X195289737Y-51816503D01*
X195241143Y-51699185D01*
X195229397Y-51670827D01*
X195229390Y-51670814D01*
X195141789Y-51539711D01*
X195141786Y-51539707D01*
X195030292Y-51428213D01*
X195030288Y-51428210D01*
X194899183Y-51340608D01*
X194899172Y-51340602D01*
X194753501Y-51280264D01*
X194753489Y-51280261D01*
X194598845Y-51249500D01*
X194598842Y-51249500D01*
X194441158Y-51249500D01*
X194441155Y-51249500D01*
X194286510Y-51280261D01*
X194286498Y-51280264D01*
X194140827Y-51340602D01*
X194140814Y-51340609D01*
X194009711Y-51428210D01*
X194009707Y-51428213D01*
X193898213Y-51539707D01*
X193898210Y-51539711D01*
X193810609Y-51670814D01*
X193810602Y-51670827D01*
X193750264Y-51816498D01*
X193750261Y-51816510D01*
X193719500Y-51971153D01*
X182638109Y-51971153D01*
X182618228Y-51923153D01*
X182618221Y-51923141D01*
X182530620Y-51792038D01*
X182530617Y-51792034D01*
X182419123Y-51680540D01*
X182419119Y-51680537D01*
X182288016Y-51592936D01*
X182288003Y-51592929D01*
X182142332Y-51532591D01*
X182142320Y-51532588D01*
X181987676Y-51501827D01*
X181987673Y-51501827D01*
X181829989Y-51501827D01*
X181829986Y-51501827D01*
X181675341Y-51532588D01*
X181675329Y-51532591D01*
X181529658Y-51592929D01*
X181529645Y-51592936D01*
X181398542Y-51680537D01*
X181398538Y-51680540D01*
X181287044Y-51792034D01*
X181287041Y-51792038D01*
X181199440Y-51923141D01*
X181199433Y-51923154D01*
X181139095Y-52068825D01*
X181139092Y-52068837D01*
X181108331Y-52223480D01*
X177700500Y-52223480D01*
X177700500Y-51241153D01*
X224259500Y-51241153D01*
X224259500Y-51398846D01*
X224290261Y-51553489D01*
X224290264Y-51553501D01*
X224350602Y-51699172D01*
X224350609Y-51699185D01*
X224438210Y-51830288D01*
X224438213Y-51830292D01*
X224549707Y-51941786D01*
X224549711Y-51941789D01*
X224680814Y-52029390D01*
X224680827Y-52029397D01*
X224778486Y-52069848D01*
X224826503Y-52089737D01*
X224981153Y-52120499D01*
X224981156Y-52120500D01*
X224981158Y-52120500D01*
X225138844Y-52120500D01*
X225138845Y-52120499D01*
X225293497Y-52089737D01*
X225439179Y-52029394D01*
X225570289Y-51941789D01*
X225681789Y-51830289D01*
X225769394Y-51699179D01*
X225777115Y-51680540D01*
X225790535Y-51648140D01*
X225829737Y-51553497D01*
X225860500Y-51398842D01*
X225860500Y-51241158D01*
X225860500Y-51241155D01*
X225860499Y-51241153D01*
X225830941Y-51092557D01*
X225829737Y-51086503D01*
X225781151Y-50969204D01*
X225769397Y-50940827D01*
X225769390Y-50940814D01*
X225688336Y-50819509D01*
X225688335Y-50819508D01*
X225681787Y-50809708D01*
X225627569Y-50755490D01*
X227424298Y-50755490D01*
X227424298Y-50969203D01*
X227457731Y-51180288D01*
X227523770Y-51383539D01*
X227523772Y-51383542D01*
X227620796Y-51573963D01*
X227746415Y-51746861D01*
X227897534Y-51897980D01*
X228055179Y-52012517D01*
X228070439Y-52023604D01*
X228074584Y-52026144D01*
X228073475Y-52027952D01*
X228117825Y-52069848D01*
X228134614Y-52137670D01*
X228112069Y-52203803D01*
X228073676Y-52237069D01*
X228074584Y-52238550D01*
X228070439Y-52241089D01*
X227897532Y-52366715D01*
X227746416Y-52517831D01*
X227620796Y-52690730D01*
X227523772Y-52881151D01*
X227523770Y-52881154D01*
X227457731Y-53084405D01*
X227454813Y-53102827D01*
X227424298Y-53295490D01*
X227424298Y-53509204D01*
X227427634Y-53530264D01*
X227457731Y-53720288D01*
X227523770Y-53923539D01*
X227523772Y-53923542D01*
X227620796Y-54113963D01*
X227746415Y-54286861D01*
X227897534Y-54437980D01*
X228070432Y-54563599D01*
X228260853Y-54660623D01*
X228260855Y-54660624D01*
X228317941Y-54679172D01*
X228464108Y-54726664D01*
X228675191Y-54760097D01*
X228675192Y-54760097D01*
X228888904Y-54760097D01*
X228888905Y-54760097D01*
X229099988Y-54726664D01*
X229303243Y-54660623D01*
X229493664Y-54563599D01*
X229666562Y-54437980D01*
X229817681Y-54286861D01*
X229943300Y-54113963D01*
X230040324Y-53923542D01*
X230106365Y-53720287D01*
X230139798Y-53509204D01*
X230139798Y-53295490D01*
X230106365Y-53084407D01*
X230040324Y-52881152D01*
X229943300Y-52690731D01*
X229817681Y-52517833D01*
X229666562Y-52366714D01*
X229505425Y-52249640D01*
X229493656Y-52241089D01*
X229489512Y-52238550D01*
X229490626Y-52236731D01*
X229446297Y-52194893D01*
X229429479Y-52127077D01*
X229451995Y-52060935D01*
X229490425Y-52027635D01*
X229489512Y-52026144D01*
X229493656Y-52023604D01*
X229493660Y-52023600D01*
X229493664Y-52023599D01*
X229666562Y-51897980D01*
X229817681Y-51746861D01*
X229943300Y-51573963D01*
X230040324Y-51383542D01*
X230074947Y-51276983D01*
X239787748Y-51276983D01*
X239787748Y-51463710D01*
X239801967Y-51553489D01*
X239816959Y-51648140D01*
X239874661Y-51825728D01*
X239959433Y-51992104D01*
X240069189Y-52143169D01*
X240201226Y-52275206D01*
X240352291Y-52384962D01*
X240518667Y-52469734D01*
X240696255Y-52527436D01*
X240880684Y-52556647D01*
X240880685Y-52556647D01*
X241067411Y-52556647D01*
X241067412Y-52556647D01*
X241251841Y-52527436D01*
X241429429Y-52469734D01*
X241595805Y-52384962D01*
X241663163Y-52336022D01*
X241728969Y-52312543D01*
X241797023Y-52328368D01*
X241808927Y-52336018D01*
X241876291Y-52384962D01*
X242042667Y-52469734D01*
X242220255Y-52527436D01*
X242404684Y-52556647D01*
X242404685Y-52556647D01*
X242591411Y-52556647D01*
X242591412Y-52556647D01*
X242775841Y-52527436D01*
X242953429Y-52469734D01*
X243119805Y-52384962D01*
X243270870Y-52275206D01*
X243402907Y-52143169D01*
X243512663Y-51992104D01*
X243597435Y-51825728D01*
X243655137Y-51648140D01*
X243684348Y-51463711D01*
X243684348Y-51276983D01*
X243655137Y-51092554D01*
X243597435Y-50914966D01*
X243512663Y-50748590D01*
X243402907Y-50597525D01*
X243294046Y-50488664D01*
X247275948Y-50488664D01*
X247275948Y-50728029D01*
X247275949Y-50728045D01*
X247303961Y-50940821D01*
X247307193Y-50965366D01*
X247339652Y-51086503D01*
X247369149Y-51196587D01*
X247460752Y-51417736D01*
X247460756Y-51417746D01*
X247580443Y-51625050D01*
X247726166Y-51814960D01*
X247726172Y-51814967D01*
X247895427Y-51984222D01*
X247895434Y-51984228D01*
X248085344Y-52129951D01*
X248292648Y-52249638D01*
X248292649Y-52249638D01*
X248292652Y-52249640D01*
X248513808Y-52341246D01*
X248745029Y-52403202D01*
X248982359Y-52434447D01*
X248982366Y-52434447D01*
X249221730Y-52434447D01*
X249221737Y-52434447D01*
X249459067Y-52403202D01*
X249690288Y-52341246D01*
X249911444Y-52249640D01*
X250118752Y-52129951D01*
X250308663Y-51984227D01*
X250477928Y-51814962D01*
X250623652Y-51625051D01*
X250743341Y-51417743D01*
X250834947Y-51196587D01*
X250896903Y-50965366D01*
X250928148Y-50728036D01*
X250928148Y-50488658D01*
X250896903Y-50251328D01*
X250885097Y-50207267D01*
X250886759Y-50137419D01*
X250925920Y-50079556D01*
X250990149Y-50052051D01*
X251059051Y-50063637D01*
X251092552Y-50087493D01*
X251165907Y-50160848D01*
X251165914Y-50160854D01*
X251283826Y-50251331D01*
X251340797Y-50295046D01*
X251340804Y-50295050D01*
X251531692Y-50405260D01*
X251531697Y-50405262D01*
X251531700Y-50405264D01*
X251658111Y-50457625D01*
X251733045Y-50488664D01*
X251735356Y-50489621D01*
X251948280Y-50546674D01*
X252166830Y-50575447D01*
X252166837Y-50575447D01*
X252387259Y-50575447D01*
X252387266Y-50575447D01*
X252605816Y-50546674D01*
X252818740Y-50489621D01*
X253022396Y-50405264D01*
X253213299Y-50295046D01*
X253388183Y-50160853D01*
X253544054Y-50004982D01*
X253678247Y-49830098D01*
X253788465Y-49639195D01*
X253872822Y-49435539D01*
X253929875Y-49222615D01*
X253958648Y-49004065D01*
X253958648Y-48783629D01*
X253929875Y-48565079D01*
X253872822Y-48352155D01*
X253863894Y-48330602D01*
X253789828Y-48151789D01*
X253788465Y-48148499D01*
X253788463Y-48148496D01*
X253788461Y-48148491D01*
X253678251Y-47957603D01*
X253678247Y-47957596D01*
X253544054Y-47782712D01*
X253544049Y-47782706D01*
X253388188Y-47626845D01*
X253388181Y-47626839D01*
X253213307Y-47492654D01*
X253213305Y-47492652D01*
X253213299Y-47492648D01*
X253213294Y-47492645D01*
X253213291Y-47492643D01*
X253022403Y-47382433D01*
X253022392Y-47382428D01*
X252818744Y-47298074D01*
X252605812Y-47241019D01*
X252387273Y-47212247D01*
X252387266Y-47212247D01*
X252166830Y-47212247D01*
X252166822Y-47212247D01*
X251948283Y-47241019D01*
X251735351Y-47298074D01*
X251531703Y-47382428D01*
X251531692Y-47382433D01*
X251340804Y-47492643D01*
X251340788Y-47492654D01*
X251165914Y-47626839D01*
X251165907Y-47626845D01*
X251010046Y-47782706D01*
X251010040Y-47782713D01*
X250875855Y-47957587D01*
X250875844Y-47957603D01*
X250765634Y-48148491D01*
X250765629Y-48148502D01*
X250681275Y-48352150D01*
X250624220Y-48565082D01*
X250595448Y-48783621D01*
X250595448Y-49004072D01*
X250624221Y-49222616D01*
X250625013Y-49226596D01*
X250623404Y-49226915D01*
X250621874Y-49290030D01*
X250582685Y-49347875D01*
X250518444Y-49375350D01*
X250449547Y-49363732D01*
X250416098Y-49339901D01*
X250308668Y-49232471D01*
X250308661Y-49232465D01*
X250118751Y-49086742D01*
X249911447Y-48967055D01*
X249911437Y-48967051D01*
X249690288Y-48875448D01*
X249459063Y-48813491D01*
X249221746Y-48782248D01*
X249221743Y-48782247D01*
X249221737Y-48782247D01*
X248982359Y-48782247D01*
X248982353Y-48782247D01*
X248982349Y-48782248D01*
X248745032Y-48813491D01*
X248513807Y-48875448D01*
X248292658Y-48967051D01*
X248292648Y-48967055D01*
X248085344Y-49086742D01*
X247895434Y-49232465D01*
X247895427Y-49232471D01*
X247726172Y-49401726D01*
X247726166Y-49401733D01*
X247580443Y-49591643D01*
X247460756Y-49798947D01*
X247460752Y-49798957D01*
X247369149Y-50020106D01*
X247307192Y-50251331D01*
X247275949Y-50488648D01*
X247275948Y-50488664D01*
X243294046Y-50488664D01*
X243270870Y-50465488D01*
X243119805Y-50355732D01*
X242953429Y-50270960D01*
X242775841Y-50213258D01*
X242775839Y-50213257D01*
X242775837Y-50213257D01*
X242647066Y-50192861D01*
X242591412Y-50184047D01*
X242404684Y-50184047D01*
X242361931Y-50190818D01*
X242220258Y-50213257D01*
X242042664Y-50270961D01*
X241876291Y-50355731D01*
X241808933Y-50404670D01*
X241743126Y-50428149D01*
X241675072Y-50412323D01*
X241663163Y-50404670D01*
X241595804Y-50355731D01*
X241429431Y-50270961D01*
X241429430Y-50270960D01*
X241429429Y-50270960D01*
X241251841Y-50213258D01*
X241251839Y-50213257D01*
X241251837Y-50213257D01*
X241123066Y-50192861D01*
X241067412Y-50184047D01*
X240880684Y-50184047D01*
X240837931Y-50190818D01*
X240696258Y-50213257D01*
X240518664Y-50270961D01*
X240352290Y-50355732D01*
X240201224Y-50465489D01*
X240069190Y-50597523D01*
X239959433Y-50748589D01*
X239874662Y-50914963D01*
X239816958Y-51092557D01*
X239787748Y-51276983D01*
X230074947Y-51276983D01*
X230106365Y-51180287D01*
X230139798Y-50969204D01*
X230139798Y-50755490D01*
X230106365Y-50544407D01*
X230063449Y-50412323D01*
X230040325Y-50341154D01*
X230040323Y-50341151D01*
X230016834Y-50295050D01*
X229943300Y-50150731D01*
X229817681Y-49977833D01*
X229666562Y-49826714D01*
X229493664Y-49701095D01*
X229303243Y-49604071D01*
X229303240Y-49604069D01*
X229099989Y-49538030D01*
X228994446Y-49521313D01*
X228888905Y-49504597D01*
X228675191Y-49504597D01*
X228604830Y-49515741D01*
X228464106Y-49538030D01*
X228260855Y-49604069D01*
X228260852Y-49604071D01*
X228070431Y-49701095D01*
X227897532Y-49826715D01*
X227746416Y-49977831D01*
X227620796Y-50150730D01*
X227523772Y-50341151D01*
X227523770Y-50341154D01*
X227457731Y-50544405D01*
X227424298Y-50755490D01*
X225627569Y-50755490D01*
X225570292Y-50698213D01*
X225570288Y-50698210D01*
X225439185Y-50610609D01*
X225439172Y-50610602D01*
X225293501Y-50550264D01*
X225293489Y-50550261D01*
X225138845Y-50519500D01*
X225138842Y-50519500D01*
X224981158Y-50519500D01*
X224981155Y-50519500D01*
X224826510Y-50550261D01*
X224826498Y-50550264D01*
X224680827Y-50610602D01*
X224680814Y-50610609D01*
X224549711Y-50698210D01*
X224549707Y-50698213D01*
X224438213Y-50809707D01*
X224438210Y-50809711D01*
X224350609Y-50940814D01*
X224350602Y-50940827D01*
X224290264Y-51086498D01*
X224290261Y-51086510D01*
X224259500Y-51241153D01*
X177700500Y-51241153D01*
X177700500Y-49321153D01*
X182999500Y-49321153D01*
X182999500Y-49478846D01*
X183030261Y-49633489D01*
X183030264Y-49633501D01*
X183090602Y-49779172D01*
X183090609Y-49779185D01*
X183178210Y-49910288D01*
X183178213Y-49910292D01*
X183289707Y-50021786D01*
X183289711Y-50021789D01*
X183420814Y-50109390D01*
X183420827Y-50109397D01*
X183520618Y-50150731D01*
X183566503Y-50169737D01*
X183721153Y-50200499D01*
X183721156Y-50200500D01*
X183721158Y-50200500D01*
X183878844Y-50200500D01*
X183878845Y-50200499D01*
X184033497Y-50169737D01*
X184179179Y-50109394D01*
X184310289Y-50021789D01*
X184398219Y-49933859D01*
X193862536Y-49933859D01*
X193862536Y-50091552D01*
X193893297Y-50246195D01*
X193893300Y-50246207D01*
X193953638Y-50391878D01*
X193953645Y-50391891D01*
X194041246Y-50522994D01*
X194041249Y-50522998D01*
X194152743Y-50634492D01*
X194152747Y-50634495D01*
X194283850Y-50722096D01*
X194283863Y-50722103D01*
X194364468Y-50755490D01*
X194429539Y-50782443D01*
X194566624Y-50809711D01*
X194584189Y-50813205D01*
X194584192Y-50813206D01*
X194584194Y-50813206D01*
X194741880Y-50813206D01*
X194741881Y-50813205D01*
X194896533Y-50782443D01*
X195009202Y-50735773D01*
X195042208Y-50722103D01*
X195042208Y-50722102D01*
X195042215Y-50722100D01*
X195173325Y-50634495D01*
X195284825Y-50522995D01*
X195372430Y-50391885D01*
X195432773Y-50246203D01*
X195463536Y-50091548D01*
X195463536Y-49933864D01*
X195463536Y-49933861D01*
X195463535Y-49933859D01*
X195442897Y-49830106D01*
X195432773Y-49779209D01*
X195376263Y-49642782D01*
X195368795Y-49573316D01*
X195387720Y-49526445D01*
X195459394Y-49419179D01*
X195519737Y-49273497D01*
X195550500Y-49118842D01*
X195550500Y-48961158D01*
X195550500Y-48961155D01*
X195550499Y-48961153D01*
X195519738Y-48806510D01*
X195519737Y-48806503D01*
X195508018Y-48778210D01*
X195459397Y-48660827D01*
X195459390Y-48660814D01*
X195371789Y-48529711D01*
X195371786Y-48529707D01*
X195260292Y-48418213D01*
X195260288Y-48418210D01*
X195129185Y-48330609D01*
X195129172Y-48330602D01*
X194983501Y-48270264D01*
X194983489Y-48270261D01*
X194828845Y-48239500D01*
X194828842Y-48239500D01*
X194671158Y-48239500D01*
X194671155Y-48239500D01*
X194516510Y-48270261D01*
X194516498Y-48270264D01*
X194370827Y-48330602D01*
X194370814Y-48330609D01*
X194239711Y-48418210D01*
X194239707Y-48418213D01*
X194128213Y-48529707D01*
X194128210Y-48529711D01*
X194040609Y-48660814D01*
X194040602Y-48660827D01*
X193980264Y-48806498D01*
X193980261Y-48806510D01*
X193949500Y-48961153D01*
X193949500Y-49118846D01*
X193980261Y-49273489D01*
X193980264Y-49273501D01*
X194036771Y-49409922D01*
X194044240Y-49479391D01*
X194025312Y-49526265D01*
X193953645Y-49633520D01*
X193953638Y-49633533D01*
X193893300Y-49779204D01*
X193893297Y-49779216D01*
X193862536Y-49933859D01*
X184398219Y-49933859D01*
X184421789Y-49910289D01*
X184477632Y-49826715D01*
X184509390Y-49779185D01*
X184509390Y-49779184D01*
X184509394Y-49779179D01*
X184569737Y-49633497D01*
X184600500Y-49478842D01*
X184600500Y-49321158D01*
X184600500Y-49321155D01*
X184600499Y-49321153D01*
X184591020Y-49273501D01*
X184569737Y-49166503D01*
X184549996Y-49118844D01*
X184509397Y-49020827D01*
X184509390Y-49020814D01*
X184421789Y-48889711D01*
X184421786Y-48889707D01*
X184310292Y-48778213D01*
X184310288Y-48778210D01*
X184179185Y-48690609D01*
X184179172Y-48690602D01*
X184033501Y-48630264D01*
X184033489Y-48630261D01*
X183878845Y-48599500D01*
X183878842Y-48599500D01*
X183721158Y-48599500D01*
X183721155Y-48599500D01*
X183566510Y-48630261D01*
X183566498Y-48630264D01*
X183420827Y-48690602D01*
X183420814Y-48690609D01*
X183289711Y-48778210D01*
X183289707Y-48778213D01*
X183178213Y-48889707D01*
X183178210Y-48889711D01*
X183090609Y-49020814D01*
X183090602Y-49020827D01*
X183030264Y-49166498D01*
X183030261Y-49166510D01*
X182999500Y-49321153D01*
X177700500Y-49321153D01*
X177700500Y-47451153D01*
X179279500Y-47451153D01*
X179279500Y-47608846D01*
X179310261Y-47763489D01*
X179310264Y-47763501D01*
X179370602Y-47909172D01*
X179370609Y-47909185D01*
X179458210Y-48040288D01*
X179458213Y-48040292D01*
X179569707Y-48151786D01*
X179569711Y-48151789D01*
X179700814Y-48239390D01*
X179700827Y-48239397D01*
X179775348Y-48270264D01*
X179846503Y-48299737D01*
X180001153Y-48330499D01*
X180001156Y-48330500D01*
X180001158Y-48330500D01*
X180158844Y-48330500D01*
X180158845Y-48330499D01*
X180313497Y-48299737D01*
X180459179Y-48239394D01*
X180590289Y-48151789D01*
X180701789Y-48040289D01*
X180789394Y-47909179D01*
X180849737Y-47763497D01*
X180880500Y-47608842D01*
X180880500Y-47451158D01*
X180880500Y-47451155D01*
X180880499Y-47451153D01*
X180849737Y-47296503D01*
X180849735Y-47296498D01*
X180789397Y-47150827D01*
X180789390Y-47150814D01*
X180758081Y-47103957D01*
X180716116Y-47041153D01*
X195539500Y-47041153D01*
X195539500Y-47198846D01*
X195570261Y-47353489D01*
X195570264Y-47353501D01*
X195630602Y-47499172D01*
X195630609Y-47499185D01*
X195718210Y-47630288D01*
X195718213Y-47630292D01*
X195829707Y-47741786D01*
X195829711Y-47741789D01*
X195960814Y-47829390D01*
X195960827Y-47829397D01*
X196106498Y-47889735D01*
X196106503Y-47889737D01*
X196261153Y-47920499D01*
X196261156Y-47920500D01*
X196261158Y-47920500D01*
X196418844Y-47920500D01*
X196418845Y-47920499D01*
X196573497Y-47889737D01*
X196719179Y-47829394D01*
X196850289Y-47741789D01*
X196961789Y-47630289D01*
X197049394Y-47499179D01*
X197109737Y-47353497D01*
X197140500Y-47198842D01*
X197140500Y-47041158D01*
X197140500Y-47041155D01*
X197140499Y-47041153D01*
X197114055Y-46908211D01*
X197109737Y-46886503D01*
X197082440Y-46820602D01*
X197049397Y-46740827D01*
X197049390Y-46740814D01*
X196961789Y-46609711D01*
X196961786Y-46609707D01*
X196850292Y-46498213D01*
X196850288Y-46498210D01*
X196719185Y-46410609D01*
X196719172Y-46410602D01*
X196573501Y-46350264D01*
X196573489Y-46350261D01*
X196418845Y-46319500D01*
X196418842Y-46319500D01*
X196261158Y-46319500D01*
X196261155Y-46319500D01*
X196106510Y-46350261D01*
X196106498Y-46350264D01*
X195960827Y-46410602D01*
X195960814Y-46410609D01*
X195829711Y-46498210D01*
X195829707Y-46498213D01*
X195718213Y-46609707D01*
X195718210Y-46609711D01*
X195630609Y-46740814D01*
X195630602Y-46740827D01*
X195570264Y-46886498D01*
X195570261Y-46886510D01*
X195539500Y-47041153D01*
X180716116Y-47041153D01*
X180701789Y-47019711D01*
X180701786Y-47019707D01*
X180590292Y-46908213D01*
X180590288Y-46908210D01*
X180459185Y-46820609D01*
X180459172Y-46820602D01*
X180313501Y-46760264D01*
X180313489Y-46760261D01*
X180158845Y-46729500D01*
X180158842Y-46729500D01*
X180001158Y-46729500D01*
X180001155Y-46729500D01*
X179846510Y-46760261D01*
X179846498Y-46760264D01*
X179700827Y-46820602D01*
X179700814Y-46820609D01*
X179569711Y-46908210D01*
X179569707Y-46908213D01*
X179458213Y-47019707D01*
X179458210Y-47019711D01*
X179370609Y-47150814D01*
X179370602Y-47150827D01*
X179310264Y-47296498D01*
X179310261Y-47296510D01*
X179279500Y-47451153D01*
X177700500Y-47451153D01*
X177700500Y-44653543D01*
X185579499Y-44653543D01*
X185617947Y-44846829D01*
X185617950Y-44846839D01*
X185693364Y-45028907D01*
X185693371Y-45028920D01*
X185802860Y-45192781D01*
X185802863Y-45192785D01*
X185942214Y-45332136D01*
X185942218Y-45332139D01*
X186106079Y-45441628D01*
X186106092Y-45441635D01*
X186288160Y-45517049D01*
X186288165Y-45517051D01*
X186288169Y-45517051D01*
X186288170Y-45517052D01*
X186481456Y-45555500D01*
X186481459Y-45555500D01*
X186678543Y-45555500D01*
X186808582Y-45529632D01*
X186871835Y-45517051D01*
X187053914Y-45441632D01*
X187217782Y-45332139D01*
X187357139Y-45192782D01*
X187466632Y-45028914D01*
X187542051Y-44846835D01*
X187580500Y-44653541D01*
X187580500Y-44078597D01*
X187600185Y-44011558D01*
X187652989Y-43965803D01*
X187722147Y-43955859D01*
X187766495Y-43971208D01*
X187807164Y-43994688D01*
X187940817Y-44030500D01*
X187940819Y-44030500D01*
X188079181Y-44030500D01*
X188079183Y-44030500D01*
X188212836Y-43994688D01*
X188332665Y-43925505D01*
X188430505Y-43827665D01*
X188499688Y-43707836D01*
X188535500Y-43574183D01*
X188535500Y-43435817D01*
X193264500Y-43435817D01*
X193264500Y-43574183D01*
X193299306Y-43704079D01*
X193300312Y-43707835D01*
X193300313Y-43707838D01*
X193369492Y-43827661D01*
X193369494Y-43827664D01*
X193369495Y-43827665D01*
X193467335Y-43925505D01*
X193467336Y-43925506D01*
X193467338Y-43925507D01*
X193519910Y-43955859D01*
X193587164Y-43994688D01*
X193720817Y-44030500D01*
X193720819Y-44030500D01*
X193859181Y-44030500D01*
X193859183Y-44030500D01*
X193992836Y-43994688D01*
X194033502Y-43971209D01*
X194101399Y-43954737D01*
X194167426Y-43977589D01*
X194210617Y-44032510D01*
X194219500Y-44078597D01*
X194219500Y-44653541D01*
X194219500Y-44653543D01*
X194219499Y-44653543D01*
X194257947Y-44846829D01*
X194257950Y-44846839D01*
X194333364Y-45028907D01*
X194333371Y-45028920D01*
X194442860Y-45192781D01*
X194442863Y-45192785D01*
X194582214Y-45332136D01*
X194582218Y-45332139D01*
X194746079Y-45441628D01*
X194746092Y-45441635D01*
X194928160Y-45517049D01*
X194928165Y-45517051D01*
X194928169Y-45517051D01*
X194928170Y-45517052D01*
X195121456Y-45555500D01*
X195121459Y-45555500D01*
X195318543Y-45555500D01*
X195448582Y-45529632D01*
X195511835Y-45517051D01*
X195693914Y-45441632D01*
X195857782Y-45332139D01*
X195997139Y-45192782D01*
X196106632Y-45028914D01*
X196182051Y-44846835D01*
X196220500Y-44653541D01*
X196220500Y-43356459D01*
X196220500Y-43356456D01*
X196182052Y-43163170D01*
X196182051Y-43163169D01*
X196182051Y-43163165D01*
X196151514Y-43089441D01*
X196106635Y-42981092D01*
X196106628Y-42981079D01*
X195997139Y-42817218D01*
X195997136Y-42817214D01*
X195857785Y-42677863D01*
X195857781Y-42677860D01*
X195693920Y-42568371D01*
X195693907Y-42568364D01*
X195511839Y-42492950D01*
X195511829Y-42492947D01*
X195318543Y-42454500D01*
X195318541Y-42454500D01*
X195121459Y-42454500D01*
X195121457Y-42454500D01*
X194928170Y-42492947D01*
X194928160Y-42492950D01*
X194746092Y-42568364D01*
X194746079Y-42568371D01*
X194582218Y-42677860D01*
X194582214Y-42677863D01*
X194442863Y-42817214D01*
X194442860Y-42817218D01*
X194333371Y-42981079D01*
X194333368Y-42981086D01*
X194309455Y-43038816D01*
X194265613Y-43093219D01*
X194199319Y-43115283D01*
X194131620Y-43098003D01*
X194119665Y-43088716D01*
X194119110Y-43089441D01*
X194112661Y-43084492D01*
X193992838Y-43015313D01*
X193992837Y-43015312D01*
X193992836Y-43015312D01*
X193859183Y-42979500D01*
X193720817Y-42979500D01*
X193587164Y-43015312D01*
X193587161Y-43015313D01*
X193467338Y-43084492D01*
X193467333Y-43084496D01*
X193369496Y-43182333D01*
X193369492Y-43182338D01*
X193300313Y-43302161D01*
X193300312Y-43302164D01*
X193264500Y-43435817D01*
X188535500Y-43435817D01*
X188499688Y-43302164D01*
X188430505Y-43182335D01*
X188332665Y-43084495D01*
X188332664Y-43084494D01*
X188332661Y-43084492D01*
X188212838Y-43015313D01*
X188212837Y-43015312D01*
X188212836Y-43015312D01*
X188079183Y-42979500D01*
X187940817Y-42979500D01*
X187807164Y-43015312D01*
X187807161Y-43015313D01*
X187687338Y-43084492D01*
X187680890Y-43089441D01*
X187678799Y-43086717D01*
X187631258Y-43112573D01*
X187561575Y-43107470D01*
X187505712Y-43065504D01*
X187490544Y-43038814D01*
X187466635Y-42981092D01*
X187466628Y-42981079D01*
X187357139Y-42817218D01*
X187357136Y-42817214D01*
X187217785Y-42677863D01*
X187217781Y-42677860D01*
X187053920Y-42568371D01*
X187053907Y-42568364D01*
X186871839Y-42492950D01*
X186871829Y-42492947D01*
X186678543Y-42454500D01*
X186678541Y-42454500D01*
X186481459Y-42454500D01*
X186481457Y-42454500D01*
X186288170Y-42492947D01*
X186288160Y-42492950D01*
X186106092Y-42568364D01*
X186106079Y-42568371D01*
X185942218Y-42677860D01*
X185942214Y-42677863D01*
X185802863Y-42817214D01*
X185802860Y-42817218D01*
X185693371Y-42981079D01*
X185693364Y-42981092D01*
X185617950Y-43163160D01*
X185617947Y-43163170D01*
X185579500Y-43356456D01*
X185579500Y-43356459D01*
X185579500Y-44653541D01*
X185579500Y-44653543D01*
X185579499Y-44653543D01*
X177700500Y-44653543D01*
X177700500Y-41921153D01*
X225699500Y-41921153D01*
X225699500Y-42078846D01*
X225730261Y-42233489D01*
X225730264Y-42233501D01*
X225790602Y-42379172D01*
X225790609Y-42379185D01*
X225825304Y-42431109D01*
X225846182Y-42497786D01*
X225827698Y-42565167D01*
X225825304Y-42568891D01*
X225790609Y-42620814D01*
X225790602Y-42620827D01*
X225730264Y-42766498D01*
X225730261Y-42766510D01*
X225699500Y-42921153D01*
X225699500Y-43078846D01*
X225730261Y-43233489D01*
X225730264Y-43233501D01*
X225790602Y-43379172D01*
X225790609Y-43379185D01*
X225878210Y-43510288D01*
X225878213Y-43510292D01*
X225989707Y-43621786D01*
X225989711Y-43621789D01*
X226120814Y-43709390D01*
X226120827Y-43709397D01*
X226253669Y-43764421D01*
X226266503Y-43769737D01*
X226394423Y-43795182D01*
X226421153Y-43800499D01*
X226421156Y-43800500D01*
X226421158Y-43800500D01*
X226578844Y-43800500D01*
X226578845Y-43800499D01*
X226733497Y-43769737D01*
X226879179Y-43709394D01*
X226928975Y-43676120D01*
X226995651Y-43655242D01*
X227063031Y-43673726D01*
X227066737Y-43676107D01*
X227108596Y-43704077D01*
X227108598Y-43704078D01*
X227108600Y-43704079D01*
X227254273Y-43764418D01*
X227254278Y-43764420D01*
X227408928Y-43795182D01*
X227408931Y-43795183D01*
X227408933Y-43795183D01*
X227566619Y-43795183D01*
X227566620Y-43795182D01*
X227721272Y-43764420D01*
X227866954Y-43704077D01*
X227921017Y-43667952D01*
X227987693Y-43647074D01*
X228055074Y-43665558D01*
X228058785Y-43667943D01*
X228120821Y-43709394D01*
X228120822Y-43709394D01*
X228120823Y-43709395D01*
X228253669Y-43764421D01*
X228266503Y-43769737D01*
X228394423Y-43795182D01*
X228421153Y-43800499D01*
X228421156Y-43800500D01*
X228421158Y-43800500D01*
X228578844Y-43800500D01*
X228578845Y-43800499D01*
X228733497Y-43769737D01*
X228879179Y-43709394D01*
X228931110Y-43674694D01*
X228997785Y-43653816D01*
X229065165Y-43672300D01*
X229068863Y-43674676D01*
X229120821Y-43709394D01*
X229120823Y-43709395D01*
X229120825Y-43709396D01*
X229253669Y-43764421D01*
X229266503Y-43769737D01*
X229394423Y-43795182D01*
X229421153Y-43800499D01*
X229421156Y-43800500D01*
X229421158Y-43800500D01*
X229578844Y-43800500D01*
X229578845Y-43800499D01*
X229733497Y-43769737D01*
X229879179Y-43709394D01*
X229931110Y-43674694D01*
X229997785Y-43653816D01*
X230065165Y-43672300D01*
X230068863Y-43674676D01*
X230120821Y-43709394D01*
X230120823Y-43709395D01*
X230120825Y-43709396D01*
X230253669Y-43764421D01*
X230266503Y-43769737D01*
X230394423Y-43795182D01*
X230421153Y-43800499D01*
X230421156Y-43800500D01*
X230421158Y-43800500D01*
X230578844Y-43800500D01*
X230578845Y-43800499D01*
X230733497Y-43769737D01*
X230879179Y-43709394D01*
X231010289Y-43621789D01*
X231121789Y-43510289D01*
X231209394Y-43379179D01*
X231269737Y-43233497D01*
X231300500Y-43078842D01*
X231300500Y-42921158D01*
X231300500Y-42921155D01*
X231300499Y-42921153D01*
X231269738Y-42766510D01*
X231269737Y-42766503D01*
X231269735Y-42766498D01*
X231209396Y-42620825D01*
X231209394Y-42620822D01*
X231209394Y-42620821D01*
X231174694Y-42568889D01*
X231153816Y-42502215D01*
X231172300Y-42434835D01*
X231174676Y-42431136D01*
X231209394Y-42379179D01*
X231269737Y-42233497D01*
X231300500Y-42078842D01*
X231300500Y-41921158D01*
X231300500Y-41921155D01*
X231300499Y-41921153D01*
X231269738Y-41766510D01*
X231269737Y-41766503D01*
X231269735Y-41766498D01*
X231209397Y-41620827D01*
X231209390Y-41620814D01*
X231121789Y-41489711D01*
X231121786Y-41489707D01*
X231010292Y-41378213D01*
X231010288Y-41378210D01*
X230879185Y-41290609D01*
X230879172Y-41290602D01*
X230733501Y-41230264D01*
X230733489Y-41230261D01*
X230578845Y-41199500D01*
X230578842Y-41199500D01*
X230421158Y-41199500D01*
X230421155Y-41199500D01*
X230266510Y-41230261D01*
X230266498Y-41230264D01*
X230120827Y-41290602D01*
X230120814Y-41290609D01*
X230068891Y-41325304D01*
X230002214Y-41346182D01*
X229934833Y-41327698D01*
X229931109Y-41325304D01*
X229879185Y-41290609D01*
X229879172Y-41290602D01*
X229733501Y-41230264D01*
X229733489Y-41230261D01*
X229578845Y-41199500D01*
X229578842Y-41199500D01*
X229421158Y-41199500D01*
X229421155Y-41199500D01*
X229266510Y-41230261D01*
X229266498Y-41230264D01*
X229120827Y-41290602D01*
X229120814Y-41290609D01*
X229068891Y-41325304D01*
X229002214Y-41346182D01*
X228934833Y-41327698D01*
X228931109Y-41325304D01*
X228879185Y-41290609D01*
X228879172Y-41290602D01*
X228733501Y-41230264D01*
X228733489Y-41230261D01*
X228578845Y-41199500D01*
X228578842Y-41199500D01*
X228421158Y-41199500D01*
X228421155Y-41199500D01*
X228266510Y-41230261D01*
X228266498Y-41230264D01*
X228120827Y-41290602D01*
X228120814Y-41290609D01*
X228068891Y-41325304D01*
X228002214Y-41346182D01*
X227934833Y-41327698D01*
X227931109Y-41325304D01*
X227879185Y-41290609D01*
X227879172Y-41290602D01*
X227733501Y-41230264D01*
X227733489Y-41230261D01*
X227578845Y-41199500D01*
X227578842Y-41199500D01*
X227421158Y-41199500D01*
X227421155Y-41199500D01*
X227266510Y-41230261D01*
X227266498Y-41230264D01*
X227120827Y-41290602D01*
X227120814Y-41290609D01*
X227068891Y-41325304D01*
X227002214Y-41346182D01*
X226934833Y-41327698D01*
X226931109Y-41325304D01*
X226879185Y-41290609D01*
X226879172Y-41290602D01*
X226733501Y-41230264D01*
X226733489Y-41230261D01*
X226578845Y-41199500D01*
X226578842Y-41199500D01*
X226421158Y-41199500D01*
X226421155Y-41199500D01*
X226266510Y-41230261D01*
X226266498Y-41230264D01*
X226120827Y-41290602D01*
X226120814Y-41290609D01*
X225989711Y-41378210D01*
X225989707Y-41378213D01*
X225878213Y-41489707D01*
X225878210Y-41489711D01*
X225790609Y-41620814D01*
X225790602Y-41620827D01*
X225730264Y-41766498D01*
X225730261Y-41766510D01*
X225699500Y-41921153D01*
X177700500Y-41921153D01*
X177700500Y-40323543D01*
X185579499Y-40323543D01*
X185617947Y-40516829D01*
X185617950Y-40516839D01*
X185693364Y-40698907D01*
X185693371Y-40698920D01*
X185802860Y-40862781D01*
X185802863Y-40862785D01*
X185942214Y-41002136D01*
X185942218Y-41002139D01*
X186106079Y-41111628D01*
X186106092Y-41111635D01*
X186288160Y-41187049D01*
X186288165Y-41187051D01*
X186288169Y-41187051D01*
X186288170Y-41187052D01*
X186481456Y-41225500D01*
X186481459Y-41225500D01*
X186678543Y-41225500D01*
X186809250Y-41199500D01*
X186871835Y-41187051D01*
X187053914Y-41111632D01*
X187217782Y-41002139D01*
X187357139Y-40862782D01*
X187466632Y-40698914D01*
X187542051Y-40516835D01*
X187566585Y-40393497D01*
X187580500Y-40323543D01*
X194219499Y-40323543D01*
X194257947Y-40516829D01*
X194257950Y-40516839D01*
X194333364Y-40698907D01*
X194333371Y-40698920D01*
X194442860Y-40862781D01*
X194442863Y-40862785D01*
X194582214Y-41002136D01*
X194582218Y-41002139D01*
X194746079Y-41111628D01*
X194746092Y-41111635D01*
X194928160Y-41187049D01*
X194928165Y-41187051D01*
X194928169Y-41187051D01*
X194928170Y-41187052D01*
X195121456Y-41225500D01*
X195121459Y-41225500D01*
X195318543Y-41225500D01*
X195449250Y-41199500D01*
X195511835Y-41187051D01*
X195693914Y-41111632D01*
X195857782Y-41002139D01*
X195997139Y-40862782D01*
X196106632Y-40698914D01*
X196182051Y-40516835D01*
X196206585Y-40393497D01*
X196220500Y-40323543D01*
X196220500Y-40081153D01*
X246629500Y-40081153D01*
X246629500Y-40238846D01*
X246660261Y-40393489D01*
X246660264Y-40393501D01*
X246720602Y-40539172D01*
X246720609Y-40539185D01*
X246808210Y-40670288D01*
X246808213Y-40670292D01*
X246919707Y-40781786D01*
X246919711Y-40781789D01*
X247050814Y-40869390D01*
X247050827Y-40869397D01*
X247196498Y-40929735D01*
X247196503Y-40929737D01*
X247351153Y-40960499D01*
X247351156Y-40960500D01*
X247351158Y-40960500D01*
X247508844Y-40960500D01*
X247508845Y-40960499D01*
X247663497Y-40929737D01*
X247809179Y-40869394D01*
X247940289Y-40781789D01*
X248051789Y-40670289D01*
X248139394Y-40539179D01*
X248199737Y-40393497D01*
X248230500Y-40238842D01*
X248230500Y-40081158D01*
X248230500Y-40081155D01*
X248230499Y-40081153D01*
X248199738Y-39926510D01*
X248199737Y-39926503D01*
X248199735Y-39926498D01*
X248139397Y-39780827D01*
X248139390Y-39780814D01*
X248051789Y-39649711D01*
X248051786Y-39649707D01*
X247940292Y-39538213D01*
X247940288Y-39538210D01*
X247809185Y-39450609D01*
X247809172Y-39450602D01*
X247663501Y-39390264D01*
X247663489Y-39390261D01*
X247508845Y-39359500D01*
X247508842Y-39359500D01*
X247351158Y-39359500D01*
X247351155Y-39359500D01*
X247196510Y-39390261D01*
X247196498Y-39390264D01*
X247050827Y-39450602D01*
X247050814Y-39450609D01*
X246919711Y-39538210D01*
X246919707Y-39538213D01*
X246808213Y-39649707D01*
X246808210Y-39649711D01*
X246720609Y-39780814D01*
X246720602Y-39780827D01*
X246660264Y-39926498D01*
X246660261Y-39926510D01*
X246629500Y-40081153D01*
X196220500Y-40081153D01*
X196220500Y-39326456D01*
X196182052Y-39133170D01*
X196182051Y-39133169D01*
X196182051Y-39133165D01*
X196182049Y-39133160D01*
X196106635Y-38951092D01*
X196106628Y-38951079D01*
X195997139Y-38787218D01*
X195997136Y-38787214D01*
X195857785Y-38647863D01*
X195857781Y-38647860D01*
X195693920Y-38538371D01*
X195693907Y-38538364D01*
X195511839Y-38462950D01*
X195511829Y-38462947D01*
X195318543Y-38424500D01*
X195318541Y-38424500D01*
X195121459Y-38424500D01*
X195121457Y-38424500D01*
X194928170Y-38462947D01*
X194928160Y-38462950D01*
X194746092Y-38538364D01*
X194746079Y-38538371D01*
X194582218Y-38647860D01*
X194582214Y-38647863D01*
X194442863Y-38787214D01*
X194442860Y-38787218D01*
X194333371Y-38951079D01*
X194333364Y-38951092D01*
X194257950Y-39133160D01*
X194257947Y-39133170D01*
X194219500Y-39326456D01*
X194219500Y-39326459D01*
X194219500Y-40323541D01*
X194219500Y-40323543D01*
X194219499Y-40323543D01*
X187580500Y-40323543D01*
X187580500Y-39326456D01*
X187542052Y-39133170D01*
X187542051Y-39133169D01*
X187542051Y-39133165D01*
X187542049Y-39133160D01*
X187466635Y-38951092D01*
X187466628Y-38951079D01*
X187357139Y-38787218D01*
X187357136Y-38787214D01*
X187217785Y-38647863D01*
X187217781Y-38647860D01*
X187053920Y-38538371D01*
X187053907Y-38538364D01*
X186871839Y-38462950D01*
X186871829Y-38462947D01*
X186678543Y-38424500D01*
X186678541Y-38424500D01*
X186481459Y-38424500D01*
X186481457Y-38424500D01*
X186288170Y-38462947D01*
X186288160Y-38462950D01*
X186106092Y-38538364D01*
X186106079Y-38538371D01*
X185942218Y-38647860D01*
X185942214Y-38647863D01*
X185802863Y-38787214D01*
X185802860Y-38787218D01*
X185693371Y-38951079D01*
X185693364Y-38951092D01*
X185617950Y-39133160D01*
X185617947Y-39133170D01*
X185579500Y-39326456D01*
X185579500Y-39326459D01*
X185579500Y-40323541D01*
X185579500Y-40323543D01*
X185579499Y-40323543D01*
X177700500Y-40323543D01*
X177700500Y-37824500D01*
X177720185Y-37757461D01*
X177772989Y-37711706D01*
X177824500Y-37700500D01*
X254675500Y-37700500D01*
X254742539Y-37720185D01*
G37*
G04 #@! TD.AperFunction*
G04 #@! TD*
M02*
