G04 #@! TF.GenerationSoftware,KiCad,Pcbnew,10.0.0*
G04 #@! TF.CreationDate,2026-06-29T05:34:33-04:00*
G04 #@! TF.ProjectId,ethdemo,65746864-656d-46f2-9e6b-696361645f70,rev?*
G04 #@! TF.SameCoordinates,Original*
G04 #@! TF.FileFunction,Soldermask,Top*
G04 #@! TF.FilePolarity,Negative*
%FSLAX46Y46*%
G04 Gerber Fmt 4.6, Leading zero omitted, Abs format (unit mm)*
G04 Created by KiCad (PCBNEW 10.0.0) date 2026-06-29 05:34:33*
%MOMM*%
%LPD*%
G01*
G04 APERTURE LIST*
G04 Aperture macros list*
%AMRoundRect*
0 Rectangle with rounded corners*
0 $1 Rounding radius*
0 $2 $3 $4 $5 $6 $7 $8 $9 X,Y pos of 4 corners*
0 Add a 4 corners polygon primitive as box body*
4,1,4,$2,$3,$4,$5,$6,$7,$8,$9,$2,$3,0*
0 Add four circle primitives for the rounded corners*
1,1,$1+$1,$2,$3*
1,1,$1+$1,$4,$5*
1,1,$1+$1,$6,$7*
1,1,$1+$1,$8,$9*
0 Add four rect primitives between the rounded corners*
20,1,$1+$1,$2,$3,$4,$5,0*
20,1,$1+$1,$4,$5,$6,$7,0*
20,1,$1+$1,$6,$7,$8,$9,0*
20,1,$1+$1,$8,$9,$2,$3,0*%
G04 Aperture macros list end*
%ADD10RoundRect,0.237500X-0.237500X0.250000X-0.237500X-0.250000X0.237500X-0.250000X0.237500X0.250000X0*%
%ADD11RoundRect,0.225000X-0.225000X-0.250000X0.225000X-0.250000X0.225000X0.250000X-0.225000X0.250000X0*%
%ADD12RoundRect,0.225000X0.225000X0.250000X-0.225000X0.250000X-0.225000X-0.250000X0.225000X-0.250000X0*%
%ADD13C,2.500000*%
%ADD14RoundRect,0.200000X0.200000X0.275000X-0.200000X0.275000X-0.200000X-0.275000X0.200000X-0.275000X0*%
%ADD15RoundRect,0.200000X-0.200000X-0.275000X0.200000X-0.275000X0.200000X0.275000X-0.200000X0.275000X0*%
%ADD16RoundRect,0.225000X0.250000X-0.225000X0.250000X0.225000X-0.250000X0.225000X-0.250000X-0.225000X0*%
%ADD17R,1.346200X0.254000*%
%ADD18R,0.254000X1.346200*%
%ADD19C,3.251200*%
%ADD20C,1.728000*%
%ADD21C,1.575600*%
%ADD22C,1.918500*%
%ADD23C,2.566200*%
%ADD24RoundRect,0.225000X-0.250000X0.225000X-0.250000X-0.225000X0.250000X-0.225000X0.250000X0.225000X0*%
%ADD25RoundRect,0.243750X0.243750X0.456250X-0.243750X0.456250X-0.243750X-0.456250X0.243750X-0.456250X0*%
%ADD26RoundRect,0.200000X0.275000X-0.200000X0.275000X0.200000X-0.275000X0.200000X-0.275000X-0.200000X0*%
%ADD27RoundRect,0.200000X-0.275000X0.200000X-0.275000X-0.200000X0.275000X-0.200000X0.275000X0.200000X0*%
%ADD28R,3.200400X2.565400*%
%ADD29RoundRect,0.250000X0.375000X0.625000X-0.375000X0.625000X-0.375000X-0.625000X0.375000X-0.625000X0*%
%ADD30R,1.700000X1.700000*%
%ADD31C,1.700000*%
%ADD32R,1.630000X2.180400*%
%ADD33R,1.475000X0.450000*%
%ADD34RoundRect,0.075000X0.075000X-0.725000X0.075000X0.725000X-0.075000X0.725000X-0.075000X-0.725000X0*%
%ADD35RoundRect,0.075000X0.725000X-0.075000X0.725000X0.075000X-0.725000X0.075000X-0.725000X-0.075000X0*%
%ADD36RoundRect,0.250000X0.650000X-1.000000X0.650000X1.000000X-0.650000X1.000000X-0.650000X-1.000000X0*%
%ADD37RoundRect,0.250000X0.575000X0.400000X-0.575000X0.400000X-0.575000X-0.400000X0.575000X-0.400000X0*%
%ADD38C,0.650000*%
%ADD39RoundRect,0.150000X0.150000X0.425000X-0.150000X0.425000X-0.150000X-0.425000X0.150000X-0.425000X0*%
%ADD40RoundRect,0.075000X0.075000X0.500000X-0.075000X0.500000X-0.075000X-0.500000X0.075000X-0.500000X0*%
%ADD41O,1.000000X2.100000*%
%ADD42O,1.000000X1.800000*%
%ADD43R,0.680000X0.500000*%
%ADD44R,0.410000X0.500000*%
%ADD45R,1.950000X2.650000*%
%ADD46R,0.060000X0.100000*%
G04 APERTURE END LIST*
D10*
G04 #@! TO.C,R52*
X184700000Y-39087500D03*
X184700000Y-40912500D03*
G04 #@! TD*
D11*
G04 #@! TO.C,C18*
X223790000Y-69950000D03*
X225340000Y-69950000D03*
G04 #@! TD*
D12*
G04 #@! TO.C,C5*
X199505000Y-50590000D03*
X197955000Y-50590000D03*
G04 #@! TD*
D13*
G04 #@! TO.C,TP4*
X221250000Y-93530000D03*
G04 #@! TD*
D14*
G04 #@! TO.C,R25*
X205350000Y-66483347D03*
X203700000Y-66483347D03*
G04 #@! TD*
D10*
G04 #@! TO.C,R51*
X197100000Y-39087500D03*
X197100000Y-40912500D03*
G04 #@! TD*
D14*
G04 #@! TO.C,R37*
X199955000Y-58620000D03*
X198305000Y-58620000D03*
G04 #@! TD*
D15*
G04 #@! TO.C,R4*
X202600000Y-51705000D03*
X204250000Y-51705000D03*
G04 #@! TD*
D16*
G04 #@! TO.C,C36*
X215250000Y-77308347D03*
X215250000Y-75758347D03*
G04 #@! TD*
G04 #@! TO.C,C10*
X210100000Y-86099400D03*
X210100000Y-84549400D03*
G04 #@! TD*
D17*
G04 #@! TO.C,U2*
X216525000Y-72533347D03*
X216525000Y-72033348D03*
X216525000Y-71533346D03*
X216525000Y-71033347D03*
X216525000Y-70533348D03*
X216525000Y-70033347D03*
X216525000Y-69533347D03*
X216525000Y-69033346D03*
X216525000Y-68533347D03*
X216525000Y-68033348D03*
X216525000Y-67533346D03*
X216525000Y-67033347D03*
D18*
X215045900Y-65554247D03*
X214545901Y-65554247D03*
X214045899Y-65554247D03*
X213545900Y-65554247D03*
X213045901Y-65554247D03*
X212545900Y-65554247D03*
X212045900Y-65554247D03*
X211545899Y-65554247D03*
X211045900Y-65554247D03*
X210545901Y-65554247D03*
X210045899Y-65554247D03*
X209545900Y-65554247D03*
D17*
X208066800Y-67033347D03*
X208066800Y-67533346D03*
X208066800Y-68033348D03*
X208066800Y-68533347D03*
X208066800Y-69033346D03*
X208066800Y-69533347D03*
X208066800Y-70033347D03*
X208066800Y-70533348D03*
X208066800Y-71033347D03*
X208066800Y-71533346D03*
X208066800Y-72033348D03*
X208066800Y-72533347D03*
D18*
X209545900Y-74012447D03*
X210045899Y-74012447D03*
X210545901Y-74012447D03*
X211045900Y-74012447D03*
X211545899Y-74012447D03*
X212045900Y-74012447D03*
X212545900Y-74012447D03*
X213045901Y-74012447D03*
X213545900Y-74012447D03*
X214045899Y-74012447D03*
X214545901Y-74012447D03*
X215045900Y-74012447D03*
G04 #@! TD*
D14*
G04 #@! TO.C,R8*
X216625000Y-98899400D03*
X214975000Y-98899400D03*
G04 #@! TD*
D16*
G04 #@! TO.C,C34*
X204358643Y-71103247D03*
X204358643Y-69553247D03*
G04 #@! TD*
D12*
G04 #@! TO.C,C9*
X180185000Y-62850000D03*
X178635000Y-62850000D03*
G04 #@! TD*
G04 #@! TO.C,C20*
X249985000Y-66290000D03*
X248435000Y-66290000D03*
G04 #@! TD*
D19*
G04 #@! TO.C,J1*
X249102048Y-50608347D03*
X249102048Y-63308347D03*
D20*
X233862048Y-57974347D03*
X233862048Y-60006347D03*
X233862048Y-62038347D03*
X231322048Y-58990347D03*
X231322048Y-61022347D03*
X231322048Y-63054347D03*
D21*
X240974048Y-51370347D03*
X240974048Y-62546347D03*
X242498048Y-51370347D03*
X242498048Y-62546347D03*
D22*
X228782048Y-50862347D03*
X228782048Y-53402347D03*
X228782048Y-60514347D03*
X228782048Y-63054347D03*
D23*
X252277048Y-48893847D03*
X252277048Y-65022847D03*
G04 #@! TD*
D24*
G04 #@! TO.C,C25*
X190050000Y-66035000D03*
X190050000Y-67585000D03*
G04 #@! TD*
D25*
G04 #@! TO.C,D4*
X208292500Y-50940000D03*
X206417500Y-50940000D03*
G04 #@! TD*
D15*
G04 #@! TO.C,R46*
X227650000Y-66802000D03*
X229300000Y-66802000D03*
G04 #@! TD*
D24*
G04 #@! TO.C,C24*
X182200000Y-66590000D03*
X182200000Y-68140000D03*
G04 #@! TD*
D26*
G04 #@! TO.C,R47*
X226130000Y-62425000D03*
X226130000Y-60775000D03*
G04 #@! TD*
G04 #@! TO.C,R27*
X193850000Y-66715000D03*
X193850000Y-65065000D03*
G04 #@! TD*
D19*
G04 #@! TO.C,J2*
X249104000Y-71738000D03*
X249104000Y-84438000D03*
D20*
X233864000Y-79104000D03*
X233864000Y-81136000D03*
X233864000Y-83168000D03*
X231324000Y-80120000D03*
X231324000Y-82152000D03*
X231324000Y-84184000D03*
D21*
X240976000Y-72500000D03*
X240976000Y-83676000D03*
X242500000Y-72500000D03*
X242500000Y-83676000D03*
D22*
X228784000Y-71992000D03*
X228784000Y-74532000D03*
X228784000Y-81644000D03*
X228784000Y-84184000D03*
D23*
X252279000Y-70023500D03*
X252279000Y-86152500D03*
G04 #@! TD*
D27*
G04 #@! TO.C,R23*
X216925000Y-75708347D03*
X216925000Y-77358347D03*
G04 #@! TD*
D12*
G04 #@! TO.C,C21*
X250005000Y-87370000D03*
X248455000Y-87370000D03*
G04 #@! TD*
D26*
G04 #@! TO.C,R11*
X218175000Y-98099400D03*
X218175000Y-96449400D03*
G04 #@! TD*
G04 #@! TO.C,R31*
X205760000Y-74485000D03*
X205760000Y-72835000D03*
G04 #@! TD*
D27*
G04 #@! TO.C,R50*
X226160000Y-79885000D03*
X226160000Y-81535000D03*
G04 #@! TD*
D28*
G04 #@! TO.C,D6*
X230700000Y-91399400D03*
X230700000Y-97470000D03*
G04 #@! TD*
D16*
G04 #@! TO.C,C7*
X181080000Y-47535000D03*
X181080000Y-45985000D03*
G04 #@! TD*
D11*
G04 #@! TO.C,C26*
X236365000Y-87620000D03*
X237915000Y-87620000D03*
G04 #@! TD*
D15*
G04 #@! TO.C,R26*
X204700000Y-64883347D03*
X206350000Y-64883347D03*
G04 #@! TD*
G04 #@! TO.C,R49*
X227655439Y-68333114D03*
X229305439Y-68333114D03*
G04 #@! TD*
D26*
G04 #@! TO.C,R44*
X226130000Y-84755000D03*
X226130000Y-83105000D03*
G04 #@! TD*
D14*
G04 #@! TO.C,R34*
X211475000Y-77710000D03*
X209825000Y-77710000D03*
G04 #@! TD*
G04 #@! TO.C,R6*
X216625000Y-101949400D03*
X214975000Y-101949400D03*
G04 #@! TD*
G04 #@! TO.C,R32*
X210375000Y-88799400D03*
X208725000Y-88799400D03*
G04 #@! TD*
G04 #@! TO.C,R29*
X199965000Y-57090000D03*
X198315000Y-57090000D03*
G04 #@! TD*
D16*
G04 #@! TO.C,C17*
X218589998Y-63741600D03*
X218589998Y-62191600D03*
G04 #@! TD*
D24*
G04 #@! TO.C,C12*
X235250000Y-96774400D03*
X235250000Y-98324400D03*
G04 #@! TD*
D15*
G04 #@! TO.C,R5*
X202605000Y-53255000D03*
X204255000Y-53255000D03*
G04 #@! TD*
D11*
G04 #@! TO.C,C4*
X196355000Y-62820000D03*
X197905000Y-62820000D03*
G04 #@! TD*
G04 #@! TO.C,C19*
X230742721Y-66800008D03*
X232292721Y-66800008D03*
G04 #@! TD*
D13*
G04 #@! TO.C,TP1*
X240590000Y-40150000D03*
G04 #@! TD*
D24*
G04 #@! TO.C,C3*
X183320000Y-44205000D03*
X183320000Y-45755000D03*
G04 #@! TD*
D26*
G04 #@! TO.C,R17*
X218592400Y-66915800D03*
X218592400Y-65265800D03*
G04 #@! TD*
D15*
G04 #@! TO.C,R24*
X203700000Y-68033347D03*
X205350000Y-68033347D03*
G04 #@! TD*
D26*
G04 #@! TO.C,R20*
X220700600Y-70030000D03*
X220700600Y-68380000D03*
G04 #@! TD*
D16*
G04 #@! TO.C,C33*
X205900000Y-71108347D03*
X205900000Y-69558347D03*
G04 #@! TD*
D29*
G04 #@! TO.C,F1*
X226600000Y-101974400D03*
X223800000Y-101974400D03*
G04 #@! TD*
D30*
G04 #@! TO.C,J3*
X192120000Y-78500000D03*
D31*
X189580000Y-78500000D03*
X187040000Y-78500000D03*
X184500000Y-78500000D03*
X181960000Y-78500000D03*
G04 #@! TD*
D25*
G04 #@! TO.C,D3*
X208277500Y-55600000D03*
X206402500Y-55600000D03*
G04 #@! TD*
D11*
G04 #@! TO.C,C6*
X196355000Y-48320000D03*
X197905000Y-48320000D03*
G04 #@! TD*
D26*
G04 #@! TO.C,R10*
X219750000Y-98074400D03*
X219750000Y-96424400D03*
G04 #@! TD*
G04 #@! TO.C,R18*
X216941400Y-65772800D03*
X216941400Y-64122800D03*
G04 #@! TD*
D32*
G04 #@! TO.C,D7*
X225150000Y-97813800D03*
X225150000Y-94099400D03*
G04 #@! TD*
D15*
G04 #@! TO.C,R3*
X202595000Y-55010000D03*
X204245000Y-55010000D03*
G04 #@! TD*
D33*
G04 #@! TO.C,U3*
X212162000Y-86374400D03*
X212162000Y-87024400D03*
X212162000Y-87674400D03*
X212162000Y-88324400D03*
X212162000Y-88974400D03*
X212162000Y-89624400D03*
X212162000Y-90274400D03*
X212162000Y-90924400D03*
X212162000Y-91574400D03*
X212162000Y-92224400D03*
X212162000Y-92874400D03*
X212162000Y-93524400D03*
X212162000Y-94174400D03*
X212162000Y-94824400D03*
X218038000Y-94824400D03*
X218038000Y-94174400D03*
X218038000Y-93524400D03*
X218038000Y-92874400D03*
X218038000Y-92224400D03*
X218038000Y-91574400D03*
X218038000Y-90924400D03*
X218038000Y-90274400D03*
X218038000Y-89624400D03*
X218038000Y-88974400D03*
X218038000Y-88324400D03*
X218038000Y-87674400D03*
X218038000Y-87024400D03*
X218038000Y-86374400D03*
G04 #@! TD*
D27*
G04 #@! TO.C,R45*
X226200000Y-52575000D03*
X226200000Y-54225000D03*
G04 #@! TD*
D34*
G04 #@! TO.C,U1*
X182300000Y-63265000D03*
X182800000Y-63265000D03*
X183300000Y-63265000D03*
X183800000Y-63265000D03*
X184300000Y-63265000D03*
X184800000Y-63265000D03*
X185300000Y-63265000D03*
X185800000Y-63265000D03*
X186300000Y-63265000D03*
X186800000Y-63265000D03*
X187300000Y-63265000D03*
X187800000Y-63265000D03*
X188300000Y-63265000D03*
X188800000Y-63265000D03*
X189300000Y-63265000D03*
X189800000Y-63265000D03*
X190300000Y-63265000D03*
X190800000Y-63265000D03*
X191300000Y-63265000D03*
X191800000Y-63265000D03*
X192300000Y-63265000D03*
X192800000Y-63265000D03*
X193300000Y-63265000D03*
X193800000Y-63265000D03*
X194300000Y-63265000D03*
D35*
X195975000Y-61590000D03*
X195975000Y-61090000D03*
X195975000Y-60590000D03*
X195975000Y-60090000D03*
X195975000Y-59590000D03*
X195975000Y-59090000D03*
X195975000Y-58590000D03*
X195975000Y-58090000D03*
X195975000Y-57590000D03*
X195975000Y-57090000D03*
X195975000Y-56590000D03*
X195975000Y-56090000D03*
X195975000Y-55590000D03*
X195975000Y-55090000D03*
X195975000Y-54590000D03*
X195975000Y-54090000D03*
X195975000Y-53590000D03*
X195975000Y-53090000D03*
X195975000Y-52590000D03*
X195975000Y-52090000D03*
X195975000Y-51590000D03*
X195975000Y-51090000D03*
X195975000Y-50590000D03*
X195975000Y-50090000D03*
X195975000Y-49590000D03*
D34*
X194300000Y-47915000D03*
X193800000Y-47915000D03*
X193300000Y-47915000D03*
X192800000Y-47915000D03*
X192300000Y-47915000D03*
X191800000Y-47915000D03*
X191300000Y-47915000D03*
X190800000Y-47915000D03*
X190300000Y-47915000D03*
X189800000Y-47915000D03*
X189300000Y-47915000D03*
X188800000Y-47915000D03*
X188300000Y-47915000D03*
X187800000Y-47915000D03*
X187300000Y-47915000D03*
X186800000Y-47915000D03*
X186300000Y-47915000D03*
X185800000Y-47915000D03*
X185300000Y-47915000D03*
X184800000Y-47915000D03*
X184300000Y-47915000D03*
X183800000Y-47915000D03*
X183300000Y-47915000D03*
X182800000Y-47915000D03*
X182300000Y-47915000D03*
D35*
X180625000Y-49590000D03*
X180625000Y-50090000D03*
X180625000Y-50590000D03*
X180625000Y-51090000D03*
X180625000Y-51590000D03*
X180625000Y-52090000D03*
X180625000Y-52590000D03*
X180625000Y-53090000D03*
X180625000Y-53590000D03*
X180625000Y-54090000D03*
X180625000Y-54590000D03*
X180625000Y-55090000D03*
X180625000Y-55590000D03*
X180625000Y-56090000D03*
X180625000Y-56590000D03*
X180625000Y-57090000D03*
X180625000Y-57590000D03*
X180625000Y-58090000D03*
X180625000Y-58590000D03*
X180625000Y-59090000D03*
X180625000Y-59590000D03*
X180625000Y-60090000D03*
X180625000Y-60590000D03*
X180625000Y-61090000D03*
X180625000Y-61590000D03*
G04 #@! TD*
D13*
G04 #@! TO.C,TP2*
X245140000Y-40150000D03*
G04 #@! TD*
G04 #@! TO.C,TP3*
X223830000Y-88760000D03*
G04 #@! TD*
D24*
G04 #@! TO.C,C2*
X192290000Y-65115000D03*
X192290000Y-66665000D03*
G04 #@! TD*
G04 #@! TO.C,C11*
X219925000Y-84824400D03*
X219925000Y-86374400D03*
G04 #@! TD*
D26*
G04 #@! TO.C,R48*
X226170000Y-51145000D03*
X226170000Y-49495000D03*
G04 #@! TD*
D36*
G04 #@! TO.C,D8*
X219625000Y-79758347D03*
X219625000Y-75758347D03*
G04 #@! TD*
D16*
G04 #@! TO.C,C35*
X202820263Y-71095296D03*
X202820263Y-69545296D03*
G04 #@! TD*
D14*
G04 #@! TO.C,R7*
X216625000Y-100424400D03*
X214975000Y-100424400D03*
G04 #@! TD*
G04 #@! TO.C,R9*
X216625000Y-97374400D03*
X214975000Y-97374400D03*
G04 #@! TD*
D26*
G04 #@! TO.C,R19*
X222266682Y-70026800D03*
X222266682Y-68376800D03*
G04 #@! TD*
D37*
G04 #@! TO.C,Y1*
X187990000Y-66042500D03*
X187990000Y-68242500D03*
X184290000Y-66042500D03*
X184290000Y-68242500D03*
G04 #@! TD*
D38*
G04 #@! TO.C,J9*
X193790000Y-43505000D03*
X188010000Y-43505000D03*
D39*
X194100000Y-44580000D03*
X193300000Y-44580000D03*
D40*
X192150000Y-44580000D03*
X191150000Y-44580000D03*
X190650000Y-44580000D03*
X189650000Y-44580000D03*
D39*
X188500000Y-44580000D03*
X187700000Y-44580000D03*
X187700000Y-44580000D03*
D40*
X189150000Y-44580000D03*
X190150000Y-44580000D03*
X191650000Y-44580000D03*
X192650000Y-44580000D03*
D39*
X194100000Y-44580000D03*
D41*
X195220000Y-44005000D03*
D42*
X195220000Y-39825000D03*
D41*
X186580000Y-44005000D03*
D42*
X186580000Y-39825000D03*
G04 #@! TD*
D43*
G04 #@! TO.C,Q1*
X218945000Y-100024400D03*
X218945000Y-100674400D03*
X218945000Y-101324400D03*
X218945000Y-101974400D03*
D44*
X221951000Y-101974400D03*
X221951000Y-101324400D03*
X221951000Y-100674400D03*
X221951000Y-100024400D03*
D45*
X220770000Y-100999400D03*
D46*
X221775000Y-99724400D03*
X221775000Y-102274400D03*
G04 #@! TD*
D27*
G04 #@! TO.C,R28*
X214050000Y-61358347D03*
X214050000Y-63008347D03*
G04 #@! TD*
D25*
G04 #@! TO.C,D5*
X208277500Y-53265000D03*
X206402500Y-53265000D03*
G04 #@! TD*
G36*
X250318039Y-98469685D02*
G01*
X250363794Y-98522489D01*
X250375000Y-98574000D01*
X250375000Y-104826000D01*
X250355315Y-104893039D01*
X250302511Y-104938794D01*
X250251000Y-104950000D01*
X244499000Y-104950000D01*
X244431961Y-104930315D01*
X244386206Y-104877511D01*
X244375000Y-104826000D01*
X244375000Y-98574000D01*
X244394685Y-98506961D01*
X244447489Y-98461206D01*
X244499000Y-98450000D01*
X250251000Y-98450000D01*
X250318039Y-98469685D01*
G37*
G36*
X231443039Y-37519685D02*
G01*
X231488794Y-37572489D01*
X231500000Y-37624000D01*
X231500000Y-43876000D01*
X231480315Y-43943039D01*
X231427511Y-43988794D01*
X231376000Y-44000000D01*
X225624000Y-44000000D01*
X225556961Y-43980315D01*
X225511206Y-43927511D01*
X225500000Y-43876000D01*
X225500000Y-37624000D01*
X225519685Y-37556961D01*
X225572489Y-37511206D01*
X225624000Y-37500000D01*
X231376000Y-37500000D01*
X231443039Y-37519685D01*
G37*
G36*
X220443039Y-37519685D02*
G01*
X220488794Y-37572489D01*
X220500000Y-37624000D01*
X220500000Y-43876000D01*
X220480315Y-43943039D01*
X220427511Y-43988794D01*
X220376000Y-44000000D01*
X210349000Y-44000000D01*
X210281961Y-43980315D01*
X210236206Y-43927511D01*
X210225000Y-43876000D01*
X210225000Y-37624000D01*
X210244685Y-37556961D01*
X210297489Y-37511206D01*
X210349000Y-37500000D01*
X220376000Y-37500000D01*
X220443039Y-37519685D01*
G37*
M02*
