M48
; DRILL file KiCad 10.0.0 date 2026-06-29T05:34:33
; FORMAT={-:-/ absolute / metric / decimal}
; #@! TF.CreationDate,2026-06-29T05:34:33-04:00
; #@! TF.GenerationSoftware,Kicad,Pcbnew,10.0.0
; #@! TF.FileFunction,Plated,1,4,PTH
FMAT,2
METRIC
; #@! TA.AperFunction,Plated,PTH,ViaDrill
T1C0.300
; #@! TA.AperFunction,Plated,PTH,ComponentDrill
T2C0.600
; #@! TA.AperFunction,Plated,PTH,ComponentDrill
T3C1.000
; #@! TA.AperFunction,Plated,PTH,ComponentDrill
T4C1.016
; #@! TA.AperFunction,Plated,PTH,ComponentDrill
T5C1.143
; #@! TA.AperFunction,Plated,PTH,ComponentDrill
T6C1.575
%
G90
G05
T1
X178.63Y-63.89
X178.7Y-56.1
X180.04Y-45.99
X180.08Y-47.53
X180.18Y-63.88
X180.5Y-65.8
X181.909Y-52.302
X181.95Y-58.05
X182.2Y-65.672
X182.44Y-44.21
X183.2Y-69.7
X183.8Y-49.4
X183.9Y-70.6
X184.7Y-39.9
X185.6Y-44.9
X186.13Y-67.112
X186.78Y-61.84
X187.83Y-61.83
X190.04Y-68.642
X190.47Y-59.37
X190.52Y-60.95
X191.3Y-65.13
X191.31Y-61.92
X191.35Y-66.66
X193.88Y-65.815
X194.52Y-52.05
X194.6Y-46.0
X194.663Y-50.013
X194.75Y-49.04
X196.036Y-66.384
X196.34Y-47.12
X196.34Y-63.87
X197.1Y-39.9
X197.274Y-60.702
X197.9Y-47.13
X197.94Y-63.94
X199.5Y-49.35
X199.865Y-63.71
X200.665Y-63.91
X201.17Y-61.73
X201.5Y-69.558
X203.675Y-73.508
X204.65Y-72.583
X204.955Y-63.91
X205.75Y-75.88
X206.894Y-67.185
X207.45Y-64.833
X207.79Y-88.79
X207.875Y-74.933
X207.95Y-87.42
X208.0Y-62.88
X208.6Y-64.808
X208.8Y-74.033
X209.025Y-60.808
X209.3Y-69.783
X209.41Y-66.97
X209.52Y-50.94
X209.55Y-68.033
X209.59Y-55.66
X209.64Y-53.295
X209.775Y-61.0
X210.07Y-86.98
X210.23Y-69.695
X210.3Y-66.925
X210.788Y-72.853
X210.81Y-87.52
X210.97Y-84.57
X211.025Y-43.5
X211.179Y-66.94
X211.22Y-71.12
X211.35Y-62.925
X211.525Y-76.608
X211.925Y-70.508
X211.975Y-66.858
X211.999Y-43.496
X212.05Y-72.833
X213.0Y-43.5
X213.375Y-66.763
X213.575Y-70.533
X213.713Y-72.235
X213.74Y-92.59
X213.81Y-94.41
X213.88Y-91.68
X213.91Y-90.05
X214.0Y-43.5
X214.02Y-60.24
X214.06Y-72.991
X214.213Y-76.647
X214.29Y-93.52
X214.34Y-90.94
X214.913Y-70.522
X214.97Y-103.47
X215.0Y-43.5
X215.203Y-69.253
X215.29Y-68.38
X215.352Y-71.569
X215.95Y-92.2
X216.0Y-43.5
X216.01Y-90.27
X216.02Y-76.58
X216.33Y-93.17
X216.37Y-91.24
X216.76Y-95.95
X216.99Y-78.44
X217.0Y-43.5
X217.5Y-62.205
X218.0Y-43.5
X218.18Y-102.71
X218.69Y-84.83
X219.0Y-43.5
X219.11Y-70.458
X219.15Y-69.633
X219.15Y-73.37
X219.37Y-88.99
X219.58Y-77.86
X219.726Y-68.407
X220.0Y-43.5
X221.62Y-69.09
X221.82Y-81.93
X223.56Y-71.16
X223.977Y-73.343
X224.524Y-77.886
X224.79Y-83.06
X224.89Y-62.39
X224.95Y-81.92
X225.0Y-54.3
X225.06Y-51.32
X225.08Y-61.45
X225.1Y-49.51
X225.19Y-91.63
X225.374Y-77.886
X225.6Y-66.505
X225.6Y-67.355
X226.128Y-77.262
X226.5Y-42.0
X226.5Y-43.0
X226.51Y-69.95
X227.001Y-76.933
X227.488Y-42.995
X227.5Y-42.0
X227.608Y-77.67
X228.5Y-42.0
X228.5Y-43.0
X229.5Y-42.0
X229.5Y-43.0
X230.3Y-68.34
X230.5Y-42.0
X230.5Y-43.0
X231.8Y-72.58
X233.36Y-66.82
X235.17Y-87.63
X237.98Y-86.62
X242.79Y-40.16
X247.33Y-66.32
X247.35Y-87.34
X247.43Y-40.16
T3
X181.96Y-78.5
X184.5Y-78.5
X187.04Y-78.5
X189.58Y-78.5
X192.12Y-78.5
T4
X231.322Y-58.99
X231.322Y-61.022
X231.322Y-63.054
X231.324Y-80.12
X231.324Y-82.152
X231.324Y-84.184
X233.862Y-57.974
X233.862Y-60.006
X233.862Y-62.038
X233.864Y-79.104
X233.864Y-81.136
X233.864Y-83.168
X240.974Y-51.37
X240.974Y-62.546
X240.976Y-72.5
X240.976Y-83.676
X242.498Y-51.37
X242.498Y-62.546
X242.5Y-72.5
X242.5Y-83.676
T5
X228.782Y-50.862
X228.782Y-53.402
X228.782Y-60.514
X228.782Y-63.054
X228.784Y-71.992
X228.784Y-74.532
X228.784Y-81.644
X228.784Y-84.184
T6
X252.277Y-48.894
X252.277Y-65.023
X252.279Y-70.023
X252.279Y-86.152
T2
G00X186.58Y-40.225
M15
G01X186.58Y-39.425
M16
G05
G00X186.58Y-44.555
M15
G01X186.58Y-43.455
M16
G05
G00X195.22Y-40.225
M15
G01X195.22Y-39.425
M16
G05
G00X195.22Y-44.555
M15
G01X195.22Y-43.455
M16
G05
M30
